<?xml version="1.0" standalone="no"?>
<!DOCTYPE svg PUBLIC "-//W3C//DTD SVG 1.1//EN" "http://www.w3.org/Graphics/SVG/1.1/DTD/svg11.dtd" >
<svg>
<metadata>
Created by FontForge 20120731 at Tue Jul  9 10:36:58 2024
 By fw_worker
Copyright (c) 2016, Valentin FRANCOIS (www.valentinfrancois.fr)
Free for personal and commercial use.
Credits are of course appreciated.
</metadata>
<defs>
<font id="Simpleness" horiz-adv-x="600" >
  <font-face 
    font-family="Simpleness-Regular"
    font-weight="700"
    font-stretch="normal"
    units-per-em="1000"
    panose-1="4 5 8 5 0 11 2 2 0 4"
    ascent="800"
    descent="-200"
    x-height="800"
    cap-height="800"
    bbox="-160 -160 800.001 1419.75"
    underline-thickness="160"
    underline-position="-320"
    stemh="160"
    stemv="160"
    unicode-range="U+0020-2260"
  />
<missing-glyph horiz-adv-x="500" 
d="M50 0v533h400v-533h-400zM100 50h300v433h-300v-433z" />
    <glyph glyph-name=".notdef" horiz-adv-x="500" 
d="M50 0v533h400v-533h-400zM100 50h300v433h-300v-433z" />
    <glyph glyph-name="space" unicode=" " horiz-adv-x="320" 
 />
    <glyph glyph-name="exclam" unicode="!" horiz-adv-x="280" 
d="M0 320v480h160v-480h-160zM0 0v160h160v-160h-160z" />
    <glyph glyph-name="quotedbl" unicode="&#x22;" horiz-adv-x="520" 
d="M0 800v320h160v-320h-160zM240 800v320h160v-320h-160z" />
    <glyph glyph-name="percent" unicode="%" 
d="M307.972 800h171.485l-308.516 -800h-170.941v1.40918zM320 0v160h160v-160h-160zM0 640v160h160v-160h-160z" />
    <glyph glyph-name="ampersand" unicode="&#x26;" horiz-adv-x="596" 
d="M179.683 503.432c12.8887 -12.9346 38.168 -23.4316 56.4268 -23.4316h0.141602h240v-240c0 -132.548 -107.452 -240 -240 -240h-0.0576172c-8.45508 0 -22.123 0.864258 -30.5098 1.92773c-4.00488 0.510742 -7.97656 1.11719 -11.916 1.82031
c-9.70312 1.7334 -25.1553 5.70312 -34.4912 8.8623c-3.71777 1.25879 -7.39355 2.60449 -11.0273 4.03711c-1.81641 0.71582 -3.62207 1.4541 -5.41699 2.21289c-3.58984 1.51855 -7.13379 3.12109 -10.6309 4.80664c-3.49805 1.68555 -6.94727 3.45215 -10.3486 5.2998
c-1.7002 0.923828 -3.38867 1.86719 -5.06348 2.83008c-3.35059 1.92773 -6.64941 3.93164 -9.89551 6.0127c-1.62305 1.04102 -3.23242 2.10059 -4.8291 3.17871c-3.19238 2.15723 -6.3291 4.3877 -9.40918 6.69141c-3.08105 2.30371 -6.10352 4.67871 -9.06641 7.125
c-1.48145 1.22266 -2.94824 2.46289 -4.40039 3.71973c-2.15039 1.86328 -4.25684 3.77734 -6.33984 5.71484c-2.13379 1.98438 -4.24316 3.99512 -6.30273 6.05469c-2.06055 2.06055 -4.07129 4.16992 -6.05566 6.30371c-1.9375 2.08301 -3.85059 4.18945 -5.71484 6.33984
c-1.25684 1.45215 -2.49707 2.91895 -3.71973 4.40039c-2.44629 2.96387 -4.82129 5.98633 -7.125 9.06641c-2.30469 3.08105 -4.53516 6.2168 -6.69141 9.40918c-1.07812 1.59668 -2.1377 3.20605 -3.17871 4.8291c-2.08105 3.24707 -4.08594 6.54492 -6.0127 9.89551
c-0.962891 1.6748 -1.90625 3.36328 -2.83008 5.06348c-1.84863 3.40137 -3.61523 6.85156 -5.2998 10.3486c-1.68652 3.49805 -3.28809 7.04199 -4.80664 10.6309c-0.758789 1.79492 -1.49707 3.60059 -2.21289 5.41699c-1.43359 3.63379 -2.7793 7.30957 -4.03711 11.0273
c-3.15918 9.33594 -7.12891 24.7881 -8.86133 34.4902c-0.705078 3.94043 -1.31152 7.91309 -1.82031 11.917c-1.06445 8.40332 -1.92871 22.0977 -1.92871 30.5674s0.864258 22.1641 1.92871 30.5674c0.508789 4.00488 1.11621 7.97656 1.82031 11.917
c1.73242 9.70215 5.70215 25.1543 8.86133 34.4902c1.25879 3.71777 2.60449 7.39355 4.03711 11.0273c0.71582 1.81641 1.4541 3.62207 2.21289 5.41699c1.51855 3.58984 3.12109 7.13379 4.80664 10.6309c1.68555 3.49805 3.45215 6.94727 5.2998 10.3486
c0.923828 1.7002 1.86719 3.38867 2.83008 5.06348c1.92773 3.35059 3.93164 6.64941 6.0127 9.89551c1.04102 1.62305 2.10059 3.23242 3.17871 4.8291c2.15723 3.19238 4.3877 6.3291 6.69141 9.40918c2.30371 3.08105 4.67871 6.10352 7.125 9.06641
c1.22266 1.48145 2.46289 2.94824 3.71973 4.40039c0.857422 0.989258 1.73438 1.96191 2.60742 2.9375c-33.7451 37.6094 -61.1318 109.143 -61.1318 159.672v0.328125c0 132.548 107.452 240 240 240s240 -107.452 240 -240h-160c0 44.1602 -35.8398 80 -80 80
s-80 -35.8398 -80 -80c0 -18.292 10.4971 -43.6348 23.4316 -56.5684zM292.819 183.432c12.9346 12.9385 23.4316 38.2861 23.4316 56.5811c0 44.1768 -35.8535 80.0312 -80.0312 80.0312c-6.17676 0 -16.0107 -1.375 -21.9502 -3.06934
c-1.4541 -0.416016 -2.86914 -0.863281 -4.24512 -1.3418c-2.06445 -0.717773 -4.04102 -1.50195 -5.92871 -2.33691c-1.25879 -0.557617 -2.47852 -1.13477 -3.65918 -1.72949c-0.59082 -0.297852 -1.1709 -0.600586 -1.74121 -0.90625
c-1.93555 -1.03613 -3.75195 -2.11621 -5.46094 -3.21191c-1.60449 -1.0293 -3.1084 -2.07227 -4.5127 -3.11133c-1.06836 -0.791016 -2.08691 -1.58008 -3.04004 -2.35645c-0.447266 -0.364258 -0.878906 -0.725586 -1.2998 -1.08398
c-0.689453 -0.586914 -1.34863 -1.16406 -1.96875 -1.72754c-1 -0.907227 -1.91016 -1.78027 -2.73047 -2.60059s-1.69336 -1.73047 -2.60059 -2.73047c-0.563477 -0.620117 -1.14062 -1.2793 -1.72754 -1.96777c-0.358398 -0.421875 -0.719727 -0.853516 -1.08398 -1.30078
c-0.776367 -0.953125 -1.56543 -1.9707 -2.35645 -3.04004c-1.03906 -1.4043 -2.08203 -2.9082 -3.11133 -4.5127c-1.0957 -1.70898 -2.17578 -3.52539 -3.21191 -5.46094c-0.305664 -0.570312 -0.607422 -1.15039 -0.905273 -1.74121
c-0.597656 -1.18066 -1.1748 -2.40039 -1.73047 -3.65918c-0.834961 -1.8877 -1.61914 -3.86426 -2.33691 -5.92871c-0.480469 -1.37598 -0.927734 -2.79102 -1.3418 -4.24512c-1.66992 -5.89453 -3.02539 -15.6514 -3.02539 -21.7783v-0.203125
c0 -2.70312 0.128906 -5.31934 0.370117 -7.84863c0.162109 -1.68652 0.371094 -3.33496 0.625977 -4.94336c0.12793 -0.804688 0.266602 -1.59961 0.416016 -2.38477c1.92773 -10.0293 8.49805 -24.7754 14.666 -32.916
c0.326172 -0.432617 0.651367 -0.854492 0.974609 -1.26758c3.85352 -4.92773 11.1035 -11.8896 16.1826 -15.54c0.905273 -0.655273 1.84961 -1.30762 2.83301 -1.95703c1.96777 -1.2998 4.09277 -2.58008 6.37598 -3.80273
c0.570312 -0.305664 1.15039 -0.608398 1.74121 -0.90625c1.18066 -0.59668 2.40039 -1.17383 3.65918 -1.72949c1.8877 -0.834961 3.86426 -1.61914 5.92871 -2.33691c1.37598 -0.480469 2.79102 -0.927734 4.24512 -1.3418
c5.91211 -1.66992 15.6963 -3.02539 21.8398 -3.02539c18.3242 0 43.7305 10.4971 56.71 23.4316z" />
    <glyph glyph-name="quotesingle" unicode="'" horiz-adv-x="280" 
d="M0 800v320h160v-320h-160z" />
    <glyph glyph-name="parenleft" unicode="(" horiz-adv-x="440" 
d="M183.432 776.569c-12.9336 -12.8887 -23.4316 -38.168 -23.4316 -56.4277v-0.141602v-639.999v-0.00195312c0 -44.1592 35.8398 -79.999 79.999 -79.999h0.000976562h80v-159.999h-80c-132.548 0 -240 107.451 -240 240v639.999c0 132.549 107.452 240 240 240h80
v-159.999h-80h-0.141602c-18.2588 0 -43.5381 -10.498 -56.4268 -23.4316z" />
    <glyph glyph-name="parenright" unicode=")" horiz-adv-x="440" 
d="M80.001 960c132.547 0 240 -107.451 240 -240v-639.999c0 -132.549 -107.453 -240 -240 -240h-80.001v159.999h80.001c44.1592 0 79.999 35.8408 79.999 80.001v639.999c0 44.1602 -35.8398 80.001 -79.999 80.001h-80.001v159.999h80.001z" />
    <glyph glyph-name="plus" unicode="+" 
d="M0 320v160h160v160h160v-160h160v-160h-160v-160h-160v160h-160z" />
    <glyph glyph-name="comma" unicode="," horiz-adv-x="360" 
d="M80 240h160v-160c0 -132.549 -107.452 -240 -240 -240v160h0.000976562c44.1592 0 79.999 35.8398 79.999 79.999v0.000976562v160z" />
    <glyph glyph-name="hyphen" unicode="-" 
d="M0 320v160h480v-160h-480z" />
    <glyph glyph-name="period" unicode="." horiz-adv-x="280" 
d="M0 0v160h160v-160h-160z" />
    <glyph glyph-name="slash" unicode="/" horiz-adv-x="599" 
d="M479.456 800l-308.515 -800h-170.941v1.41016l307.972 798.59h171.484z" />
    <glyph glyph-name="zero" unicode="0" 
d="M480 240c0 -132.548 -107.451 -240 -240 -240h-240v560c0 132.548 107.452 240 240 240h240v-560zM296.569 183.432c12.9336 12.8887 23.4307 38.168 23.4307 56.4277v0.140625v400h-79.7734v-0.00390625l-0.226562 0.00390625c-44.1602 0 -80 -35.8398 -80 -79.999
v-0.000976562v-400h80h0.141602c18.2598 0 43.5391 10.4971 56.4277 23.4316z" />
    <glyph glyph-name="one" unicode="1" 
d="M400 800h80v-800h-160v626.396c-88.2529 -31.3242 -159.933 -132.75 -160 -226.396h-160c0 220.914 179.086 400 400 400z" />
    <glyph glyph-name="two" unicode="2" 
d="M444.744 434.733l-163.412 -274.733h198.668v-160h-479.999h-0.000976562l240 403.497l68.6523 115.421c0.0566406 0.0947266 0.113281 0.19043 0.169922 0.285156l0.40625 0.682617h-0.00585938c5.9502 10.165 10.7783 27.9736 10.7783 39.751l-0.000976562 0.363281
c0 44.1602 -35.8398 80 -80 80s-80 -35.8398 -80 -80v-80h-160v80c0 132.548 107.452 240 240 240c132.549 0 240 -107.452 240 -240v-0.366211c0 -37.2197 -15.7949 -93.1748 -35.2559 -124.9z" />
    <glyph glyph-name="three" unicode="3" 
d="M240 640c44.1602 0 80 -35.8398 80 -80s-35.8398 -80 -80 -80h-80v-160h80c44.1602 0 80 -35.8398 80 -80s-35.8398 -80 -80 -80h-240v-160h240c132.548 0 240 107.452 240 240v0.328125c0 50.5293 -27.3867 122.062 -61.1318 159.672
c33.7451 37.6094 61.1318 109.143 61.1318 159.672v0.328125c0 132.548 -107.452 240 -240 240h-240v-160h240z" />
    <glyph glyph-name="four" unicode="4" 
d="M400 800h80v-800h-160v240h-320v160c0 220.914 179.086 400 400 400zM160 400h160v226.396c-88.2529 -31.3242 -159.933 -132.75 -160 -226.396z" />
    <glyph glyph-name="five" unicode="5" 
d="M240.227 479.548c132.423 0 239.773 -107.352 239.773 -239.774s-107.351 -239.773 -239.773 -239.773h-240.227v160h240.227c44.0352 0 79.7734 35.7383 79.7734 79.7734s-35.7383 79.7734 -79.7734 79.7734h-218.222v0.453125h-22.0049v480h480v-160h-320v-160.452
h80.2266z" />
    <glyph glyph-name="six" unicode="6" 
d="M480 640l-0.868164 0.000976562c-72.9688 0 -173.95 -41.9893 -225.406 -93.7266c-17.2051 -17.1748 -40.8711 -48.2939 -52.8242 -69.4619c10.7197 1.75879 28.2354 3.18652 39.0986 3.1875c132.548 0 240 -107.452 240 -240s-107.452 -240 -240 -240
s-240 107.452 -240 240v80c0 265.097 214.903 480 480 480v-160zM296.568 296.568c-12.8887 12.9346 -38.168 23.4316 -56.4277 23.4316h-0.140625c-44.1602 0 -80 -35.8398 -80 -80s35.8398 -80.001 80 -80.001s80 35.8408 80 80.001
c0 18.291 -10.4971 43.6348 -23.4316 56.5684z" />
    <glyph glyph-name="seven" unicode="7" horiz-adv-x="597" 
d="M400 800h77.0723l-308.516 -800h-170.941v1.40918l246.269 638.591h-243.884v160h400z" />
    <glyph glyph-name="eight" unicode="8" 
d="M480 560v-0.328125c0 -50.5293 -27.3867 -122.062 -61.1318 -159.672c33.7451 -37.6094 61.1318 -109.143 61.1318 -159.672v-0.328125c0 -132.548 -107.452 -240 -240 -240s-240 107.452 -240 240v0.328125c0 50.5293 27.3867 122.062 61.1318 159.672
c-33.7451 37.6094 -61.1318 109.143 -61.1318 159.671v0.329102c0 132.548 107.452 240 240 240s240 -107.452 240 -240zM183.432 616.568c-12.9346 -12.8887 -23.4316 -38.168 -23.4316 -56.4277v-0.140625c0 -44.1602 35.8398 -80 80 -80s80 35.8398 80 80
s-35.8398 80 -80 80c-18.292 0 -43.6348 -10.4971 -56.5684 -23.4316zM296.568 183.432c12.9346 12.8887 23.4316 38.168 23.4316 56.4268v0.141602c0 44.1602 -35.8398 80 -80 80s-80.001 -35.8398 -80.001 -80s35.8408 -80 80.001 -80
c18.291 0 43.6338 10.4971 56.5684 23.4316z" />
    <glyph glyph-name="nine" unicode="9" 
d="M480 560v-80c0 -265.097 -214.903 -480 -480 -480v160l0.868164 -0.000976562c72.9688 0 173.95 41.9893 225.406 93.7266c17.2051 17.1748 40.8701 48.2939 52.8242 69.4619c-10.7197 -1.75879 -28.2354 -3.18652 -39.0986 -3.1875c-132.548 0 -240 107.452 -240 240
s107.452 240 240 240s240 -107.452 240 -240zM183.432 503.432c12.9336 -12.9346 38.2764 -23.4316 56.5684 -23.4316c44.1553 0 79.9961 35.8369 80 79.9922v0.0078125c0 44.1602 -35.8398 80 -80 80s-80 -35.8398 -80 -80c0 -18.292 10.4971 -43.6348 23.4316 -56.5684z
" />
    <glyph glyph-name="colon" unicode=":" horiz-adv-x="280" 
d="M0 400v160h160v-160h-160zM0 80v160h160v-160h-160z" />
    <glyph glyph-name="semicolon" unicode=";" horiz-adv-x="360" 
d="M80 240h160v-160c0 -132.549 -107.452 -240 -240 -240v160h0.000976562c44.1592 0 79.999 35.8398 79.999 79.999v0.000976562v160zM80 400v160h160v-160h-160z" />
    <glyph glyph-name="equal" unicode="=" 
d="M0 480v160h480v-160h-480zM0 160v160h480v-160h-480z" />
    <glyph glyph-name="question" unicode="?" 
d="M160 0v160h160v-160h-160zM480 560c0 -104.495 -66.7891 -193.376 -160 -226.324v-93.6758h-160v240h80c44.1602 0 80 35.8398 80 80s-35.8398 80 -80 80s-80 -35.8398 -80 -80h-160c0 132.548 107.452 240 240 240s240 -107.452 240 -240z" />
    <glyph glyph-name="A" unicode="A" 
d="M240.5 799.993h239.5v-799.993h-160v320h-160v-320h-160v560c0 132.548 107.452 240 240 240zM320 481v159h-79.5v-0.0078125l-0.5 0.0078125c-44.1602 0 -80 -35.8398 -80 -80v-79h160z" />
    <glyph glyph-name="B" unicode="B" 
d="M480 560v-0.328125c0 -50.5293 -27.3867 -122.062 -61.1318 -159.672c33.7451 -37.6094 61.1318 -109.143 61.1318 -159.672v-0.328125c0 -132.548 -107.451 -240 -240 -240h-240v800h240c132.549 0 240 -107.452 240 -240zM296.568 296.568
c-12.8877 12.9346 -38.168 23.4316 -56.4268 23.4316h-0.141602v160c44.1602 0 80 35.8398 80 80s-35.8398 80 -80 80h-80v-160h80v-160h-80v-160h80c44.1602 0 80 35.8398 80 80c0 18.292 -10.4971 43.6348 -23.4316 56.5684z" />
    <glyph glyph-name="C" unicode="C" 
d="M296.568 183.432c12.9346 12.8887 23.4316 38.168 23.4316 56.4268v0.141602h160c0 -132.548 -107.452 -240 -240 -240s-240 107.452 -240 240v320c0 132.548 107.452 240 240 240s240 -107.452 240 -240h-160c0 44.1602 -35.8398 80 -80 80s-80 -35.8398 -80 -80v-320
c0 -44.1602 35.8398 -80 80 -80c18.292 0 43.6348 10.4971 56.5684 23.4316z" />
    <glyph glyph-name="D" unicode="D" 
d="M240 800c132.548 0 240 -107.452 240 -240v-320c0 -132.548 -107.452 -240 -240 -240h-240v800h240zM296.568 183.432c12.9346 12.8887 23.4316 38.168 23.4316 56.4277v0.140625v320c0 44.1602 -35.8398 80 -80 80h-80v-480h80h0.140625
c18.2598 0 43.5391 10.4971 56.4277 23.4316z" />
    <glyph glyph-name="E" unicode="E" 
d="M480 800v-160h-240c-44.1602 0 -80 -35.8398 -80 -80v-80h160v-160h-160v-80v-80h320v-160h-480v560c0 132.548 107.452 240 240 240h240z" />
    <glyph glyph-name="F" unicode="F" 
d="M0 560c0 132.548 107.452 240 240 240h240v-160h-240c-44.1602 0 -80 -35.8398 -80 -80v-80h160v-160h-160v-80v-240h-160v560z" />
    <glyph glyph-name="G" unicode="G" 
d="M0 560c0 132.548 107.452 240 240 240h240v-160h-240c-44.1602 0 -80 -35.8398 -80 -80v-320c0 -44.1602 35.8398 -80 80 -80h80v160h-80v160h240v-480h-240c-132.548 0 -240 107.452 -240 240v320z" />
    <glyph glyph-name="H" unicode="H" 
d="M320 480v320h160v-800h-160v320h-160v-320h-160v800h160v-320h160z" />
    <glyph glyph-name="I" unicode="I" horiz-adv-x="280" 
d="M0 0v800h160v-800h-160z" />
    <glyph glyph-name="J" unicode="J" 
d="M320 800h160v-560c0 -132.548 -107.452 -240 -240 -240s-240 107.452 -240 240v80h160v-80c0 -44.1602 35.8398 -80 80 -80s80 35.8398 80 80v560z" />
    <glyph glyph-name="K" unicode="K" 
d="M316.519 439.148c97.5586 -54.8184 163.481 -159.277 163.481 -279.148v-160h-160v160c0 88.3193 -71.6807 160 -160 160v-320h-160v800h160v-277.261c20.1357 11.6748 49.8262 34.5176 66.2744 50.9863c51.7373 51.4561 93.7266 152.438 93.7266 225.406
l-0.000976562 0.868164h160c0 -143.83 -63.2666 -272.878 -163.481 -360.852z" />
    <glyph glyph-name="L" unicode="L" 
d="M240 160h240v-160h-240c-132.548 0 -240 107.452 -240 240v560h160v-560c0 -44.1602 35.8398 -80 80 -80z" />
    <glyph glyph-name="M" unicode="M" 
d="M480 800v-226.273v-573.727h-160v413.727l-80 -80v-0.00195312l-80 80v-413.725h-160v625.474v174.526l240 -240l80 80z" />
    <glyph glyph-name="N" unicode="N" 
d="M320 800h160v-800h-139.403h-20.5957h-0.000976562v0.000976562l-160 384v-384.001h-160v800h139.403h20.5967h0.000976562l159.999 -383.998v383.998z" />
    <glyph glyph-name="O" unicode="O" 
d="M240 800c132.549 0 240 -107.452 240 -240v-320c0 -132.548 -107.451 -240 -240 -240c-132.548 0 -240 107.452 -240 240v320c0 132.548 107.452 240 240 240zM296.569 183.432c12.9336 12.8887 23.4307 38.168 23.4307 56.4277v0.140625v320
c0 44.1602 -35.8398 80 -80 80s-80 -35.8398 -80 -80v-320c0 -44.1602 35.8398 -80 80 -80c18.292 0 43.6348 10.4971 56.5693 23.4316z" />
    <glyph glyph-name="P" unicode="P" 
d="M240 800c132.548 0 240 -107.452 240 -240s-107.452 -240 -240 -240h-80v-320h-160v800h240zM296.568 503.432c12.9346 12.9336 23.4316 38.2764 23.4316 56.5684c0 44.1602 -35.8398 80 -80 80h-80v-160h80h0.141602c18.2588 0 43.5381 10.4971 56.4268 23.4316z" />
    <glyph glyph-name="Q" unicode="Q" 
d="M240 800c132.549 0 240 -107.451 240 -240v-560h-160v93.6758c-21.373 -7.54883 -57.1182 -13.6758 -79.7852 -13.6758h-0.214844c-132.549 0 -240 107.451 -240 240v240c0 132.549 107.451 240 240 240zM320 400v160c0 44.1602 -35.8398 80 -80 80s-80 -35.8398 -80 -80
v-240c0 -44.1602 35.8398 -80 80 -80s80 35.8398 80 80v80z" />
    <glyph glyph-name="R" unicode="R" 
d="M480 560c0 -97.6562 -58.3311 -181.682 -142.048 -219.156c78.4102 -77.5381 142.048 -229.965 142.048 -340.239v-0.604492h-160l0.000976562 0.868164c0 72.9688 -41.9893 173.95 -93.7266 225.406c-16.4482 16.4688 -46.1387 39.3105 -66.2744 50.9863v-277.261h-160
v800h240c132.548 0 240 -107.452 240 -240zM160 640v-160h80c44.1602 0 80 35.8398 80 80s-35.8398 80 -80 80h-80z" />
    <glyph glyph-name="S" unicode="S" 
d="M240 640c-44.1602 0 -80 -35.8398 -80 -80s35.8398 -80 80 -80v-0.00976562c132.548 0 240 -107.452 240 -240s-107.452 -240 -240 -240h-240v160.01h240v-0.00976562c44.1602 0 80 35.8398 80 80s-35.8398 80 -80 80v0.00976562c-132.548 0 -240 107.452 -240 240
s107.452 240 240 240h240v-160h-240z" />
    <glyph glyph-name="T" unicode="T" 
d="M480 800v-160h-160v-640h-160v640h-160v160h160h160h160z" />
    <glyph glyph-name="U" unicode="U" 
d="M320 240v560h160v-560c0 -132.549 -107.452 -240 -240 -240s-240 107.451 -240 240v560h160v-560c0 -44.1602 35.8398 -80 80 -80s80 35.8398 80 80z" />
    <glyph glyph-name="V" unicode="V" 
d="M320.122 800h160v-480h-0.12207c0 -176.69 -143.203 -319.933 -319.878 -319.999v-0.000976562h-160.122v240h0.12207v560h160v-639.999c88.2529 0.0664062 159.878 71.7451 159.878 159.998v0.000976562h0.12207v480z" />
    <glyph glyph-name="W" unicode="W" 
d="M480 40.8223v-40.8223l-25.4688 0.000976562c-75.3125 0.00292969 -167.7 52.5283 -206.222 117.244l-8.30957 13.96l-8.30957 -13.9609c-38.5234 -64.7188 -130.915 -117.244 -206.231 -117.244h-25.459v0.00488281v800h160v-490.384l80 134.4l80 -134.399v490.383h160
v-759.183z" />
    <glyph glyph-name="X" unicode="X" 
d="M480 800l-154.257 -400l154.257 -399.999v-0.000976562h-171.485l-68.5146 177.664l-68.5146 -177.664h-171.485l154.258 400l-154.258 399.999v0.000976562h171.485l68.5146 -177.665l68.5146 177.665h171.485z" />
    <glyph glyph-name="Y" unicode="Y" 
d="M308.516 800h171.484v-0.00195312l-308.515 -799.998h-171.485l179.739 466.074c-55.168 36.4619 -98.916 84.0869 -131.245 142.874s-48.4941 122.471 -48.4941 191.052h160v-0.326172l-0.000976562 -0.325195c0 -27.3633 6.86523 -57.5557 20.5967 -90.5781
c13.7314 -33.0215 30.2979 -59.1807 49.6992 -78.4766c3.05469 -3.04492 6.17383 -5.99902 9.35645 -8.86328z" />
    <glyph glyph-name="Z" unicode="Z" 
d="M0 800h480v-160l0.00292969 -1.34277c0 -33.708 -10.1533 -86.4697 -22.6641 -117.771c-10.8037 -26.5547 -34.5879 -65.8799 -53.0908 -87.7793c-38.8027 -46.291 -82.2529 -74.4707 -105.596 -89.6104c-2.27051 -1.47266 -4.95117 -3.21094 -6.68457 -4.37012
c-6.95703 -6.09668 -14.4775 -10.9746 -23.5566 -16.8633c-56.3066 -36.5186 -108.411 -81.4512 -108.411 -162.264h-80h-80c-0.00195312 0.371094 -0.00292969 0.972656 -0.00292969 1.34277c0 33.708 10.1533 86.4697 22.6641 117.771
c10.8027 26.5557 34.5879 65.8809 53.0908 87.7793c38.8037 46.291 82.2529 74.4707 105.596 89.6104c2.27051 1.47266 4.95215 3.21094 6.68555 4.37012c6.95605 6.09668 14.4766 10.9746 23.5566 16.8633c56.3057 36.5186 108.41 81.4512 108.41 162.264h-320v160zM0 0
v160h80h400v-160h-480z" />
    <glyph glyph-name="bracketleft" unicode="[" horiz-adv-x="440" 
d="M320 800.001h-160v-800.001h160v-159.999h-160h-160v1120h160h160v-159.999z" />
    <glyph glyph-name="backslash" unicode="\" horiz-adv-x="599" 
d="M0 800l308.515 -800h170.941v1.41016l-307.972 798.59h-171.484z" />
    <glyph glyph-name="bracketright" unicode="]" horiz-adv-x="440" 
d="M0 800v159.999h160h160.001v-1120h-160.001h-160v159.999h160v800.001h-160z" />
    <glyph glyph-name="asciicircum" unicode="^" horiz-adv-x="599" 
d="M0 880v183.774l240 135.607l239.998 -135.607l0.000976562 -183.773l-239.999 135.606z" />
    <glyph glyph-name="underscore" unicode="_" horiz-adv-x="860" 
d="M1 0v160h739v-160h-739z" />
    <glyph glyph-name="grave" unicode="`" 
d="M0 1199.75l480 -151.93v-167.823l-480 151.931v167.822z" />
    <glyph glyph-name="a" unicode="a" 
d="M240.5 799.993h239.5v-799.993h-160v320h-160v-320h-160v560c0 132.548 107.452 240 240 240zM320 481v159h-79.5v-0.0078125l-0.5 0.0078125c-44.1602 0 -80 -35.8398 -80 -80v-79h160z" />
    <glyph glyph-name="b" unicode="b" 
d="M480 560v-0.328125c0 -50.5293 -27.3867 -122.062 -61.1318 -159.672c33.7451 -37.6094 61.1318 -109.143 61.1318 -159.672v-0.328125c0 -132.548 -107.451 -240 -240 -240h-240v800h240c132.549 0 240 -107.452 240 -240zM296.568 296.568
c-12.8877 12.9346 -38.168 23.4316 -56.4268 23.4316h-0.141602v160c44.1602 0 80 35.8398 80 80s-35.8398 80 -80 80h-80v-160h80v-160h-80v-160h80c44.1602 0 80 35.8398 80 80c0 18.292 -10.4971 43.6348 -23.4316 56.5684z" />
    <glyph glyph-name="c" unicode="c" 
d="M296.568 183.432c12.9346 12.8887 23.4316 38.168 23.4316 56.4268v0.141602h160c0 -132.548 -107.452 -240 -240 -240s-240 107.452 -240 240v320c0 132.548 107.452 240 240 240s240 -107.452 240 -240h-160c0 44.1602 -35.8398 80 -80 80s-80 -35.8398 -80 -80v-320
c0 -44.1602 35.8398 -80 80 -80c18.292 0 43.6348 10.4971 56.5684 23.4316z" />
    <glyph glyph-name="d" unicode="d" 
d="M240 800c132.548 0 240 -107.452 240 -240v-320c0 -132.548 -107.452 -240 -240 -240h-240v800h240zM296.568 183.432c12.9346 12.8887 23.4316 38.168 23.4316 56.4277v0.140625v320c0 44.1602 -35.8398 80 -80 80h-80v-480h80h0.140625
c18.2598 0 43.5391 10.4971 56.4277 23.4316z" />
    <glyph glyph-name="e" unicode="e" 
d="M480 800v-160h-240c-44.1602 0 -80 -35.8398 -80 -80v-80h160v-160h-160v-80v-80h320v-160h-480v560c0 132.548 107.452 240 240 240h240z" />
    <glyph glyph-name="f" unicode="f" 
d="M0 560c0 132.548 107.452 240 240 240h240v-160h-240c-44.1602 0 -80 -35.8398 -80 -80v-80h160v-160h-160v-80v-240h-160v560z" />
    <glyph glyph-name="g" unicode="g" 
d="M0 560c0 132.548 107.452 240 240 240h240v-160h-240c-44.1602 0 -80 -35.8398 -80 -80v-320c0 -44.1602 35.8398 -80 80 -80h80v160h-80v160h240v-480h-240c-132.548 0 -240 107.452 -240 240v320z" />
    <glyph glyph-name="h" unicode="h" 
d="M320 480v320h160v-800h-160v320h-160v-320h-160v800h160v-320h160z" />
    <glyph glyph-name="i" unicode="i" horiz-adv-x="280" 
d="M0 0v800h160v-800h-160z" />
    <glyph glyph-name="j" unicode="j" 
d="M320 800h160v-560c0 -132.548 -107.452 -240 -240 -240s-240 107.452 -240 240v80h160v-80c0 -44.1602 35.8398 -80 80 -80s80 35.8398 80 80v560z" />
    <glyph glyph-name="k" unicode="k" 
d="M316.519 439.148c97.5586 -54.8184 163.481 -159.277 163.481 -279.148v-160h-160v160c0 88.3193 -71.6807 160 -160 160v-320h-160v800h160v-277.261c20.1357 11.6748 49.8262 34.5176 66.2744 50.9863c51.7373 51.4561 93.7266 152.438 93.7266 225.406
l-0.000976562 0.868164h160c0 -143.83 -63.2666 -272.878 -163.481 -360.852z" />
    <glyph glyph-name="l" unicode="l" 
d="M240 160h240v-160h-240c-132.548 0 -240 107.452 -240 240v560h160v-560c0 -44.1602 35.8398 -80 80 -80z" />
    <glyph glyph-name="m" unicode="m" 
d="M480 800v-226.273v-573.727h-160v413.727l-80 -80v-0.00195312l-80 80v-413.725h-160v625.474v174.526l240 -240l80 80z" />
    <glyph glyph-name="n" unicode="n" 
d="M320 800h160v-800h-139.403h-20.5957h-0.000976562v0.000976562l-160 384v-384.001h-160v800h139.403h20.5967h0.000976562l159.999 -383.998v383.998z" />
    <glyph glyph-name="o" unicode="o" 
d="M240 800c132.549 0 240 -107.452 240 -240v-320c0 -132.548 -107.451 -240 -240 -240c-132.548 0 -240 107.452 -240 240v320c0 132.548 107.452 240 240 240zM296.569 183.432c12.9336 12.8887 23.4307 38.168 23.4307 56.4277v0.140625v320
c0 44.1602 -35.8398 80 -80 80s-80 -35.8398 -80 -80v-320c0 -44.1602 35.8398 -80 80 -80c18.292 0 43.6348 10.4971 56.5693 23.4316z" />
    <glyph glyph-name="p" unicode="p" 
d="M240 800c132.548 0 240 -107.452 240 -240s-107.452 -240 -240 -240h-80v-320h-160v800h240zM296.568 503.432c12.9346 12.9336 23.4316 38.2764 23.4316 56.5684c0 44.1602 -35.8398 80 -80 80h-80v-160h80h0.141602c18.2588 0 43.5381 10.4971 56.4268 23.4316z" />
    <glyph glyph-name="q" unicode="q" 
d="M240 800c132.549 0 240 -107.451 240 -240v-560h-160v93.6758c-21.373 -7.54883 -57.1182 -13.6758 -79.7852 -13.6758h-0.214844c-132.549 0 -240 107.451 -240 240v240c0 132.549 107.451 240 240 240zM320 400v160c0 44.1602 -35.8398 80 -80 80s-80 -35.8398 -80 -80
v-240c0 -44.1602 35.8398 -80 80 -80s80 35.8398 80 80v80z" />
    <glyph glyph-name="r" unicode="r" 
d="M480 560c0 -97.6562 -58.3311 -181.682 -142.048 -219.156c78.4102 -77.5381 142.048 -229.965 142.048 -340.239v-0.604492h-160l0.000976562 0.868164c0 72.9688 -41.9893 173.95 -93.7266 225.406c-16.4482 16.4688 -46.1387 39.3105 -66.2744 50.9863v-277.261h-160
v800h240c132.548 0 240 -107.452 240 -240zM160 640v-160h80c44.1602 0 80 35.8398 80 80s-35.8398 80 -80 80h-80z" />
    <glyph glyph-name="s" unicode="s" 
d="M240 640c-44.1602 0 -80 -35.8398 -80 -80s35.8398 -80 80 -80v-0.00976562c132.548 0 240 -107.452 240 -240s-107.452 -240 -240 -240h-240v160.01h240v-0.00976562c44.1602 0 80 35.8398 80 80s-35.8398 80 -80 80v0.00976562c-132.548 0 -240 107.452 -240 240
s107.452 240 240 240h240v-160h-240z" />
    <glyph glyph-name="t" unicode="t" 
d="M480 800v-160h-160v-640h-160v640h-160v160h160h160h160z" />
    <glyph glyph-name="u" unicode="u" 
d="M320 240v560h160v-560c0 -132.549 -107.452 -240 -240 -240s-240 107.451 -240 240v560h160v-560c0 -44.1602 35.8398 -80 80 -80s80 35.8398 80 80z" />
    <glyph glyph-name="v" unicode="v" 
d="M320.122 800h160v-480h-0.12207c0 -176.69 -143.203 -319.933 -319.878 -319.999v-0.000976562h-160.122v240h0.12207v560h160v-639.999c88.2529 0.0664062 159.878 71.7451 159.878 159.998v0.000976562h0.12207v480z" />
    <glyph glyph-name="w" unicode="w" 
d="M480 40.8223v-40.8223l-25.4688 0.000976562c-75.3125 0.00292969 -167.7 52.5283 -206.222 117.244l-8.30957 13.96l-8.30957 -13.9609c-38.5234 -64.7188 -130.915 -117.244 -206.231 -117.244h-25.459v0.00488281v800h160v-490.384l80 134.4l80 -134.399v490.383h160
v-759.183z" />
    <glyph glyph-name="x" unicode="x" 
d="M480 800l-154.257 -400l154.257 -399.999v-0.000976562h-171.485l-68.5146 177.664l-68.5146 -177.664h-171.485l154.258 400l-154.258 399.999v0.000976562h171.485l68.5146 -177.665l68.5146 177.665h171.485z" />
    <glyph glyph-name="y" unicode="y" 
d="M308.516 800h171.484v-0.00195312l-308.515 -799.998h-171.485l179.739 466.074c-55.168 36.4619 -98.916 84.0869 -131.245 142.874s-48.4941 122.471 -48.4941 191.052h160v-0.326172l-0.000976562 -0.325195c0 -27.3633 6.86523 -57.5557 20.5967 -90.5781
c13.7314 -33.0215 30.2979 -59.1807 49.6992 -78.4766c3.05469 -3.04492 6.17383 -5.99902 9.35645 -8.86328z" />
    <glyph glyph-name="z" unicode="z" 
d="M0 800h480v-160l0.00292969 -1.34277c0 -33.708 -10.1533 -86.4697 -22.6641 -117.771c-10.8037 -26.5547 -34.5879 -65.8799 -53.0908 -87.7793c-38.8027 -46.291 -82.2529 -74.4707 -105.596 -89.6104c-2.27051 -1.47266 -4.95117 -3.21094 -6.68457 -4.37012
c-6.95703 -6.09668 -14.4775 -10.9746 -23.5566 -16.8633c-56.3066 -36.5186 -108.411 -81.4512 -108.411 -162.264h-80h-80c-0.00195312 0.371094 -0.00292969 0.972656 -0.00292969 1.34277c0 33.708 10.1533 86.4697 22.6641 117.771
c10.8027 26.5557 34.5879 65.8809 53.0908 87.7793c38.8037 46.291 82.2529 74.4707 105.596 89.6104c2.27051 1.47266 4.95215 3.21094 6.68555 4.37012c6.95605 6.09668 14.4766 10.9746 23.5566 16.8633c56.3057 36.5186 108.41 81.4512 108.41 162.264h-320v160zM0 0
v160h80h400v-160h-480z" />
    <glyph glyph-name="bar" unicode="|" horiz-adv-x="280" 
d="M0 0v800h160v-800h-160z" />
    <glyph glyph-name="asciitilde" unicode="~" 
d="M480 1063v-160c-160 80 -320 -80 -480 0v160c160 -80 320 80 480 0z" />
    <glyph glyph-name="dieresis" unicode="&#xa8;" horiz-adv-x="860" 
d="M260 880v160h160v-160h-160zM580 880v160h160v-160h-160z" />
    <glyph glyph-name="uni00AD" unicode="&#xad;" horiz-adv-x="440" 
d="M0 320v160h320v-160h-320z" />
    <glyph glyph-name="acute" unicode="&#xb4;" 
d="M480 1197.75v-167.822l-480 -151.931v167.824l480 151.93v-0.000976562z" />
    <glyph glyph-name="Agrave" unicode="&#xc0;" 
d="M0 1179.75l480 -151.93v-167.823l-480 151.931v167.822zM240.5 799.993h239.5v-799.993h-160v320h-160v-320h-160v560c0 132.548 107.452 240 240 240zM320 481v159h-79.5v-0.0078125l-0.5 0.0078125c-44.1602 0 -80 -35.8398 -80 -80v-79h160z" />
    <glyph glyph-name="Aacute" unicode="&#xc1;" 
d="M480 1179.75v-167.822l-480 -151.931v167.824l480 151.93v-0.000976562zM240.5 799.993h239.5v-799.993h-160v320h-160v-320h-160v560c0 132.548 107.452 240 240 240zM320 481v159h-79.5v-0.0078125l-0.5 0.0078125c-44.1602 0 -80 -35.8398 -80 -80v-79h160z" />
    <glyph glyph-name="Acircumflex" unicode="&#xc2;" 
d="M0 860v183.774l240 135.607l239.998 -135.607l0.00195312 -183.773l-240 135.606zM240.5 799.993h239.5v-799.993h-160v320h-160v-320h-160v560c0 132.548 107.452 240 240 240zM320 481v159h-79.5v-0.0078125l-0.5 0.0078125c-44.1602 0 -80 -35.8398 -80 -80v-79h160z
" />
    <glyph glyph-name="Atilde" unicode="&#xc3;" 
d="M480 1043.09v-160c-160 80 -320 -80 -480 0v160c160 -80 320 80 480 0zM240.5 799.993h239.5v-799.993h-160v320h-160v-320h-160v560c0 132.548 107.452 240 240 240zM320 481v159h-79.5v-0.0078125l-0.5 0.0078125c-44.1602 0 -80 -35.8398 -80 -80v-79h160z" />
    <glyph glyph-name="Adieresis" unicode="&#xc4;" 
d="M0 860v160h160v-160h-160zM320 860v160h160v-160h-160zM240.5 799.993h239.5v-799.993h-160v320h-160v-320h-160v560c0 132.548 107.452 240 240 240zM320 481v159h-79.5v-0.0078125l-0.5 0.0078125c-44.1602 0 -80 -35.8398 -80 -80v-79h160z" />
    <glyph glyph-name="AE" unicode="&#xc6;" horiz-adv-x="920" 
d="M560 800h240.001v-160h-240.001c-44.1602 0 -80 -35.8398 -80 -80v-80h160v-160h-160v-160h320v-160h-480v320h-160v-320h-160v560c0 132.549 107.451 240 240 240l0.5 -0.00585938h318.998zM320 481v159h-79.5v-0.0078125l-0.5 0.0078125
c-44.1602 0 -80 -35.8398 -80 -80v-79h160z" />
    <glyph glyph-name="Ccedilla" unicode="&#xc7;" 
d="M296.568 183.432c12.9346 12.8877 23.4316 38.168 23.4316 56.4268v0.141602h160c0 -104.494 -66.7891 -193.375 -160 -226.324v-173.676h-160v173.676c-93.2109 32.9492 -160 121.83 -160 226.324v320c0 132.548 107.452 240 240 240s240 -107.452 240 -240h-160
c0 44.1602 -35.8398 80 -80 80s-80 -35.8398 -80 -80v-320c0 -44.1602 35.8398 -80 80 -80c18.292 0 43.6348 10.4971 56.5684 23.4316z" />
    <glyph glyph-name="Egrave" unicode="&#xc8;" 
d="M0 1179.75l480 -151.93v-167.823l-480 151.931v167.822zM480 800v-160h-240c-44.1602 0 -80 -35.8398 -80 -80v-80h160v-160h-160v-80v-80h320v-160h-480v560c0 132.548 107.452 240 240 240h240z" />
    <glyph glyph-name="Eacute" unicode="&#xc9;" 
d="M480 1179.75v-167.822l-480 -151.931v167.824l480 151.93v-0.000976562zM480 800v-160h-240c-44.1602 0 -80 -35.8398 -80 -80v-80h160v-160h-160v-80v-80h320v-160h-480v560c0 132.548 107.452 240 240 240h240z" />
    <glyph glyph-name="Ecircumflex" unicode="&#xca;" 
d="M0 860v183.774l240 135.607l239.998 -135.607l0.00195312 -183.773l-240 135.606zM480 800v-160h-240c-44.1602 0 -80 -35.8398 -80 -80v-80h160v-160h-160v-80v-80h320v-160h-480v560c0 132.548 107.452 240 240 240h240z" />
    <glyph glyph-name="Edieresis" unicode="&#xcb;" 
d="M0 860v160h160v-160h-160zM320 860v160h160v-160h-160zM480 800v-160h-240c-44.1602 0 -80 -35.8398 -80 -80v-80h160v-160h-160v-80v-80h320v-160h-480v560c0 132.548 107.452 240 240 240h240z" />
    <glyph glyph-name="Igrave" unicode="&#xcc;" 
d="M160 0v800h160v-800h-160zM0 1179.75l480 -151.93v-167.823l-480 151.931v167.822z" />
    <glyph glyph-name="Iacute" unicode="&#xcd;" 
d="M320 0v800h-160v-800h160zM480 1179.75l-480 -151.93v-167.823l480 151.931v167.822z" />
    <glyph glyph-name="Icircumflex" unicode="&#xce;" 
d="M160 0v800h160v-800h-160zM0 860v183.774l240 135.607l239.998 -135.607l0.00195312 -183.773l-240 135.606z" />
    <glyph glyph-name="Idieresis" unicode="&#xcf;" 
d="M160 0v800h160v-800h-160zM0 860v160h160v-160h-160zM320 860v160h160v-160h-160z" />
    <glyph glyph-name="Ntilde" unicode="&#xd1;" 
d="M480 1043.09v-160c-160 80 -320 -80 -480 0v160c160 -80 320 80 480 0zM320 800h160v-800h-139.403h-20.5957h-0.000976562v0.000976562l-160 384v-384.001h-160v800h139.403h20.5967h0.000976562l159.999 -383.998v383.998z" />
    <glyph glyph-name="Ograve" unicode="&#xd2;" 
d="M0 1179.75l480 -151.93v-167.823l-480 151.931v167.822zM240 800c132.549 0 240 -107.452 240 -240v-320c0 -132.548 -107.451 -240 -240 -240c-132.548 0 -240 107.452 -240 240v320c0 132.548 107.452 240 240 240zM296.569 183.432
c12.9336 12.8887 23.4307 38.168 23.4307 56.4277v0.140625v320c0 44.1602 -35.8398 80 -80 80s-80 -35.8398 -80 -80v-320c0 -44.1602 35.8398 -80 80 -80c18.292 0 43.6348 10.4971 56.5693 23.4316z" />
    <glyph glyph-name="Oacute" unicode="&#xd3;" 
d="M480 1179.75v-167.822l-480 -151.931v167.824l480 151.93v-0.000976562zM240 800c132.549 0 240 -107.452 240 -240v-320c0 -132.548 -107.451 -240 -240 -240c-132.548 0 -240 107.452 -240 240v320c0 132.548 107.452 240 240 240zM296.569 183.432
c12.9336 12.8887 23.4307 38.168 23.4307 56.4277v0.140625v320c0 44.1602 -35.8398 80 -80 80s-80 -35.8398 -80 -80v-320c0 -44.1602 35.8398 -80 80 -80c18.292 0 43.6348 10.4971 56.5693 23.4316z" />
    <glyph glyph-name="Ocircumflex" unicode="&#xd4;" 
d="M0 860v183.774l240 135.607l239.998 -135.607l0.00195312 -183.773l-240 135.606zM240 800c132.549 0 240 -107.452 240 -240v-320c0 -132.548 -107.451 -240 -240 -240c-132.548 0 -240 107.452 -240 240v320c0 132.548 107.452 240 240 240zM296.569 183.432
c12.9336 12.8887 23.4307 38.168 23.4307 56.4277v0.140625v320c0 44.1602 -35.8398 80 -80 80s-80 -35.8398 -80 -80v-320c0 -44.1602 35.8398 -80 80 -80c18.292 0 43.6348 10.4971 56.5693 23.4316z" />
    <glyph glyph-name="Otilde" unicode="&#xd5;" 
d="M480 1043.09v-160c-160 80 -320 -80 -480 0v160c160 -80 320 80 480 0zM240 800c132.549 0 240 -107.452 240 -240v-320c0 -132.548 -107.451 -240 -240 -240c-132.548 0 -240 107.452 -240 240v320c0 132.548 107.452 240 240 240zM296.569 183.432
c12.9336 12.8887 23.4307 38.168 23.4307 56.4277v0.140625v320c0 44.1602 -35.8398 80 -80 80s-80 -35.8398 -80 -80v-320c0 -44.1602 35.8398 -80 80 -80c18.292 0 43.6348 10.4971 56.5693 23.4316z" />
    <glyph glyph-name="Odieresis" unicode="&#xd6;" 
d="M0 860v160h160v-160h-160zM320 860v160h160v-160h-160zM240 800c132.549 0 240 -107.452 240 -240v-320c0 -132.548 -107.451 -240 -240 -240c-132.548 0 -240 107.452 -240 240v320c0 132.548 107.452 240 240 240zM296.569 183.432
c12.9336 12.8887 23.4307 38.168 23.4307 56.4277v0.140625v320c0 44.1602 -35.8398 80 -80 80s-80 -35.8398 -80 -80v-320c0 -44.1602 35.8398 -80 80 -80c18.292 0 43.6348 10.4971 56.5693 23.4316z" />
    <glyph glyph-name="Ugrave" unicode="&#xd9;" 
d="M0 1179.75l480 -151.93v-167.823l-480 151.931v167.822zM320 240v560h160v-560c0 -132.549 -107.452 -240 -240 -240s-240 107.451 -240 240v560h160v-560c0 -44.1602 35.8398 -80 80 -80s80 35.8398 80 80z" />
    <glyph glyph-name="Uacute" unicode="&#xda;" 
d="M480 1179.75v-167.822l-480 -151.931v167.824l480 151.93v-0.000976562zM320 240v560h160v-560c0 -132.549 -107.452 -240 -240 -240s-240 107.451 -240 240v560h160v-560c0 -44.1602 35.8398 -80 80 -80s80 35.8398 80 80z" />
    <glyph glyph-name="Ucircumflex" unicode="&#xdb;" 
d="M0 860v183.774l240 135.607l239.998 -135.607l0.00195312 -183.773l-240 135.606zM320 240v560h160v-560c0 -132.549 -107.452 -240 -240 -240s-240 107.451 -240 240v560h160v-560c0 -44.1602 35.8398 -80 80 -80s80 35.8398 80 80z" />
    <glyph glyph-name="Udieresis" unicode="&#xdc;" 
d="M0 860v160h160v-160h-160zM320 860v160h160v-160h-160zM320 240v560h160v-560c0 -132.549 -107.452 -240 -240 -240s-240 107.451 -240 240v560h160v-560c0 -44.1602 35.8398 -80 80 -80s80 35.8398 80 80z" />
    <glyph glyph-name="agrave" unicode="&#xe0;" 
d="M0 1179.75l480 -151.93v-167.823l-480 151.931v167.822zM240.5 799.993h239.5v-799.993h-160v320h-160v-320h-160v560c0 132.548 107.452 240 240 240zM320 481v159h-79.5v-0.0078125l-0.5 0.0078125c-44.1602 0 -80 -35.8398 -80 -80v-79h160z" />
    <glyph glyph-name="aacute" unicode="&#xe1;" 
d="M480 1179.75v-167.822l-480 -151.931v167.824l480 151.93v-0.000976562zM240.5 799.993h239.5v-799.993h-160v320h-160v-320h-160v560c0 132.548 107.452 240 240 240zM320 481v159h-79.5v-0.0078125l-0.5 0.0078125c-44.1602 0 -80 -35.8398 -80 -80v-79h160z" />
    <glyph glyph-name="acircumflex" unicode="&#xe2;" 
d="M0 860v183.774l240 135.607l239.998 -135.607l0.00195312 -183.773l-240 135.606zM240.5 799.993h239.5v-799.993h-160v320h-160v-320h-160v560c0 132.548 107.452 240 240 240zM320 481v159h-79.5v-0.0078125l-0.5 0.0078125c-44.1602 0 -80 -35.8398 -80 -80v-79h160z
" />
    <glyph glyph-name="atilde" unicode="&#xe3;" 
d="M480 1043.09v-160c-160 80 -320 -80 -480 0v160c160 -80 320 80 480 0zM240.5 799.993h239.5v-799.993h-160v320h-160v-320h-160v560c0 132.548 107.452 240 240 240zM320 481v159h-79.5v-0.0078125l-0.5 0.0078125c-44.1602 0 -80 -35.8398 -80 -80v-79h160z" />
    <glyph glyph-name="adieresis" unicode="&#xe4;" 
d="M0 860v160h160v-160h-160zM320 860v160h160v-160h-160zM240.5 799.993h239.5v-799.993h-160v320h-160v-320h-160v560c0 132.548 107.452 240 240 240zM320 481v159h-79.5v-0.0078125l-0.5 0.0078125c-44.1602 0 -80 -35.8398 -80 -80v-79h160z" />
    <glyph glyph-name="ae" unicode="&#xe6;" horiz-adv-x="920" 
d="M560 800h240.001v-160h-240.001c-44.1602 0 -80 -35.8398 -80 -80v-80h160v-160h-160v-160h320v-160h-480v320h-160v-320h-160v560c0 132.549 107.451 240 240 240l0.5 -0.00585938h318.998zM320 481v159h-79.5v-0.0078125l-0.5 0.0078125
c-44.1602 0 -80 -35.8398 -80 -80v-79h160z" />
    <glyph glyph-name="ccedilla" unicode="&#xe7;" 
d="M296.568 183.432c12.9346 12.8877 23.4316 38.168 23.4316 56.4268v0.141602h160c0 -104.494 -66.7891 -193.375 -160 -226.324v-173.676h-160v173.676c-93.2109 32.9492 -160 121.83 -160 226.324v320c0 132.548 107.452 240 240 240s240 -107.452 240 -240h-160
c0 44.1602 -35.8398 80 -80 80s-80 -35.8398 -80 -80v-320c0 -44.1602 35.8398 -80 80 -80c18.292 0 43.6348 10.4971 56.5684 23.4316z" />
    <glyph glyph-name="egrave" unicode="&#xe8;" 
d="M0 1179.75l480 -151.93v-167.823l-480 151.931v167.822zM480 800v-160h-240c-44.1602 0 -80 -35.8398 -80 -80v-80h160v-160h-160v-80v-80h320v-160h-480v560c0 132.548 107.452 240 240 240h240z" />
    <glyph glyph-name="eacute" unicode="&#xe9;" 
d="M480 1179.75v-167.822l-480 -151.931v167.824l480 151.93v-0.000976562zM480 800v-160h-240c-44.1602 0 -80 -35.8398 -80 -80v-80h160v-160h-160v-80v-80h320v-160h-480v560c0 132.548 107.452 240 240 240h240z" />
    <glyph glyph-name="ecircumflex" unicode="&#xea;" 
d="M0 860v183.774l240 135.607l239.998 -135.607l0.00195312 -183.773l-240 135.606zM480 800v-160h-240c-44.1602 0 -80 -35.8398 -80 -80v-80h160v-160h-160v-80v-80h320v-160h-480v560c0 132.548 107.452 240 240 240h240z" />
    <glyph glyph-name="edieresis" unicode="&#xeb;" 
d="M0 860v160h160v-160h-160zM320 860v160h160v-160h-160zM480 800v-160h-240c-44.1602 0 -80 -35.8398 -80 -80v-80h160v-160h-160v-80v-80h320v-160h-480v560c0 132.548 107.452 240 240 240h240z" />
    <glyph glyph-name="igrave" unicode="&#xec;" 
d="M160 0v800h160v-800h-160zM0 1179.75l480 -151.93v-167.823l-480 151.931v167.822z" />
    <glyph glyph-name="iacute" unicode="&#xed;" 
d="M320 0v800h-160v-800h160zM480 1179.75l-480 -151.93v-167.823l480 151.931v167.822z" />
    <glyph glyph-name="icircumflex" unicode="&#xee;" 
d="M160 0v800h160v-800h-160zM0 860v183.774l240 135.607l239.998 -135.607l0.00195312 -183.773l-240 135.606z" />
    <glyph glyph-name="idieresis" unicode="&#xef;" 
d="M160 0v800h160v-800h-160zM0 860v160h160v-160h-160zM320 860v160h160v-160h-160z" />
    <glyph glyph-name="ntilde" unicode="&#xf1;" 
d="M480 1043.09v-160c-160 80 -320 -80 -480 0v160c160 -80 320 80 480 0zM320 800h160v-800h-139.403h-20.5957h-0.000976562v0.000976562l-160 384v-384.001h-160v800h139.403h20.5967h0.000976562l159.999 -383.998v383.998z" />
    <glyph glyph-name="ograve" unicode="&#xf2;" 
d="M0 1179.75l480 -151.93v-167.823l-480 151.931v167.822zM240 800c132.549 0 240 -107.452 240 -240v-320c0 -132.548 -107.451 -240 -240 -240c-132.548 0 -240 107.452 -240 240v320c0 132.548 107.452 240 240 240zM296.569 183.432
c12.9336 12.8887 23.4307 38.168 23.4307 56.4277v0.140625v320c0 44.1602 -35.8398 80 -80 80s-80 -35.8398 -80 -80v-320c0 -44.1602 35.8398 -80 80 -80c18.292 0 43.6348 10.4971 56.5693 23.4316z" />
    <glyph glyph-name="oacute" unicode="&#xf3;" 
d="M480 1179.75v-167.822l-480 -151.931v167.824l480 151.93v-0.000976562zM240 800c132.549 0 240 -107.452 240 -240v-320c0 -132.548 -107.451 -240 -240 -240c-132.548 0 -240 107.452 -240 240v320c0 132.548 107.452 240 240 240zM296.569 183.432
c12.9336 12.8887 23.4307 38.168 23.4307 56.4277v0.140625v320c0 44.1602 -35.8398 80 -80 80s-80 -35.8398 -80 -80v-320c0 -44.1602 35.8398 -80 80 -80c18.292 0 43.6348 10.4971 56.5693 23.4316z" />
    <glyph glyph-name="ocircumflex" unicode="&#xf4;" 
d="M0 860v183.774l240 135.607l239.998 -135.607l0.00195312 -183.773l-240 135.606zM240 800c132.549 0 240 -107.452 240 -240v-320c0 -132.548 -107.451 -240 -240 -240c-132.548 0 -240 107.452 -240 240v320c0 132.548 107.452 240 240 240zM296.569 183.432
c12.9336 12.8887 23.4307 38.168 23.4307 56.4277v0.140625v320c0 44.1602 -35.8398 80 -80 80s-80 -35.8398 -80 -80v-320c0 -44.1602 35.8398 -80 80 -80c18.292 0 43.6348 10.4971 56.5693 23.4316z" />
    <glyph glyph-name="otilde" unicode="&#xf5;" 
d="M480 1043.09v-160c-160 80 -320 -80 -480 0v160c160 -80 320 80 480 0zM240 800c132.549 0 240 -107.452 240 -240v-320c0 -132.548 -107.451 -240 -240 -240c-132.548 0 -240 107.452 -240 240v320c0 132.548 107.452 240 240 240zM296.569 183.432
c12.9336 12.8887 23.4307 38.168 23.4307 56.4277v0.140625v320c0 44.1602 -35.8398 80 -80 80s-80 -35.8398 -80 -80v-320c0 -44.1602 35.8398 -80 80 -80c18.292 0 43.6348 10.4971 56.5693 23.4316z" />
    <glyph glyph-name="odieresis" unicode="&#xf6;" 
d="M0 860v160h160v-160h-160zM320 860v160h160v-160h-160zM240 800c132.549 0 240 -107.452 240 -240v-320c0 -132.548 -107.451 -240 -240 -240c-132.548 0 -240 107.452 -240 240v320c0 132.548 107.452 240 240 240zM296.569 183.432
c12.9336 12.8887 23.4307 38.168 23.4307 56.4277v0.140625v320c0 44.1602 -35.8398 80 -80 80s-80 -35.8398 -80 -80v-320c0 -44.1602 35.8398 -80 80 -80c18.292 0 43.6348 10.4971 56.5693 23.4316z" />
    <glyph glyph-name="ugrave" unicode="&#xf9;" 
d="M0 1179.75l480 -151.93v-167.823l-480 151.931v167.822zM320 240v560h160v-560c0 -132.549 -107.452 -240 -240 -240s-240 107.451 -240 240v560h160v-560c0 -44.1602 35.8398 -80 80 -80s80 35.8398 80 80z" />
    <glyph glyph-name="uacute" unicode="&#xfa;" 
d="M480 1179.75v-167.822l-480 -151.931v167.824l480 151.93v-0.000976562zM320 240v560h160v-560c0 -132.549 -107.452 -240 -240 -240s-240 107.451 -240 240v560h160v-560c0 -44.1602 35.8398 -80 80 -80s80 35.8398 80 80z" />
    <glyph glyph-name="ucircumflex" unicode="&#xfb;" 
d="M0 860v183.774l240 135.607l239.998 -135.607l0.00195312 -183.773l-240 135.606zM320 240v560h160v-560c0 -132.549 -107.452 -240 -240 -240s-240 107.451 -240 240v560h160v-560c0 -44.1602 35.8398 -80 80 -80s80 35.8398 80 80z" />
    <glyph glyph-name="udieresis" unicode="&#xfc;" 
d="M0 860v160h160v-160h-160zM320 860v160h160v-160h-160zM320 240v560h160v-560c0 -132.549 -107.452 -240 -240 -240s-240 107.451 -240 240v560h160v-560c0 -44.1602 35.8398 -80 80 -80s80 35.8398 80 80z" />
    <glyph glyph-name="Itilde" unicode="&#x128;" horiz-adv-x="280" 
d="M320 1043.09v-160c-160 80 -320 -80 -480 0v160c160 -80 320 80 480 0zM0 0v800h160v-800h-160z" />
    <glyph glyph-name="itilde" unicode="&#x129;" horiz-adv-x="280" 
d="M320 1043.09v-160c-160 80 -320 -80 -480 0v160c160 -80 320 80 480 0zM5 0v800h160v-800h-160z" />
    <glyph glyph-name="Nacute" unicode="&#x143;" 
d="M480 1179.75v-167.822l-480 -151.931v167.824l480 151.93v-0.000976562zM320 800h160v-800h-139.403h-20.5957h-0.000976562v0.000976562l-160 384v-384.001h-160v800h139.403h20.5967h0.000976562l159.999 -383.998v383.998z" />
    <glyph glyph-name="nacute" unicode="&#x144;" 
d="M480 1179.75v-167.822l-480 -151.931v167.824l480 151.93v-0.000976562zM320 800h160v-800h-139.403h-20.5957h-0.000976562v0.000976562l-160 384v-384.001h-160v800h139.403h20.5967h0.000976562l159.999 -383.998v383.998z" />
    <glyph glyph-name="Ncaron" unicode="&#x147;" 
d="M0 1179.38v-183.774l240 -135.607l239.998 135.607l0.00195312 183.773l-240 -135.606zM320 800h160v-800h-139.403h-20.5957h-0.000976562v0.000976562l-160 384v-384.001h-160v800h139.403h20.5967h0.000976562l159.999 -383.998v383.998z" />
    <glyph glyph-name="ncaron" unicode="&#x148;" 
d="M0 1179.38v-183.774l240 -135.607l239.998 135.607l0.00195312 183.773l-240 -135.606zM320 800h160v-800h-139.403h-20.5957h-0.000976562v0.000976562l-160 384v-384.001h-160v800h139.403h20.5967h0.000976562l159.999 -383.998v383.998z" />
    <glyph glyph-name="OE" unicode="&#x152;" horiz-adv-x="920" 
d="M560 800h240.001v-160h-240.001c-44.1602 0 -80 -35.8398 -80 -80v-80h160v-160h-160v-160h320v-160h-560c-132.549 0 -240 107.451 -240 240v320c0 132.549 107.451 240 240 240h0.329102c50.5283 0 122.062 -27.3867 159.671 -61.1318
c37.6094 33.7451 109.143 61.1318 159.672 61.1318h0.328125zM183.432 183.432c12.9336 -12.9336 38.2764 -23.4316 56.5684 -23.4316c44.1592 0 80 35.8398 80 80v320c0 44.1602 -35.8398 80 -80 80s-80 -35.8398 -80 -80v-320v-0.140625
c0 -18.2598 10.4971 -43.5391 23.4316 -56.4277z" />
    <glyph glyph-name="oe" unicode="&#x153;" horiz-adv-x="920" 
d="M560 800h240.001v-160h-240.001c-44.1602 0 -80 -35.8398 -80 -80v-80h160v-160h-160v-160h320v-160h-560c-132.549 0 -240 107.451 -240 240v320c0 132.549 107.451 240 240 240h0.329102c50.5283 0 122.062 -27.3867 159.671 -61.1318
c37.6094 33.7451 109.143 61.1318 159.672 61.1318h0.328125zM183.432 183.432c12.9336 -12.9336 38.2764 -23.4316 56.5684 -23.4316c44.1592 0 80 35.8398 80 80v320c0 44.1602 -35.8398 80 -80 80s-80 -35.8398 -80 -80v-320v-0.140625
c0 -18.2598 10.4971 -43.5391 23.4316 -56.4277z" />
    <glyph glyph-name="Utilde" unicode="&#x168;" 
d="M480 1043.09v-160c-160 80 -320 -80 -480 0v160c160 -80 320 80 480 0zM320 240v560h160v-560c0 -132.549 -107.452 -240 -240 -240s-240 107.451 -240 240v560h160v-560c0 -44.1602 35.8398 -80 80 -80s80 35.8398 80 80z" />
    <glyph glyph-name="utilde" unicode="&#x169;" 
d="M480 1043.09v-160c-160 80 -320 -80 -480 0v160c160 -80 320 80 480 0zM320 240v560h160v-560c0 -132.549 -107.452 -240 -240 -240s-240 107.451 -240 240v560h160v-560c0 -44.1602 35.8398 -80 80 -80s80 35.8398 80 80z" />
    <glyph glyph-name="uni02B9" unicode="&#x2b9;" horiz-adv-x="360" 
d="M80 1040h160v-160c0 -132.549 -107.452 -240 -240 -240v160h0.000976562c44.1592 0 79.999 35.8398 79.999 79.999v0.000976562v160z" />
    <glyph glyph-name="uni02BC" unicode="&#x2bc;" horiz-adv-x="360" 
d="M80 1040h160v-160c0 -132.549 -107.452 -240 -240 -240v160h0.000976562c44.1592 0 79.999 35.8398 79.999 79.999v0.000976562v160z" />
    <glyph glyph-name="uni02BD" unicode="&#x2bd;" horiz-adv-x="360" 
d="M160 1040h-160v-160c0 -132.549 107.452 -240 240 -240v160h-0.000976562c-44.1592 0 -79.999 35.8398 -79.999 79.999v0.000976562v160z" />
    <glyph glyph-name="uni02CA" unicode="&#x2ca;" horiz-adv-x="360" 
d="M80 1040h160v-160c0 -132.549 -107.452 -240 -240 -240v160h0.000976562c44.1592 0 79.999 35.8398 79.999 79.999v0.000976562v160z" />
    <glyph glyph-name="uni02CB" unicode="&#x2cb;" horiz-adv-x="360" 
d="M160 1040h-160v-160c0 -132.549 107.452 -240 240 -240v160h-0.000976562c-44.1592 0 -79.999 35.8398 -79.999 79.999v0.000976562v160z" />
    <glyph glyph-name="gravecomb" unicode="&#x300;" horiz-adv-x="360" 
d="M160 1040h-160v-160c0 -132.549 107.452 -240 240 -240v160h-0.000976562c-44.1592 0 -79.999 35.8398 -79.999 79.999v0.000976562v160z" />
    <glyph glyph-name="acutecomb" unicode="&#x301;" horiz-adv-x="360" 
d="M80 1040h160v-160c0 -132.549 -107.452 -240 -240 -240v160h0.000976562c44.1592 0 79.999 35.8398 79.999 79.999v0.000976562v160z" />
    <glyph glyph-name="uni030D" unicode="&#x30d;" horiz-adv-x="360" 
d="M80 1040h160v-160c0 -132.549 -107.452 -240 -240 -240v160h0.000976562c44.1592 0 79.999 35.8398 79.999 79.999v0.000976562v160z" />
    <glyph glyph-name="uni0312" unicode="&#x312;" horiz-adv-x="360" 
d="M80 1040h160v-160c0 -132.549 -107.452 -240 -240 -240v160h0.000976562c44.1592 0 79.999 35.8398 79.999 79.999v0.000976562v160z" />
    <glyph glyph-name="uni0313" unicode="&#x313;" horiz-adv-x="360" 
d="M80 1040h160v-160c0 -132.549 -107.452 -240 -240 -240v160h0.000976562c44.1592 0 79.999 35.8398 79.999 79.999v0.000976562v160z" />
    <glyph glyph-name="uni0314" unicode="&#x314;" horiz-adv-x="360" 
d="M160 1040h-160v-160c0 -132.549 107.452 -240 240 -240v160h-0.000976562c-44.1592 0 -79.999 35.8398 -79.999 79.999v0.000976562v160z" />
    <glyph glyph-name="uni0332" unicode="&#x332;" horiz-adv-x="860" 
d="M1 0v160h739v-160h-739z" />
    <glyph glyph-name="uni0340" unicode="&#x340;" horiz-adv-x="360" 
d="M160 1040h-160v-160c0 -132.549 107.452 -240 240 -240v160h-0.000976562c-44.1592 0 -79.999 35.8398 -79.999 79.999v0.000976562v160z" />
    <glyph glyph-name="uni0341" unicode="&#x341;" horiz-adv-x="360" 
d="M80 1040h160v-160c0 -132.549 -107.452 -240 -240 -240v160h0.000976562c44.1592 0 79.999 35.8398 79.999 79.999v0.000976562v160z" />
    <glyph glyph-name="uni0343" unicode="&#x343;" horiz-adv-x="360" 
d="M80 1040h160v-160c0 -132.549 -107.452 -240 -240 -240v160h0.000976562c44.1592 0 79.999 35.8398 79.999 79.999v0.000976562v160z" />
    <glyph glyph-name="uni1EBC" unicode="&#x1ebc;" 
d="M480 1043.09v-160c-160 80 -320 -80 -480 0v160c160 -80 320 80 480 0zM480 800v-160h-240c-44.1602 0 -80 -35.8398 -80 -80v-80h160v-160h-160v-80v-80h320v-160h-480v560c0 132.548 107.452 240 240 240h240z" />
    <glyph glyph-name="uni1EBD" unicode="&#x1ebd;" 
d="M480 1043.09v-160c-160 80 -320 -80 -480 0v160c160 -80 320 80 480 0zM480 800v-160h-240c-44.1602 0 -80 -35.8398 -80 -80v-80h160v-160h-160v-80v-80h320v-160h-480v560c0 132.548 107.452 240 240 240h240z" />
    <glyph glyph-name="Ygrave" unicode="&#x1ef2;" 
d="M0 1179.75l480 -151.93v-167.823l-480 151.931v167.822zM308.516 800h171.484v-0.00195312l-308.515 -799.998h-171.485l179.739 466.074c-55.168 36.4619 -98.916 84.0869 -131.245 142.874s-48.4941 122.471 -48.4941 191.052h160v-0.326172l-0.000976562 -0.325195
c0 -27.3633 6.86523 -57.5557 20.5967 -90.5781c13.7314 -33.0215 30.2979 -59.1807 49.6992 -78.4766c3.05469 -3.04492 6.17383 -5.99902 9.35645 -8.86328z" />
    <glyph glyph-name="ygrave" unicode="&#x1ef3;" 
d="M0 1179.75l480 -151.93v-167.823l-480 151.931v167.822zM308.516 800h171.484v-0.00195312l-308.515 -799.998h-171.485l179.739 466.074c-55.168 36.4619 -98.916 84.0869 -131.245 142.874s-48.4941 122.471 -48.4941 191.052h160v-0.326172l-0.000976562 -0.325195
c0 -27.3633 6.86523 -57.5557 20.5967 -90.5781c13.7314 -33.0215 30.2979 -59.1807 49.6992 -78.4766c3.05469 -3.04492 6.17383 -5.99902 9.35645 -8.86328z" />
    <glyph glyph-name="uni1EF8" unicode="&#x1ef8;" 
d="M480 1043.09v-160c-160 80 -320 -80 -480 0v160c160 -80 320 80 480 0zM308.516 800h171.484v-0.00195312l-308.515 -799.998h-171.485l179.739 466.074c-55.168 36.4619 -98.916 84.0869 -131.245 142.874s-48.4941 122.471 -48.4941 191.052h160v-0.326172
l-0.000976562 -0.325195c0 -27.3633 6.86523 -57.5557 20.5967 -90.5781c13.7314 -33.0215 30.2979 -59.1807 49.6992 -78.4766c3.05469 -3.04492 6.17383 -5.99902 9.35645 -8.86328z" />
    <glyph glyph-name="uni1EF9" unicode="&#x1ef9;" 
d="M480 1043.09v-160c-160 80 -320 -80 -480 0v160c160 -80 320 80 480 0zM308.516 800h171.484v-0.00195312l-308.515 -799.998h-171.485l179.739 466.074c-55.168 36.4619 -98.916 84.0869 -131.245 142.874s-48.4941 122.471 -48.4941 191.052h160v-0.326172
l-0.000976562 -0.325195c0 -27.3633 6.86523 -57.5557 20.5967 -90.5781c13.7314 -33.0215 30.2979 -59.1807 49.6992 -78.4766c3.05469 -3.04492 6.17383 -5.99902 9.35645 -8.86328z" />
    <glyph glyph-name="uni1FC1" unicode="&#x1fc1;" horiz-adv-x="860" 
d="M740 1283.09v-160c-160 80 -320 -80 -480 0v160c160 -80 320 80 480 0zM260 880v160h160v-160h-160zM580 880v160h160v-160h-160z" />
    <glyph glyph-name="uni1FED" unicode="&#x1fed;" horiz-adv-x="860" 
d="M20 1419.75l480 -151.93v-167.823l-480 151.931v167.822zM260 880v160h160v-160h-160zM580 880v160h160v-160h-160z" />
    <glyph glyph-name="quoteleft" unicode="&#x2018;" horiz-adv-x="360" 
d="M160 1040h-160v-160c0 -132.549 107.452 -240 240 -240v160h-0.000976562c-44.1592 0 -79.999 35.8398 -79.999 79.999v0.000976562v160z" />
    <glyph glyph-name="quoteright" unicode="&#x2019;" horiz-adv-x="360" 
d="M80 1040h160v-160c0 -132.549 -107.452 -240 -240 -240v160h0.000976562c44.1592 0 79.999 35.8398 79.999 79.999v0.000976562v160z" />
    <glyph glyph-name="notequal" unicode="&#x2260;" 
d="M479.729 800l-308.515 -800h-170.941v1.41016l307.972 798.59h171.484zM0 480v160h480v-160h-480zM0 160v160h480v-160h-480z" />
  </font>
</defs>
</svg>
