<svg xmlns="http://www.w3.org/2000/svg" width="42.24" height="42" viewBox="0 0 42.24 42">
    <g transform="translate(0 -.24)">
        <circle cx="21" cy="21" r="21" transform="translate(.24 .24)" style="fill:#2c97de"/>
        <path d="M40.9 25.142q-.129.009-.268.009h-2.297v-1.066h2.284a.676.676 0 0 0 .481-.123.437.437 0 0 0 .14-.324.408.408 0 0 0-.145-.329.6.6 0 0 0-.418-.11c-1.115-.038-2.506.034-2.506-1.538 0-.721.458-1.479 1.7-1.479H42.1q.057-.491.092-.989h-2.15a2.476 2.476 0 0 0-1.486.406v-.406H35.3a2.251 2.251 0 0 0-1.419.406v-.406h-5.8v.407a3.089 3.089 0 0 0-1.6-.406h-3.83v.406a2.709 2.709 0 0 0-1.674-.406h-4.285l-.981 1.061-.918-1.061h-6.4v6.934h6.281l1.01-1.078.952 1.078h3.872V24.5h.381a4.033 4.033 0 0 0 1.654-.244v1.871h3.193V24.32h.154c.2 0 .216.008.216.2v1.6h9.7a2.766 2.766 0 0 0 1.616-.444v.444H40.5q.211-.486.4-.985zM0 17.581h2.029l.457-1.1h1.025l.456 1.1h3.992v-.844l.356.847h2.072l.356-.86v.856h9.921v-1.811h.192c.134 0 .174.017.174.239v1.572h5.131v-.422a4.066 4.066 0 0 0 1.9.422h2.159l.462-1.1h1.024l.452 1.1h4.16v-1.048l.63 1.048h3.334v-6.929h-3.3v.818l-.462-.818h-3.383v.818l-.424-.818H28.14a4.107 4.107 0 0 0-1.982.4v-.4H23v.4a1.956 1.956 0 0 0-1.341-.4H10.133l-.774 1.79-.794-1.79H4.934v.818l-.4-.818h-3.1l-.762 1.756a21.091 21.091 0 0 0-.642 4.159l2.11-4.929H3.9l2.02 4.7v-4.7h1.943l1.554 3.37 1.428-3.37h1.977V16.6H11.6v-3.891L9.878 16.6H8.835l-1.726-3.89v3.89H4.693l-.456-1.1H1.765L1.3 16.6H.028Q0 17.09 0 17.581zm41.946 3.658h-1.87a.822.822 0 0 0-.481.09.387.387 0 0 0-.174.358.375.375 0 0 0 .26.37 1.353 1.353 0 0 0 .458.056l.644.017a2.877 2.877 0 0 1 .962.152q.114-.517.2-1.043zM17.674 16.6h-3.967v-4.963h3.967v1.035h-2.78v.9h2.713v1.018h-2.713v.992h2.779zm5.593-3.63a1.4 1.4 0 0 1-.837 1.33 1.377 1.377 0 0 1 .587.418 1.429 1.429 0 0 1 .2.912v.97h-1.2v-.627a1.491 1.491 0 0 0-.187-.968 1.161 1.161 0 0 0-.866-.213h-1.28V16.6H18.5v-4.963h2.731a2.8 2.8 0 0 1 1.438.238 1.159 1.159 0 0 1 .6 1.1zm1.9 3.63h-1.211v-4.963h1.212zm14.057 0h-1.682l-2.251-3.729V16.6h-2.418l-.462-1.1h-2.467l-.444 1.1h-1.39a2.5 2.5 0 0 1-1.722-.55 2.5 2.5 0 0 1-.634-1.9 2.644 2.644 0 0 1 .64-1.943 2.41 2.41 0 0 1 1.8-.579h1.15V12.7h-1.127a1.143 1.143 0 0 0-.917.3 1.64 1.64 0 0 0-.341 1.125 1.723 1.723 0 0 0 .327 1.167 1.145 1.145 0 0 0 .828.256h.533l1.674-3.907H32.1l2.011 4.7v-4.7h1.808l2.087 3.46v-3.46h1.216zM37.5 22.53a1.383 1.383 0 0 1 .355 1.053c0 1.069-.668 1.568-1.866 1.568H33.68v-1.066h2.3a.7.7 0 0 0 .485-.123.441.441 0 0 0 .14-.324.426.426 0 0 0-.145-.329.625.625 0 0 0-.423-.11c-1.111-.038-2.5.034-2.5-1.538 0-.721.453-1.479 1.7-1.479h2.381v1.058H35.44a.8.8 0 0 0-.476.09.416.416 0 0 0 .082.728 1.365 1.365 0 0 0 .462.056l.639.017a1.916 1.916 0 0 1 1.356.4zm-10 .312a1.291 1.291 0 0 1 .582.417 1.447 1.447 0 0 1 .2.907v.985h-1.191v-.622c0-.3.029-.742-.192-.973a1.152 1.152 0 0 0-.871-.221h-1.27v1.815h-1.193v-4.968h2.742a2.94 2.94 0 0 1 1.429.235 1.164 1.164 0 0 1 .61 1.1 1.392 1.392 0 0 1-.842 1.322zm1.5-2.66h3.963v1.028h-2.776v.9H32.9v1.014h-2.713v.989h2.781v1.031H29zm-6 1.637c0 1.38-1.03 1.665-2.068 1.665h-1.474v1.667H17.15l-1.462-1.645-1.52 1.645h-4.7v-4.969h4.772l1.46 1.628 1.511-1.629h3.795c.942 0 2 .261 2 1.637zm3.78.4a1.136 1.136 0 0 1-.586.1h-1.436v-1.11h1.462a1.17 1.17 0 0 1 .567.09.473.473 0 0 1 .246.447.536.536 0 0 1-.246.477zm-5.795.252h-1.527v-1.262h1.548c.429 0 .726.175.726.609s-.284.656-.74.656zm-2.71 2.229-1.823-2.024 1.823-1.96zm13.731-10.239-.822-1.981-.817 1.981zm-18.439 9.654h-2.92v-.989h2.607v-1.013h-2.607v-.9h2.977l1.3 1.448zm-9.759-9.654L3 12.48l-.808 1.981zm17.906-.789a1.1 1.1 0 0 1-.587.1h-1.443v-1.1h1.462a1.218 1.218 0 0 1 .563.09.455.455 0 0 1 .249.439.508.508 0 0 1-.245.472z" transform="translate(0 3.408)" style="fill:#fff;fill-rule:evenodd"/>
    </g>
</svg>
