<svg xmlns="http://www.w3.org/2000/svg" width="50.099" height="37.574" viewBox="0 0 50.099 37.574">
    <g data-name="Group 1795">
        <path data-name="Rectangle 186" transform="translate(2.099 2)" style="fill:#fff" d="M0 0h46v33H0z"/>
        <path data-name="Path 29764" d="M15.137 14.627c0 .616.541 1.006 1.367 1.006A1.729 1.729 0 0 0 18.365 14v-.556l-1.742.12c-.976.057-1.486.417-1.486 1.063z" transform="translate(16.461 8.354)" style="fill:#303c42"/>
        <path data-name="Path 29765" d="M13.574 11.024h-1.862v3.8h1.862a1.793 1.793 0 0 0 2.026-1.893 1.8 1.8 0 0 0-2.026-1.907z" transform="translate(12.737 5.725)" style="fill:#303c42"/>
        <path data-name="Path 29766" d="M45.924 3H4.175A4.179 4.179 0 0 0 0 7.175V36.4a4.179 4.179 0 0 0 4.175 4.175h41.749A4.179 4.179 0 0 0 50.1 36.4V7.175A4.179 4.179 0 0 0 45.924 3zm-32 11.7a3.742 3.742 0 0 1 2.46-1.266 3.678 3.678 0 0 1-.868 2.667 3.1 3.1 0 0 1-2.478 1.181 3.492 3.492 0 0 1 .886-2.583zM18.7 28.064c-.7 1.017-1.419 2.03-2.556 2.051-1.12.021-1.479-.662-2.758-.662s-1.676.641-2.735.683c-1.1.041-1.935-1.1-2.636-2.113-1.435-2.073-2.531-5.858-1.059-8.414a4.085 4.085 0 0 1 3.456-2.093c1.077-.021 2.1.725 2.755.725s1.9-.9 3.2-.766a3.9 3.9 0 0 1 3.054 1.657 3.776 3.776 0 0 0-1.8 3.178 3.686 3.686 0 0 0 2.241 3.378 9.19 9.19 0 0 1-1.162 2.376zm7.952-3.269h-2.203v3.259h-1.487V18.5H26.7a3.008 3.008 0 0 1 3.154 3.139 3.04 3.04 0 0 1-3.2 3.154zm9.6 3.244h-1.366v-1.2h-.03a2.511 2.511 0 0 1-2.268 1.277A2.167 2.167 0 0 1 30.14 26c0-1.261.976-1.982 2.748-2.1l1.937-.105v-.556c0-.826-.556-1.277-1.5-1.277a1.372 1.372 0 0 0-1.472 1.021h-1.337c.045-1.277 1.246-2.208 2.853-2.208 1.757 0 2.883.931 2.883 2.343v4.926zm4.9.33c-.616 1.727-1.292 2.283-2.763 2.283a3.743 3.743 0 0 1-.571-.03V29.45a2.206 2.206 0 0 0 .451.03 1.238 1.238 0 0 0 1.307-1.051l.105-.375-2.613-7.209h1.542l1.847 5.872h.03l1.847-5.872h1.5z" transform="translate(0 -3)" style="fill:#303c42"/>
    </g>
</svg>
