<svg xmlns="http://www.w3.org/2000/svg" width="58.928" height="36.618" viewBox="0 0 58.928 36.618">
    <g data-name="card (1)">
        <g data-name="Group 1789">
            <path data-name="Path 29742" d="M56.324 98.773a2.9 2.9 0 0 1 2.892 2.892v29.683a2.9 2.9 0 0 1-2.892 2.892H4.331a2.9 2.9 0 0 1-2.892-2.892v-29.683a2.9 2.9 0 0 1 2.892-2.892zm0-.575H4.331a3.467 3.467 0 0 0-3.467 3.467v29.683a3.467 3.467 0 0 0 3.467 3.467h51.993a3.467 3.467 0 0 0 3.467-3.467v-29.683a3.467 3.467 0 0 0-3.467-3.465z" transform="translate(-.864 -98.198)" style="fill:#e30613"/>
        </g>
        <g data-name="Group 1791">
            <path data-name="Path 29743" d="M220.047 155.972a14.608 14.608 0 0 0 9.914 3.858 14.884 14.884 0 0 0 0-29.768 14.607 14.607 0 0 0-9.914 3.858 14.895 14.895 0 0 0 0 22.051z" transform="translate(-190.501 -126.395)" style="fill-rule:evenodd;fill:#fab31e"/>
            <path data-name="Path 29744" d="M72.185 143.377c-.051-.537-.153-1.048-.256-1.584h-9.045a15.488 15.488 0 0 1 .408-1.559h8.2a17.01 17.01 0 0 0-.614-1.584h-6.95c.256-.536.536-1.073.843-1.584h5.238a13.369 13.369 0 0 0-1.124-1.559H65.9a14.769 14.769 0 0 1 1.507-1.584 14.884 14.884 0 1 0 0 22.051 14.251 14.251 0 0 0 1.482-1.559H65.9a17.626 17.626 0 0 1-1.124-1.584h5.238a11.857 11.857 0 0 0 .869-1.584h-6.95a16.549 16.549 0 0 1-.639-1.559h8.2a16.07 16.07 0 0 0 .434-1.584 14.268 14.268 0 0 0 .333-3.143 15.784 15.784 0 0 0-.076-1.584z" transform="translate(-37.861 -126.397)" style="fill:#e40520;fill-rule:evenodd"/>
            <path data-name="Path 29745" d="M455.15 285.729a.464.464 0 0 1 .46-.485.47.47 0 0 1 .485.485.473.473 0 1 1-.945 0zm.46.358a.359.359 0 1 0 0-.715.358.358 0 1 0 0 .715zm-.051-.153h-.1v-.409h.281c.051.026.051.077.051.128a.138.138 0 0 1-.077.1l.1.179h-.128l-.051-.153h-.077v-.079h.051c.026 0 .051 0 .051-.026.025 0 .025-.025.025-.051a.025.025 0 0 0-.025-.025c0-.026-.026 0-.051 0h-.051v.332z" transform="translate(-402.863 -263.715)" style="fill:#fff;fill-rule:evenodd"/>
            <path data-name="Path 29746" d="M195.172 243.154a4.721 4.721 0 0 1-1.2.2c-.767 0-1.227-.486-1.227-1.354a4.6 4.6 0 0 1 .051-.562l.1-.588.077-.485.69-4.191h1.537l-.179.92h.971l-.23 1.533h-.971l-.409 2.5a1.16 1.16 0 0 0-.026.256c0 .333.153.46.537.46a2.8 2.8 0 0 0 .485-.051z" transform="translate(-170.66 -220.297)" style="fill:#06326e;fill-rule:evenodd"/>
            <path data-name="Path 29747" d="M223.312 249a6.015 6.015 0 0 1-1.636.23 2.455 2.455 0 0 1-2.734-2.734c0-2.12 1.175-3.654 2.81-3.654a2.047 2.047 0 0 1 2.146 2.223 7.032 7.032 0 0 1-.179 1.508h-3.194a.714.714 0 0 0-.026.2c0 .715.486 1.073 1.405 1.073a3.847 3.847 0 0 0 1.661-.383zm-.946-3.654v-.307a.707.707 0 0 0-.766-.792c-.511 0-.869.384-1.022 1.1z" transform="translate(-193.843 -226.191)" style="fill:#06326e;fill-rule:evenodd"/>
            <path data-name="Path 29748" d="M57.378 239.5h-1.584l.92-5.8-2.07 5.8h-1.1l-.128-5.774-.971 5.774h-1.557l1.252-7.538h2.325l.051 4.65 1.559-4.65h2.555z" transform="translate(-45.13 -216.565)" style="fill:#06326e;fill-rule:evenodd"/>
            <path data-name="Path 29749" d="M116.242 246.39a1.486 1.486 0 0 0-.307-.025c-.92 0-1.38.358-1.38.92a.578.578 0 0 0 .588.639c.767 0 1.073-.639 1.099-1.534zm1.277 2.734h-1.38l.026-.639a1.873 1.873 0 0 1-1.686.741 1.549 1.549 0 0 1-1.431-1.686 2.725 2.725 0 0 1 .128-.792c.256-.945 1.2-1.533 2.658-1.558.179 0 .46 0 .715.025a1.35 1.35 0 0 0 .051-.409c0-.409-.332-.536-1.073-.536a4.256 4.256 0 0 0-1.329.2l-.23.051-.1.025.23-1.38a6.011 6.011 0 0 1 1.865-.332c1.38 0 2.121.639 2.121 1.814a5.8 5.8 0 0 1-.077 1.2l-.358 2.2-.051.383-.026.307-.026.2z" transform="translate(-100.136 -226.191)" style="fill:#06326e;fill-rule:evenodd"/>
            <path data-name="Path 29750" d="M268.55 232.043a3.067 3.067 0 0 1 1.431.409l.281-1.636a3.487 3.487 0 0 0-.409-.153l-.639-.179a4.537 4.537 0 0 0-2.478.23 4.789 4.789 0 0 0-.945.818l-.2-.051-1.635 1.15.077-.639h-1.686l-1 6.132h1.61l.588-3.3s.23-.46.332-.613a.932.932 0 0 1 .894-.383h.128a8.2 8.2 0 0 0-.077 1.175c0 1.993 1.124 3.245 2.862 3.245a5.166 5.166 0 0 0 1.405-.2l.281-1.737a2.889 2.889 0 0 1-1.354.409c-.945 0-1.507-.715-1.507-1.84 0-1.661.843-2.836 2.044-2.836z" transform="translate(-231.365 -215.19)" style="fill:#06326e;fill-rule:evenodd"/>
            <path data-name="Path 29751" d="m383.88 231.96-.358 2.146a1.654 1.654 0 0 0-1.456-.869 2.411 2.411 0 0 0-2.121 1.406v-.026l-1.022-.617.1-.639h-1.712l-.971 6.132h1.584l.536-3.3s.409-.46.511-.613a1 1 0 0 1 .715-.383 5.521 5.521 0 0 0-.281 1.814c0 1.534.792 2.556 1.968 2.556a1.857 1.857 0 0 0 1.482-.69l-.077.613h1.507l1.226-7.538h-1.631zm-1.967 6.082c-.537 0-.818-.409-.818-1.2 0-1.2.511-2.07 1.252-2.07.562 0 .843.435.843 1.2 0 1.228-.511 2.07-1.278 2.07z" transform="translate(-333.126 -216.564)" style="fill:#06326e;fill-rule:evenodd"/>
            <path data-name="Path 29752" d="M335.629 246.39a1.487 1.487 0 0 0-.307-.025c-.92 0-1.38.358-1.38.92a.578.578 0 0 0 .588.639c.77 0 1.07-.639 1.099-1.534zm1.277 2.734H335.5l.051-.639a1.872 1.872 0 0 1-1.686.741 1.555 1.555 0 0 1-1.482-1.686c0-1.457 1.1-2.35 2.836-2.35a6.761 6.761 0 0 1 .69.025 1.571 1.571 0 0 0 .077-.409c0-.409-.332-.536-1.1-.536a4.377 4.377 0 0 0-1.328.2l-.2.051-.1.025.23-1.38a6.01 6.01 0 0 1 1.865-.332c1.38 0 2.1.639 2.1 1.814a4.4 4.4 0 0 1-.077 1.2l-.332 2.2-.051.383-.051.307-.026.2z" transform="translate(-294.227 -226.191)" style="fill:#06326e;fill-rule:evenodd"/>
            <path data-name="Path 29753" d="M157.8 244.3a7.62 7.62 0 0 1 1.2.1l.23-1.431c-.46-.051-1.073-.128-1.431-.128-1.789 0-2.376.971-2.376 2.1a1.747 1.747 0 0 0 1.2 1.686c.639.306.741.358.741.639 0 .383-.332.613-.945.613a4.282 4.282 0 0 1-1.456-.255l-.179 1.4.026.026.307.051a4.033 4.033 0 0 0 .409.076c.383.026.715.051.92.051 1.789 0 2.53-.69 2.53-2.044a1.745 1.745 0 0 0-1.2-1.712c-.69-.306-.767-.358-.767-.638s.305-.534.791-.534z" transform="translate(-137.068 -226.191)" style="fill:#06326e;fill-rule:evenodd"/>
            <g data-name="Group 1790">
                <path data-name="Path 29754" d="m301.147 226.8-.281 1.635a3.074 3.074 0 0 0-1.431-.409c-1.2 0-2.044 1.175-2.044 2.836 0 1.149.562 1.839 1.508 1.839a3.127 3.127 0 0 0 1.354-.384l-.281 1.712a5.321 5.321 0 0 1-1.405.23c-1.737 0-2.811-1.252-2.811-3.271 0-2.683 1.482-4.573 3.6-4.573a3.149 3.149 0 0 1 .741.077l.639.153c.206.075.257.1.411.155z" transform="translate(-261.814 -211.655)" style="fill:#fff;fill-rule:evenodd"/>
                <path data-name="Path 29755" d="M268.68 239.509h-.153c-.537 0-.843.255-1.329 1l.153-.946h-1.456l-1 6.133h1.61c.588-3.756.741-4.4 1.508-4.4h.1a6.418 6.418 0 0 1 .613-1.763z" transform="translate(-234.509 -223.244)" style="fill:#fff;fill-rule:evenodd"/>
                <path data-name="Path 29756" d="M198.725 238.936a3.314 3.314 0 0 1-1.149.2 1.182 1.182 0 0 1-1.278-1.354 4.2 4.2 0 0 1 .051-.537l.1-.613.077-.486.69-4.19h1.584l-.179.92h.818l-.2 1.508h-.818l-.434 2.555a.951.951 0 0 0-.026.256c0 .307.153.435.537.435a1.065 1.065 0 0 0 .434-.051z" transform="translate(-173.804 -216.564)" style="fill:#fff;fill-rule:evenodd"/>
                <path data-name="Path 29757" d="M159.17 240.911a1.789 1.789 0 0 0 1.2 1.712c.664.306.767.409.767.664 0 .384-.281.562-.92.562a4.78 4.78 0 0 1-1.431-.23l-.23 1.4.077.026.281.051a1.682 1.682 0 0 0 .434.051 5.92 5.92 0 0 0 .869.051c1.686 0 2.479-.639 2.479-2.044a1.7 1.7 0 0 0-1.124-1.712c-.69-.306-.767-.384-.767-.664 0-.332.281-.486.792-.486a9.987 9.987 0 0 1 1.15.077l.23-1.406a9.259 9.259 0 0 0-1.405-.128c-1.788.006-2.427.952-2.402 2.076z" transform="translate(-140.407 -222.653)" style="fill:#fff;fill-rule:evenodd"/>
                <path data-name="Path 29758" d="M411.609 235.279H410.1l.077-.588a1.912 1.912 0 0 1-1.482.664c-1.176 0-1.942-1-1.942-2.53 0-2.044 1.2-3.781 2.606-3.781a1.834 1.834 0 0 1 1.533.843l.358-2.147h1.584zm-2.351-1.431c.741 0 1.252-.869 1.252-2.07 0-.793-.281-1.2-.843-1.2-.716 0-1.252.843-1.252 2.044q0 1.226.843 1.226z" transform="translate(-360.037 -212.83)" style="fill:#fff;fill-rule:evenodd"/>
                <path data-name="Path 29759" d="M226.42 244.778a5.229 5.229 0 0 1-1.661.256 2.434 2.434 0 0 1-2.708-2.759c0-2.1 1.175-3.654 2.785-3.654a2.053 2.053 0 0 1 2.172 2.223 6.191 6.191 0 0 1-.2 1.533h-3.169a.5.5 0 0 0-.026.178c0 .716.485 1.074 1.405 1.074a3.514 3.514 0 0 0 1.661-.383zm-.895-3.654v-.306a.707.707 0 0 0-.767-.792c-.511 0-.869.383-1.022 1.1z" transform="translate(-196.593 -222.457)" style="fill:#fff;fill-rule:evenodd"/>
                <path data-name="Path 29760" d="M61.519 235.279h-1.584l.92-5.8-2.07 5.8h-1.1l-.128-5.749-.971 5.749h-1.48l1.252-7.538h2.3l.077 4.676 1.533-4.676h2.5z" transform="translate(-48.863 -212.83)" style="fill:#fff;fill-rule:evenodd"/>
                <path data-name="Path 29761" d="M120.093 242.367c-.153 0-.23-.026-.358-.026-.894 0-1.354.333-1.354.946a.539.539 0 0 0 .562.613c.665 0 1.125-.613 1.15-1.533zm1.175 2.734h-1.328l.026-.639a1.991 1.991 0 0 1-1.686.741 1.484 1.484 0 0 1-1.456-1.661c0-1.508 1.022-2.376 2.81-2.376.179 0 .409.026.664.051a1.288 1.288 0 0 0 .051-.383c0-.409-.281-.562-1.022-.562a5.272 5.272 0 0 0-1.329.153l-.23.076-.153.026.23-1.38a6.426 6.426 0 0 1 1.916-.307c1.38 0 2.121.613 2.121 1.789a7.74 7.74 0 0 1-.128 1.226l-.358 2.172-.051.383-.026.307-.025.23z" transform="translate(-103.477 -222.653)" style="fill:#fff;fill-rule:evenodd"/>
                <path data-name="Path 29762" d="M339.875 242.367c-.179 0-.255-.026-.358-.026-.92 0-1.38.333-1.38.946a.557.557 0 0 0 .588.613c.639 0 1.125-.613 1.15-1.533zm1.175 2.734h-1.329l.026-.639a1.99 1.99 0 0 1-1.686.741 1.484 1.484 0 0 1-1.456-1.661c0-1.508 1.022-2.376 2.81-2.376.179 0 .409.026.639.051a1.622 1.622 0 0 0 .077-.383c0-.409-.281-.562-1.022-.562a5.487 5.487 0 0 0-1.354.153l-.2.076-.153.026.23-1.38a6.425 6.425 0 0 1 1.916-.307c1.38 0 2.1.613 2.1 1.789a5.472 5.472 0 0 1-.128 1.226l-.332 2.172-.051.383-.051.307-.026.23v.154z" transform="translate(-297.962 -222.653)" style="fill:#fff;fill-rule:evenodd"/>
                <path data-name="Path 29763" d="M383.648 239.509h-.153c-.537 0-.843.255-1.329 1l.153-.946h-1.456l-.971 6.133h1.584c.588-3.756.741-4.4 1.508-4.4h.1a6.426 6.426 0 0 1 .613-1.763z" transform="translate(-336.267 -223.244)" style="fill:#fff;fill-rule:evenodd"/>
            </g>
        </g>
    </g>
</svg>
