<svg data-name="Group 1794" xmlns="http://www.w3.org/2000/svg" width="57.645" height="36.028" viewBox="0 0 57.645 36.028">
    <rect data-name="Rectangle 185" width="57.645" height="35.64" rx="4" style="fill:#fff"/>
    <g data-name="Group 1784">
        <path data-name="Path 29724" d="M54.27 98.264a2.84 2.84 0 0 1 2.83 2.846v29.205a2.84 2.84 0 0 1-2.829 2.845H3.409a2.84 2.84 0 0 1-2.829-2.845V101.11a2.84 2.84 0 0 1 2.829-2.845zm0-.566H3.409a3.4 3.4 0 0 0-3.392 3.412v29.205a3.4 3.4 0 0 0 3.392 3.412H54.27a3.4 3.4 0 0 0 3.392-3.412V101.11a3.4 3.4 0 0 0-3.392-3.41z" transform="translate(-.017 -97.698)" style="fill:#1b557d"/>
    </g>
    <g data-name="Group 1786">
        <path data-name="Path 29725" d="M345.035 219.57a12.952 12.952 0 0 0-2.909.469l-.226 1.846a7.922 7.922 0 0 1 2.486-.527c.96-.029 1.525.176 1.328 1-2.853 0-4.773.586-5.169 2.432-.565 3.164 2.909 3.076 4.293 1.7l-.17.762h2.542l1.1-5.039c.453-2.145-1.496-2.672-3.275-2.643zm.169 5.156a1.273 1.273 0 0 1-1.327 1c-.565.029-1.074-.469-.706-1.055.283-.5 1.074-.615 1.554-.615h.621c-.057.231-.086.436-.146.67z" transform="translate(-302.149 -205.848)" style="fill:#107db0"/>
        <path data-name="Path 29726" d="m412.752 201.88-2.1 9.669h2.582l2.129-9.669z" transform="translate(-364.415 -190.15)" style="fill:#107db0"/>
        <path data-name="Path 29727" d="M270.2 202.144h-4.73l-2.095 9.639h2.746l.708-3.193h1.953a3.877 3.877 0 0 0 3.935-3.164 2.528 2.528 0 0 0-2.517-3.282zm-.084 3.281a1.766 1.766 0 0 1-1.614 1.318h-1.274l.566-2.637h1.359a.992.992 0 0 1 .959 1.319z" transform="translate(-233.723 -190.385)" style="fill:#107db0"/>
        <g data-name="Group 1785">
            <path data-name="Path 29728" d="M125.817 219.57a12.11 12.11 0 0 0-2.846.469l-.223 1.846a7.358 7.358 0 0 1 2.427-.527c.949-.029 1.507.176 1.339 1-2.818 0-4.715.586-5.106 2.432-.558 3.164 2.873 3.076 4.213 1.7l-.167.762h2.539l1.088-5.039c.446-2.145-1.507-2.672-3.264-2.643zm.195 5.156a1.291 1.291 0 0 1-1.339 1 .678.678 0 0 1-.67-1.055 1.782 1.782 0 0 1 1.507-.615h.642a5.869 5.869 0 0 0-.14.67z" transform="translate(-107.686 -205.848)" style="fill:#1b557d"/>
            <path data-name="Path 29729" d="M193.4 220.809h2.539l.41 4.489 2.484-4.489h2.62l-6.032 10.743h-2.839l1.856-3.159z" transform="translate(-170.9 -206.948)" style="fill:#1b557d"/>
            <path data-name="Path 29730" d="M51.048 202.144h-4.74l-2.1 9.639h2.782l.681-3.193h1.986a3.875 3.875 0 0 0 3.917-3.164 2.519 2.519 0 0 0-2.526-3.282zm-.085 3.281a1.735 1.735 0 0 1-1.589 1.318h-1.306l.6-2.637h1.362a.977.977 0 0 1 .932 1.319z" transform="translate(-39.232 -190.385)" style="fill:#1b557d"/>
            <path data-name="Path 29731" d="M454.09 202.792v-1.14h-.425v-.152h1.025v.153h-.427v1.14z" transform="translate(-402.588 -189.813)" style="fill:#1b557d"/>
            <path data-name="Path 29732" d="M464.27 202.792V201.5h.256l.307.915.062.191.069-.207.31-.9h.23v1.292h-.164v-1.081l-.377 1.082h-.154l-.374-1.1v1.1z" transform="translate(-411.999 -189.813)" style="fill:#1b557d"/>
        </g>
    </g>
</svg>
