<svg xmlns="http://www.w3.org/2000/svg" width="53.798" height="37.102" viewBox="0 0 53.798 37.102">
    <path data-name="Path 29733" d="M53.8 113.372a3.18 3.18 0 0 1-3.18 3.18H3.18a3.18 3.18 0 0 1-3.18-3.18V82.631a3.18 3.18 0 0 1 3.18-3.18h47.438a3.18 3.18 0 0 1 3.18 3.18v30.741z" transform="translate(0 -79.451)" style="fill:#fff"/>
    <path data-name="Path 29734" d="m39.238 196.909-1.263-6.06a1.507 1.507 0 0 0-1.629-1.117h-5.792l-.052.277c4.511 1.091 7.498 3.731 8.736 6.9z" transform="translate(-27.297 -178.144)" style="fill:#f79f1a"/>
    <g data-name="Group 1788">
        <path data-name="Path 29735" d="M189.578 190.892h-3.742l-2.336 13.715h3.736z" transform="translate(-164.218 -179.182)" style="fill:#059bbf"/>
        <path data-name="Path 29736" d="m73.14 204.673 5.885-13.692h-3.96l-3.665 9.355-.391-1.412a14.634 14.634 0 0 0-5.177-5.684l3.347 11.439z" transform="translate(-58.918 -179.262)" style="fill:#059bbf"/>
        <path data-name="Path 29737" d="M252.029 198.125c.014-1.557-.986-2.745-3.14-3.726-1.309-.634-2.107-1.056-2.1-1.7 0-.568.676-1.178 2.14-1.178a6.9 6.9 0 0 1 2.8.526l.338.155.507-2.971a9.692 9.692 0 0 0-3.351-.573c-3.694 0-6.294 1.859-6.318 4.525-.024 1.972 1.859 3.07 3.276 3.727 1.455.67 1.943 1.1 1.934 1.7-.009.919-1.16 1.338-2.234 1.338a7.844 7.844 0 0 1-3.521-.719l-.478-.22-.525 3.073a11.794 11.794 0 0 0 4.163.728c3.927.001 6.48-1.834 6.509-4.685z" transform="translate(-215.996 -177.184)" style="fill:#059bbf"/>
        <path data-name="Path 29738" d="M345.1 202.672h4.788c.113.478.455 2.056.455 2.056h3.469l-3.027-13.706h-2.887a1.86 1.86 0 0 0-1.957 1.136l-5.553 12.57h3.929s.635-1.685.783-2.056zm2.563-6.642c-.018.038.31-.793.5-1.31l.253 1.183.864 3.962h-3.1c.302-.788 1.48-3.835 1.48-3.835z" transform="translate(-304.619 -179.303)" style="fill:#059bbf"/>
        <path data-name="Path 29739" d="M50.618 79.451H3.18A3.18 3.18 0 0 0 0 82.631v3.3h53.8v-3.3a3.18 3.18 0 0 0-3.182-3.18z" transform="translate(0 -79.451)" style="fill:#059bbf"/>
    </g>
    <path data-name="Path 29740" d="M50.618 377.352H3.18a3.18 3.18 0 0 1-3.18-3.18v-3.3h53.8v3.3a3.18 3.18 0 0 1-3.182 3.18z" transform="translate(0 -340.25)" style="fill:#f79f1a"/>
    <path data-name="Path 29741" d="M2.261 113.372V82.631a3.18 3.18 0 0 1 3.18-3.18H3.18A3.18 3.18 0 0 0 0 82.631v30.741a3.18 3.18 0 0 0 3.18 3.18h2.261a3.18 3.18 0 0 1-3.18-3.18z" transform="translate(0 -79.451)" style="fill:#202121;opacity:.15"/>
</svg>
