<svg xmlns="http://www.w3.org/2000/svg" width="270" height="24" viewBox="0 0 270 24">
    <g data-name="Group 189">
        <text data-name="4.5 412 reviews" transform="translate(135 19)" style="fill:#fff;font-size:20px;font-family:Roboto-Regular,Roboto"><tspan x="-134.18" y="0" xml:space="preserve">4.5                          412 Reviews</tspan></text>
        <g data-name="Group 165">
            <path data-name="Icon ionic-ios-star" d="M15.367 7.757H10.89L9.53 3.7a.493.493 0 0 0-.925 0l-1.36 4.06H2.737a.488.488 0 0 0-.487.487.358.358 0 0 0 .009.082.468.468 0 0 0 .2.344l3.679 2.593-1.408 4.103a.488.488 0 0 0 .167.548.471.471 0 0 0 .274.119.6.6 0 0 0 .3-.11l3.591-2.559 3.591 2.559a.57.57 0 0 0 .3.11.437.437 0 0 0 .271-.119.482.482 0 0 0 .167-.548l-1.412-4.106 3.649-2.617.088-.076a.465.465 0 0 0-.359-.813z" transform="translate(36.9 2.295)" style="fill:#ffbc2a"/>
            <path data-name="Icon ionic-ios-star" d="M15.367 7.757H10.89L9.53 3.7a.493.493 0 0 0-.925 0l-1.36 4.06H2.737a.488.488 0 0 0-.487.487.358.358 0 0 0 .009.082.468.468 0 0 0 .2.344l3.679 2.593-1.408 4.103a.488.488 0 0 0 .167.548.471.471 0 0 0 .274.119.6.6 0 0 0 .3-.11l3.591-2.559 3.591 2.559a.57.57 0 0 0 .3.11.437.437 0 0 0 .271-.119.482.482 0 0 0 .167-.548l-1.412-4.106 3.649-2.617.088-.076a.465.465 0 0 0-.359-.813z" transform="translate(52.45 2.295)" style="fill:#ffbc2a"/>
            <path data-name="Icon ionic-ios-star" d="M15.367 7.757H10.89L9.53 3.7a.493.493 0 0 0-.925 0l-1.36 4.06H2.737a.488.488 0 0 0-.487.487.358.358 0 0 0 .009.082.468.468 0 0 0 .2.344l3.679 2.593-1.408 4.103a.488.488 0 0 0 .167.548.471.471 0 0 0 .274.119.6.6 0 0 0 .3-.11l3.591-2.559 3.591 2.559a.57.57 0 0 0 .3.11.437.437 0 0 0 .271-.119.482.482 0 0 0 .167-.548l-1.412-4.106 3.649-2.617.088-.076a.465.465 0 0 0-.359-.813z" transform="translate(68 2.295)" style="fill:#ffbc2a"/>
            <path data-name="Icon ionic-ios-star" d="M15.367 7.757H10.89L9.53 3.7a.493.493 0 0 0-.925 0l-1.36 4.06H2.737a.488.488 0 0 0-.487.487.358.358 0 0 0 .009.082.468.468 0 0 0 .2.344l3.679 2.593-1.408 4.103a.488.488 0 0 0 .167.548.471.471 0 0 0 .274.119.6.6 0 0 0 .3-.11l3.591-2.559 3.591 2.559a.57.57 0 0 0 .3.11.437.437 0 0 0 .271-.119.482.482 0 0 0 .167-.548l-1.412-4.106 3.649-2.617.088-.076a.465.465 0 0 0-.359-.813z" transform="translate(83.55 2.295)" style="fill:#ffbc2a"/>
            <path data-name="Icon ionic-ios-star" d="M10.89 7.757 9.53 3.7a.493.493 0 0 0-.925 0l-1.36 4.06H2.737a.488.488 0 0 0-.487.487.358.358 0 0 0 .009.082.468.468 0 0 0 .2.344l3.679 2.593-1.408 4.103a.488.488 0 0 0 .167.548.471.471 0 0 0 .274.119.6.6 0 0 0 .3-.11l3.591-2.559 3.591 2.559a.57.57 0 0 0 .3.11.437.437 0 0 0 .271-.119.482.482 0 0 0 .167-.548z" transform="translate(99.1 2.295)" style="fill:#ffbc2a"/>
        </g>
        <g data-name="search (7)">
            <path data-name="Path 54" d="M5.217 146.137 4.4 149.2l-3 .063a11.792 11.792 0 0 1-.087-10.992l2.666.489 1.168 2.65a7.025 7.025 0 0 0 .066 4.73z" transform="translate(127 -131.452)" style="fill:#fbbb00"/>
            <path data-name="Path 55" d="M272.935 208.176a11.767 11.767 0 0 1-4.2 11.378l-3.359-.171-.475-2.967a7.015 7.015 0 0 0 3.018-3.582h-6.294v-4.657h11.307z" transform="translate(-122.598 -198.146)" style="fill:#518ef8"/>
            <path data-name="Path 56" d="M48.246 316.132a11.775 11.775 0 0 1-17.737-3.6l3.815-3.123a7 7 0 0 0 10.088 3.584z" transform="translate(97.894 -294.724)" style="fill:#28b446"/>
            <path data-name="Path 57" d="m46.592 2.71-3.813 3.122A7 7 0 0 0 32.459 9.5l-3.834-3.142A11.773 11.773 0 0 1 46.592 2.71z" transform="translate(99.692 .458)" style="fill:#f14336"/>
        </g>
    </g>
</svg>
