<svg xmlns="http://www.w3.org/2000/svg" width="266.855" height="23.542" viewBox="0 0 266.855 23.542">
  <g id="Group_189" data-name="Group 189" transform="translate(-80.338 -768.458)">
    <path id="Path_30710" data-name="Path 30710" d="M-125.371-4.775h1.973V-3.3h-1.973V0h-1.816V-3.3h-6.475V-4.365l6.367-9.854h1.924Zm-6.24,0h4.424v-6.973l-.215.391Zm10.068,3.828a1.131,1.131,0,0,1,.278-.781,1.061,1.061,0,0,1,.835-.312,1.092,1.092,0,0,1,.845.313,1.109,1.109,0,0,1,.288.781,1.048,1.048,0,0,1-.288.752,1.112,1.112,0,0,1-.845.3,1.079,1.079,0,0,1-.835-.3A1.069,1.069,0,0,1-121.543-.947Zm11.963-5.3a4.42,4.42,0,0,1-1.353,1.084,3.67,3.67,0,0,1-1.724.41,3.788,3.788,0,0,1-2.144-.605,3.936,3.936,0,0,1-1.411-1.7,5.809,5.809,0,0,1-.5-2.427,5.919,5.919,0,0,1,.542-2.568,3.981,3.981,0,0,1,1.538-1.748,4.386,4.386,0,0,1,2.324-.605,3.971,3.971,0,0,1,3.325,1.577,6.879,6.879,0,0,1,1.216,4.3v.527q0,4.15-1.641,6.06A6.3,6.3,0,0,1-114.355.01h-.352V-1.523h.381a4.974,4.974,0,0,0,3.438-1.165A5,5,0,0,0-109.58-6.25Zm-2.783,0a2.79,2.79,0,0,0,1.675-.557,3.281,3.281,0,0,0,1.118-1.377v-.723a4.972,4.972,0,0,0-.771-2.891,2.3,2.3,0,0,0-1.953-1.113,2.32,2.32,0,0,0-1.914.913,3.767,3.767,0,0,0-.723,2.407,3.92,3.92,0,0,0,.7,2.4A2.211,2.211,0,0,0-112.363-6.25ZM31.084-4.775h1.973V-3.3H31.084V0H29.268V-3.3H22.793V-4.365l6.367-9.854h1.924Zm-6.24,0h4.424v-6.973l-.215.391ZM44,0H34.688V-1.3l4.922-5.469a11.693,11.693,0,0,0,1.509-2.017,3.366,3.366,0,0,0,.415-1.606,2.551,2.551,0,0,0-.674-1.826,2.356,2.356,0,0,0-1.8-.713,2.79,2.79,0,0,0-2.095.767,2.928,2.928,0,0,0-.747,2.134H34.414A4.194,4.194,0,0,1,35.679-13.2a4.688,4.688,0,0,1,3.384-1.211,4.5,4.5,0,0,1,3.135,1.04,3.548,3.548,0,0,1,1.152,2.769q0,2.1-2.676,5L36.865-1.475H44Zm4.541-7.988H49.9a2.984,2.984,0,0,0,2.012-.674,2.251,2.251,0,0,0,.732-1.768,2.205,2.205,0,0,0-2.49-2.5,2.59,2.59,0,0,0-1.87.669,2.341,2.341,0,0,0-.7,1.772H45.781A3.627,3.627,0,0,1,47.017-13.3a4.5,4.5,0,0,1,3.14-1.118,4.447,4.447,0,0,1,3.154,1.064,3.845,3.845,0,0,1,1.143,2.959,3.121,3.121,0,0,1-.6,1.8,3.626,3.626,0,0,1-1.636,1.3,3.494,3.494,0,0,1,1.812,1.23,3.417,3.417,0,0,1,.64,2.1,3.879,3.879,0,0,1-1.25,3.037A4.681,4.681,0,0,1,50.166.2,4.8,4.8,0,0,1,46.909-.889,3.6,3.6,0,0,1,45.654-3.75h1.816a2.324,2.324,0,0,0,.732,1.8,2.786,2.786,0,0,0,1.963.674,2.734,2.734,0,0,0,2-.684,2.634,2.634,0,0,0,.693-1.963,2.391,2.391,0,0,0-.762-1.9,3.319,3.319,0,0,0-2.2-.684H48.545ZM67.783-5.752h-3.34V0H62.559V-14.219h4.707a5.571,5.571,0,0,1,3.7,1.094,3.935,3.935,0,0,1,1.294,3.184,3.828,3.828,0,0,1-.718,2.314,4.285,4.285,0,0,1-2,1.475l3.34,6.035V0H70.869Zm-3.34-1.533h2.881a3.249,3.249,0,0,0,2.222-.724,2.448,2.448,0,0,0,.825-1.937,2.578,2.578,0,0,0-.786-2.025,3.329,3.329,0,0,0-2.271-.714H64.443ZM78.984.2a4.617,4.617,0,0,1-3.5-1.411A5.237,5.237,0,0,1,74.141-4.99v-.332a6.341,6.341,0,0,1,.6-2.808,4.685,4.685,0,0,1,1.68-1.934,4.223,4.223,0,0,1,2.339-.7,3.957,3.957,0,0,1,3.2,1.357,5.877,5.877,0,0,1,1.143,3.887v.752H75.947a3.756,3.756,0,0,0,.913,2.524,2.87,2.87,0,0,0,2.222.962A3.147,3.147,0,0,0,80.7-1.67a4.073,4.073,0,0,0,1.162-1.035l1.1.859A4.437,4.437,0,0,1,78.984.2ZM78.76-9.277a2.41,2.41,0,0,0-1.836.8,3.869,3.869,0,0,0-.918,2.231H81.3v-.137a3.441,3.441,0,0,0-.742-2.134A2.269,2.269,0,0,0,78.76-9.277Zm9.795,6.826,2.617-8.115h1.846L89.229,0H87.852L84.023-10.566h1.846ZM96.719,0H94.912V-10.566h1.807ZM94.766-13.369a1.078,1.078,0,0,1,.269-.742,1.008,1.008,0,0,1,.8-.3,1.024,1.024,0,0,1,.8.3,1.067,1.067,0,0,1,.273.742,1.032,1.032,0,0,1-.273.732,1.043,1.043,0,0,1-.8.293,1.026,1.026,0,0,1-.8-.293A1.043,1.043,0,0,1,94.766-13.369ZM103.994.2a4.617,4.617,0,0,1-3.5-1.411A5.237,5.237,0,0,1,99.15-4.99v-.332a6.341,6.341,0,0,1,.6-2.808,4.685,4.685,0,0,1,1.68-1.934,4.223,4.223,0,0,1,2.339-.7,3.957,3.957,0,0,1,3.2,1.357,5.877,5.877,0,0,1,1.143,3.887v.752h-7.158a3.756,3.756,0,0,0,.913,2.524,2.87,2.87,0,0,0,2.222.962,3.147,3.147,0,0,0,1.621-.391,4.073,4.073,0,0,0,1.162-1.035l1.1.859A4.437,4.437,0,0,1,103.994.2Zm-.225-9.473a2.41,2.41,0,0,0-1.836.8,3.869,3.869,0,0,0-.918,2.231h5.293v-.137a3.441,3.441,0,0,0-.742-2.134A2.269,2.269,0,0,0,103.77-9.277ZM119.561-2.49l2.031-8.076H123.4L120.322,0h-1.465l-2.568-8.008L113.789,0h-1.465l-3.066-10.566h1.8l2.08,7.91,2.461-7.91h1.455ZM131.387-2.8a1.33,1.33,0,0,0-.552-1.138,5.311,5.311,0,0,0-1.924-.7,9.1,9.1,0,0,1-2.178-.7,3.1,3.1,0,0,1-1.191-.977,2.336,2.336,0,0,1-.386-1.348,2.741,2.741,0,0,1,1.1-2.2,4.291,4.291,0,0,1,2.808-.9,4.415,4.415,0,0,1,2.915.928A2.947,2.947,0,0,1,133.1-7.461h-1.816a1.631,1.631,0,0,0-.63-1.279,2.36,2.36,0,0,0-1.587-.537,2.47,2.47,0,0,0-1.543.43,1.353,1.353,0,0,0-.557,1.123,1.1,1.1,0,0,0,.518.986,6.368,6.368,0,0,0,1.87.635,9.744,9.744,0,0,1,2.192.723,3.2,3.2,0,0,1,1.245,1.011,2.485,2.485,0,0,1,.405,1.44,2.7,2.7,0,0,1-1.133,2.271A4.752,4.752,0,0,1,129.121.2a5.321,5.321,0,0,1-2.246-.449,3.653,3.653,0,0,1-1.528-1.255,3.025,3.025,0,0,1-.552-1.743H126.6a1.87,1.87,0,0,0,.728,1.44,2.822,2.822,0,0,0,1.792.532,2.913,2.913,0,0,0,1.646-.415A1.275,1.275,0,0,0,131.387-2.8Z" transform="translate(214 787)" fill="#fff"/>
    <g id="Group_165" data-name="Group 165" transform="translate(-761 480)">
      <path id="Icon_ionic-ios-star" data-name="Icon ionic-ios-star" d="M15.367,7.757H10.89L9.53,3.7a.493.493,0,0,0-.925,0l-1.36,4.06H2.737a.488.488,0,0,0-.487.487.358.358,0,0,0,.009.082.468.468,0,0,0,.2.344l3.679,2.593L4.73,15.369a.488.488,0,0,0,.167.548.471.471,0,0,0,.274.119.6.6,0,0,0,.3-.11l3.591-2.559,3.591,2.559a.57.57,0,0,0,.3.11.437.437,0,0,0,.271-.119.482.482,0,0,0,.167-.548l-1.412-4.106,3.649-2.617.088-.076a.465.465,0,0,0-.359-.813Z" transform="translate(876.9 290.295)" fill="#ffbc2a"/>
      <path id="Icon_ionic-ios-star-2" data-name="Icon ionic-ios-star" d="M15.367,7.757H10.89L9.53,3.7a.493.493,0,0,0-.925,0l-1.36,4.06H2.737a.488.488,0,0,0-.487.487.358.358,0,0,0,.009.082.468.468,0,0,0,.2.344l3.679,2.593L4.73,15.369a.488.488,0,0,0,.167.548.471.471,0,0,0,.274.119.6.6,0,0,0,.3-.11l3.591-2.559,3.591,2.559a.57.57,0,0,0,.3.11.437.437,0,0,0,.271-.119.482.482,0,0,0,.167-.548l-1.412-4.106,3.649-2.617.088-.076a.465.465,0,0,0-.359-.813Z" transform="translate(892.45 290.295)" fill="#ffbc2a"/>
      <path id="Icon_ionic-ios-star-3" data-name="Icon ionic-ios-star" d="M15.367,7.757H10.89L9.53,3.7a.493.493,0,0,0-.925,0l-1.36,4.06H2.737a.488.488,0,0,0-.487.487.358.358,0,0,0,.009.082.468.468,0,0,0,.2.344l3.679,2.593L4.73,15.369a.488.488,0,0,0,.167.548.471.471,0,0,0,.274.119.6.6,0,0,0,.3-.11l3.591-2.559,3.591,2.559a.57.57,0,0,0,.3.11.437.437,0,0,0,.271-.119.482.482,0,0,0,.167-.548l-1.412-4.106,3.649-2.617.088-.076a.465.465,0,0,0-.359-.813Z" transform="translate(908 290.295)" fill="#ffbc2a"/>
      <path id="Icon_ionic-ios-star-4" data-name="Icon ionic-ios-star" d="M15.367,7.757H10.89L9.53,3.7a.493.493,0,0,0-.925,0l-1.36,4.06H2.737a.488.488,0,0,0-.487.487.358.358,0,0,0,.009.082.468.468,0,0,0,.2.344l3.679,2.593L4.73,15.369a.488.488,0,0,0,.167.548.471.471,0,0,0,.274.119.6.6,0,0,0,.3-.11l3.591-2.559,3.591,2.559a.57.57,0,0,0,.3.11.437.437,0,0,0,.271-.119.482.482,0,0,0,.167-.548l-1.412-4.106,3.649-2.617.088-.076a.465.465,0,0,0-.359-.813Z" transform="translate(923.55 290.295)" fill="#ffbc2a"/>
      <path id="Icon_ionic-ios-star-5" data-name="Icon ionic-ios-star" d="M10.89,7.757,9.53,3.7a.493.493,0,0,0-.925,0l-1.36,4.06H2.737a.488.488,0,0,0-.487.487.358.358,0,0,0,.009.082.468.468,0,0,0,.2.344l3.679,2.593L4.73,15.369a.488.488,0,0,0,.167.548.471.471,0,0,0,.274.119.6.6,0,0,0,.3-.11l3.591-2.559,3.591,2.559a.57.57,0,0,0,.3.11.437.437,0,0,0,.271-.119.482.482,0,0,0,.167-.548Z" transform="translate(939.1 290.295)" fill="#ffbc2a"/>
    </g>
    <g id="search_7_" data-name="search (7)" transform="translate(206 768.458)">
      <path id="Path_54" data-name="Path 54" d="M5.217,146.137,4.4,149.2l-3,.063a11.792,11.792,0,0,1-.087-10.992h0l2.666.489,1.168,2.65a7.025,7.025,0,0,0,.066,4.73Z" transform="translate(0 -131.91)" fill="#fbbb00"/>
      <path id="Path_55" data-name="Path 55" d="M272.935,208.176a11.767,11.767,0,0,1-4.2,11.378h0l-3.359-.171-.475-2.967a7.015,7.015,0,0,0,3.018-3.582h-6.294v-4.657h11.307Z" transform="translate(-249.598 -198.604)" fill="#518ef8"/>
      <path id="Path_56" data-name="Path 56" d="M48.246,316.132h0a11.775,11.775,0,0,1-17.737-3.6l3.815-3.123a7,7,0,0,0,10.088,3.584Z" transform="translate(-29.106 -295.182)" fill="#28b446"/>
      <path id="Path_57" data-name="Path 57" d="M46.592,2.71,42.779,5.832A7,7,0,0,0,32.459,9.5L28.625,6.358h0A11.773,11.773,0,0,1,46.592,2.71Z" transform="translate(-27.308)" fill="#f14336"/>
    </g>
  </g>
</svg>
