<svg xmlns="http://www.w3.org/2000/svg" width="115.45" height="101.02" viewBox="0 0 115.45 101.02">
  <path id="Icon_awesome-paw" data-name="Icon awesome-paw" d="M57.726,45.544c-17.906,0-43.293,27.681-43.293,45.154,0,7.869,6.045,12.571,16.176,12.571,11.013,0,18.285-5.655,27.117-5.655,8.909,0,16.2,5.655,27.117,5.655,10.131,0,16.176-4.7,16.176-12.571C101.019,73.225,75.632,45.544,57.726,45.544ZM24.516,42.7c-2.345-7.813-9.57-12.873-16.136-11.3S-1.607,40.573.739,48.386s9.57,12.873,16.136,11.3,9.987-9.175,7.642-16.988Zm19.1-4.686c6.977-1.835,10.467-11.261,7.8-21.051S40.927.727,33.95,2.562s-10.467,11.261-7.8,21.051S36.645,39.853,43.619,38.015Zm63.45-6.616C100.5,29.83,93.28,34.89,90.933,42.7s1.076,15.419,7.642,16.988,13.788-3.491,16.136-11.3S113.635,32.969,107.069,31.4ZM71.832,38.015c6.977,1.835,14.8-4.611,17.466-14.4S88.478,4.4,81.5,2.562s-14.8,4.611-17.466,14.4.821,19.216,7.8,21.051Z" transform="translate(0.001 -2.25)" fill="#ffbc2a"/>
</svg>
