<svg xmlns="http://www.w3.org/2000/svg" width="75.835" height="12.66" viewBox="0 0 75.835 12.66">
    <g data-name="Group 169">
        <path data-name="Icon ionic-ios-star" d="M15.367 7.757H10.89L9.53 3.7a.493.493 0 0 0-.925 0l-1.36 4.06H2.737a.488.488 0 0 0-.487.487.358.358 0 0 0 .009.082.468.468 0 0 0 .2.344l3.679 2.593-1.408 4.103a.488.488 0 0 0 .167.548.471.471 0 0 0 .274.119.6.6 0 0 0 .3-.11l3.591-2.559 3.591 2.559a.57.57 0 0 0 .3.11.437.437 0 0 0 .271-.119.482.482 0 0 0 .167-.548l-1.412-4.106 3.649-2.617.088-.076a.465.465 0 0 0-.359-.813z" transform="translate(-2.25 -3.375)" style="fill:#ffbc2a"/>
        <path data-name="Icon ionic-ios-star" d="M15.367 7.757H10.89L9.53 3.7a.493.493 0 0 0-.925 0l-1.36 4.06H2.737a.488.488 0 0 0-.487.487.358.358 0 0 0 .009.082.468.468 0 0 0 .2.344l3.679 2.593-1.408 4.103a.488.488 0 0 0 .167.548.471.471 0 0 0 .274.119.6.6 0 0 0 .3-.11l3.591-2.559 3.591 2.559a.57.57 0 0 0 .3.11.437.437 0 0 0 .271-.119.482.482 0 0 0 .167-.548l-1.412-4.106 3.649-2.617.088-.076a.465.465 0 0 0-.359-.813z" transform="translate(13.3 -3.375)" style="fill:#ffbc2a"/>
        <path data-name="Icon ionic-ios-star" d="M15.367 7.757H10.89L9.53 3.7a.493.493 0 0 0-.925 0l-1.36 4.06H2.737a.488.488 0 0 0-.487.487.358.358 0 0 0 .009.082.468.468 0 0 0 .2.344l3.679 2.593-1.408 4.103a.488.488 0 0 0 .167.548.471.471 0 0 0 .274.119.6.6 0 0 0 .3-.11l3.591-2.559 3.591 2.559a.57.57 0 0 0 .3.11.437.437 0 0 0 .271-.119.482.482 0 0 0 .167-.548l-1.412-4.106 3.649-2.617.088-.076a.465.465 0 0 0-.359-.813z" transform="translate(28.85 -3.375)" style="fill:#ffbc2a"/>
        <path data-name="Icon ionic-ios-star" d="M15.367 7.757H10.89L9.53 3.7a.493.493 0 0 0-.925 0l-1.36 4.06H2.737a.488.488 0 0 0-.487.487.358.358 0 0 0 .009.082.468.468 0 0 0 .2.344l3.679 2.593-1.408 4.103a.488.488 0 0 0 .167.548.471.471 0 0 0 .274.119.6.6 0 0 0 .3-.11l3.591-2.559 3.591 2.559a.57.57 0 0 0 .3.11.437.437 0 0 0 .271-.119.482.482 0 0 0 .167-.548l-1.412-4.106 3.649-2.617.088-.076a.465.465 0 0 0-.359-.813z" transform="translate(44.4 -3.375)" style="fill:#ffbc2a"/>
        <path data-name="Icon ionic-ios-star" d="M15.367 7.757H10.89L9.53 3.7a.493.493 0 0 0-.925 0l-1.36 4.06H2.737a.488.488 0 0 0-.487.487.358.358 0 0 0 .009.082.468.468 0 0 0 .2.344l3.679 2.593-1.408 4.103a.488.488 0 0 0 .167.548.471.471 0 0 0 .274.119.6.6 0 0 0 .3-.11l3.591-2.559 3.591 2.559a.57.57 0 0 0 .3.11.437.437 0 0 0 .271-.119.482.482 0 0 0 .167-.548l-1.412-4.106 3.649-2.617.088-.076a.465.465 0 0 0-.359-.813z" transform="translate(59.95 -3.375)" style="fill:#ffbc2a"/>
    </g>
</svg>
