<svg xmlns="http://www.w3.org/2000/svg" width="145.852" height="168.074" viewBox="0 0 145.852 168.074">
  <g id="stars" transform="translate(-8.78 -2.5)">
    <path id="Path_29770" data-name="Path 29770" d="M133.789,89.021c-45.978,7.561-54.152,17.165-60.282,73.156a1.541,1.541,0,0,1-3.065,0c-6.13-55.991-14.3-65.391-60.282-73.156a1.541,1.541,0,0,1,0-3.065C56.138,78.395,64.311,68.995,70.442,13a1.541,1.541,0,0,1,3.065,0c6.13,55.991,14.3,65.186,60.282,72.951C135.424,86.16,135.424,88.612,133.789,89.021Z" transform="translate(0 7.019)" fill="#ffbc2a"/>
    <path id="Path_29771" data-name="Path 29771" d="M110.517,31.466c-14.3,2.861-18.391,7.561-20.843,24.317a1.541,1.541,0,0,1-3.065,0c-2.452-16.756-6.539-21.456-20.843-24.522a1.571,1.571,0,0,1,0-3.065c14.1-2.861,18.391-7.561,20.843-24.317a1.541,1.541,0,0,1,3.065,0c2.452,16.756,6.539,21.456,20.843,24.522,1.635.409,1.635,2.861,0,3.065Z" transform="translate(42.889)" fill="#ffbc2a"/>
  </g>
</svg>
