<?xml version="1.0" standalone="no"?>
<!DOCTYPE svg PUBLIC "-//W3C//DTD SVG 1.1//EN" "http://www.w3.org/Graphics/SVG/1.1/DTD/svg11.dtd" >
<svg xmlns="http://www.w3.org/2000/svg" xmlns:xlink="http://www.w3.org/1999/xlink" version="1.1">
<metadata>
Created by FontForge 20190801 at Thu Dec 17 23:25:33 2020
 By root
Copyright \(c\) 2018 by Nikola &#38; Zoran Kostic. All rights reserved.
</metadata>
<defs>
<font id="RocGrotesk-CondensedBold" horiz-adv-x="432" >
  <font-face 
    font-family="Roc Grotesk Condensed"
    font-weight="700"
    font-stretch="condensed"
    units-per-em="1000"
    panose-1="0 0 8 6 0 0 0 0 0 0"
    ascent="760"
    descent="-240"
    x-height="494"
    cap-height="658"
    bbox="-338 -305 810 924"
    underline-thickness="50"
    underline-position="-80"
    stemh="122"
    stemv="144"
    unicode-range="U+000D-FB02"
  />
<missing-glyph horiz-adv-x="359" 
d="M56 0v658h247v-658h-247zM97 59h164v541h-164v-541z" />
    <glyph glyph-name="f_f" unicode="ff" horiz-adv-x="596" 
d="M59 0v374h-54v120h54v53c0 101 56 153 164 153c34 0 64 -6 76 -10v-110c-9 3 -27 6 -47 6c-39 0 -55 -17 -55 -50v-42h139v53c0 101 57 153 165 153c40 0 70 -8 80 -11v-110c-10 3 -31 7 -52 7c-39 0 -55 -17 -55 -50v-42h114v-120h-114v-374h-138v374h-139v-374h-138z
" />
    <glyph glyph-name="fi" unicode="fi" horiz-adv-x="519" 
d="M59 0v374h-54v120h54v53c0 101 56 153 164 153c41 0 71 -8 80 -11v-110c-10 3 -31 7 -51 7c-39 0 -55 -17 -55 -50v-42h112v-120h-112v-374h-138zM348 533v119h139v-119h-139zM349 0v494h138v-494h-138z" />
    <glyph glyph-name="fl" unicode="fl" horiz-adv-x="517" 
d="M59 0v374h-54v120h54v53c0 101 56 153 164 153c41 0 71 -8 80 -11v-110c-10 3 -31 7 -51 7c-39 0 -55 -17 -55 -50v-42h112v-120h-112v-374h-138zM348 0v686h138v-686h-138z" />
    <glyph glyph-name=".notdef" horiz-adv-x="359" 
d="M56 0v658h247v-658h-247zM97 59h164v541h-164v-541z" />
    <glyph glyph-name="space" unicode=" " horiz-adv-x="168" 
 />
    <glyph glyph-name="quotesingle" unicode="'" horiz-adv-x="186" 
d="M71 391l-41 234v33h126v-33l-40 -234h-45z" />
    <glyph glyph-name="quotedbl" unicode="&#x22;" horiz-adv-x="344" 
d="M71 391l-41 234v33h126v-33l-40 -234h-45zM228 391l-40 234v33h125v-33l-40 -234h-45z" />
    <glyph glyph-name="quotesinglbase" unicode="&#x201a;" horiz-adv-x="198" 
d="M30 -131v66c38 3 56 20 55 61v4h-52v150h129v-110c0 -127 -50 -167 -132 -171z" />
    <glyph glyph-name="quoteleft" unicode="&#x2018;" horiz-adv-x="198" 
d="M168 672v-66c-38 -3 -56 -20 -55 -61v-4h52v-150h-129v110c0 127 50 167 132 171z" />
    <glyph glyph-name="quoteright" unicode="&#x2019;" horiz-adv-x="198" 
d="M30 377v66c38 3 56 20 55 61v4h-52v150h129v-110c0 -127 -50 -167 -132 -171z" />
    <glyph glyph-name="quotedblbase" unicode="&#x201e;" horiz-adv-x="365" 
d="M30 -131v66c38 3 56 20 55 61v4h-52v150h129v-110c0 -127 -50 -167 -132 -171zM197 -131v66c38 3 56 20 55 61v4h-52v150h129v-110c0 -127 -50 -167 -132 -171z" />
    <glyph glyph-name="quotedblleft" unicode="&#x201c;" horiz-adv-x="364" 
d="M168 672v-66c-38 -3 -56 -20 -55 -61v-4h52v-150h-129v110c0 127 50 167 132 171zM334 672v-66c-38 -3 -56 -20 -55 -61v-4h52v-150h-129v110c0 127 50 167 132 171z" />
    <glyph glyph-name="quotedblright" unicode="&#x201d;" horiz-adv-x="365" 
d="M30 379v66c38 3 56 20 55 61v4h-52v150h129v-110c0 -127 -50 -167 -132 -171zM197 379v66c38 3 56 20 55 61v4h-52v150h129v-110c0 -127 -50 -167 -132 -171z" />
    <glyph glyph-name="exclam" unicode="!" horiz-adv-x="203" 
d="M75 221l-38 320v131h127v-131l-37 -320h-52zM36 0v150h130v-150h-130z" />
    <glyph glyph-name="exclamdown" unicode="&#xa1;" horiz-adv-x="203" 
d="M36 314v150h130v-150h-130zM37 -208v131l37 320h52l38 -320v-131h-127z" />
    <glyph glyph-name="question" unicode="?" horiz-adv-x="365" 
d="M61 198v166h92c6 -38 17 -57 38 -57c23 0 38 28 38 126s-11 132 -40 132c-27 0 -40 -24 -40 -100c0 -8 0 -20 1 -35h-112c-2 16 -3 36 -3 53c0 137 55 189 153 189c108 0 154 -71 154 -235c0 -158 -46 -226 -114 -226c-46 0 -66 29 -75 62h-2v-75h-90zM46 0v150h129v-150
h-129z" />
    <glyph glyph-name="questiondown" unicode="&#xbf;" horiz-adv-x="365" 
d="M190 315v150h129v-150h-129zM178 -208c-108 0 -154 71 -154 234c0 159 46 228 114 228c46 0 65 -30 75 -64h2l-1 77h90v-166h-91c-7 37 -18 57 -37 57c-25 0 -40 -28 -40 -126s12 -132 41 -132c26 0 39 24 39 99v35h111c1 -9 3 -30 3 -53c0 -137 -54 -189 -152 -189z" />
    <glyph glyph-name="period" unicode="." horiz-adv-x="217" 
d="M43 0v150h130v-150h-130z" />
    <glyph glyph-name="colon" unicode=":" horiz-adv-x="217" 
d="M43 323v150h130v-150h-130zM43 0v150h130v-150h-130z" />
    <glyph glyph-name="comma" unicode="," horiz-adv-x="217" 
d="M34 -131v66c38 3 56 20 55 61v4h-52v150h129v-110c0 -127 -50 -167 -132 -171z" />
    <glyph glyph-name="semicolon" unicode=";" horiz-adv-x="217" 
d="M43 323v150h130v-150h-130zM38 -131v64c39 2 58 22 58 63v4h-53v150h130v-110c0 -127 -52 -167 -135 -171z" />
    <glyph glyph-name="periodcentered" unicode="&#xb7;" horiz-adv-x="216" 
d="M43 232v150h130v-150h-130z" />
    <glyph glyph-name="bullet" unicode="&#x2022;" horiz-adv-x="310" 
d="M155 198c-50 0 -83 43 -83 111s33 111 83 111c52 0 83 -43 83 -111s-31 -111 -83 -111z" />
    <glyph glyph-name="ellipsis" unicode="&#x2026;" horiz-adv-x="605" 
d="M43 0v150h130v-150h-130zM238 0v150h129v-150h-129zM433 0v150h129v-150h-129z" />
    <glyph glyph-name="numbersign" unicode="#" 
d="M417 392h-93l-16 -127h109v-123h-124l-17 -142h-66l17 142h-67l-17 -142h-67l17 142h-78v123h94l15 127h-109v123h124l18 143h65l-17 -143h68l17 143h66l-17 -143h78v-123zM242 265l16 127h-68l-15 -127h67z" />
    <glyph glyph-name="ampersand" unicode="&#x26;" horiz-adv-x="505" 
d="M466 117c4 0 10 0 17 1l-1 -119c-4 -2 -16 -5 -30 -5c-40 0 -78 11 -117 45c-37 -31 -78 -47 -124 -47c-126 0 -184 81 -184 221c0 82 31 151 108 177c-17 50 -27 93 -27 125c0 87 46 151 151 151c97 0 145 -53 145 -146c0 -94 -45 -154 -121 -167l-1 -1
c14 -33 34 -73 54 -107c14 38 25 83 31 126h113c-14 -76 -38 -160 -70 -229c22 -20 38 -25 56 -25zM269 561c-18 0 -26 -16 -26 -55c0 -20 4 -47 12 -77c31 14 40 41 40 80c0 37 -9 52 -26 52zM157 219c0 -73 25 -107 64 -107c15 0 29 4 42 14c-29 42 -59 93 -88 159h-1
c-9 -11 -17 -34 -17 -66z" />
    <glyph glyph-name="at" unicode="@" horiz-adv-x="689" 
d="M346 -160c-201 0 -327 115 -327 360c0 277 150 470 360 470c189 0 294 -90 294 -296c0 -228 -86 -353 -200 -353c-71 0 -101 37 -101 99h-2c-13 -64 -45 -99 -102 -99c-80 0 -117 67 -117 158c0 133 67 310 178 310c41 0 71 -17 82 -55h1l15 48h118l-43 -259
c-5 -36 -8 -64 -8 -85c0 -30 8 -44 27 -44c51 0 91 147 91 280c0 179 -84 241 -237 241c-170 0 -295 -172 -295 -415c0 -198 90 -305 269 -305c82 0 169 20 209 39l1 -55c-51 -23 -132 -39 -213 -39zM314 129c27 0 50 47 63 127l16 92c-3 23 -19 33 -37 33
c-55 0 -76 -136 -76 -190c0 -38 11 -62 34 -62z" />
    <glyph glyph-name="asterisk" unicode="*" horiz-adv-x="375" 
d="M132 276l-71 36l65 145l-1 2l-98 22l19 81l101 -29l2 2v145h77v-145l2 -2l101 29l18 -81l-98 -22v-2l64 -145l-71 -36l-53 133h-3z" />
    <glyph glyph-name="percent" unicode="%" 
d="M119 377c-70 0 -106 40 -106 145c0 93 35 144 106 144c72 0 106 -51 106 -144c0 -105 -34 -145 -106 -145zM8 0l348 658h68l-348 -658h-68zM119 445c20 0 29 17 29 76c0 57 -10 76 -29 76s-27 -19 -27 -76c0 -59 7 -76 27 -76zM312 -8c-71 0 -105 41 -105 146
c0 93 34 143 105 143c73 0 107 -50 107 -143c0 -105 -36 -146 -107 -146zM312 61c20 0 28 16 28 77c0 56 -9 75 -28 75c-18 0 -28 -19 -28 -75c0 -61 9 -77 28 -77z" />
    <glyph glyph-name="perthousand" unicode="&#x2030;" horiz-adv-x="674" 
d="M119 377c-70 0 -106 40 -106 145c0 93 35 144 106 144c72 0 106 -51 106 -144c0 -105 -34 -145 -106 -145zM8 0l348 658h68l-348 -658h-68zM119 445c20 0 29 17 29 76c0 57 -10 76 -29 76s-27 -19 -27 -76c0 -59 7 -76 27 -76zM312 -8c-71 0 -105 41 -105 146
c0 93 34 143 105 143c73 0 107 -50 107 -143c0 -105 -36 -146 -107 -146zM555 -8c-71 0 -107 41 -107 146c0 93 35 143 107 143c71 0 106 -50 106 -143c0 -105 -35 -146 -106 -146zM312 61c20 0 28 16 28 77c0 56 -9 75 -28 75c-18 0 -28 -19 -28 -75c0 -61 9 -77 28 -77z
M555 61c19 0 27 16 27 77c0 56 -9 75 -27 75c-19 0 -29 -19 -29 -75c0 -61 9 -77 29 -77z" />
    <glyph glyph-name="currency" unicode="&#xa4;" 
d="M89 54l-59 35l61 101c-29 30 -45 77 -45 140c0 62 16 108 44 138l-60 100l59 35l61 -99c20 9 42 13 66 13s46 -4 66 -12l61 98l59 -35l-60 -100c28 -30 45 -76 45 -138s-18 -109 -46 -140l61 -101l-59 -35l-63 100c-19 -7 -41 -11 -64 -11s-45 4 -64 11zM216 240
c36 0 60 25 60 90c0 66 -24 91 -60 91c-37 0 -59 -25 -59 -91c0 -65 23 -90 59 -90z" />
    <glyph glyph-name="Euro" unicode="&#x20ac;" 
d="M217 253c9 -82 37 -109 96 -109c28 0 57 6 76 16v-111c-27 -14 -70 -20 -106 -20c-124 0 -194 68 -208 224h-63l18 56h42v10v23h-59l18 56h46c18 154 97 231 229 231c43 0 80 -9 107 -21l-29 -108c-16 8 -42 14 -68 14c-59 0 -89 -30 -99 -116h151l-14 -56h-140v-17v-16
h132l-14 -56h-115z" />
    <glyph glyph-name="dollar" unicode="$" 
d="M408 211c0 -89 -38 -151 -119 -173v-111h-53v103c-7 -1 -14 -1 -22 -1h-17v-102h-53v110c-89 23 -118 95 -118 199h125c0 -75 13 -103 63 -103c38 0 55 19 55 68c0 26 -7 41 -22 52s-47 21 -78 33c-30 12 -77 30 -100 52c-24 22 -43 57 -43 112c0 81 39 146 118 169v112
h53v-102h17c8 0 15 0 22 -1v103h53v-111c79 -22 110 -86 110 -202h-120c-1 81 -16 107 -59 107c-41 0 -57 -26 -57 -67c0 -28 7 -43 22 -53s51 -24 81 -36c38 -15 70 -28 95 -48c27 -22 47 -59 47 -110z" />
    <glyph glyph-name="dollar.ss06" 
d="M408 211c0 -105 -53 -172 -167 -181v-103h-48v103c-128 7 -167 85 -167 206h125c0 -63 9 -93 42 -101v142l-24 9c-30 12 -77 30 -100 52c-24 22 -43 57 -43 112c0 96 56 170 167 178v103h48v-103c114 -8 158 -73 158 -210h-120c-1 66 -11 96 -38 104v-143l25 -10
c38 -15 70 -28 95 -48c27 -22 47 -59 47 -110zM163 458c0 -28 7 -43 22 -53l8 -5v120c-21 -9 -30 -32 -30 -62zM241 138c19 8 28 28 28 63c0 26 -7 41 -22 52l-6 4v-119z" />
    <glyph glyph-name="cent" unicode="&#xa2;" 
d="M227 186c45 0 56 27 57 114h121c0 -158 -53 -228 -186 -228c-6 0 -12 0 -18 1l-19 -103h-59l22 113c-85 28 -119 113 -119 246c0 180 71 257 198 257h13l20 102h59l-22 -112c76 -24 111 -95 111 -219h-121c-1 85 -11 115 -55 115c-47 0 -65 -31 -65 -143
c0 -109 12 -143 63 -143z" />
    <glyph glyph-name="sterling" unicode="&#xa3;" 
d="M407 234c1 -9 3 -29 3 -50c0 -101 -39 -155 -114 -155c-36 0 -68 17 -102 45c-20 -28 -49 -45 -87 -45c-54 0 -86 39 -86 92s30 88 83 88c11 0 21 -1 32 -4c-3 25 -10 50 -21 77h-86v55h58c-29 54 -45 101 -45 141c0 95 69 151 186 151c122 0 170 -59 170 -178
c0 -24 -2 -54 -3 -65h-116c1 10 2 33 2 65c0 42 -11 63 -49 63c-39 0 -48 -20 -48 -51c0 -29 15 -72 28 -121c0 -2 1 -3 1 -5h134v-55h-122c4 -24 5 -45 5 -67c0 -18 -1 -35 -4 -52c20 -10 36 -19 47 -19c16 0 23 11 23 55c0 5 0 20 -1 35h112zM103 83c13 0 22 14 27 35
c-9 5 -17 7 -24 7c-14 0 -19 -9 -19 -21c0 -11 5 -21 16 -21z" />
    <glyph glyph-name="yen" unicode="&#xa5;" 
d="M418 619l-107 -286h93v-55h-113l-6 -16v-27h119v-55h-119v-141h-138v141h-119v55h119v27l-6 16h-113v55h93l-107 286h157l57 -237h2l62 237h126z" />
    <glyph glyph-name="florin" unicode="&#x192;" 
d="M407 395v-119h-126l-27 -208c-12 -101 -54 -153 -158 -153c-45 0 -71 10 -78 13v105c9 -2 27 -4 47 -4c38 0 48 19 52 55l25 192h-80v119h95l8 61c14 98 56 153 165 153c44 0 68 -9 74 -12v-107c-5 1 -21 6 -46 6c-38 0 -51 -22 -55 -55l-6 -46h110z" />
    <glyph glyph-name="franc" unicode="&#x20a3;" 
d="M392 497h-178v-118h139v-80h-139v-93h92v-55h-92v-112h-138v112h-64v55h64v413h316v-122z" />
    <glyph glyph-name="peseta" unicode="&#x20a7;" 
d="M426 394v-55h-38c-6 -123 -47 -181 -175 -181h-33v-119h-132v300h-40v55h40v225h154c155 0 185 -98 187 -225h37zM180 502v-108h92c-3 74 -17 108 -70 108h-22zM205 250c46 0 63 26 66 89h-91v-89h25z" />
    <glyph glyph-name="uni20AA" unicode="&#x20aa;" 
d="M24 39v494h212c47 0 66 -19 66 -67v-331h-68v308c0 18 -6 27 -25 27h-117v-431h-68zM130 39v398h68v-335h116c19 0 26 7 26 28v403h68v-416c0 -57 -20 -78 -67 -78h-211z" />
    <glyph glyph-name="uni20BD" unicode="&#x20bd;" 
d="M245 239h-50v-39h136v-55h-136v-106h-132v106h-49v55h49v39h-49v54h49v326h154c145 0 187 -69 187 -202c0 -107 -29 -178 -159 -178zM195 502v-209h29c47 0 61 25 61 110c0 68 -14 99 -63 99h-27z" />
    <glyph glyph-name="lira.turk" unicode="&#x20ba;" 
d="M400 327c1 -12 3 -35 3 -57c0 -166 -57 -231 -200 -231h-136v266l-55 -19v60l55 19v41l-55 -19v60l55 19v153h133v-106l101 35v-60l-101 -35v-41l101 35v-60l-101 -35v-196h16c50 0 67 26 67 107c0 16 0 34 -1 64h118z" />
    <glyph glyph-name="registered" unicode="&#xae;" horiz-adv-x="615" 
d="M307 -126c-174 0 -279 139 -279 399s105 399 279 399s280 -139 280 -399s-106 -399 -280 -399zM307 -74c144 0 226 115 226 347s-82 347 -226 347c-143 0 -225 -115 -225 -347s82 -347 225 -347zM189 71v413h124c77 0 114 -41 114 -114c0 -52 -10 -77 -39 -93v-2
c30 -13 39 -37 39 -73v-131h-70v123c0 32 -10 48 -41 48h-57v-171h-70zM259 300h48c40 0 50 21 50 60c0 40 -11 59 -55 59h-43v-119z" />
    <glyph glyph-name="copyright" unicode="&#xa9;" horiz-adv-x="615" 
d="M307 -126c-174 0 -279 139 -279 399s105 399 279 399s280 -139 280 -399s-106 -399 -280 -399zM307 -74c144 0 226 115 226 347s-82 347 -226 347c-143 0 -225 -115 -225 -347s82 -347 225 -347zM315 61c-99 0 -143 81 -143 217c0 145 53 216 138 216
c94 0 126 -63 126 -161h-67c-2 61 -16 96 -59 96c-50 0 -68 -60 -68 -151c0 -94 22 -152 73 -152c34 0 52 25 55 92h66c-1 -97 -36 -157 -121 -157z" />
    <glyph glyph-name="trademark" unicode="&#x2122;" horiz-adv-x="643" 
d="M120 318v286h-81v54h221v-54h-81v-286h-59zM300 318v340h87l49 -156h2l47 156h88v-340h-59v248h-5l-66 -206h-14l-65 206h-5v-248h-59z" />
    <glyph glyph-name="dagger" unicode="&#x2020;" 
d="M167 -40l-18 272l15 150h-2l-71 -17h-57v117h57l69 -16h5v15l-15 130v61h132v-61l-15 -130v-15h5l69 16h56v-117h-56l-72 17h-1l15 -150l-19 -272h-97z" />
    <glyph glyph-name="daggerdbl" unicode="&#x2021;" 
d="M150 -40v61l15 97v15h-5l-69 -17h-57v117h57l71 -16h2l-15 99l15 100h-2l-71 -17h-57v117h57l69 -17h5v16l-15 96v61h132v-61l-15 -96v-16h5l69 17h56v-117h-56l-72 17h-1l15 -100l-15 -99h1l72 16h56v-117h-56l-69 17h-5v-15l15 -97v-61h-132z" />
    <glyph glyph-name="paragraph" unicode="&#xb6;" 
d="M215 -96v276h-39c-107 0 -148 61 -148 193c0 150 59 207 167 207h209v-676h-75v593h-39v-593h-75zM195 263h20v234h-16c-39 0 -54 -26 -54 -119c0 -92 16 -115 50 -115z" />
    <glyph glyph-name="section" unicode="&#xa7;" 
d="M215 -126c-131 0 -161 68 -161 175h119c0 -59 10 -77 44 -77c29 0 41 18 41 48c0 24 -8 39 -26 49c-19 11 -102 34 -134 51c-33 18 -56 46 -56 92c0 50 21 89 63 105v1c-8 4 -14 8 -19 12c-25 21 -44 54 -44 103c0 94 52 161 176 161c131 0 161 -68 161 -175h-119
c0 59 -10 77 -44 77c-29 0 -41 -18 -41 -48c0 -24 8 -39 26 -49c19 -11 102 -34 134 -51c33 -18 56 -46 56 -92c0 -50 -21 -89 -63 -105v-1c8 -4 14 -8 19 -12c25 -21 44 -54 44 -103c0 -94 -52 -161 -176 -161zM244 182c17 5 26 22 26 44c0 19 -10 32 -29 41
c-9 4 -29 11 -52 19c-17 -5 -26 -22 -26 -44c0 -19 10 -32 29 -41c9 -4 29 -11 52 -19z" />
    <glyph glyph-name="estimated" unicode="&#x212e;" horiz-adv-x="855" 
d="M428 -14c-211 0 -383 152 -383 343c0 190 172 343 383 343s382 -153 382 -343v-22h-619c-3 0 -5 -1 -5 -4v-153c0 -8 3 -16 8 -22c59 -63 143 -100 235 -100c88 0 167 34 226 91h76c-69 -82 -180 -133 -303 -133zM191 349h475c3 0 5 2 5 5v157c0 9 -4 17 -10 23
c-60 60 -142 96 -232 96c-92 0 -174 -37 -234 -99c-5 -6 -9 -15 -9 -24v-153c0 -3 2 -5 5 -5z" />
    <glyph glyph-name="uni2113" unicode="&#x2113;" 
d="M225 163c17 -38 44 -55 84 -55c33 0 56 7 72 14v-114c-7 -3 -36 -17 -90 -17c-93 0 -151 40 -183 112c-27 -9 -55 -16 -86 -22v104c21 5 40 11 58 18c-5 37 -8 79 -8 125v148c0 163 33 241 156 241c113 0 156 -66 156 -219c0 -132 -47 -255 -159 -335zM205 496v-191v-25
c42 47 60 113 60 209c0 85 -8 112 -31 112c-26 0 -29 -29 -29 -105z" />
    <glyph glyph-name="parenleft" unicode="(" horiz-adv-x="235" 
d="M136 -145c-69 95 -117 248 -117 429s48 344 117 439h95c-60 -103 -110 -271 -110 -439c0 -167 50 -326 110 -429h-95z" />
    <glyph glyph-name="parenright" unicode=")" horiz-adv-x="235" 
d="M3 -145c61 103 111 262 111 429c0 168 -50 336 -111 439h96c69 -95 116 -258 116 -439s-47 -334 -116 -429h-96z" />
    <glyph glyph-name="bracketleft" unicode="[" horiz-adv-x="285" 
d="M43 -183v969h235v-63h-115v-843h115v-63h-235z" />
    <glyph glyph-name="bracketright" unicode="]" horiz-adv-x="285" 
d="M6 -183v63h116v843h-116v63h235v-969h-235z" />
    <glyph glyph-name="braceleft" unicode="{" horiz-adv-x="318" 
d="M300 -180c-145 0 -220 34 -220 150c0 74 39 157 39 214c0 41 -21 61 -49 61h-58v78h58c28 0 49 20 49 60c0 58 -39 141 -39 215c0 116 75 150 220 150v-69c-75 0 -104 -21 -104 -77c0 -65 36 -132 36 -199c0 -53 -35 -98 -88 -116v-6c53 -19 88 -63 88 -115
c0 -69 -36 -132 -36 -200c0 -56 29 -78 104 -78v-68z" />
    <glyph glyph-name="braceright" unicode="}" horiz-adv-x="318" 
d="M18 -180v68c76 0 105 22 105 78c0 68 -36 131 -36 200c0 52 35 96 87 115v6c-52 18 -87 63 -87 116c0 67 36 134 36 199c0 56 -29 77 -105 77v69c146 0 221 -34 221 -150c0 -74 -40 -157 -40 -215c0 -40 22 -60 49 -60h58v-78h-58c-27 0 -49 -20 -49 -61
c0 -57 40 -140 40 -214c0 -116 -75 -150 -221 -150z" />
    <glyph glyph-name="less" unicode="&#x3c;" 
d="M380 40l-329 205v86l329 205v-132l-200 -115v-2l200 -115v-132z" />
    <glyph glyph-name="greater" unicode="&#x3e;" 
d="M52 40v132l200 115v2l-200 115v132l329 -205v-86z" />
    <glyph glyph-name="lessequal" unicode="&#x2264;" 
d="M380 157l-329 163v87l329 164v-120l-199 -86v-2l199 -86v-120zM53 27v100h327v-100h-327z" />
    <glyph glyph-name="greaterequal" unicode="&#x2265;" 
d="M52 157v120l199 86v2l-199 86v120l329 -164v-87zM52 27v100h327v-100h-327z" />
    <glyph glyph-name="guilsinglleft" unicode="&#x2039;" horiz-adv-x="290" 
d="M146 60l-114 220l114 220h111l-116 -220l116 -220h-111z" />
    <glyph glyph-name="guilsinglright" unicode="&#x203a;" horiz-adv-x="290" 
d="M31 60l118 220l-118 220h112l114 -220l-114 -220h-112z" />
    <glyph glyph-name="guillemotleft" unicode="&#xab;" horiz-adv-x="464" 
d="M143 60l-114 220l114 220h111l-116 -220l116 -220h-111zM315 60l-114 220l114 220h110l-116 -220l116 -220h-110z" />
    <glyph glyph-name="guillemotright" unicode="&#xbb;" horiz-adv-x="464" 
d="M39 60l117 220l-117 220h111l114 -220l-114 -220h-111zM211 60l116 220l-116 220h110l115 -220l-115 -220h-110z" />
    <glyph glyph-name="plus" unicode="+" 
d="M164 57v176h-128v100h128v176h103v-176h130v-100h-130v-176h-103z" />
    <glyph glyph-name="plusminus" unicode="&#xb1;" 
d="M164 177v152h-128v100h128v152h103v-152h130v-100h-130v-152h-103zM36 31v100h361v-100h-361z" />
    <glyph glyph-name="hyphen" unicode="-" horiz-adv-x="238" 
d="M24 233v100h191v-100h-191z" />
    <glyph glyph-name="endash" unicode="&#x2013;" horiz-adv-x="443" 
d="M32 233v100h378v-100h-378z" />
    <glyph glyph-name="emdash" unicode="&#x2014;" horiz-adv-x="577" 
d="M32 233v100h513v-100h-513z" />
    <glyph glyph-name="equal" unicode="=" 
d="M35 307v100h362v-100h-362zM35 149v100h362v-100h-362z" />
    <glyph glyph-name="notequal" unicode="&#x2260;" 
d="M117 54l30 95h-112v100h142l18 58h-160v100h190l34 106h56l-34 -106h116v-100h-145l-20 -58h165v-100h-195l-30 -95h-55z" />
    <glyph glyph-name="minus" unicode="&#x2212;" 
d="M35 233v100h362v-100h-362z" />
    <glyph glyph-name="multiply" unicode="&#xd7;" 
d="M91 79l-64 60l122 144l-122 144l64 60l125 -135l125 135l64 -60l-123 -144l123 -144l-64 -60l-125 134z" />
    <glyph glyph-name="divide" unicode="&#xf7;" 
d="M155 389v137h123v-137h-123zM35 233v100h362v-100h-362zM155 41v137h123v-137h-123z" />
    <glyph glyph-name="logicalnot" unicode="&#xac;" 
d="M297 91v142h-266v100h370v-242h-104z" />
    <glyph glyph-name="approxequal" unicode="&#x2248;" 
d="M299 283c-56 0 -102 62 -168 62c-57 0 -99 -46 -101 -49v102c3 5 45 46 101 46c69 0 115 -63 168 -63c49 0 86 31 103 48v-102c-18 -17 -56 -44 -103 -44zM299 127c-56 0 -102 62 -168 62c-57 0 -99 -46 -101 -49v102c3 4 45 46 101 46c69 0 115 -63 168 -63
c49 0 86 31 103 48v-101c-18 -19 -55 -45 -103 -45z" />
    <glyph glyph-name="infinity" unicode="&#x221e;" horiz-adv-x="500" 
d="M139 59c-72 0 -113 62 -113 228c0 165 40 228 113 228c44 0 75 -31 92 -84l18 -55h2l18 55c17 53 47 84 92 84c73 0 114 -63 114 -228c0 -166 -42 -228 -114 -228c-45 0 -76 32 -93 85l-17 52h-2l-17 -51c-17 -53 -50 -86 -93 -86zM146 171c14 0 24 17 34 49l24 66
l-24 69c-10 31 -19 49 -34 49c-20 0 -31 -28 -31 -117c0 -90 11 -116 31 -116zM354 169c20 0 31 28 31 117c0 90 -10 118 -31 118c-15 0 -24 -17 -34 -49l-24 -69l23 -66c11 -33 20 -51 35 -51z" />
    <glyph glyph-name="backslash" unicode="\" horiz-adv-x="230" 
d="M162 -200l-170 940h76l170 -940h-76z" />
    <glyph glyph-name="bar" unicode="|" horiz-adv-x="161" 
d="M44 -200v940h74v-940h-74z" />
    <glyph glyph-name="slash" unicode="/" horiz-adv-x="228" 
d="M-25 -200l202 940h76l-201 -940h-77z" />
    <glyph glyph-name="brokenbar" unicode="&#xa6;" horiz-adv-x="161" 
d="M44 355v385h74v-385h-74zM44 -200v385h74v-385h-74z" />
    <glyph glyph-name="degree" unicode="&#xb0;" horiz-adv-x="339" 
d="M169 325c-95 0 -145 65 -145 173c0 106 50 174 145 174c93 0 147 -68 147 -174c0 -108 -54 -173 -147 -173zM169 425c31 0 47 28 47 73s-16 74 -47 74c-32 0 -46 -29 -46 -74s14 -73 46 -73z" />
    <glyph glyph-name="fraction" unicode="&#x2044;" horiz-adv-x="142" 
d="M-37 -56l-54 22l271 748l54 -22z" />
    <glyph glyph-name="underscore" unicode="_" horiz-adv-x="464" 
d="M0 -172v98h464v-98h-464z" />
    <glyph glyph-name="zero" unicode="0" 
d="M216 -8c-132 0 -193 107 -193 340c0 229 61 334 193 334s193 -105 193 -334c0 -233 -61 -340 -193 -340zM216 119c38 0 55 57 55 212c0 153 -17 208 -55 208s-55 -55 -55 -208c0 -155 17 -212 55 -212z" />
    <glyph glyph-name="one" unicode="1" 
d="M25 0v126h134v275h-104v104l60 2c60 2 76 26 76 154h110v-535h106v-126h-382z" />
    <glyph glyph-name="two" unicode="2" 
d="M33 0c0 167 16 219 116 294c98 74 105 97 105 163c0 54 -14 82 -47 82s-50 -24 -50 -109c0 -24 1 -46 2 -59h-123c-1 12 -3 38 -3 63c0 156 50 232 182 232c121 0 181 -70 181 -203c0 -112 -44 -169 -135 -241c-66 -52 -71 -66 -71 -96h212v-126h-369z" />
    <glyph glyph-name="three" unicode="3" 
d="M212 -8c-124 0 -188 67 -188 195c0 23 2 46 3 57h124c-1 -17 -1 -27 -1 -32c0 -64 18 -93 59 -93c37 0 57 29 57 95c0 50 -15 67 -48 67h-41v95h37c28 0 43 18 43 78c0 56 -15 85 -50 85c-36 0 -52 -26 -52 -82c0 -20 1 -33 3 -48h-121c-2 11 -5 36 -5 65
c0 126 62 192 181 192c115 0 175 -62 175 -181c0 -80 -23 -119 -72 -132v-3c62 -15 92 -65 92 -141c0 -144 -67 -217 -196 -217z" />
    <glyph glyph-name="four" unicode="4" 
d="M220 0v133h-204v120l186 405h160v-402h62v-123h-62v-133h-142zM125 256h95v221h-1l-94 -219v-2z" />
    <glyph glyph-name="five" unicode="5" 
d="M221 -8c-125 0 -190 72 -190 180c0 12 1 27 2 36h126c-1 -9 -1 -17 -1 -21c0 -45 19 -68 54 -68s52 42 52 108s-17 99 -51 99c-28 0 -47 -23 -54 -67l-122 12l21 387h317v-128h-202l-12 -171h2c14 46 49 70 99 70c96 0 144 -70 144 -204c0 -140 -63 -233 -185 -233z" />
    <glyph glyph-name="six" unicode="6" 
d="M223 -8c-139 0 -200 113 -200 330c0 239 69 344 202 344c110 0 168 -64 168 -194c0 -14 -1 -37 -2 -49h-119c1 14 1 26 1 35c0 59 -15 81 -44 81c-46 0 -64 -50 -64 -191l-1 -43h2c10 51 47 78 103 78c93 0 139 -64 139 -174c0 -143 -63 -217 -185 -217zM226 114
c34 0 52 30 52 88c0 51 -17 78 -53 78c-35 0 -58 -32 -58 -77c4 -58 24 -89 59 -89z" />
    <glyph glyph-name="seven" unicode="7" 
d="M73 0c29 236 104 396 205 523v1h-262v134h399v-126c-103 -150 -157 -311 -178 -532h-164z" />
    <glyph glyph-name="eight" unicode="8" 
d="M216 -8c-127 0 -194 68 -194 198c0 83 30 135 88 154v1c-47 16 -72 63 -72 137c0 117 61 184 178 184s178 -67 178 -184c0 -73 -25 -120 -73 -137v-1c58 -19 89 -71 89 -154c0 -130 -67 -198 -194 -198zM216 382c34 0 51 28 51 83c0 57 -17 86 -51 86s-51 -29 -51 -86
c0 -55 17 -83 51 -83zM216 107c37 0 57 32 57 93c0 57 -20 87 -57 87s-57 -30 -57 -87c0 -61 20 -93 57 -93z" />
    <glyph glyph-name="nine" unicode="9" 
d="M210 -8c-116 0 -177 66 -177 183c0 6 0 23 2 41h121c-1 -14 -1 -25 -1 -35c0 -36 17 -62 53 -62c43 0 58 45 58 188c0 7 1 26 1 38h-2c-9 -55 -43 -84 -98 -84c-95 0 -144 62 -144 182c0 147 70 223 187 223c135 0 198 -100 198 -330c0 -250 -68 -344 -198 -344zM204 364
c38 0 59 31 59 90c-3 59 -22 90 -55 90c-35 0 -54 -34 -54 -98c0 -55 17 -82 50 -82z" />
    <glyph glyph-name="summation" unicode="&#x2211;" 
d="M20 -112v122l158 277v1l-158 249v121h395v-128h-215v-2l149 -240v-2l-155 -268v-2h221v-128h-395z" />
    <glyph glyph-name="uni2206" unicode="&#x2206;" horiz-adv-x="523" 
d="M14 0l160 658h174l159 -658h-493zM186 126h121l-57 373h-3z" />
    <glyph glyph-name="product" unicode="&#x220f;" horiz-adv-x="525" 
d="M66 -105v635h-56v128h505v-128h-56v-635h-149v635h-95v-635h-149z" />
    <glyph glyph-name="uni2126" unicode="&#x2126;" horiz-adv-x="494" 
d="M20 0v129h111v1c-75 30 -107 107 -107 248c0 188 70 288 223 288s223 -100 223 -288c0 -141 -32 -218 -107 -248v-1h111v-129h-205v163c35 22 51 88 51 208c0 115 -23 167 -73 167s-73 -52 -73 -167c0 -120 16 -186 51 -208v-163h-205z" />
    <glyph glyph-name="uni00B5" unicode="&#xb5;" horiz-adv-x="460" 
d="M25 -198v692h138v-301c0 -50 17 -74 50 -74c44 0 63 40 63 111v264h138v-337c0 -34 10 -47 26 -47c5 0 10 1 13 2v-107c-6 -4 -23 -11 -57 -11c-54 0 -89 29 -101 77h-1c-11 -48 -40 -75 -81 -75c-23 0 -42 8 -49 23l-1 -1v-216h-138z" />
    <glyph glyph-name="partialdiff" unicode="&#x2202;" horiz-adv-x="444" 
d="M153 707c162 -45 268 -187 268 -429c0 -189 -65 -284 -198 -284c-132 0 -198 86 -198 252c0 177 65 254 165 254c23 0 42 -8 58 -21c-33 76 -92 125 -179 161zM223 108c39 0 60 45 60 163v25c-6 61 -29 90 -62 90c-37 0 -58 -31 -58 -140c0 -103 21 -138 60 -138z" />
    <glyph glyph-name="pi" unicode="&#x3c0;" horiz-adv-x="466" 
d="M387 -6c-83 0 -123 47 -123 145v236h-70v-375h-137v375h-52v119h456v-119h-61v-224c0 -30 10 -43 29 -43c15 0 23 2 26 3v-106c-4 -2 -26 -11 -68 -11z" />
    <glyph glyph-name="integral" unicode="&#x222b;" 
d="M116 -240c-47 0 -76 9 -86 12v76c0 -1 30 -10 66 -10c54 0 87 25 87 97c0 40 -3 87 -9 151l-27 339c-4 66 -8 129 -8 156c0 112 60 179 177 179c40 0 75 -6 86 -9v-76c-13 3 -40 7 -67 7c-55 0 -86 -31 -86 -97c0 -38 4 -92 8 -152l27 -339c5 -62 8 -125 8 -155
c0 -112 -58 -179 -176 -179z" />
    <glyph glyph-name="lozenge" unicode="&#x25ca;" 
d="M162 -54l-137 322l137 322h108l137 -322l-137 -322h-108zM215 80h3l66 188l-66 188h-3l-67 -188z" />
    <glyph glyph-name="radical" unicode="&#x221a;" 
d="M168 -98l-70 372h-83v92h169l50 -328h3l86 712h109l-116 -848h-148z" />
    <glyph glyph-name="asciitilde" unicode="~" 
d="M299 162c-44 0 -75 21 -94 55l-27 51c-16 28 -27 40 -38 40c-16 0 -25 -13 -25 -47v-94h-92v108c0 97 44 138 110 138c46 0 78 -24 96 -57l27 -50c15 -26 28 -39 38 -39c16 0 24 12 24 46v94h92v-107c0 -99 -44 -138 -111 -138z" />
    <glyph glyph-name="asciicircum" unicode="^" 
d="M20 354l152 318h88l152 -318h-116l-78 193h-3l-79 -193h-116z" />
    <glyph glyph-name="A" unicode="A" horiz-adv-x="523" 
d="M335 0l-20 128h-130l-21 -128h-151l150 658h196l152 -658h-176zM201 229h98l-47 294h-4z" />
    <glyph glyph-name="B" unicode="B" horiz-adv-x="461" 
d="M32 0v658h192c136 0 198 -53 198 -170c0 -82 -25 -127 -80 -142v-1c67 -16 98 -64 98 -154c0 -131 -63 -191 -201 -191h-207zM180 382h48c43 0 62 24 62 77c0 56 -20 82 -65 82h-45v-159zM180 117h56c42 0 61 29 61 93c0 53 -20 78 -65 78h-52v-171z" />
    <glyph glyph-name="C" unicode="C" horiz-adv-x="456" 
d="M234 -8c-142 0 -211 110 -211 337c0 231 67 337 212 337c135 0 197 -76 197 -241c0 -19 -1 -48 -2 -67h-126c1 24 1 45 1 60c0 86 -19 120 -59 120c-50 0 -72 -53 -72 -209c0 -153 22 -209 75 -209c37 0 57 30 57 116c0 14 -1 34 -2 47h127c1 -12 2 -31 2 -50
c0 -156 -63 -241 -199 -241z" />
    <glyph glyph-name="D" unicode="D" horiz-adv-x="473" 
d="M32 0v658h182c169 0 236 -93 236 -327c0 -236 -64 -331 -223 -331h-195zM180 128h44c56 0 77 58 77 203c0 142 -22 199 -82 199h-39v-402z" />
    <glyph glyph-name="E" unicode="E" horiz-adv-x="371" 
d="M32 0v658h320v-128h-172v-150h135v-98h-135v-154h179v-128h-327z" />
    <glyph glyph-name="F" unicode="F" horiz-adv-x="357" 
d="M32 0v658h315v-128h-167v-163h137v-106h-137v-261h-148z" />
    <glyph glyph-name="G" unicode="G" horiz-adv-x="464" 
d="M437 330v-330h-116c0 1 4 44 4 92h-1c-14 -69 -51 -100 -117 -100c-126 0 -184 103 -184 329c0 237 68 345 217 345c134 0 195 -72 195 -230c0 -21 -1 -48 -2 -62h-126c1 22 1 43 1 53c0 76 -19 111 -61 111c-51 0 -74 -69 -74 -219c0 -139 22 -203 71 -203
c41 0 60 34 60 109v13h-67v92h200z" />
    <glyph glyph-name="H" unicode="H" horiz-adv-x="504" 
d="M32 0v658h148v-257h144v257h148v-658h-148v275h-144v-275h-148z" />
    <glyph glyph-name="I" unicode="I" horiz-adv-x="220" 
d="M36 0v658h148v-658h-148z" />
    <glyph glyph-name="J" unicode="J" horiz-adv-x="419" 
d="M205 -8c-124 0 -181 78 -181 246c0 33 2 79 3 104h126c-1 -21 -2 -61 -2 -95c0 -96 11 -127 44 -127c29 0 46 29 46 132v406h148v-387c0 -201 -65 -279 -184 -279z" />
    <glyph glyph-name="K" unicode="K" horiz-adv-x="509" 
d="M32 0v658h148v-313h2l142 313h165l-154 -297l168 -361h-178l-95 244l-50 -89v-155h-148z" />
    <glyph glyph-name="L" unicode="L" horiz-adv-x="339" 
d="M32 0v658h148v-530h147v-128h-295z" />
    <glyph glyph-name="M" unicode="M" horiz-adv-x="614" 
d="M32 0v658h209l64 -395h2l65 395h210v-658h-148l9 492h-3l-91 -492h-105l-91 492h-2l9 -492h-128z" />
    <glyph glyph-name="N" unicode="N" horiz-adv-x="513" 
d="M32 0v658h204l123 -415h1l-15 415h136v-658h-165l-160 489h-1l13 -489h-136z" />
    <glyph glyph-name="O" unicode="O" horiz-adv-x="491" 
d="M246 -8c-153 0 -223 107 -223 340c0 229 70 334 223 334c152 0 222 -105 222 -334c0 -233 -70 -340 -222 -340zM246 120c49 0 71 67 71 212c0 141 -22 206 -71 206s-71 -65 -71 -206c0 -145 22 -212 71 -212z" />
    <glyph glyph-name="P" unicode="P" horiz-adv-x="448" 
d="M32 0v658h191c141 0 206 -74 206 -238c0 -160 -59 -235 -189 -235h-60v-185h-148zM180 291h50c42 0 61 37 61 118c0 83 -21 121 -67 121h-44v-239z" />
    <glyph glyph-name="Q" unicode="Q" horiz-adv-x="493" 
d="M244 -8c-152 0 -221 107 -221 340c0 229 70 334 222 334s222 -95 222 -302c0 -145 -25 -226 -80 -256l1 -1c27 1 52 5 82 10v-125h-226zM245 120c49 0 71 67 71 212c0 141 -22 206 -71 206s-71 -65 -71 -206c0 -145 22 -212 71 -212z" />
    <glyph glyph-name="R" unicode="R" horiz-adv-x="478" 
d="M32 0v658h200c149 0 217 -61 217 -194c0 -90 -24 -138 -87 -157v-1c62 -14 87 -54 87 -116v-190h-149v185c0 43 -20 62 -64 62h-56v-247h-148zM180 341h52c49 0 72 28 72 96c0 69 -23 93 -74 93h-50v-189z" />
    <glyph glyph-name="S" unicode="S" horiz-adv-x="455" 
d="M224 -8c-162 0 -201 93 -201 238h131c0 -95 17 -122 70 -122c43 0 61 25 61 67c0 35 -9 50 -25 62c-13 10 -38 21 -86 39c-44 16 -80 35 -101 55c-30 25 -51 73 -51 139c0 119 75 196 202 196c148 0 195 -72 195 -243h-129c0 104 -17 127 -63 127c-35 0 -57 -25 -57 -66
c0 -39 9 -56 23 -68s47 -26 88 -42c47 -18 74 -31 100 -53c33 -28 52 -75 52 -135c0 -117 -72 -194 -209 -194z" />
    <glyph glyph-name="T" unicode="T" horiz-adv-x="394" 
d="M123 0v530h-113v128h373v-128h-112v-530h-148z" />
    <glyph glyph-name="U" unicode="U" horiz-adv-x="467" 
d="M234 -8c-134 0 -204 77 -204 224v442h148v-442c0 -60 23 -92 67 -92c42 0 64 32 64 92v442h128v-442c0 -147 -70 -224 -203 -224z" />
    <glyph glyph-name="V" unicode="V" horiz-adv-x="517" 
d="M161 0l-149 658h172l84 -507h4l81 507h152l-150 -658h-194z" />
    <glyph glyph-name="W" unicode="W" horiz-adv-x="716" 
d="M132 0l-120 658h164l55 -449h3l61 450h144l61 -450h4l53 449h147l-121 -658h-170l-54 413h-4l-60 -413h-163z" />
    <glyph glyph-name="X" unicode="X" horiz-adv-x="503" 
d="M11 0l140 340l-133 318h184l63 -222l63 222h156l-132 -319l139 -339h-183l-65 230l-64 -230h-168z" />
    <glyph glyph-name="Y" unicode="Y" horiz-adv-x="500" 
d="M176 0v236l-164 422h182l69 -272h3l68 272h154l-164 -422v-236h-148z" />
    <glyph glyph-name="Z" unicode="Z" horiz-adv-x="402" 
d="M17 0v99l198 429v2h-194v128h365v-110l-194 -418v-2h193v-128h-368z" />
    <glyph glyph-name="Aacute" unicode="&#xc1;" horiz-adv-x="523" 
d="M377 836l-83 -145h-95l50 145h128zM335 0l-20 128h-130l-21 -128h-151l150 658h196l152 -658h-176zM201 229h98l-47 294h-4z" />
    <glyph glyph-name="Abreve" unicode="&#x102;" horiz-adv-x="523" 
d="M261 701c-92 0 -121 61 -121 118v17h84v-10c0 -25 10 -47 37 -47s37 22 37 47v10h84v-17c0 -57 -29 -118 -121 -118zM335 0l-20 128h-130l-21 -128h-151l150 658h196l152 -658h-176zM201 229h98l-47 294h-4z" />
    <glyph glyph-name="Acircumflex" unicode="&#xc2;" horiz-adv-x="523" 
d="M262 738h-2l-123 -51v98l123 50h2l123 -50v-98zM335 0l-20 128h-130l-21 -128h-151l150 658h196l152 -658h-176zM201 229h98l-47 294h-4z" />
    <glyph glyph-name="uni0200" unicode="&#x200;" horiz-adv-x="523" 
d="M242 691h-84l-70 145h105zM384 691h-85l-70 145h106zM335 0l-20 128h-130l-21 -128h-151l150 658h196l152 -658h-176zM201 229h98l-47 294h-4z" />
    <glyph glyph-name="Adieresis" unicode="&#xc4;" horiz-adv-x="523" 
d="M238 816v-119h-114v119h114zM398 816v-119h-114v119h114zM335 0l-20 128h-130l-21 -128h-151l150 658h196l152 -658h-176zM201 229h98l-47 294h-4z" />
    <glyph glyph-name="Agrave" unicode="&#xc0;" horiz-adv-x="523" 
d="M320 691h-94l-83 145h127zM335 0l-20 128h-130l-21 -128h-151l150 658h196l152 -658h-176zM201 229h98l-47 294h-4z" />
    <glyph glyph-name="uni0202" unicode="&#x202;" horiz-adv-x="523" 
d="M224 711v-10h-84v17c0 57 29 118 121 118s121 -61 121 -118v-17h-84v10c0 25 -10 47 -37 47s-37 -22 -37 -47zM335 0l-20 128h-130l-21 -128h-151l150 658h196l152 -658h-176zM201 229h98l-47 294h-4z" />
    <glyph glyph-name="Amacron" unicode="&#x100;" horiz-adv-x="523" 
d="M375 807v-96h-228v96h228zM335 0l-20 128h-130l-21 -128h-151l150 658h196l152 -658h-176zM201 229h98l-47 294h-4z" />
    <glyph glyph-name="Aogonek" unicode="&#x104;" horiz-adv-x="523" 
d="M457 -85c0 -15 8 -24 27 -24c10 0 19 1 27 3v-78c-9 -4 -29 -9 -55 -9c-69 0 -98 35 -98 77c0 41 21 84 53 116h-76l-20 128h-130l-21 -128h-151l150 658h196l152 -658h-23c-21 -33 -31 -63 -31 -85zM201 229h98l-47 294h-4z" />
    <glyph glyph-name="Aring" unicode="&#xc5;" horiz-adv-x="523" 
d="M335 0l-20 128h-130l-21 -128h-151l145 634c-12 19 -18 42 -18 68c0 68 41 117 121 117c82 0 121 -49 121 -117c0 -26 -6 -49 -17 -68l146 -634h-176zM261 746c-22 0 -37 -16 -37 -44c0 -27 14 -43 37 -43s37 16 37 43c0 28 -15 44 -37 44zM201 229h98l-47 294h-4z" />
    <glyph glyph-name="Atilde" unicode="&#xc3;" horiz-adv-x="523" 
d="M214 770c-13 0 -21 -15 -24 -69h-74c3 114 36 159 91 159c32 0 46 -15 61 -35l11 -15c9 -12 14 -19 25 -19c13 0 22 15 25 69h74c-3 -114 -38 -160 -92 -160c-32 0 -49 18 -61 35l-12 16c-9 12 -13 19 -24 19zM335 0l-20 128h-130l-21 -128h-151l150 658h196l152 -658
h-176zM201 229h98l-47 294h-4z" />
    <glyph glyph-name="AE" unicode="&#xc6;" horiz-adv-x="612" 
d="M13 0l171 658h409v-128h-166v-150h130v-98h-130v-154h173v-128h-322v125h-87l-26 -125h-152zM214 227h64v296h-5z" />
    <glyph glyph-name="AEacute" unicode="&#x1fc;" horiz-adv-x="612" 
d="M327 691l50 145h128l-83 -145h-95zM13 0l171 658h409v-128h-166v-150h130v-98h-130v-154h173v-128h-322v125h-87l-26 -125h-152zM214 227h64v296h-5z" />
    <glyph glyph-name="Cacute" unicode="&#x106;" horiz-adv-x="456" 
d="M170 691l50 145h128l-83 -145h-95zM234 -8c-142 0 -211 110 -211 337c0 231 67 337 212 337c135 0 197 -76 197 -241c0 -19 -1 -48 -2 -67h-126c1 24 1 45 1 60c0 86 -19 120 -59 120c-50 0 -72 -53 -72 -209c0 -153 22 -209 75 -209c37 0 57 30 57 116c0 14 -1 34 -2 47
h127c1 -12 2 -31 2 -50c0 -156 -63 -241 -199 -241z" />
    <glyph glyph-name="Ccaron" unicode="&#x10c;" horiz-adv-x="456" 
d="M155 691l-78 145h126l28 -81h2l28 81h126l-78 -145h-154zM234 -8c-142 0 -211 110 -211 337c0 231 67 337 212 337c135 0 197 -76 197 -241c0 -19 -1 -48 -2 -67h-126c1 24 1 45 1 60c0 86 -19 120 -59 120c-50 0 -72 -53 -72 -209c0 -153 22 -209 75 -209
c37 0 57 30 57 116c0 14 -1 34 -2 47h127c1 -12 2 -31 2 -50c0 -156 -63 -241 -199 -241z" />
    <glyph glyph-name="Ccedilla" unicode="&#xc7;" horiz-adv-x="456" 
d="M433 233c0 -144 -54 -228 -169 -240l-14 -42l2 -1c5 5 16 14 38 14c41 0 67 -29 67 -79c0 -49 -29 -103 -119 -103c-82 0 -113 42 -114 100h86c1 -23 6 -34 27 -34s27 18 27 37c0 20 -12 34 -47 34c-25 0 -46 -5 -51 -6l25 83c-113 21 -168 130 -168 333
c0 231 67 337 212 337c135 0 197 -76 197 -241c0 -19 -1 -48 -2 -67h-126c1 24 1 45 1 60c0 86 -19 120 -59 120c-50 0 -72 -53 -72 -209c0 -153 22 -209 75 -209c37 0 57 30 57 116c0 14 -1 34 -2 47h127c1 -12 2 -31 2 -50z" />
    <glyph glyph-name="Ccircumflex" unicode="&#x108;" horiz-adv-x="456" 
d="M108 687v98l123 50h2l123 -50v-98l-123 51h-2zM234 -8c-142 0 -211 110 -211 337c0 231 67 337 212 337c135 0 197 -76 197 -241c0 -19 -1 -48 -2 -67h-126c1 24 1 45 1 60c0 86 -19 120 -59 120c-50 0 -72 -53 -72 -209c0 -153 22 -209 75 -209c37 0 57 30 57 116
c0 14 -1 34 -2 47h127c1 -12 2 -31 2 -50c0 -156 -63 -241 -199 -241z" />
    <glyph glyph-name="Cdotaccent" unicode="&#x10a;" horiz-adv-x="456" 
d="M169 697v119h124v-119h-124zM234 -8c-142 0 -211 110 -211 337c0 231 67 337 212 337c135 0 197 -76 197 -241c0 -19 -1 -48 -2 -67h-126c1 24 1 45 1 60c0 86 -19 120 -59 120c-50 0 -72 -53 -72 -209c0 -153 22 -209 75 -209c37 0 57 30 57 116c0 14 -1 34 -2 47h127
c1 -12 2 -31 2 -50c0 -156 -63 -241 -199 -241z" />
    <glyph glyph-name="Eth" unicode="&#xd0;" horiz-adv-x="473" 
d="M214 658c169 0 236 -93 236 -327c0 -236 -64 -331 -223 -331h-195v296h-34v66h34v296h182zM224 128c56 0 77 58 77 203c0 142 -22 199 -82 199h-39v-168h68v-66h-68v-168h44z" />
    <glyph glyph-name="Dcaron" unicode="&#x10e;" horiz-adv-x="473" 
d="M138 691l-78 145h126l28 -81h2l28 81h126l-78 -145h-154zM32 0v658h182c169 0 236 -93 236 -327c0 -236 -64 -331 -223 -331h-195zM180 128h44c56 0 77 58 77 203c0 142 -22 199 -82 199h-39v-402z" />
    <glyph glyph-name="Dmacron" unicode="&#x110;" horiz-adv-x="473" 
d="M214 658c169 0 236 -93 236 -327c0 -236 -64 -331 -223 -331h-195v296h-34v66h34v296h182zM224 128c56 0 77 58 77 203c0 142 -22 199 -82 199h-39v-168h68v-66h-68v-168h44z" />
    <glyph glyph-name="Eacute" unicode="&#xc9;" horiz-adv-x="371" 
d="M134 691l50 145h128l-83 -145h-95zM32 0v658h320v-128h-172v-150h135v-98h-135v-154h179v-128h-327z" />
    <glyph glyph-name="Ebreve" unicode="&#x114;" horiz-adv-x="371" 
d="M196 701c-92 0 -121 61 -121 118v17h84v-10c0 -25 10 -47 37 -47s37 22 37 47v10h84v-17c0 -57 -29 -118 -121 -118zM32 0v658h320v-128h-172v-150h135v-98h-135v-154h179v-128h-327z" />
    <glyph glyph-name="Ecaron" unicode="&#x11a;" horiz-adv-x="371" 
d="M119 691l-78 145h126l28 -81h2l28 81h126l-78 -145h-154zM32 0v658h320v-128h-172v-150h135v-98h-135v-154h179v-128h-327z" />
    <glyph glyph-name="Ecircumflex" unicode="&#xca;" horiz-adv-x="371" 
d="M72 687v98l123 50h2l123 -50v-98l-123 51h-2zM32 0v658h320v-128h-172v-150h135v-98h-135v-154h179v-128h-327z" />
    <glyph glyph-name="uni0204" unicode="&#x204;" horiz-adv-x="371" 
d="M93 691l-70 145h105l49 -145h-84zM234 691l-70 145h106l49 -145h-85zM32 0v658h320v-128h-172v-150h135v-98h-135v-154h179v-128h-327z" />
    <glyph glyph-name="Edieresis" unicode="&#xcb;" horiz-adv-x="371" 
d="M59 697v119h114v-119h-114zM219 697v119h114v-119h-114zM32 0v658h320v-128h-172v-150h135v-98h-135v-154h179v-128h-327z" />
    <glyph glyph-name="Edotaccent" unicode="&#x116;" horiz-adv-x="371" 
d="M133 697v119h124v-119h-124zM32 0v658h320v-128h-172v-150h135v-98h-135v-154h179v-128h-327z" />
    <glyph glyph-name="Egrave" unicode="&#xc8;" horiz-adv-x="371" 
d="M161 691l-83 145h127l50 -145h-94zM32 0v658h320v-128h-172v-150h135v-98h-135v-154h179v-128h-327z" />
    <glyph glyph-name="uni0206" unicode="&#x206;" horiz-adv-x="371" 
d="M75 701v17c0 57 29 118 121 118s121 -61 121 -118v-17h-84v10c0 25 -10 47 -37 47s-37 -22 -37 -47v-10h-84zM32 0v658h320v-128h-172v-150h135v-98h-135v-154h179v-128h-327z" />
    <glyph glyph-name="Emacron" unicode="&#x112;" horiz-adv-x="371" 
d="M82 711v96h228v-96h-228zM32 0v658h320v-128h-172v-150h135v-98h-135v-154h179v-128h-327z" />
    <glyph glyph-name="Eogonek" unicode="&#x118;" horiz-adv-x="371" 
d="M359 0h-23c-21 -33 -31 -63 -31 -85c0 -15 8 -24 27 -24c10 0 19 1 27 3v-78c-9 -4 -29 -9 -55 -9c-69 0 -98 35 -98 77c0 41 21 84 53 116h-227v658h320v-128h-172v-150h135v-98h-135v-154h179v-128z" />
    <glyph glyph-name="Gbreve" unicode="&#x11e;" horiz-adv-x="464" 
d="M238 701c-92 0 -121 61 -121 118v17h84v-10c0 -25 10 -47 37 -47s37 22 37 47v10h84v-17c0 -57 -29 -118 -121 -118zM437 330v-330h-116c0 1 4 44 4 92h-1c-14 -69 -51 -100 -117 -100c-126 0 -184 103 -184 329c0 237 68 345 217 345c134 0 195 -72 195 -230
c0 -21 -1 -48 -2 -62h-126c1 22 1 43 1 53c0 76 -19 111 -61 111c-51 0 -74 -69 -74 -219c0 -139 22 -203 71 -203c41 0 60 34 60 109v13h-67v92h200z" />
    <glyph glyph-name="Gcircumflex" unicode="&#x11c;" horiz-adv-x="464" 
d="M239 738h-2l-123 -51v98l123 50h2l123 -50v-98zM437 330v-330h-116c0 1 4 44 4 92h-1c-14 -69 -51 -100 -117 -100c-126 0 -184 103 -184 329c0 237 68 345 217 345c134 0 195 -72 195 -230c0 -21 -1 -48 -2 -62h-126c1 22 1 43 1 53c0 76 -19 111 -61 111
c-51 0 -74 -69 -74 -219c0 -139 22 -203 71 -203c41 0 60 34 60 109v13h-67v92h200z" />
    <glyph glyph-name="Gcommaaccent" unicode="&#x122;" horiz-adv-x="464" 
d="M437 330v-330h-116c0 1 4 44 4 92h-1c-14 -69 -51 -100 -117 -100c-126 0 -184 103 -184 329c0 237 68 345 217 345c134 0 195 -72 195 -230c0 -21 -1 -48 -2 -62h-126c1 22 1 43 1 53c0 76 -19 111 -61 111c-51 0 -74 -69 -74 -219c0 -139 22 -203 71 -203
c41 0 60 34 60 109v13h-67v92h200zM171 -174v150h129v-110c0 -127 -50 -167 -132 -171v66c38 3 56 20 55 61v4h-52z" />
    <glyph glyph-name="Gdotaccent" unicode="&#x120;" horiz-adv-x="464" 
d="M299 816v-119h-124v119h124zM437 330v-330h-116c0 1 4 44 4 92h-1c-14 -69 -51 -100 -117 -100c-126 0 -184 103 -184 329c0 237 68 345 217 345c134 0 195 -72 195 -230c0 -21 -1 -48 -2 -62h-126c1 22 1 43 1 53c0 76 -19 111 -61 111c-51 0 -74 -69 -74 -219
c0 -139 22 -203 71 -203c41 0 60 34 60 109v13h-67v92h200z" />
    <glyph glyph-name="Hcircumflex" unicode="&#x124;" horiz-adv-x="504" 
d="M129 687v98l123 50h2l123 -50v-98l-123 51h-2zM32 0v658h148v-257h144v257h148v-658h-148v275h-144v-275h-148z" />
    <glyph glyph-name="Iacute" unicode="&#xcd;" horiz-adv-x="220" 
d="M48 691l50 145h128l-83 -145h-95zM36 0v658h148v-658h-148z" />
    <glyph glyph-name="Icircumflex" unicode="&#xce;" horiz-adv-x="220" 
d="M-14 687v98l123 50h2l123 -50v-98l-123 51h-2zM36 0v658h148v-658h-148z" />
    <glyph glyph-name="uni0208" unicode="&#x208;" horiz-adv-x="220" 
d="M7 691l-70 145h105l49 -145h-84zM148 691l-70 145h106l49 -145h-85zM36 0v658h148v-658h-148z" />
    <glyph glyph-name="Idieresis" unicode="&#xcf;" horiz-adv-x="220" 
d="M-27 697v119h114v-119h-114zM133 697v119h114v-119h-114zM36 0v658h148v-658h-148z" />
    <glyph glyph-name="Idotaccent" unicode="&#x130;" horiz-adv-x="220" 
d="M47 697v119h124v-119h-124zM36 0v658h148v-658h-148z" />
    <glyph glyph-name="Igrave" unicode="&#xcc;" horiz-adv-x="220" 
d="M75 691l-83 145h127l50 -145h-94zM36 0v658h148v-658h-148z" />
    <glyph glyph-name="uni020A" unicode="&#x20a;" horiz-adv-x="220" 
d="M-11 701v17c0 57 29 118 121 118s121 -61 121 -118v-17h-84v10c0 25 -10 47 -37 47s-37 -22 -37 -47v-10h-84zM36 0v658h148v-658h-148z" />
    <glyph glyph-name="Imacron" unicode="&#x12a;" horiz-adv-x="220" 
d="M-4 711v96h228v-96h-228zM36 0v658h148v-658h-148z" />
    <glyph glyph-name="Iogonek" unicode="&#x12e;" horiz-adv-x="220" 
d="M184 0h-23c-21 -33 -31 -63 -31 -85c0 -15 8 -24 27 -24c10 0 19 1 27 3v-78c-9 -4 -29 -9 -55 -9c-69 0 -98 35 -98 77c0 41 21 84 53 116h-48v658h148v-658z" />
    <glyph glyph-name="uni00A40301" horiz-adv-x="419" 
d="M247 691l50 145h128l-83 -145h-95zM205 -8c-124 0 -181 78 -181 246c0 33 2 79 3 104h126c-1 -21 -2 -61 -2 -95c0 -96 11 -127 44 -127c29 0 46 29 46 132v406h148v-387c0 -201 -65 -279 -184 -279z" />
    <glyph glyph-name="Jcircumflex" unicode="&#x134;" horiz-adv-x="419" 
d="M185 687v98l123 50h2l123 -50v-98l-123 51h-2zM205 -8c-124 0 -181 78 -181 246c0 33 2 79 3 104h126c-1 -21 -2 -61 -2 -95c0 -96 11 -127 44 -127c29 0 46 29 46 132v406h148v-387c0 -201 -65 -279 -184 -279z" />
    <glyph glyph-name="Kcommaaccent" unicode="&#x136;" horiz-adv-x="509" 
d="M32 0v658h148v-313h2l142 313h165l-154 -297l168 -361h-178l-95 244l-50 -89v-155h-148zM186 -305v66c38 3 56 20 55 61v4h-52v150h129v-110c0 -127 -50 -167 -132 -171z" />
    <glyph glyph-name="Lacute" unicode="&#x139;" horiz-adv-x="339" 
d="M62 691l50 145h128l-83 -145h-95zM32 0v658h148v-530h147v-128h-295z" />
    <glyph glyph-name="Lcaron" unicode="&#x13d;" horiz-adv-x="339" 
d="M32 0v658h148v-530h147v-128h-295zM210 377v66c38 3 56 20 55 61v4h-52v150h129v-110c0 -127 -50 -167 -132 -171z" />
    <glyph glyph-name="Lcommaaccent" unicode="&#x13b;" horiz-adv-x="339" 
d="M32 0v658h148v-530h147v-128h-295zM110 -305v66c38 3 56 20 55 61v4h-52v150h129v-110c0 -127 -50 -167 -132 -171z" />
    <glyph glyph-name="Ldot" unicode="&#x13f;" horiz-adv-x="342" 
d="M32 0v658h148v-530h147v-128h-295zM217 272v150h120v-150h-120z" />
    <glyph glyph-name="Lslash" unicode="&#x141;" horiz-adv-x="339" 
d="M180 128h147v-128h-295v258l-39 -18v79l39 18v321h148v-251l76 36v-79l-76 -36v-200z" />
    <glyph glyph-name="Nacute" unicode="&#x143;" horiz-adv-x="513" 
d="M192 691l50 145h128l-83 -145h-95zM32 0v658h204l123 -415h1l-15 415h136v-658h-165l-160 489h-1l13 -489h-136z" />
    <glyph glyph-name="Ncaron" unicode="&#x147;" horiz-adv-x="513" 
d="M177 691l-78 145h126l28 -81h2l28 81h126l-78 -145h-154zM32 0v658h204l123 -415h1l-15 415h136v-658h-165l-160 489h-1l13 -489h-136z" />
    <glyph glyph-name="Ncommaaccent" unicode="&#x145;" horiz-adv-x="513" 
d="M32 0v658h204l123 -415h1l-15 415h136v-658h-165l-160 489h-1l13 -489h-136zM187 -305v66c38 3 56 20 55 61v4h-52v150h129v-110c0 -127 -50 -167 -132 -171z" />
    <glyph glyph-name="Ntilde" unicode="&#xd1;" horiz-adv-x="513" 
d="M109 701c3 114 36 159 91 159c32 0 46 -15 61 -35l11 -15c9 -12 14 -19 25 -19c13 0 22 15 25 69h74c-3 -114 -38 -160 -92 -160c-32 0 -49 18 -61 35l-12 16c-9 12 -13 19 -24 19c-13 0 -21 -15 -24 -69h-74zM32 0v658h204l123 -415h1l-15 415h136v-658h-165l-160 489
h-1l13 -489h-136z" />
    <glyph glyph-name="Oacute" unicode="&#xd3;" horiz-adv-x="491" 
d="M184 691l50 145h128l-83 -145h-95zM246 -8c-153 0 -223 107 -223 340c0 229 70 334 223 334c152 0 222 -105 222 -334c0 -233 -70 -340 -222 -340zM246 120c49 0 71 67 71 212c0 141 -22 206 -71 206s-71 -65 -71 -206c0 -145 22 -212 71 -212z" />
    <glyph glyph-name="Obreve" unicode="&#x14e;" horiz-adv-x="491" 
d="M246 701c-92 0 -121 61 -121 118v17h84v-10c0 -25 10 -47 37 -47s37 22 37 47v10h84v-17c0 -57 -29 -118 -121 -118zM246 -8c-153 0 -223 107 -223 340c0 229 70 334 223 334c152 0 222 -105 222 -334c0 -233 -70 -340 -222 -340zM246 120c49 0 71 67 71 212
c0 141 -22 206 -71 206s-71 -65 -71 -206c0 -145 22 -212 71 -212z" />
    <glyph glyph-name="Ocircumflex" unicode="&#xd4;" horiz-adv-x="491" 
d="M122 687v98l123 50h2l123 -50v-98l-123 51h-2zM246 -8c-153 0 -223 107 -223 340c0 229 70 334 223 334c152 0 222 -105 222 -334c0 -233 -70 -340 -222 -340zM246 120c49 0 71 67 71 212c0 141 -22 206 -71 206s-71 -65 -71 -206c0 -145 22 -212 71 -212z" />
    <glyph glyph-name="uni020C" unicode="&#x20c;" horiz-adv-x="491" 
d="M143 691l-70 145h105l49 -145h-84zM284 691l-70 145h106l49 -145h-85zM246 -8c-153 0 -223 107 -223 340c0 229 70 334 223 334c152 0 222 -105 222 -334c0 -233 -70 -340 -222 -340zM246 120c49 0 71 67 71 212c0 141 -22 206 -71 206s-71 -65 -71 -206
c0 -145 22 -212 71 -212z" />
    <glyph glyph-name="Odieresis" unicode="&#xd6;" horiz-adv-x="491" 
d="M109 697v119h114v-119h-114zM269 697v119h114v-119h-114zM246 -8c-153 0 -223 107 -223 340c0 229 70 334 223 334c152 0 222 -105 222 -334c0 -233 -70 -340 -222 -340zM246 120c49 0 71 67 71 212c0 141 -22 206 -71 206s-71 -65 -71 -206c0 -145 22 -212 71 -212z" />
    <glyph glyph-name="Ograve" unicode="&#xd2;" horiz-adv-x="491" 
d="M211 691l-83 145h127l50 -145h-94zM246 -8c-153 0 -223 107 -223 340c0 229 70 334 223 334c152 0 222 -105 222 -334c0 -233 -70 -340 -222 -340zM246 120c49 0 71 67 71 212c0 141 -22 206 -71 206s-71 -65 -71 -206c0 -145 22 -212 71 -212z" />
    <glyph glyph-name="Ohungarumlaut" unicode="&#x150;" horiz-adv-x="491" 
d="M113 691l49 145h105l-70 -145h-84zM254 691l49 145h105l-70 -145h-84zM246 -8c-153 0 -223 107 -223 340c0 229 70 334 223 334c152 0 222 -105 222 -334c0 -233 -70 -340 -222 -340zM246 120c49 0 71 67 71 212c0 141 -22 206 -71 206s-71 -65 -71 -206
c0 -145 22 -212 71 -212z" />
    <glyph glyph-name="uni020E" unicode="&#x20e;" horiz-adv-x="491" 
d="M125 701v17c0 57 29 118 121 118s121 -61 121 -118v-17h-84v10c0 25 -10 47 -37 47s-37 -22 -37 -47v-10h-84zM246 -8c-153 0 -223 107 -223 340c0 229 70 334 223 334c152 0 222 -105 222 -334c0 -233 -70 -340 -222 -340zM246 120c49 0 71 67 71 212
c0 141 -22 206 -71 206s-71 -65 -71 -206c0 -145 22 -212 71 -212z" />
    <glyph glyph-name="Omacron" unicode="&#x14c;" horiz-adv-x="491" 
d="M132 711v96h228v-96h-228zM246 -8c-153 0 -223 107 -223 340c0 229 70 334 223 334c152 0 222 -105 222 -334c0 -233 -70 -340 -222 -340zM246 120c49 0 71 67 71 212c0 141 -22 206 -71 206s-71 -65 -71 -206c0 -145 22 -212 71 -212z" />
    <glyph glyph-name="Oslash" unicode="&#xd8;" horiz-adv-x="491" 
d="M422 572c31 -54 46 -134 46 -240c0 -233 -70 -340 -222 -340c-58 0 -103 15 -138 47l-27 -46l-47 31l36 62c-32 56 -47 137 -47 246c0 229 70 334 223 334c58 0 104 -15 138 -46l27 45l47 -31zM174 332c0 -24 1 -47 2 -67l126 215c-11 39 -30 58 -56 58
c-49 0 -72 -65 -72 -206zM246 120c49 0 71 67 71 212c0 22 -1 41 -2 60l-125 -214c11 -39 30 -58 56 -58z" />
    <glyph glyph-name="Oslashacute" unicode="&#x1fe;" horiz-adv-x="491" 
d="M362 836l-83 -145h-95l50 145h128zM422 572c31 -54 46 -134 46 -240c0 -233 -70 -340 -222 -340c-58 0 -103 15 -138 47l-27 -46l-47 31l36 62c-32 56 -47 137 -47 246c0 229 70 334 223 334c58 0 104 -15 138 -46l27 45l47 -31zM174 332c0 -24 1 -47 2 -67l126 215
c-11 39 -30 58 -56 58c-49 0 -72 -65 -72 -206zM246 120c49 0 71 67 71 212c0 22 -1 41 -2 60l-125 -214c11 -39 30 -58 56 -58z" />
    <glyph glyph-name="Otilde" unicode="&#xd5;" horiz-adv-x="491" 
d="M101 701c3 114 36 159 91 159c32 0 46 -15 61 -35l11 -15c9 -12 14 -19 25 -19c13 0 22 15 25 69h74c-3 -114 -38 -160 -92 -160c-32 0 -49 18 -61 35l-12 16c-9 12 -13 19 -24 19c-13 0 -21 -15 -24 -69h-74zM246 -8c-153 0 -223 107 -223 340c0 229 70 334 223 334
c152 0 222 -105 222 -334c0 -233 -70 -340 -222 -340zM246 120c49 0 71 67 71 212c0 141 -22 206 -71 206s-71 -65 -71 -206c0 -145 22 -212 71 -212z" />
    <glyph glyph-name="OE" unicode="&#x152;" horiz-adv-x="613" 
d="M249 -8c-155 0 -226 107 -226 340c0 229 71 334 226 334c24 0 45 -3 68 -8h277v-128h-160v-150h123v-98h-123v-154h167v-128h-285c-22 -5 -43 -8 -67 -8zM249 120c18 0 30 7 37 20v381c-9 11 -20 17 -37 17c-51 0 -75 -65 -75 -206c0 -145 24 -212 75 -212z" />
    <glyph glyph-name="Thorn" unicode="&#xde;" horiz-adv-x="441" 
d="M32 0v658h151v-98h36c137 0 204 -68 204 -227c0 -161 -66 -232 -191 -232h-52v-101h-148zM180 203h37c51 0 71 23 71 113c0 93 -21 119 -75 119h-33v-232z" />
    <glyph glyph-name="Racute" unicode="&#x154;" horiz-adv-x="478" 
d="M165 691l50 145h128l-83 -145h-95zM32 0v658h200c149 0 217 -61 217 -194c0 -90 -24 -138 -87 -157v-1c62 -14 87 -54 87 -116v-190h-149v185c0 43 -20 62 -64 62h-56v-247h-148zM180 341h52c49 0 72 28 72 96c0 69 -23 93 -74 93h-50v-189z" />
    <glyph glyph-name="Rcaron" unicode="&#x158;" horiz-adv-x="478" 
d="M150 691l-78 145h126l28 -81h2l28 81h126l-78 -145h-154zM32 0v658h200c149 0 217 -61 217 -194c0 -90 -24 -138 -87 -157v-1c62 -14 87 -54 87 -116v-190h-149v185c0 43 -20 62 -64 62h-56v-247h-148zM180 341h52c49 0 72 28 72 96c0 69 -23 93 -74 93h-50v-189z" />
    <glyph glyph-name="Rcommaaccent" unicode="&#x156;" horiz-adv-x="478" 
d="M32 0v658h200c149 0 217 -61 217 -194c0 -90 -24 -138 -87 -157v-1c62 -14 87 -54 87 -116v-190h-149v185c0 43 -20 62 -64 62h-56v-247h-148zM180 341h52c49 0 72 28 72 96c0 69 -23 93 -74 93h-50v-189zM172 -305v66c38 3 56 20 55 61v4h-52v150h129v-110
c0 -127 -50 -167 -132 -171z" />
    <glyph glyph-name="uni0210" unicode="&#x210;" horiz-adv-x="478" 
d="M124 691l-70 145h105l49 -145h-84zM265 691l-70 145h106l49 -145h-85zM32 0v658h200c149 0 217 -61 217 -194c0 -90 -24 -138 -87 -157v-1c62 -14 87 -54 87 -116v-190h-149v185c0 43 -20 62 -64 62h-56v-247h-148zM180 341h52c49 0 72 28 72 96c0 69 -23 93 -74 93h-50
v-189z" />
    <glyph glyph-name="uni0212" unicode="&#x212;" horiz-adv-x="478" 
d="M106 701v17c0 57 29 118 121 118s121 -61 121 -118v-17h-84v10c0 25 -10 47 -37 47s-37 -22 -37 -47v-10h-84zM32 0v658h200c149 0 217 -61 217 -194c0 -90 -24 -138 -87 -157v-1c62 -14 87 -54 87 -116v-190h-149v185c0 43 -20 62 -64 62h-56v-247h-148zM180 341h52
c49 0 72 28 72 96c0 69 -23 93 -74 93h-50v-189z" />
    <glyph glyph-name="Sacute" unicode="&#x15a;" horiz-adv-x="455" 
d="M161 691l50 145h128l-83 -145h-95zM224 -8c-162 0 -201 93 -201 238h131c0 -95 17 -122 70 -122c43 0 61 25 61 67c0 35 -9 50 -25 62c-13 10 -38 21 -86 39c-44 16 -80 35 -101 55c-30 25 -51 73 -51 139c0 119 75 196 202 196c148 0 195 -72 195 -243h-129
c0 104 -17 127 -63 127c-35 0 -57 -25 -57 -66c0 -39 9 -56 23 -68s47 -26 88 -42c47 -18 74 -31 100 -53c33 -28 52 -75 52 -135c0 -117 -72 -194 -209 -194z" />
    <glyph glyph-name="Scaron" unicode="&#x160;" horiz-adv-x="455" 
d="M146 691l-78 145h126l28 -81h2l28 81h126l-78 -145h-154zM224 -8c-162 0 -201 93 -201 238h131c0 -95 17 -122 70 -122c43 0 61 25 61 67c0 35 -9 50 -25 62c-13 10 -38 21 -86 39c-44 16 -80 35 -101 55c-30 25 -51 73 -51 139c0 119 75 196 202 196
c148 0 195 -72 195 -243h-129c0 104 -17 127 -63 127c-35 0 -57 -25 -57 -66c0 -39 9 -56 23 -68s47 -26 88 -42c47 -18 74 -31 100 -53c33 -28 52 -75 52 -135c0 -117 -72 -194 -209 -194z" />
    <glyph glyph-name="Scedilla" unicode="&#x15e;" horiz-adv-x="455" 
d="M433 186c0 -108 -61 -181 -177 -193l-14 -42l2 -1c5 5 16 14 38 14c41 0 67 -29 67 -79c0 -49 -29 -103 -119 -103c-82 0 -113 42 -114 100h86c1 -23 6 -34 27 -34s27 18 27 37c0 20 -12 34 -47 34c-25 0 -46 -5 -51 -6l24 81c-127 15 -159 104 -159 236h131
c0 -95 17 -122 70 -122c43 0 61 25 61 67c0 35 -9 50 -25 62c-13 10 -38 21 -86 39c-44 16 -80 35 -101 55c-30 25 -51 73 -51 139c0 119 75 196 202 196c148 0 195 -72 195 -243h-129c0 104 -17 127 -63 127c-35 0 -57 -25 -57 -66c0 -39 9 -56 23 -68s47 -26 88 -42
c47 -18 74 -31 100 -53c33 -28 52 -75 52 -135z" />
    <glyph glyph-name="Scircumflex" unicode="&#x15c;" horiz-adv-x="455" 
d="M99 687v98l123 50h2l123 -50v-98l-123 51h-2zM224 -8c-162 0 -201 93 -201 238h131c0 -95 17 -122 70 -122c43 0 61 25 61 67c0 35 -9 50 -25 62c-13 10 -38 21 -86 39c-44 16 -80 35 -101 55c-30 25 -51 73 -51 139c0 119 75 196 202 196c148 0 195 -72 195 -243h-129
c0 104 -17 127 -63 127c-35 0 -57 -25 -57 -66c0 -39 9 -56 23 -68s47 -26 88 -42c47 -18 74 -31 100 -53c33 -28 52 -75 52 -135c0 -117 -72 -194 -209 -194z" />
    <glyph glyph-name="Scommaaccent" unicode="&#x218;" horiz-adv-x="455" 
d="M224 -8c-162 0 -201 93 -201 238h131c0 -95 17 -122 70 -122c43 0 61 25 61 67c0 35 -9 50 -25 62c-13 10 -38 21 -86 39c-44 16 -80 35 -101 55c-30 25 -51 73 -51 139c0 119 75 196 202 196c148 0 195 -72 195 -243h-129c0 104 -17 127 -63 127c-35 0 -57 -25 -57 -66
c0 -39 9 -56 23 -68s47 -26 88 -42c47 -18 74 -31 100 -53c33 -28 52 -75 52 -135c0 -117 -72 -194 -209 -194zM157 -305v66c38 3 56 20 55 61v4h-52v150h129v-110c0 -127 -50 -167 -132 -171z" />
    <glyph glyph-name="Tcaron" unicode="&#x164;" horiz-adv-x="394" 
d="M121 691l-78 145h126l28 -81h2l28 81h126l-78 -145h-154zM123 0v530h-113v128h373v-128h-112v-530h-148z" />
    <glyph glyph-name="uni0162" unicode="&#x162;" horiz-adv-x="394" 
d="M123 0v530h-113v128h373v-128h-112v-530h-148zM131 -305v66c38 3 56 20 55 61v4h-52v150h129v-110c0 -127 -50 -167 -132 -171z" />
    <glyph glyph-name="Uacute" unicode="&#xda;" horiz-adv-x="467" 
d="M175 691l50 145h128l-83 -145h-95zM234 -8c-134 0 -204 77 -204 224v442h148v-442c0 -60 23 -92 67 -92c42 0 64 32 64 92v442h128v-442c0 -147 -70 -224 -203 -224z" />
    <glyph glyph-name="Ubreve" unicode="&#x16c;" horiz-adv-x="467" 
d="M237 701c-92 0 -121 61 -121 118v17h84v-10c0 -25 10 -47 37 -47s37 22 37 47v10h84v-17c0 -57 -29 -118 -121 -118zM234 -8c-134 0 -204 77 -204 224v442h148v-442c0 -60 23 -92 67 -92c42 0 64 32 64 92v442h128v-442c0 -147 -70 -224 -203 -224z" />
    <glyph glyph-name="Ucircumflex" unicode="&#xdb;" horiz-adv-x="467" 
d="M113 687v98l123 50h2l123 -50v-98l-123 51h-2zM234 -8c-134 0 -204 77 -204 224v442h148v-442c0 -60 23 -92 67 -92c42 0 64 32 64 92v442h128v-442c0 -147 -70 -224 -203 -224z" />
    <glyph glyph-name="uni0214" unicode="&#x214;" horiz-adv-x="467" 
d="M134 691l-70 145h105l49 -145h-84zM275 691l-70 145h106l49 -145h-85zM234 -8c-134 0 -204 77 -204 224v442h148v-442c0 -60 23 -92 67 -92c42 0 64 32 64 92v442h128v-442c0 -147 -70 -224 -203 -224z" />
    <glyph glyph-name="Udieresis" unicode="&#xdc;" horiz-adv-x="467" 
d="M100 697v119h114v-119h-114zM260 697v119h114v-119h-114zM234 -8c-134 0 -204 77 -204 224v442h148v-442c0 -60 23 -92 67 -92c42 0 64 32 64 92v442h128v-442c0 -147 -70 -224 -203 -224z" />
    <glyph glyph-name="Ugrave" unicode="&#xd9;" horiz-adv-x="467" 
d="M202 691l-83 145h127l50 -145h-94zM234 -8c-134 0 -204 77 -204 224v442h148v-442c0 -60 23 -92 67 -92c42 0 64 32 64 92v442h128v-442c0 -147 -70 -224 -203 -224z" />
    <glyph glyph-name="Uhungarumlaut" unicode="&#x170;" horiz-adv-x="467" 
d="M104 691l49 145h105l-70 -145h-84zM245 691l49 145h105l-70 -145h-84zM234 -8c-134 0 -204 77 -204 224v442h148v-442c0 -60 23 -92 67 -92c42 0 64 32 64 92v442h128v-442c0 -147 -70 -224 -203 -224z" />
    <glyph glyph-name="uni0216" unicode="&#x216;" horiz-adv-x="467" 
d="M116 701v17c0 57 29 118 121 118s121 -61 121 -118v-17h-84v10c0 25 -10 47 -37 47s-37 -22 -37 -47v-10h-84zM234 -8c-134 0 -204 77 -204 224v442h148v-442c0 -60 23 -92 67 -92c42 0 64 32 64 92v442h128v-442c0 -147 -70 -224 -203 -224z" />
    <glyph glyph-name="Umacron" unicode="&#x16a;" horiz-adv-x="467" 
d="M123 711v96h228v-96h-228zM234 -8c-134 0 -204 77 -204 224v442h148v-442c0 -60 23 -92 67 -92c42 0 64 32 64 92v442h128v-442c0 -147 -70 -224 -203 -224z" />
    <glyph glyph-name="Uogonek" unicode="&#x172;" horiz-adv-x="467" 
d="M30 216v442h148v-442c0 -60 23 -92 67 -92c42 0 64 32 64 92v442h128v-442c0 -86 -24 -148 -70 -184c-22 -19 -35 -28 -48 -45c-17 -22 -28 -46 -28 -70c0 -15 8 -26 27 -26c10 0 19 1 27 3v-78c-9 -4 -29 -9 -55 -9c-69 0 -98 35 -98 77c0 44 26 87 46 107v1h-4
c-134 0 -204 77 -204 224z" />
    <glyph glyph-name="Uring" unicode="&#x16e;" horiz-adv-x="467" 
d="M237 691c-83 0 -121 49 -121 116c0 68 41 117 121 117c82 0 121 -49 121 -117c0 -67 -38 -116 -121 -116zM237 764c23 0 37 16 37 43c0 28 -15 44 -37 44s-37 -16 -37 -44c0 -27 14 -43 37 -43zM234 -8c-134 0 -204 77 -204 224v442h148v-442c0 -60 23 -92 67 -92
c42 0 64 32 64 92v442h128v-442c0 -147 -70 -224 -203 -224z" />
    <glyph glyph-name="Utilde" unicode="&#x168;" horiz-adv-x="467" 
d="M92 701c3 114 36 159 91 159c32 0 46 -15 61 -35l11 -15c9 -12 14 -19 25 -19c13 0 22 15 25 69h74c-3 -114 -38 -160 -92 -160c-32 0 -49 18 -61 35l-12 16c-9 12 -13 19 -24 19c-13 0 -21 -15 -24 -69h-74zM234 -8c-134 0 -204 77 -204 224v442h148v-442
c0 -60 23 -92 67 -92c42 0 64 32 64 92v442h128v-442c0 -147 -70 -224 -203 -224z" />
    <glyph glyph-name="Wacute" unicode="&#x1e82;" horiz-adv-x="716" 
d="M295 691l50 145h128l-83 -145h-95zM132 0l-120 658h164l55 -449h3l61 450h144l61 -450h4l53 449h147l-121 -658h-170l-54 413h-4l-60 -413h-163z" />
    <glyph glyph-name="Wcircumflex" unicode="&#x174;" horiz-adv-x="716" 
d="M233 687v98l123 50h2l123 -50v-98l-123 51h-2zM132 0l-120 658h164l55 -449h3l61 450h144l61 -450h4l53 449h147l-121 -658h-170l-54 413h-4l-60 -413h-163z" />
    <glyph glyph-name="Wdieresis" unicode="&#x1e84;" horiz-adv-x="716" 
d="M220 697v119h114v-119h-114zM380 697v119h114v-119h-114zM132 0l-120 658h164l55 -449h3l61 450h144l61 -450h4l53 449h147l-121 -658h-170l-54 413h-4l-60 -413h-163z" />
    <glyph glyph-name="Wgrave" unicode="&#x1e80;" horiz-adv-x="716" 
d="M322 691l-83 145h127l50 -145h-94zM132 0l-120 658h164l55 -449h3l61 450h144l61 -450h4l53 449h147l-121 -658h-170l-54 413h-4l-60 -413h-163z" />
    <glyph glyph-name="Yacute" unicode="&#xdd;" horiz-adv-x="500" 
d="M187 691l50 145h128l-83 -145h-95zM176 0v236l-164 422h182l69 -272h3l68 272h154l-164 -422v-236h-148z" />
    <glyph glyph-name="Ycircumflex" unicode="&#x176;" horiz-adv-x="500" 
d="M125 687v98l123 50h2l123 -50v-98l-123 51h-2zM176 0v236l-164 422h182l69 -272h3l68 272h154l-164 -422v-236h-148z" />
    <glyph glyph-name="Ydieresis" unicode="&#x178;" horiz-adv-x="500" 
d="M112 697v119h114v-119h-114zM272 697v119h114v-119h-114zM176 0v236l-164 422h182l69 -272h3l68 272h154l-164 -422v-236h-148z" />
    <glyph glyph-name="Ygrave" unicode="&#x1ef2;" horiz-adv-x="500" 
d="M214 691l-83 145h127l50 -145h-94zM176 0v236l-164 422h182l69 -272h3l68 272h154l-164 -422v-236h-148z" />
    <glyph glyph-name="Zacute" unicode="&#x179;" horiz-adv-x="402" 
d="M140 691l50 145h128l-83 -145h-95zM17 0v99l198 429v2h-194v128h365v-110l-194 -418v-2h193v-128h-368z" />
    <glyph glyph-name="Zcaron" unicode="&#x17d;" horiz-adv-x="402" 
d="M125 691l-78 145h126l28 -81h2l28 81h126l-78 -145h-154zM17 0v99l198 429v2h-194v128h365v-110l-194 -418v-2h193v-128h-368z" />
    <glyph glyph-name="Zdotaccent" unicode="&#x17b;" horiz-adv-x="402" 
d="M139 697v119h124v-119h-124zM17 0v99l198 429v2h-194v128h365v-110l-194 -418v-2h193v-128h-368z" />
    <glyph glyph-name="a" unicode="a" horiz-adv-x="418" 
d="M154 -6c-82 0 -131 52 -131 139c0 89 54 142 145 142h88v54c0 52 -16 68 -48 68c-31 0 -47 -19 -47 -63c0 -5 0 -17 1 -33h-123c-1 7 -2 23 -2 40c0 104 61 159 177 159c118 0 180 -63 180 -184v-316h-138c2 14 6 60 6 87h-1c-9 -59 -42 -93 -107 -93zM193 96
c39 0 63 25 63 84v17h-66c-26 0 -42 -19 -42 -51c0 -31 17 -50 45 -50z" />
    <glyph glyph-name="b" unicode="b" horiz-adv-x="452" 
d="M283 500c97 0 147 -83 147 -243c0 -173 -51 -263 -149 -263c-64 0 -104 33 -117 95h-1c1 -45 4 -79 5 -89h-137v686h138v-184c0 -22 -2 -66 -4 -94h2c13 60 53 92 116 92zM237 108c36 0 55 49 55 144c0 88 -19 134 -56 134c-44 0 -67 -43 -67 -124v-44
c0 -72 23 -110 68 -110zM169 0c0 -4 0 -4 -1 0h1z" />
    <glyph glyph-name="c" unicode="c" horiz-adv-x="405" 
d="M204 -6c-120 0 -183 87 -183 253s64 253 187 253c116 0 176 -76 176 -221h-121c0 70 -17 107 -50 107c-35 0 -54 -48 -54 -139s18 -139 53 -139c34 0 51 36 51 106h121c0 -145 -62 -220 -180 -220z" />
    <glyph glyph-name="d" unicode="d" horiz-adv-x="451" 
d="M176 -6c-100 0 -155 82 -155 259c0 166 59 247 156 247c57 0 91 -24 104 -69h1v255h138v-686h-138c3 21 5 54 8 98h-2c-14 -70 -47 -104 -112 -104zM217 108c39 0 65 51 65 128v38c0 70 -24 112 -64 112c-37 0 -60 -33 -60 -135c0 -103 22 -143 59 -143z" />
    <glyph glyph-name="e" unicode="e" horiz-adv-x="409" 
d="M387 270v-48h-228c3 -92 22 -122 58 -122c32 0 48 17 49 81h121c-1 -126 -60 -187 -176 -187c-136 0 -190 94 -190 249c0 186 72 257 194 257c110 0 172 -63 172 -230zM266 299v12c0 58 -15 83 -49 83c-33 0 -51 -22 -56 -95h105z" />
    <glyph glyph-name="f" unicode="f" horiz-adv-x="317" 
d="M59 0v374h-54v120h54v53c0 101 56 153 164 153c41 0 71 -8 80 -11v-110c-10 3 -31 7 -51 7c-39 0 -55 -17 -55 -50v-42h112v-120h-112v-374h-138z" />
    <glyph glyph-name="g" unicode="g" horiz-adv-x="434" 
d="M273 89c100 0 148 -49 148 -131c0 -100 -67 -169 -199 -169c-136 0 -204 59 -204 125c0 45 25 77 66 85v2c-30 19 -40 47 -40 77c0 43 18 75 51 88v3c-43 29 -65 80 -65 151c0 118 61 180 177 180c40 0 74 -7 100 -22l1 1c-15 16 -26 35 -26 56c0 37 29 61 89 61
c18 0 32 -2 40 -4v-101c-4 1 -11 2 -21 2c-23 0 -33 -11 -33 -32c0 -12 3 -26 7 -42c13 -27 20 -60 20 -99c0 -118 -61 -180 -177 -180c-18 0 -35 2 -51 5c-2 -4 -5 -12 -5 -25c0 -20 11 -31 40 -31h82zM207 407c-31 0 -47 -26 -47 -87s16 -87 47 -87s47 26 47 87
s-16 87 -47 87zM219 -117c41 0 64 20 64 50c0 27 -9 44 -44 44h-46c-26 0 -39 -17 -39 -46c0 -27 22 -48 65 -48z" />
    <glyph glyph-name="h" unicode="h" horiz-adv-x="452" 
d="M31 0v686h138v-199c0 -12 -3 -71 -6 -111h2c15 68 47 124 134 124c86 0 129 -60 129 -168v-332h-138v306c0 47 -17 69 -52 69c-44 0 -69 -41 -69 -111v-264h-138z" />
    <glyph glyph-name="i" unicode="i" horiz-adv-x="202" 
d="M31 533v119h139v-119h-139zM32 0v494h138v-494h-138z" />
    <glyph glyph-name="j" unicode="j" horiz-adv-x="202" 
d="M31 533v119h139v-119h-139zM30 -208c-47 0 -78 8 -84 9v114c9 -2 21 -4 39 -4c33 0 46 20 46 56v527h138v-535c0 -98 -41 -167 -139 -167z" />
    <glyph glyph-name="k" unicode="k" horiz-adv-x="451" 
d="M31 0v686h138v-419h1l111 227h155l-120 -207l128 -287h-166l-63 176l-46 -76v-100h-138z" />
    <glyph glyph-name="l" unicode="l" horiz-adv-x="200" 
d="M31 0v686h138v-686h-138z" />
    <glyph glyph-name="m" unicode="m" horiz-adv-x="663" 
d="M29 0v494h138l-5 -114h2c14 74 49 120 118 120c68 0 111 -34 118 -107h1c12 68 50 107 119 107c77 0 119 -50 119 -163v-337h-138v309c0 42 -13 66 -42 66c-35 0 -56 -37 -56 -106v-269h-138v309c0 42 -13 66 -42 66c-35 0 -56 -40 -56 -111v-264h-138z" />
    <glyph glyph-name="n" unicode="n" horiz-adv-x="450" 
d="M29 0v494h138l-6 -118h2c16 77 50 124 134 124c87 0 129 -63 129 -168v-332h-138v306c0 47 -17 69 -52 69c-44 0 -69 -40 -69 -111v-264h-138z" />
    <glyph glyph-name="o" unicode="o" horiz-adv-x="438" 
d="M219 -6c-130 0 -198 87 -198 253s68 253 198 253c129 0 197 -87 197 -253s-68 -253 -197 -253zM219 108c39 0 59 44 59 139s-20 139 -59 139s-60 -44 -60 -139s21 -139 60 -139z" />
    <glyph glyph-name="p" unicode="p" horiz-adv-x="452" 
d="M31 -198v692h138l-3 -91h1c12 64 51 97 114 97c98 0 149 -83 149 -242c0 -173 -52 -264 -152 -264c-60 0 -99 30 -113 87h-1c2 -32 5 -81 5 -99v-180h-138zM235 108c38 0 58 49 58 144c0 88 -20 134 -59 134c-43 0 -65 -44 -65 -129v-42c0 -70 23 -107 66 -107z" />
    <glyph glyph-name="q" unicode="q" horiz-adv-x="451" 
d="M282 -198v290h-1c-11 -62 -41 -98 -106 -98c-100 0 -154 84 -154 259c0 164 61 247 156 247c58 0 92 -24 106 -79h1v73h136v-692h-138zM217 108c40 0 65 46 65 126v41c0 73 -26 111 -63 111s-61 -34 -61 -134c0 -104 21 -144 59 -144z" />
    <glyph glyph-name="r" unicode="r" horiz-adv-x="399" 
d="M29 0v494h138l-6 -128h2c14 77 42 134 114 134c75 0 105 -63 105 -168c0 -48 -3 -96 -5 -118h-123c2 22 4 61 4 87c0 54 -11 74 -35 74c-36 0 -56 -50 -56 -151v-224h-138z" />
    <glyph glyph-name="s" unicode="s" horiz-adv-x="412" 
d="M202 -6c-134 0 -181 73 -181 174h118c0 -49 17 -76 59 -76c35 0 54 19 54 49c0 22 -9 35 -25 43s-40 15 -73 24c-39 11 -74 24 -96 43c-21 18 -37 51 -37 92c0 91 66 157 182 157c119 0 174 -51 174 -177h-117c0 55 -14 79 -54 79c-31 0 -49 -21 -49 -48s9 -37 24 -45
c16 -9 46 -17 79 -26c37 -10 69 -20 93 -40s37 -53 37 -92c0 -89 -55 -157 -188 -157z" />
    <glyph glyph-name="t" unicode="t" horiz-adv-x="318" 
d="M218 -6c-120 0 -160 70 -160 184v196h-53v120h41c21 0 29 11 32 45l5 67h113v-112h110v-120h-110v-193c0 -52 14 -68 57 -68c24 0 39 2 46 3v-113c-8 -3 -42 -9 -81 -9z" />
    <glyph glyph-name="u" unicode="u" horiz-adv-x="450" 
d="M163 -6c-94 0 -139 64 -139 179v321h138v-300c0 -52 18 -75 52 -75c46 0 68 49 68 128v247h138v-494h-138c3 26 7 76 8 117h-2c-15 -82 -53 -123 -125 -123z" />
    <glyph glyph-name="v" unicode="v" horiz-adv-x="457" 
d="M145 0l-131 494h159l61 -357h3l67 357h140l-130 -494h-169z" />
    <glyph glyph-name="w" unicode="w" horiz-adv-x="626" 
d="M102 0l-88 494h142l41 -343h2l55 343h137l48 -343h2l47 343h125l-87 -494h-171l-40 314h-3l-49 -314h-161z" />
    <glyph glyph-name="x" unicode="x" horiz-adv-x="440" 
d="M14 0l116 253l-109 241h161l50 -161l46 161h142l-110 -241l117 -253h-163l-50 163l-48 -163h-152z" />
    <glyph glyph-name="y" unicode="y" horiz-adv-x="442" 
d="M154 -208c-42 0 -72 9 -80 12v112c8 -2 27 -5 47 -5c33 0 49 22 62 89h-33l-136 494h156l67 -331h2l61 331h129l-113 -506c-32 -148 -73 -196 -162 -196z" />
    <glyph glyph-name="z" unicode="z" horiz-adv-x="354" 
d="M18 0v95l153 277v2h-146v120h311v-92l-155 -281v-1h155v-120h-318z" />
    <glyph glyph-name="aacute" unicode="&#xe1;" horiz-adv-x="418" 
d="M152 527l50 145h128l-83 -145h-95zM154 -6c-82 0 -131 52 -131 139c0 89 54 142 145 142h88v54c0 52 -16 68 -48 68c-31 0 -47 -19 -47 -63c0 -5 0 -17 1 -33h-123c-1 7 -2 23 -2 40c0 104 61 159 177 159c118 0 180 -63 180 -184v-316h-138c2 14 6 60 6 87h-1
c-9 -59 -42 -93 -107 -93zM193 96c39 0 63 25 63 84v17h-66c-26 0 -42 -19 -42 -51c0 -31 17 -50 45 -50z" />
    <glyph glyph-name="abreve" unicode="&#x103;" horiz-adv-x="418" 
d="M214 537c-92 0 -121 61 -121 118v17h84v-10c0 -25 10 -47 37 -47s37 22 37 47v10h84v-17c0 -57 -29 -118 -121 -118zM154 -6c-82 0 -131 52 -131 139c0 89 54 142 145 142h88v54c0 52 -16 68 -48 68c-31 0 -47 -19 -47 -63c0 -5 0 -17 1 -33h-123c-1 7 -2 23 -2 40
c0 104 61 159 177 159c118 0 180 -63 180 -184v-316h-138c2 14 6 60 6 87h-1c-9 -59 -42 -93 -107 -93zM193 96c39 0 63 25 63 84v17h-66c-26 0 -42 -19 -42 -51c0 -31 17 -50 45 -50z" />
    <glyph glyph-name="acircumflex" unicode="&#xe2;" horiz-adv-x="418" 
d="M90 523v98l123 50h2l123 -50v-98l-123 51h-2zM154 -6c-82 0 -131 52 -131 139c0 89 54 142 145 142h88v54c0 52 -16 68 -48 68c-31 0 -47 -19 -47 -63c0 -5 0 -17 1 -33h-123c-1 7 -2 23 -2 40c0 104 61 159 177 159c118 0 180 -63 180 -184v-316h-138c2 14 6 60 6 87h-1
c-9 -59 -42 -93 -107 -93zM193 96c39 0 63 25 63 84v17h-66c-26 0 -42 -19 -42 -51c0 -31 17 -50 45 -50z" />
    <glyph glyph-name="uni0201" unicode="&#x201;" horiz-adv-x="418" 
d="M111 527l-70 145h105l49 -145h-84zM252 527l-70 145h106l49 -145h-85zM154 -6c-82 0 -131 52 -131 139c0 89 54 142 145 142h88v54c0 52 -16 68 -48 68c-31 0 -47 -19 -47 -63c0 -5 0 -17 1 -33h-123c-1 7 -2 23 -2 40c0 104 61 159 177 159c118 0 180 -63 180 -184v-316
h-138c2 14 6 60 6 87h-1c-9 -59 -42 -93 -107 -93zM193 96c39 0 63 25 63 84v17h-66c-26 0 -42 -19 -42 -51c0 -31 17 -50 45 -50z" />
    <glyph glyph-name="adieresis" unicode="&#xe4;" horiz-adv-x="418" 
d="M77 533v119h114v-119h-114zM237 533v119h114v-119h-114zM154 -6c-82 0 -131 52 -131 139c0 89 54 142 145 142h88v54c0 52 -16 68 -48 68c-31 0 -47 -19 -47 -63c0 -5 0 -17 1 -33h-123c-1 7 -2 23 -2 40c0 104 61 159 177 159c118 0 180 -63 180 -184v-316h-138
c2 14 6 60 6 87h-1c-9 -59 -42 -93 -107 -93zM193 96c39 0 63 25 63 84v17h-66c-26 0 -42 -19 -42 -51c0 -31 17 -50 45 -50z" />
    <glyph glyph-name="agrave" unicode="&#xe0;" horiz-adv-x="418" 
d="M179 527l-83 145h127l50 -145h-94zM154 -6c-82 0 -131 52 -131 139c0 89 54 142 145 142h88v54c0 52 -16 68 -48 68c-31 0 -47 -19 -47 -63c0 -5 0 -17 1 -33h-123c-1 7 -2 23 -2 40c0 104 61 159 177 159c118 0 180 -63 180 -184v-316h-138c2 14 6 60 6 87h-1
c-9 -59 -42 -93 -107 -93zM193 96c39 0 63 25 63 84v17h-66c-26 0 -42 -19 -42 -51c0 -31 17 -50 45 -50z" />
    <glyph glyph-name="uni0203" unicode="&#x203;" horiz-adv-x="418" 
d="M93 537v17c0 57 29 118 121 118s121 -61 121 -118v-17h-84v10c0 25 -10 47 -37 47s-37 -22 -37 -47v-10h-84zM154 -6c-82 0 -131 52 -131 139c0 89 54 142 145 142h88v54c0 52 -16 68 -48 68c-31 0 -47 -19 -47 -63c0 -5 0 -17 1 -33h-123c-1 7 -2 23 -2 40
c0 104 61 159 177 159c118 0 180 -63 180 -184v-316h-138c2 14 6 60 6 87h-1c-9 -59 -42 -93 -107 -93zM193 96c39 0 63 25 63 84v17h-66c-26 0 -42 -19 -42 -51c0 -31 17 -50 45 -50z" />
    <glyph glyph-name="amacron" unicode="&#x101;" horiz-adv-x="418" 
d="M100 547v96h228v-96h-228zM154 -6c-82 0 -131 52 -131 139c0 89 54 142 145 142h88v54c0 52 -16 68 -48 68c-31 0 -47 -19 -47 -63c0 -5 0 -17 1 -33h-123c-1 7 -2 23 -2 40c0 104 61 159 177 159c118 0 180 -63 180 -184v-316h-138c2 14 6 60 6 87h-1
c-9 -59 -42 -93 -107 -93zM193 96c39 0 63 25 63 84v17h-66c-26 0 -42 -19 -42 -51c0 -31 17 -50 45 -50z" />
    <glyph glyph-name="aogonek" unicode="&#x105;" horiz-adv-x="418" 
d="M394 0h-23c-21 -33 -31 -63 -31 -85c0 -15 8 -24 27 -24c10 0 19 1 27 3v-78c-9 -4 -29 -9 -55 -9c-69 0 -98 35 -98 77c0 41 21 84 53 116h-38c2 14 6 60 6 87h-1c-9 -59 -42 -93 -107 -93c-82 0 -131 52 -131 139c0 89 54 142 145 142h88v54c0 52 -16 68 -48 68
c-31 0 -47 -19 -47 -63c0 -5 0 -17 1 -33h-123c-1 7 -2 23 -2 40c0 104 61 159 177 159c118 0 180 -63 180 -184v-316zM256 180v17h-66c-26 0 -42 -19 -42 -51c0 -31 17 -50 45 -50c39 0 63 25 63 84z" />
    <glyph glyph-name="aring" unicode="&#xe5;" horiz-adv-x="418" 
d="M214 527c-83 0 -121 49 -121 116c0 68 41 117 121 117c82 0 121 -49 121 -117c0 -67 -38 -116 -121 -116zM214 600c23 0 37 16 37 43c0 28 -15 44 -37 44s-37 -16 -37 -44c0 -27 14 -43 37 -43zM154 -6c-82 0 -131 52 -131 139c0 89 54 142 145 142h88v54
c0 52 -16 68 -48 68c-31 0 -47 -19 -47 -63c0 -5 0 -17 1 -33h-123c-1 7 -2 23 -2 40c0 104 61 159 177 159c118 0 180 -63 180 -184v-316h-138c2 14 6 60 6 87h-1c-9 -59 -42 -93 -107 -93zM193 96c39 0 63 25 63 84v17h-66c-26 0 -42 -19 -42 -51c0 -31 17 -50 45 -50z
" />
    <glyph glyph-name="atilde" unicode="&#xe3;" horiz-adv-x="418" 
d="M69 537c3 114 36 159 91 159c32 0 46 -15 61 -35l11 -15c9 -12 14 -19 25 -19c13 0 22 15 25 69h74c-3 -114 -38 -160 -92 -160c-32 0 -49 18 -61 35l-12 16c-9 12 -13 19 -24 19c-13 0 -21 -15 -24 -69h-74zM154 -6c-82 0 -131 52 -131 139c0 89 54 142 145 142h88v54
c0 52 -16 68 -48 68c-31 0 -47 -19 -47 -63c0 -5 0 -17 1 -33h-123c-1 7 -2 23 -2 40c0 104 61 159 177 159c118 0 180 -63 180 -184v-316h-138c2 14 6 60 6 87h-1c-9 -59 -42 -93 -107 -93zM193 96c39 0 63 25 63 84v17h-66c-26 0 -42 -19 -42 -51c0 -31 17 -50 45 -50z
" />
    <glyph glyph-name="ae" unicode="&#xe6;" horiz-adv-x="643" 
d="M621 270v-50h-228c3 -92 22 -120 58 -120c33 0 48 19 49 81h121c-1 -126 -60 -187 -175 -187c-78 0 -130 28 -152 85h-2c-12 -53 -58 -85 -123 -85c-92 0 -146 52 -146 139c0 89 53 141 144 141h89v55c0 52 -16 68 -48 68c-31 0 -47 -18 -47 -63c0 -11 0 -22 1 -33h-123
c-1 8 -2 24 -2 40c0 104 63 159 171 159c59 0 101 -16 122 -47h2c25 32 61 47 120 47c108 0 169 -63 169 -230zM500 297v14c0 64 -15 83 -48 83c-34 0 -53 -16 -58 -97h106zM256 180v16h-67c-26 0 -41 -19 -41 -50s17 -50 45 -50c39 0 63 25 63 84z" />
    <glyph glyph-name="aeacute" unicode="&#x1fd;" horiz-adv-x="643" 
d="M437 672l-83 -145h-95l50 145h128zM621 270v-50h-228c3 -92 22 -120 58 -120c33 0 48 19 49 81h121c-1 -126 -60 -187 -175 -187c-78 0 -130 28 -152 85h-2c-12 -53 -58 -85 -123 -85c-92 0 -146 52 -146 139c0 89 53 141 144 141h89v55c0 52 -16 68 -48 68
c-31 0 -47 -18 -47 -63c0 -11 0 -22 1 -33h-123c-1 8 -2 24 -2 40c0 104 63 159 171 159c59 0 101 -16 122 -47h2c25 32 61 47 120 47c108 0 169 -63 169 -230zM500 297v14c0 64 -15 83 -48 83c-34 0 -53 -16 -58 -97h106zM256 180v16h-67c-26 0 -41 -19 -41 -50
s17 -50 45 -50c39 0 63 25 63 84z" />
    <glyph glyph-name="cacute" unicode="&#x107;" horiz-adv-x="405" 
d="M147 527l50 145h128l-83 -145h-95zM204 -6c-120 0 -183 87 -183 253s64 253 187 253c116 0 176 -76 176 -221h-121c0 70 -17 107 -50 107c-35 0 -54 -48 -54 -139s18 -139 53 -139c34 0 51 36 51 106h121c0 -145 -62 -220 -180 -220z" />
    <glyph glyph-name="ccaron" unicode="&#x10d;" horiz-adv-x="405" 
d="M132 527l-78 145h126l28 -81h2l28 81h126l-78 -145h-154zM204 -6c-120 0 -183 87 -183 253s64 253 187 253c116 0 176 -76 176 -221h-121c0 70 -17 107 -50 107c-35 0 -54 -48 -54 -139s18 -139 53 -139c34 0 51 36 51 106h121c0 -145 -62 -220 -180 -220z" />
    <glyph glyph-name="ccedilla" unicode="&#xe7;" horiz-adv-x="405" 
d="M384 214c0 -131 -50 -204 -146 -218l-15 -45l2 -1c5 5 16 14 38 14c41 0 67 -29 67 -79c0 -49 -29 -103 -119 -103c-82 0 -113 42 -114 100h86c1 -23 6 -34 27 -34s27 18 27 37c0 20 -12 34 -47 34c-25 0 -46 -5 -51 -6l25 85c-94 17 -143 102 -143 249
c0 166 64 253 187 253c116 0 176 -76 176 -221h-121c0 70 -17 107 -50 107c-35 0 -54 -48 -54 -139s18 -139 53 -139c34 0 51 36 51 106h121z" />
    <glyph glyph-name="ccircumflex" unicode="&#x109;" horiz-adv-x="405" 
d="M85 523v98l123 50h2l123 -50v-98l-123 51h-2zM204 -6c-120 0 -183 87 -183 253s64 253 187 253c116 0 176 -76 176 -221h-121c0 70 -17 107 -50 107c-35 0 -54 -48 -54 -139s18 -139 53 -139c34 0 51 36 51 106h121c0 -145 -62 -220 -180 -220z" />
    <glyph glyph-name="cdotaccent" unicode="&#x10b;" horiz-adv-x="405" 
d="M146 533v119h124v-119h-124zM204 -6c-120 0 -183 87 -183 253s64 253 187 253c116 0 176 -76 176 -221h-121c0 70 -17 107 -50 107c-35 0 -54 -48 -54 -139s18 -139 53 -139c34 0 51 36 51 106h121c0 -145 -62 -220 -180 -220z" />
    <glyph glyph-name="eth" unicode="&#xf0;" horiz-adv-x="438" 
d="M301 619c73 -74 115 -188 115 -341c0 -189 -65 -284 -197 -284s-198 86 -198 252c0 177 64 254 165 254c22 0 41 -8 57 -20c-14 31 -33 59 -56 82l-121 -60l-22 46l100 50c-24 16 -50 30 -80 42l84 67c41 -11 78 -29 111 -52l104 52l22 -47zM219 108c39 0 59 45 59 163
c0 13 0 25 -1 37c-7 53 -29 78 -60 78c-37 0 -58 -31 -58 -140c0 -103 21 -138 60 -138z" />
    <glyph glyph-name="dcaron" unicode="&#x10f;" horiz-adv-x="537" 
d="M176 -6c-100 0 -155 82 -155 259c0 166 59 247 156 247c57 0 91 -24 104 -69h1v255h138v-686h-138c3 21 5 54 8 98h-2c-14 -70 -47 -104 -112 -104zM448 377v66c38 3 56 20 55 61v4h-52v150h129v-110c0 -127 -50 -167 -132 -171zM217 108c39 0 65 51 65 128v38
c0 70 -24 112 -64 112c-37 0 -60 -33 -60 -135c0 -103 22 -143 59 -143z" />
    <glyph glyph-name="dmacron" unicode="&#x111;" horiz-adv-x="455" 
d="M475 615v-65h-55v-550h-138c3 21 5 54 8 98h-2c-14 -70 -47 -104 -112 -104c-100 0 -155 82 -155 259c0 166 59 247 156 247c57 0 91 -24 104 -69h1v119h-124v65h124v71h138v-71h55zM282 236v38c0 70 -24 112 -64 112c-37 0 -60 -33 -60 -135c0 -103 22 -143 59 -143
c39 0 65 51 65 128z" />
    <glyph glyph-name="eacute" unicode="&#xe9;" horiz-adv-x="409" 
d="M325 672l-83 -145h-95l50 145h128zM387 270v-48h-228c3 -92 22 -122 58 -122c32 0 48 17 49 81h121c-1 -126 -60 -187 -176 -187c-136 0 -190 94 -190 249c0 186 72 257 194 257c110 0 172 -63 172 -230zM266 299v12c0 58 -15 83 -49 83c-33 0 -51 -22 -56 -95h105z" />
    <glyph glyph-name="ebreve" unicode="&#x115;" horiz-adv-x="409" 
d="M209 537c-92 0 -121 61 -121 118v17h84v-10c0 -25 10 -47 37 -47s37 22 37 47v10h84v-17c0 -57 -29 -118 -121 -118zM387 270v-48h-228c3 -92 22 -122 58 -122c32 0 48 17 49 81h121c-1 -126 -60 -187 -176 -187c-136 0 -190 94 -190 249c0 186 72 257 194 257
c110 0 172 -63 172 -230zM266 299v12c0 58 -15 83 -49 83c-33 0 -51 -22 -56 -95h105z" />
    <glyph glyph-name="ecaron" unicode="&#x11b;" horiz-adv-x="409" 
d="M286 527h-154l-78 145h126l28 -81h2l28 81h126zM387 270v-48h-228c3 -92 22 -122 58 -122c32 0 48 17 49 81h121c-1 -126 -60 -187 -176 -187c-136 0 -190 94 -190 249c0 186 72 257 194 257c110 0 172 -63 172 -230zM266 299v12c0 58 -15 83 -49 83
c-33 0 -51 -22 -56 -95h105z" />
    <glyph glyph-name="ecircumflex" unicode="&#xea;" horiz-adv-x="409" 
d="M210 574h-2l-123 -51v98l123 50h2l123 -50v-98zM387 270v-48h-228c3 -92 22 -122 58 -122c32 0 48 17 49 81h121c-1 -126 -60 -187 -176 -187c-136 0 -190 94 -190 249c0 186 72 257 194 257c110 0 172 -63 172 -230zM266 299v12c0 58 -15 83 -49 83
c-33 0 -51 -22 -56 -95h105z" />
    <glyph glyph-name="uni0205" unicode="&#x205;" horiz-adv-x="409" 
d="M190 527h-84l-70 145h105zM332 527h-85l-70 145h106zM387 270v-48h-228c3 -92 22 -122 58 -122c32 0 48 17 49 81h121c-1 -126 -60 -187 -176 -187c-136 0 -190 94 -190 249c0 186 72 257 194 257c110 0 172 -63 172 -230zM266 299v12c0 58 -15 83 -49 83
c-33 0 -51 -22 -56 -95h105z" />
    <glyph glyph-name="edieresis" unicode="&#xeb;" horiz-adv-x="409" 
d="M186 652v-119h-114v119h114zM346 652v-119h-114v119h114zM387 270v-48h-228c3 -92 22 -122 58 -122c32 0 48 17 49 81h121c-1 -126 -60 -187 -176 -187c-136 0 -190 94 -190 249c0 186 72 257 194 257c110 0 172 -63 172 -230zM266 299v12c0 58 -15 83 -49 83
c-33 0 -51 -22 -56 -95h105z" />
    <glyph glyph-name="edotaccent" unicode="&#x117;" horiz-adv-x="409" 
d="M270 652v-119h-124v119h124zM387 270v-48h-228c3 -92 22 -122 58 -122c32 0 48 17 49 81h121c-1 -126 -60 -187 -176 -187c-136 0 -190 94 -190 249c0 186 72 257 194 257c110 0 172 -63 172 -230zM266 299v12c0 58 -15 83 -49 83c-33 0 -51 -22 -56 -95h105z" />
    <glyph glyph-name="egrave" unicode="&#xe8;" horiz-adv-x="409" 
d="M268 527h-94l-83 145h127zM387 270v-48h-228c3 -92 22 -122 58 -122c32 0 48 17 49 81h121c-1 -126 -60 -187 -176 -187c-136 0 -190 94 -190 249c0 186 72 257 194 257c110 0 172 -63 172 -230zM266 299v12c0 58 -15 83 -49 83c-33 0 -51 -22 -56 -95h105z" />
    <glyph glyph-name="uni0207" unicode="&#x207;" horiz-adv-x="409" 
d="M172 547v-10h-84v17c0 57 29 118 121 118s121 -61 121 -118v-17h-84v10c0 25 -10 47 -37 47s-37 -22 -37 -47zM387 270v-48h-228c3 -92 22 -122 58 -122c32 0 48 17 49 81h121c-1 -126 -60 -187 -176 -187c-136 0 -190 94 -190 249c0 186 72 257 194 257
c110 0 172 -63 172 -230zM266 299v12c0 58 -15 83 -49 83c-33 0 -51 -22 -56 -95h105z" />
    <glyph glyph-name="emacron" unicode="&#x113;" horiz-adv-x="409" 
d="M323 643v-96h-228v96h228zM387 270v-48h-228c3 -92 22 -122 58 -122c32 0 48 17 49 81h121c-1 -126 -60 -187 -176 -187c-136 0 -190 94 -190 249c0 186 72 257 194 257c110 0 172 -63 172 -230zM266 299v12c0 58 -15 83 -49 83c-33 0 -51 -22 -56 -95h105z" />
    <glyph glyph-name="eogonek" unicode="&#x119;" horiz-adv-x="409" 
d="M387 270v-48h-228c3 -92 22 -122 58 -122c32 0 48 17 49 81h121c0 -49 -10 -88 -28 -118c-10 -19 -19 -34 -32 -58c-18 -33 -30 -66 -30 -90c0 -15 8 -24 27 -24c10 0 19 1 27 3v-78c-9 -4 -29 -9 -55 -9c-69 0 -98 35 -98 77c0 44 26 87 46 110v2c-10 -1 -21 -2 -33 -2
c-136 0 -190 94 -190 249c0 186 72 257 194 257c110 0 172 -63 172 -230zM266 299v12c0 58 -15 83 -49 83c-33 0 -51 -22 -56 -95h105z" />
    <glyph glyph-name="gbreve" unicode="&#x11f;" horiz-adv-x="434" 
d="M207 537c-92 0 -121 61 -121 118v17h84v-10c0 -25 10 -47 37 -47s37 22 37 47v10h84v-17c0 -57 -29 -118 -121 -118zM273 89c100 0 148 -49 148 -131c0 -100 -67 -169 -199 -169c-136 0 -204 59 -204 125c0 45 25 77 66 85v2c-30 19 -40 47 -40 77c0 43 18 75 51 88v3
c-43 29 -65 80 -65 151c0 118 61 180 177 180c21 0 40 -2 57 -6c23 -2 53 -4 82 -4c37 0 64 2 74 4v-91c-2 -1 -8 -2 -16 -2c-13 0 -25 3 -35 9l-1 -1c11 -24 16 -54 16 -89c0 -118 -61 -180 -177 -180c-18 0 -35 2 -51 5c-2 -4 -5 -12 -5 -25c0 -20 11 -31 40 -31h82z
M207 407c-31 0 -47 -26 -47 -87s16 -87 47 -87s47 26 47 87s-16 87 -47 87zM219 -117c41 0 64 20 64 50c0 27 -9 44 -44 44h-46c-26 0 -39 -17 -39 -46c0 -27 22 -48 65 -48z" />
    <glyph glyph-name="gcircumflex" unicode="&#x11d;" horiz-adv-x="434" 
d="M208 574h-2l-123 -51v98l123 50h2l123 -50v-98zM273 89c100 0 148 -49 148 -131c0 -100 -67 -169 -199 -169c-136 0 -204 59 -204 125c0 45 25 77 66 85v2c-30 19 -40 47 -40 77c0 43 18 75 51 88v3c-43 29 -65 80 -65 151c0 118 61 180 177 180c21 0 40 -2 57 -6
c23 -2 53 -4 82 -4c37 0 64 2 74 4v-91c-2 -1 -8 -2 -16 -2c-13 0 -25 3 -35 9l-1 -1c11 -24 16 -54 16 -89c0 -118 -61 -180 -177 -180c-18 0 -35 2 -51 5c-2 -4 -5 -12 -5 -25c0 -20 11 -31 40 -31h82zM207 407c-31 0 -47 -26 -47 -87s16 -87 47 -87s47 26 47 87
s-16 87 -47 87zM219 -117c41 0 64 20 64 50c0 27 -9 44 -44 44h-46c-26 0 -39 -17 -39 -46c0 -27 22 -48 65 -48z" />
    <glyph glyph-name="gcommaaccent" unicode="&#x123;" horiz-adv-x="434" 
d="M269 677v-150h-129v110c0 127 50 167 132 171v-66c-38 -3 -56 -20 -55 -61v-4h52zM273 89c100 0 148 -49 148 -131c0 -100 -67 -169 -199 -169c-136 0 -204 59 -204 125c0 45 25 77 66 85v2c-30 19 -40 47 -40 77c0 43 18 75 51 88v3c-43 29 -65 80 -65 151
c0 118 61 180 177 180c21 0 40 -2 57 -6c23 -2 53 -4 82 -4c37 0 64 2 74 4v-91c-2 -1 -8 -2 -16 -2c-13 0 -25 3 -35 9l-1 -1c11 -24 16 -54 16 -89c0 -118 -61 -180 -177 -180c-18 0 -35 2 -51 5c-2 -4 -5 -12 -5 -25c0 -20 11 -31 40 -31h82zM207 407
c-31 0 -47 -26 -47 -87s16 -87 47 -87s47 26 47 87s-16 87 -47 87zM219 -117c41 0 64 20 64 50c0 27 -9 44 -44 44h-46c-26 0 -39 -17 -39 -46c0 -27 22 -48 65 -48z" />
    <glyph glyph-name="gdotaccent" unicode="&#x121;" horiz-adv-x="434" 
d="M268 652v-119h-124v119h124zM273 89c100 0 148 -49 148 -131c0 -100 -67 -169 -199 -169c-136 0 -204 59 -204 125c0 45 25 77 66 85v2c-30 19 -40 47 -40 77c0 43 18 75 51 88v3c-43 29 -65 80 -65 151c0 118 61 180 177 180c21 0 40 -2 57 -6c23 -2 53 -4 82 -4
c37 0 64 2 74 4v-91c-2 -1 -8 -2 -16 -2c-13 0 -25 3 -35 9l-1 -1c11 -24 16 -54 16 -89c0 -118 -61 -180 -177 -180c-18 0 -35 2 -51 5c-2 -4 -5 -12 -5 -25c0 -20 11 -31 40 -31h82zM207 407c-31 0 -47 -26 -47 -87s16 -87 47 -87s47 26 47 87s-16 87 -47 87zM219 -117
c41 0 64 20 64 50c0 27 -9 44 -44 44h-46c-26 0 -39 -17 -39 -46c0 -27 22 -48 65 -48z" />
    <glyph glyph-name="hcircumflex" unicode="&#x125;" horiz-adv-x="452" 
d="M-24 697v98l123 50h2l123 -50v-98l-123 51h-2zM31 0v686h138v-199c0 -12 -3 -71 -6 -111h2c15 68 47 124 134 124c86 0 129 -60 129 -168v-332h-138v306c0 47 -17 69 -52 69c-44 0 -69 -41 -69 -111v-264h-138z" />
    <glyph glyph-name="dotlessi" unicode="&#x131;" horiz-adv-x="202" 
d="M32 0v494h138v-494h-138z" />
    <glyph glyph-name="iacute" unicode="&#xed;" horiz-adv-x="202" 
d="M39 527l50 145h128l-83 -145h-95zM32 0v494h138v-494h-138z" />
    <glyph glyph-name="icircumflex" unicode="&#xee;" horiz-adv-x="202" 
d="M-23 523v98l123 50h2l123 -50v-98l-123 51h-2zM32 0v494h138v-494h-138z" />
    <glyph glyph-name="uni0209" unicode="&#x209;" horiz-adv-x="202" 
d="M-2 527l-70 145h105l49 -145h-84zM139 527l-70 145h106l49 -145h-85zM32 0v494h138v-494h-138z" />
    <glyph glyph-name="idieresis" unicode="&#xef;" horiz-adv-x="202" 
d="M-36 533v119h114v-119h-114zM124 533v119h114v-119h-114zM32 0v494h138v-494h-138z" />
    <glyph glyph-name="igrave" unicode="&#xec;" horiz-adv-x="202" 
d="M66 527l-83 145h127l50 -145h-94zM32 0v494h138v-494h-138z" />
    <glyph glyph-name="uni020B" unicode="&#x20b;" horiz-adv-x="202" 
d="M-20 537v17c0 57 29 118 121 118s121 -61 121 -118v-17h-84v10c0 25 -10 47 -37 47s-37 -22 -37 -47v-10h-84zM32 0v494h138v-494h-138z" />
    <glyph glyph-name="imacron" unicode="&#x12b;" horiz-adv-x="202" 
d="M-13 547v96h228v-96h-228zM32 0v494h138v-494h-138z" />
    <glyph glyph-name="iogonek" unicode="&#x12f;" horiz-adv-x="202" 
d="M31 652h139v-119h-139v119zM32 0v494h138v-494h-23c-21 -33 -31 -63 -31 -85c0 -15 8 -24 27 -24c10 0 19 1 27 3v-78c-9 -4 -29 -9 -55 -9c-69 0 -98 35 -98 77c0 41 21 84 53 116h-38z" />
    <glyph glyph-name="uni006A0301" horiz-adv-x="201" 
d="M39 527l50 145h128l-83 -145h-95zM30 -208c-47 0 -78 8 -84 9v114c9 -2 21 -4 39 -4c33 0 46 20 46 56v527h138v-535c0 -98 -41 -167 -139 -167z" />
    <glyph glyph-name="jcircumflex" unicode="&#x135;" horiz-adv-x="201" 
d="M-23 523v98l123 50h2l123 -50v-98l-123 51h-2zM30 -208c-47 0 -78 8 -84 9v114c9 -2 21 -4 39 -4c33 0 46 20 46 56v527h138v-535c0 -98 -41 -167 -139 -167z" />
    <glyph glyph-name="uni0237" unicode="&#x237;" horiz-adv-x="201" 
d="M30 -208c-47 0 -78 8 -84 9v114c9 -2 21 -4 39 -4c33 0 46 20 46 56v527h138v-535c0 -98 -41 -167 -139 -167z" />
    <glyph glyph-name="kcommaaccent" unicode="&#x137;" horiz-adv-x="451" 
d="M31 0v686h138v-419h1l111 227h155l-120 -207l128 -287h-166l-63 176l-46 -76v-100h-138zM162 -305v66c38 3 56 20 55 61v4h-52v150h129v-110c0 -127 -50 -167 -132 -171z" />
    <glyph glyph-name="lacute" unicode="&#x13a;" horiz-adv-x="200" 
d="M38 711l50 145h128l-83 -145h-95zM31 0v686h138v-686h-138z" />
    <glyph glyph-name="lcaron" unicode="&#x13e;" horiz-adv-x="286" 
d="M31 0v686h138v-686h-138zM197 377v66c38 3 56 20 55 61v4h-52v150h129v-110c0 -127 -50 -167 -132 -171z" />
    <glyph glyph-name="lcommaaccent" unicode="&#x13c;" horiz-adv-x="200" 
d="M31 0v686h138v-686h-138zM33 -305v66c38 3 56 20 55 61v4h-52v150h129v-110c0 -127 -50 -167 -132 -171z" />
    <glyph glyph-name="ldot" unicode="&#x140;" horiz-adv-x="310" 
d="M31 0v686h138v-686h-138zM200 232v150h110v-150h-110z" />
    <glyph glyph-name="lslash" unicode="&#x142;" horiz-adv-x="208" 
d="M216 392v-74l-43 -24v-294h-138v219l-38 -21v73l38 21v394h138v-318z" />
    <glyph glyph-name="nacute" unicode="&#x144;" horiz-adv-x="450" 
d="M166 527l50 145h128l-83 -145h-95zM29 0v494h138l-6 -118h2c16 77 50 124 134 124c87 0 129 -63 129 -168v-332h-138v306c0 47 -17 69 -52 69c-44 0 -69 -40 -69 -111v-264h-138z" />
    <glyph glyph-name="ncaron" unicode="&#x148;" horiz-adv-x="450" 
d="M151 527l-78 145h126l28 -81h2l28 81h126l-78 -145h-154zM29 0v494h138l-6 -118h2c16 77 50 124 134 124c87 0 129 -63 129 -168v-332h-138v306c0 47 -17 69 -52 69c-44 0 -69 -40 -69 -111v-264h-138z" />
    <glyph glyph-name="ncommaaccent" unicode="&#x146;" horiz-adv-x="450" 
d="M29 0v494h138l-6 -118h2c16 77 50 124 134 124c87 0 129 -63 129 -168v-332h-138v306c0 47 -17 69 -52 69c-44 0 -69 -40 -69 -111v-264h-138zM159 -305v66c38 3 56 20 55 61v4h-52v150h129v-110c0 -127 -50 -167 -132 -171z" />
    <glyph glyph-name="ntilde" unicode="&#xf1;" horiz-adv-x="450" 
d="M83 537c3 114 36 159 91 159c32 0 46 -15 61 -35l11 -15c9 -12 14 -19 25 -19c13 0 22 15 25 69h74c-3 -114 -38 -160 -92 -160c-32 0 -49 18 -61 35l-12 16c-9 12 -13 19 -24 19c-13 0 -21 -15 -24 -69h-74zM29 0v494h138l-6 -118h2c16 77 50 124 134 124
c87 0 129 -63 129 -168v-332h-138v306c0 47 -17 69 -52 69c-44 0 -69 -40 -69 -111v-264h-138z" />
    <glyph glyph-name="oacute" unicode="&#xf3;" horiz-adv-x="438" 
d="M157 527l50 145h128l-83 -145h-95zM219 -6c-130 0 -198 87 -198 253s68 253 198 253c129 0 197 -87 197 -253s-68 -253 -197 -253zM219 108c39 0 59 44 59 139s-20 139 -59 139s-60 -44 -60 -139s21 -139 60 -139z" />
    <glyph glyph-name="obreve" unicode="&#x14f;" horiz-adv-x="438" 
d="M219 537c-92 0 -121 61 -121 118v17h84v-10c0 -25 10 -47 37 -47s37 22 37 47v10h84v-17c0 -57 -29 -118 -121 -118zM219 -6c-130 0 -198 87 -198 253s68 253 198 253c129 0 197 -87 197 -253s-68 -253 -197 -253zM219 108c39 0 59 44 59 139s-20 139 -59 139
s-60 -44 -60 -139s21 -139 60 -139z" />
    <glyph glyph-name="ocircumflex" unicode="&#xf4;" horiz-adv-x="438" 
d="M95 523v98l123 50h2l123 -50v-98l-123 51h-2zM219 -6c-130 0 -198 87 -198 253s68 253 198 253c129 0 197 -87 197 -253s-68 -253 -197 -253zM219 108c39 0 59 44 59 139s-20 139 -59 139s-60 -44 -60 -139s21 -139 60 -139z" />
    <glyph glyph-name="uni020D" unicode="&#x20d;" horiz-adv-x="438" 
d="M116 527l-70 145h105l49 -145h-84zM257 527l-70 145h106l49 -145h-85zM219 -6c-130 0 -198 87 -198 253s68 253 198 253c129 0 197 -87 197 -253s-68 -253 -197 -253zM219 108c39 0 59 44 59 139s-20 139 -59 139s-60 -44 -60 -139s21 -139 60 -139z" />
    <glyph glyph-name="odieresis" unicode="&#xf6;" horiz-adv-x="438" 
d="M82 533v119h114v-119h-114zM242 533v119h114v-119h-114zM219 -6c-130 0 -198 87 -198 253s68 253 198 253c129 0 197 -87 197 -253s-68 -253 -197 -253zM219 108c39 0 59 44 59 139s-20 139 -59 139s-60 -44 -60 -139s21 -139 60 -139z" />
    <glyph glyph-name="ograve" unicode="&#xf2;" horiz-adv-x="438" 
d="M184 527l-83 145h127l50 -145h-94zM219 -6c-130 0 -198 87 -198 253s68 253 198 253c129 0 197 -87 197 -253s-68 -253 -197 -253zM219 108c39 0 59 44 59 139s-20 139 -59 139s-60 -44 -60 -139s21 -139 60 -139z" />
    <glyph glyph-name="ohungarumlaut" unicode="&#x151;" horiz-adv-x="438" 
d="M86 527l49 145h105l-70 -145h-84zM227 527l49 145h105l-70 -145h-84zM219 -6c-130 0 -198 87 -198 253s68 253 198 253c129 0 197 -87 197 -253s-68 -253 -197 -253zM219 108c39 0 59 44 59 139s-20 139 -59 139s-60 -44 -60 -139s21 -139 60 -139z" />
    <glyph glyph-name="uni020F" unicode="&#x20f;" horiz-adv-x="438" 
d="M98 537v17c0 57 29 118 121 118s121 -61 121 -118v-17h-84v10c0 25 -10 47 -37 47s-37 -22 -37 -47v-10h-84zM219 -6c-130 0 -198 87 -198 253s68 253 198 253c129 0 197 -87 197 -253s-68 -253 -197 -253zM219 108c39 0 59 44 59 139s-20 139 -59 139s-60 -44 -60 -139
s21 -139 60 -139z" />
    <glyph glyph-name="omacron" unicode="&#x14d;" horiz-adv-x="438" 
d="M105 547v96h228v-96h-228zM219 -6c-130 0 -198 87 -198 253s68 253 198 253c129 0 197 -87 197 -253s-68 -253 -197 -253zM219 108c39 0 59 44 59 139s-20 139 -59 139s-60 -44 -60 -139s21 -139 60 -139z" />
    <glyph glyph-name="oslash" unicode="&#xf8;" horiz-adv-x="440" 
d="M377 423c27 -42 41 -101 41 -176c0 -166 -68 -253 -199 -253c-50 0 -91 13 -122 38l-29 -40l-44 31l36 51c-26 42 -39 100 -39 173c0 166 68 253 198 253c49 0 89 -12 121 -36l27 38l45 -30zM156 247c0 -14 0 -26 1 -38l108 151c-10 23 -26 34 -46 34
c-41 0 -63 -46 -63 -147zM219 100c41 0 63 46 63 147c0 15 0 29 -1 42l-109 -152c10 -25 26 -37 47 -37z" />
    <glyph glyph-name="oslashacute" unicode="&#x1ff;" horiz-adv-x="440" 
d="M335 672l-83 -145h-95l50 145h128zM377 423c27 -42 41 -101 41 -176c0 -166 -68 -253 -199 -253c-50 0 -91 13 -122 38l-29 -40l-44 31l36 51c-26 42 -39 100 -39 173c0 166 68 253 198 253c49 0 89 -12 121 -36l27 38l45 -30zM156 247c0 -14 0 -26 1 -38l108 151
c-10 23 -26 34 -46 34c-41 0 -63 -46 -63 -147zM219 100c41 0 63 46 63 147c0 15 0 29 -1 42l-109 -152c10 -25 26 -37 47 -37z" />
    <glyph glyph-name="otilde" unicode="&#xf5;" horiz-adv-x="438" 
d="M74 537c3 114 36 159 91 159c32 0 46 -15 61 -35l11 -15c9 -12 14 -19 25 -19c13 0 22 15 25 69h74c-3 -114 -38 -160 -92 -160c-32 0 -49 18 -61 35l-12 16c-9 12 -13 19 -24 19c-13 0 -21 -15 -24 -69h-74zM219 -6c-130 0 -198 87 -198 253s68 253 198 253
c129 0 197 -87 197 -253s-68 -253 -197 -253zM219 108c39 0 59 44 59 139s-20 139 -59 139s-60 -44 -60 -139s21 -139 60 -139z" />
    <glyph glyph-name="oe" unicode="&#x153;" horiz-adv-x="667" 
d="M645 270v-48h-228c3 -92 22 -122 58 -122c32 0 48 17 49 81h121c-1 -126 -60 -187 -176 -187c-58 0 -98 17 -124 49h-1c-24 -32 -68 -49 -128 -49c-128 0 -195 87 -195 253s67 253 195 253c62 0 106 -17 129 -50h2c28 35 70 50 126 50c110 0 172 -63 172 -230zM524 299
v12c0 58 -15 83 -49 83c-33 0 -51 -22 -56 -95h105zM219 108c39 0 59 44 59 139s-20 139 -59 139s-60 -44 -60 -139s21 -139 60 -139z" />
    <glyph glyph-name="thorn" unicode="&#xfe;" horiz-adv-x="452" 
d="M31 -198v884h138v-188c0 -22 -4 -75 -4 -95h2c12 64 51 97 114 97c98 0 149 -83 149 -242c0 -173 -52 -264 -152 -264c-60 0 -99 30 -112 87h-1c2 -30 4 -78 4 -99v-180h-138zM235 108c38 0 58 49 58 144c0 88 -20 134 -59 134c-43 0 -65 -44 -65 -129v-42
c0 -70 23 -107 66 -107z" />
    <glyph glyph-name="racute" unicode="&#x155;" horiz-adv-x="399" 
d="M142 527l50 145h128l-83 -145h-95zM29 0v494h138l-6 -128h2c14 77 42 134 114 134c75 0 105 -63 105 -168c0 -48 -3 -96 -5 -118h-123c2 22 4 61 4 87c0 54 -11 74 -35 74c-36 0 -56 -50 -56 -151v-224h-138z" />
    <glyph glyph-name="rcaron" unicode="&#x159;" horiz-adv-x="399" 
d="M127 527l-78 145h126l28 -81h2l28 81h126l-78 -145h-154zM29 0v494h138l-6 -128h2c14 77 42 134 114 134c75 0 105 -63 105 -168c0 -48 -3 -96 -5 -118h-123c2 22 4 61 4 87c0 54 -11 74 -35 74c-36 0 -56 -50 -56 -151v-224h-138z" />
    <glyph glyph-name="rcommaaccent" unicode="&#x157;" horiz-adv-x="399" 
d="M29 0v494h138l-6 -128h2c14 77 42 134 114 134c75 0 105 -63 105 -168c0 -48 -3 -96 -5 -118h-123c2 22 4 61 4 87c0 54 -11 74 -35 74c-36 0 -56 -50 -56 -151v-224h-138zM37 -305v66c38 3 56 20 55 61v4h-52v150h129v-110c0 -127 -50 -167 -132 -171z" />
    <glyph glyph-name="uni0211" unicode="&#x211;" horiz-adv-x="399" 
d="M101 527l-70 145h105l49 -145h-84zM242 527l-70 145h106l49 -145h-85zM29 0v494h138l-6 -128h2c14 77 42 134 114 134c75 0 105 -63 105 -168c0 -48 -3 -96 -5 -118h-123c2 22 4 61 4 87c0 54 -11 74 -35 74c-36 0 -56 -50 -56 -151v-224h-138z" />
    <glyph glyph-name="uni0213" unicode="&#x213;" horiz-adv-x="399" 
d="M83 537v17c0 57 29 118 121 118s121 -61 121 -118v-17h-84v10c0 25 -10 47 -37 47s-37 -22 -37 -47v-10h-84zM29 0v494h138l-6 -128h2c14 77 42 134 114 134c75 0 105 -63 105 -168c0 -48 -3 -96 -5 -118h-123c2 22 4 61 4 87c0 54 -11 74 -35 74c-36 0 -56 -50 -56 -151
v-224h-138z" />
    <glyph glyph-name="sacute" unicode="&#x15b;" horiz-adv-x="412" 
d="M138 527l50 145h128l-83 -145h-95zM202 -6c-134 0 -181 73 -181 174h118c0 -49 17 -76 59 -76c35 0 54 19 54 49c0 22 -9 35 -25 43s-40 15 -73 24c-39 11 -74 24 -96 43c-21 18 -37 51 -37 92c0 91 66 157 182 157c119 0 174 -51 174 -177h-117c0 55 -14 79 -54 79
c-31 0 -49 -21 -49 -48s9 -37 24 -45c16 -9 46 -17 79 -26c37 -10 69 -20 93 -40s37 -53 37 -92c0 -89 -55 -157 -188 -157z" />
    <glyph glyph-name="scaron" unicode="&#x161;" horiz-adv-x="412" 
d="M123 527l-78 145h126l28 -81h2l28 81h126l-78 -145h-154zM202 -6c-134 0 -181 73 -181 174h118c0 -49 17 -76 59 -76c35 0 54 19 54 49c0 22 -9 35 -25 43s-40 15 -73 24c-39 11 -74 24 -96 43c-21 18 -37 51 -37 92c0 91 66 157 182 157c119 0 174 -51 174 -177h-117
c0 55 -14 79 -54 79c-31 0 -49 -21 -49 -48s9 -37 24 -45c16 -9 46 -17 79 -26c37 -10 69 -20 93 -40s37 -53 37 -92c0 -89 -55 -157 -188 -157z" />
    <glyph glyph-name="scedilla" unicode="&#x15f;" horiz-adv-x="412" 
d="M390 151c0 -81 -46 -145 -156 -156l-14 -44l2 -1c5 5 16 14 38 14c41 0 67 -29 67 -79c0 -49 -29 -103 -119 -103c-82 0 -113 42 -114 100h86c1 -23 6 -34 27 -34s27 18 27 37c0 20 -12 34 -47 34c-25 0 -46 -5 -51 -6l25 84c-103 13 -140 81 -140 171h118
c0 -49 17 -76 59 -76c35 0 54 19 54 49c0 22 -9 35 -25 43s-40 15 -73 24c-39 11 -74 24 -96 43c-21 18 -37 51 -37 92c0 91 66 157 182 157c119 0 174 -51 174 -177h-117c0 55 -14 79 -54 79c-31 0 -49 -21 -49 -48s9 -37 24 -45c16 -9 46 -17 79 -26c37 -10 69 -20 93 -40
s37 -53 37 -92z" />
    <glyph glyph-name="scircumflex" unicode="&#x15d;" horiz-adv-x="412" 
d="M76 523v98l123 50h2l123 -50v-98l-123 51h-2zM202 -6c-134 0 -181 73 -181 174h118c0 -49 17 -76 59 -76c35 0 54 19 54 49c0 22 -9 35 -25 43s-40 15 -73 24c-39 11 -74 24 -96 43c-21 18 -37 51 -37 92c0 91 66 157 182 157c119 0 174 -51 174 -177h-117
c0 55 -14 79 -54 79c-31 0 -49 -21 -49 -48s9 -37 24 -45c16 -9 46 -17 79 -26c37 -10 69 -20 93 -40s37 -53 37 -92c0 -89 -55 -157 -188 -157z" />
    <glyph glyph-name="scommaaccent" unicode="&#x219;" horiz-adv-x="412" 
d="M202 -6c-134 0 -181 73 -181 174h118c0 -49 17 -76 59 -76c35 0 54 19 54 49c0 22 -9 35 -25 43s-40 15 -73 24c-39 11 -74 24 -96 43c-21 18 -37 51 -37 92c0 91 66 157 182 157c119 0 174 -51 174 -177h-117c0 55 -14 79 -54 79c-31 0 -49 -21 -49 -48s9 -37 24 -45
c16 -9 46 -17 79 -26c37 -10 69 -20 93 -40s37 -53 37 -92c0 -89 -55 -157 -188 -157zM135 -305v66c38 3 56 20 55 61v4h-52v150h129v-110c0 -127 -50 -167 -132 -171z" />
    <glyph glyph-name="germandbls" unicode="&#xdf;" horiz-adv-x="498" 
d="M288 -6c-30 0 -61 5 -71 7v113c15 -3 36 -6 58 -6c41 0 63 29 63 71c0 27 -6 39 -16 50s-31 22 -45 29c-22 11 -41 23 -52 34c-15 15 -26 43 -26 72c0 26 5 47 17 67c11 18 27 36 40 52c15 18 23 34 23 63s-17 48 -51 48c-38 0 -59 -27 -59 -83v-511h-138v500
c0 142 75 208 196 208c119 0 182 -62 182 -155c0 -49 -11 -77 -30 -102c-13 -17 -31 -33 -40 -43c-10 -11 -15 -20 -15 -30c0 -11 7 -19 16 -24c10 -6 33 -17 50 -26c25 -13 45 -28 59 -48c17 -24 27 -61 27 -103c0 -118 -67 -183 -188 -183z" />
    <glyph glyph-name="tcaron" unicode="&#x165;" horiz-adv-x="318" 
d="M228 516v66c38 3 56 20 55 61v4h-52v150h129v-110c0 -127 -50 -167 -132 -171zM218 -6c-120 0 -160 70 -160 184v196h-53v120h41c21 0 29 11 32 45l5 67h113v-112h110v-120h-110v-193c0 -52 14 -68 57 -68c24 0 39 2 46 3v-113c-8 -3 -42 -9 -81 -9z" />
    <glyph glyph-name="uni0163" unicode="&#x163;" horiz-adv-x="318" 
d="M218 -6c-120 0 -160 70 -160 184v196h-53v120h41c21 0 29 11 32 45l5 67h113v-112h110v-120h-110v-193c0 -52 14 -68 57 -68c24 0 39 2 46 3v-113c-8 -3 -42 -9 -81 -9zM122 -305v66c38 3 56 20 55 61v4h-52v150h129v-110c0 -127 -50 -167 -132 -171z" />
    <glyph glyph-name="uacute" unicode="&#xfa;" horiz-adv-x="450" 
d="M163 527l50 145h128l-83 -145h-95zM163 -6c-94 0 -139 64 -139 179v321h138v-300c0 -52 18 -75 52 -75c46 0 68 49 68 128v247h138v-494h-138c3 26 7 76 8 117h-2c-15 -82 -53 -123 -125 -123z" />
    <glyph glyph-name="ubreve" unicode="&#x16d;" horiz-adv-x="450" 
d="M225 537c-92 0 -121 61 -121 118v17h84v-10c0 -25 10 -47 37 -47s37 22 37 47v10h84v-17c0 -57 -29 -118 -121 -118zM163 -6c-94 0 -139 64 -139 179v321h138v-300c0 -52 18 -75 52 -75c46 0 68 49 68 128v247h138v-494h-138c3 26 7 76 8 117h-2
c-15 -82 -53 -123 -125 -123z" />
    <glyph glyph-name="ucircumflex" unicode="&#xfb;" horiz-adv-x="450" 
d="M101 523v98l123 50h2l123 -50v-98l-123 51h-2zM163 -6c-94 0 -139 64 -139 179v321h138v-300c0 -52 18 -75 52 -75c46 0 68 49 68 128v247h138v-494h-138c3 26 7 76 8 117h-2c-15 -82 -53 -123 -125 -123z" />
    <glyph glyph-name="uni0215" unicode="&#x215;" horiz-adv-x="450" 
d="M122 527l-70 145h105l49 -145h-84zM263 527l-70 145h106l49 -145h-85zM163 -6c-94 0 -139 64 -139 179v321h138v-300c0 -52 18 -75 52 -75c46 0 68 49 68 128v247h138v-494h-138c3 26 7 76 8 117h-2c-15 -82 -53 -123 -125 -123z" />
    <glyph glyph-name="udieresis" unicode="&#xfc;" horiz-adv-x="450" 
d="M88 533v119h114v-119h-114zM248 533v119h114v-119h-114zM163 -6c-94 0 -139 64 -139 179v321h138v-300c0 -52 18 -75 52 -75c46 0 68 49 68 128v247h138v-494h-138c3 26 7 76 8 117h-2c-15 -82 -53 -123 -125 -123z" />
    <glyph glyph-name="ugrave" unicode="&#xf9;" horiz-adv-x="450" 
d="M190 527l-83 145h127l50 -145h-94zM163 -6c-94 0 -139 64 -139 179v321h138v-300c0 -52 18 -75 52 -75c46 0 68 49 68 128v247h138v-494h-138c3 26 7 76 8 117h-2c-15 -82 -53 -123 -125 -123z" />
    <glyph glyph-name="uhungarumlaut" unicode="&#x171;" horiz-adv-x="450" 
d="M92 527l49 145h105l-70 -145h-84zM233 527l49 145h105l-70 -145h-84zM163 -6c-94 0 -139 64 -139 179v321h138v-300c0 -52 18 -75 52 -75c46 0 68 49 68 128v247h138v-494h-138c3 26 7 76 8 117h-2c-15 -82 -53 -123 -125 -123z" />
    <glyph glyph-name="uni0217" unicode="&#x217;" horiz-adv-x="450" 
d="M104 537v17c0 57 29 118 121 118s121 -61 121 -118v-17h-84v10c0 25 -10 47 -37 47s-37 -22 -37 -47v-10h-84zM163 -6c-94 0 -139 64 -139 179v321h138v-300c0 -52 18 -75 52 -75c46 0 68 49 68 128v247h138v-494h-138c3 26 7 76 8 117h-2c-15 -82 -53 -123 -125 -123z
" />
    <glyph glyph-name="umacron" unicode="&#x16b;" horiz-adv-x="450" 
d="M111 547v96h228v-96h-228zM163 -6c-94 0 -139 64 -139 179v321h138v-300c0 -52 18 -75 52 -75c46 0 68 49 68 128v247h138v-494h-138c3 26 7 76 8 117h-2c-15 -82 -53 -123 -125 -123z" />
    <glyph glyph-name="uogonek" unicode="&#x173;" horiz-adv-x="450" 
d="M420 0h-23c-21 -33 -31 -63 -31 -85c0 -15 8 -24 27 -24c10 0 19 1 27 3v-78c-9 -4 -29 -9 -55 -9c-69 0 -98 35 -98 77c0 41 21 84 53 116h-38c3 26 7 76 8 117h-2c-15 -82 -53 -123 -125 -123c-94 0 -139 64 -139 179v321h138v-300c0 -52 18 -75 52 -75
c46 0 68 49 68 128v247h138v-494z" />
    <glyph glyph-name="uring" unicode="&#x16f;" horiz-adv-x="450" 
d="M225 527c-83 0 -121 49 -121 116c0 68 41 117 121 117c82 0 121 -49 121 -117c0 -67 -38 -116 -121 -116zM225 600c23 0 37 16 37 43c0 28 -15 44 -37 44s-37 -16 -37 -44c0 -27 14 -43 37 -43zM163 -6c-94 0 -139 64 -139 179v321h138v-300c0 -52 18 -75 52 -75
c46 0 68 49 68 128v247h138v-494h-138c3 26 7 76 8 117h-2c-15 -82 -53 -123 -125 -123z" />
    <glyph glyph-name="utilde" unicode="&#x169;" horiz-adv-x="450" 
d="M80 537c3 114 36 159 91 159c32 0 46 -15 61 -35l11 -15c9 -12 14 -19 25 -19c13 0 22 15 25 69h74c-3 -114 -38 -160 -92 -160c-32 0 -49 18 -61 35l-12 16c-9 12 -13 19 -24 19c-13 0 -21 -15 -24 -69h-74zM163 -6c-94 0 -139 64 -139 179v321h138v-300
c0 -52 18 -75 52 -75c46 0 68 49 68 128v247h138v-494h-138c3 26 7 76 8 117h-2c-15 -82 -53 -123 -125 -123z" />
    <glyph glyph-name="wacute" unicode="&#x1e83;" horiz-adv-x="626" 
d="M252 527l50 145h128l-83 -145h-95zM102 0l-88 494h142l41 -343h2l55 343h137l48 -343h2l47 343h125l-87 -494h-171l-40 314h-3l-49 -314h-161z" />
    <glyph glyph-name="wcircumflex" unicode="&#x175;" horiz-adv-x="626" 
d="M190 523v98l123 50h2l123 -50v-98l-123 51h-2zM102 0l-88 494h142l41 -343h2l55 343h137l48 -343h2l47 343h125l-87 -494h-171l-40 314h-3l-49 -314h-161z" />
    <glyph glyph-name="wdieresis" unicode="&#x1e85;" horiz-adv-x="626" 
d="M177 533v119h114v-119h-114zM337 533v119h114v-119h-114zM102 0l-88 494h142l41 -343h2l55 343h137l48 -343h2l47 343h125l-87 -494h-171l-40 314h-3l-49 -314h-161z" />
    <glyph glyph-name="wgrave" unicode="&#x1e81;" horiz-adv-x="626" 
d="M279 527l-83 145h127l50 -145h-94zM102 0l-88 494h142l41 -343h2l55 343h137l48 -343h2l47 343h125l-87 -494h-171l-40 314h-3l-49 -314h-161z" />
    <glyph glyph-name="yacute" unicode="&#xfd;" horiz-adv-x="442" 
d="M160 527l50 145h128l-83 -145h-95zM154 -208c-42 0 -72 9 -80 12v112c8 -2 27 -5 47 -5c33 0 49 22 62 89h-33l-136 494h156l67 -331h2l61 331h129l-113 -506c-32 -148 -73 -196 -162 -196z" />
    <glyph glyph-name="ycircumflex" unicode="&#x177;" horiz-adv-x="442" 
d="M98 523v98l123 50h2l123 -50v-98l-123 51h-2zM154 -208c-42 0 -72 9 -80 12v112c8 -2 27 -5 47 -5c33 0 49 22 62 89h-33l-136 494h156l67 -331h2l61 331h129l-113 -506c-32 -148 -73 -196 -162 -196z" />
    <glyph glyph-name="ydieresis" unicode="&#xff;" horiz-adv-x="442" 
d="M85 533v119h114v-119h-114zM245 533v119h114v-119h-114zM154 -208c-42 0 -72 9 -80 12v112c8 -2 27 -5 47 -5c33 0 49 22 62 89h-33l-136 494h156l67 -331h2l61 331h129l-113 -506c-32 -148 -73 -196 -162 -196z" />
    <glyph glyph-name="ygrave" unicode="&#x1ef3;" horiz-adv-x="442" 
d="M187 527l-83 145h127l50 -145h-94zM154 -208c-42 0 -72 9 -80 12v112c8 -2 27 -5 47 -5c33 0 49 22 62 89h-33l-136 494h156l67 -331h2l61 331h129l-113 -506c-32 -148 -73 -196 -162 -196z" />
    <glyph glyph-name="zacute" unicode="&#x17a;" horiz-adv-x="354" 
d="M119 527l50 145h128l-83 -145h-95zM18 0v95l153 277v2h-146v120h311v-92l-155 -281v-1h155v-120h-318z" />
    <glyph glyph-name="zcaron" unicode="&#x17e;" horiz-adv-x="354" 
d="M104 527l-78 145h126l28 -81h2l28 81h126l-78 -145h-154zM18 0v95l153 277v2h-146v120h311v-92l-155 -281v-1h155v-120h-318z" />
    <glyph glyph-name="zdotaccent" unicode="&#x17c;" horiz-adv-x="354" 
d="M118 533v119h124v-119h-124zM18 0v95l153 277v2h-146v120h311v-92l-155 -281v-1h155v-120h-318z" />
    <glyph glyph-name="uni1E9E" unicode="&#x1e9e;" horiz-adv-x="498" 
d="M296 -8c-29 0 -64 5 -72 7v119c5 -1 20 -4 40 -4c45 0 64 35 64 119c0 62 -29 86 -88 88l61 209c-11 5 -28 8 -48 8c-49 0 -75 -27 -75 -84v-454h-149v445c0 150 76 221 228 221c78 0 150 -19 197 -43l-66 -249c58 -16 89 -63 89 -160c0 -152 -56 -222 -181 -222z" />
    <glyph glyph-name="germandbls.calt" horiz-adv-x="498" 
d="M296 -8c-29 0 -64 5 -72 7v119c5 -1 20 -4 40 -4c45 0 64 35 64 119c0 62 -29 86 -88 88l61 209c-11 5 -28 8 -48 8c-49 0 -75 -27 -75 -84v-454h-149v445c0 150 76 221 228 221c78 0 150 -19 197 -43l-66 -249c58 -16 89 -63 89 -160c0 -152 -56 -222 -181 -222z" />
    <glyph glyph-name="r.ss01" horiz-adv-x="317" 
d="M309 361c-9 2 -20 3 -29 3c-72 0 -113 -61 -113 -199v-165h-138v494h138l-5 -160h2c13 123 41 165 112 165c14 0 26 -3 33 -5v-133z" />
    <glyph glyph-name="racute.ss01" horiz-adv-x="317" 
d="M112 527l50 145h128l-83 -145h-95zM309 361c-9 2 -20 3 -29 3c-72 0 -113 -61 -113 -199v-165h-138v494h138l-5 -160h2c13 123 41 165 112 165c14 0 26 -3 33 -5v-133z" />
    <glyph glyph-name="rcaron.ss01" horiz-adv-x="317" 
d="M97 527l-78 145h126l28 -81h2l28 81h126l-78 -145h-154zM309 361c-9 2 -20 3 -29 3c-72 0 -113 -61 -113 -199v-165h-138v494h138l-5 -160h2c13 123 41 165 112 165c14 0 26 -3 33 -5v-133z" />
    <glyph glyph-name="rcommaaccent.ss01" horiz-adv-x="317" 
d="M309 361c-9 2 -20 3 -29 3c-72 0 -113 -61 -113 -199v-165h-138v494h138l-5 -160h2c13 123 41 165 112 165c14 0 26 -3 33 -5v-133zM35 -305v66c38 3 56 20 55 61v4h-52v150h129v-110c0 -127 -50 -167 -132 -171z" />
    <glyph glyph-name="uni0211.ss01" horiz-adv-x="317" 
d="M71 527l-70 145h105l49 -145h-84zM212 527l-70 145h106l49 -145h-85zM309 361c-9 2 -20 3 -29 3c-72 0 -113 -61 -113 -199v-165h-138v494h138l-5 -160h2c13 123 41 165 112 165c14 0 26 -3 33 -5v-133z" />
    <glyph glyph-name="uni0213.ss01" horiz-adv-x="317" 
d="M53 537v17c0 57 29 118 121 118s121 -61 121 -118v-17h-84v10c0 25 -10 47 -37 47s-37 -22 -37 -47v-10h-84zM309 361c-9 2 -20 3 -29 3c-72 0 -113 -61 -113 -199v-165h-138v494h138l-5 -160h2c13 123 41 165 112 165c14 0 26 -3 33 -5v-133z" />
    <glyph glyph-name="g.ss02" horiz-adv-x="451" 
d="M21 253c0 164 61 247 156 247c58 0 92 -24 106 -79h1v73h136v-480c0 -147 -59 -225 -193 -225c-120 0 -176 62 -176 147c0 2 0 16 2 30h120c-1 -10 -1 -17 -1 -18c0 -36 17 -55 51 -55c44 0 59 26 59 98v101h-1c-11 -62 -41 -98 -106 -98c-100 0 -154 84 -154 259z
M158 252c0 -104 21 -144 59 -144c40 0 65 46 65 126v41c0 73 -26 111 -63 111s-61 -34 -61 -134z" />
    <glyph glyph-name="gbreve.ss02" horiz-adv-x="451" 
d="M228 537c-92 0 -121 61 -121 118v17h84v-10c0 -25 10 -47 37 -47s37 22 37 47v10h84v-17c0 -57 -29 -118 -121 -118zM21 253c0 164 61 247 156 247c58 0 92 -24 106 -79h1v73h136v-480c0 -147 -59 -225 -193 -225c-120 0 -176 62 -176 147c0 2 0 16 2 30h120
c-1 -10 -1 -17 -1 -18c0 -36 17 -55 51 -55c44 0 59 26 59 98v101h-1c-11 -62 -41 -98 -106 -98c-100 0 -154 84 -154 259zM158 252c0 -104 21 -144 59 -144c40 0 65 46 65 126v41c0 73 -26 111 -63 111s-61 -34 -61 -134z" />
    <glyph glyph-name="gcircumflex.ss02" horiz-adv-x="451" 
d="M104 523v98l123 50h2l123 -50v-98l-123 51h-2zM21 253c0 164 61 247 156 247c58 0 92 -24 106 -79h1v73h136v-480c0 -147 -59 -225 -193 -225c-120 0 -176 62 -176 147c0 2 0 16 2 30h120c-1 -10 -1 -17 -1 -18c0 -36 17 -55 51 -55c44 0 59 26 59 98v101h-1
c-11 -62 -41 -98 -106 -98c-100 0 -154 84 -154 259zM158 252c0 -104 21 -144 59 -144c40 0 65 46 65 126v41c0 73 -26 111 -63 111s-61 -34 -61 -134z" />
    <glyph glyph-name="gcommaaccent.ss02" horiz-adv-x="451" 
d="M293 808v-66c-38 -3 -56 -20 -55 -61v-4h52v-150h-129v110c0 127 50 167 132 171zM21 253c0 164 61 247 156 247c58 0 92 -24 106 -79h1v73h136v-480c0 -147 -59 -225 -193 -225c-120 0 -176 62 -176 147c0 2 0 16 2 30h120c-1 -10 -1 -17 -1 -18c0 -36 17 -55 51 -55
c44 0 59 26 59 98v101h-1c-11 -62 -41 -98 -106 -98c-100 0 -154 84 -154 259zM158 252c0 -104 21 -144 59 -144c40 0 65 46 65 126v41c0 73 -26 111 -63 111s-61 -34 -61 -134z" />
    <glyph glyph-name="gdotaccent.ss02" horiz-adv-x="451" 
d="M165 533v119h124v-119h-124zM21 253c0 164 61 247 156 247c58 0 92 -24 106 -79h1v73h136v-480c0 -147 -59 -225 -193 -225c-120 0 -176 62 -176 147c0 2 0 16 2 30h120c-1 -10 -1 -17 -1 -18c0 -36 17 -55 51 -55c44 0 59 26 59 98v101h-1c-11 -62 -41 -98 -106 -98
c-100 0 -154 84 -154 259zM158 252c0 -104 21 -144 59 -144c40 0 65 46 65 126v41c0 73 -26 111 -63 111s-61 -34 -61 -134z" />
    <glyph glyph-name="g.ss03" horiz-adv-x="434" 
d="M273 89c100 0 148 -49 148 -131c0 -100 -67 -169 -199 -169c-136 0 -204 59 -204 125c0 45 25 77 66 85v2c-30 19 -40 47 -40 77c0 43 18 75 51 88v3c-43 29 -65 80 -65 151c0 118 61 180 177 180c21 0 40 -2 57 -6c23 -2 53 -4 82 -4c37 0 64 2 74 4v-91
c-2 -1 -8 -2 -16 -2c-13 0 -25 3 -35 9l-1 -1c11 -24 16 -54 16 -89c0 -118 -61 -180 -177 -180c-18 0 -35 2 -51 5c-2 -4 -5 -12 -5 -25c0 -20 11 -31 40 -31h82zM207 407c-31 0 -47 -26 -47 -87s16 -87 47 -87s47 26 47 87s-16 87 -47 87zM219 -117c41 0 64 20 64 50
c0 27 -9 44 -44 44h-46c-26 0 -39 -17 -39 -46c0 -27 22 -48 65 -48z" />
    <glyph glyph-name="g.ss04" horiz-adv-x="439" 
d="M381 435c-13 0 -24 4 -31 8l-1 -1c23 -29 35 -70 35 -122c0 -118 -61 -180 -177 -180c-18 0 -35 2 -51 5c-2 -4 -5 -12 -5 -25c0 -20 11 -31 40 -31h82c100 0 148 -49 148 -131c0 -100 -67 -169 -199 -169c-136 0 -204 59 -204 125c0 45 25 77 66 85v2
c-30 19 -40 47 -40 77c0 43 18 75 51 88v3c-43 29 -65 80 -65 151c0 118 61 180 177 180c29 0 54 -4 76 -11c9 -3 25 -6 34 -6c23 0 34 13 34 39c0 11 -2 20 -4 29h92c2 -9 4 -23 4 -37c0 -52 -26 -79 -62 -79zM207 233c31 0 47 26 47 87s-16 87 -47 87s-47 -26 -47 -87
s16 -87 47 -87zM239 -23h-46c-26 0 -39 -17 -39 -46c0 -27 22 -48 65 -48c41 0 64 20 64 50c0 27 -9 44 -44 44z" />
    <glyph glyph-name="t_t" horiz-adv-x="615" 
d="M603 374h-110v-193c0 -52 14 -68 57 -68c24 0 39 2 46 3v-113c-8 -3 -42 -9 -81 -9c-120 0 -160 70 -160 184v196h-159v-193c0 -52 14 -68 57 -68c24 0 39 2 46 3v-113c-8 -3 -42 -9 -81 -9c-120 0 -160 70 -160 184v196h-53v120h41c21 0 29 11 32 45l5 67h113v-112h147
c21 0 29 11 32 45l5 67h113v-112h110v-120z" />
    <glyph glyph-name="ordfeminine" unicode="&#xaa;" horiz-adv-x="294" 
d="M19 388c0 47 27 82 100 82h48v31c0 29 -10 40 -27 40c-20 0 -29 -11 -29 -33c0 -5 0 -12 1 -22h-83c-1 10 -1 20 -1 25c0 62 45 97 113 97c87 0 121 -45 121 -123v-179h-95c1 5 4 31 4 48h-1c-6 -32 -27 -52 -66 -52c-60 0 -85 38 -85 86zM106 393c0 -16 9 -29 25 -29
c22 0 36 19 36 50v8h-33c-20 0 -28 -12 -28 -29zM19 174v87h243v-87h-243z" />
    <glyph glyph-name="ordmasculine" unicode="&#xba;" horiz-adv-x="303" 
d="M151 300c-85 0 -130 53 -130 154s45 154 130 154c86 0 131 -53 131 -154s-45 -154 -131 -154zM151 373c23 0 35 24 35 81s-12 81 -35 81c-22 0 -34 -24 -34 -81s12 -81 34 -81zM20 174v87h262v-87h-262z" />
    <glyph glyph-name="zero.lf" 
d="M216 -8c-132 0 -193 107 -193 340c0 229 61 334 193 334s193 -105 193 -334c0 -233 -61 -340 -193 -340zM216 119c38 0 55 57 55 212c0 153 -17 208 -55 208s-55 -55 -55 -208c0 -155 17 -212 55 -212z" />
    <glyph glyph-name="one.lf" horiz-adv-x="306" 
d="M114 0v401h-104v104l60 2c60 2 76 26 76 154h110v-661h-142z" />
    <glyph glyph-name="two.lf" horiz-adv-x="430" 
d="M33 0c0 167 16 219 116 294c98 74 105 97 105 163c0 54 -14 82 -47 82s-50 -24 -50 -109c0 -24 1 -46 2 -59h-123c-1 12 -3 38 -3 63c0 156 50 232 182 232c121 0 181 -70 181 -203c0 -112 -44 -169 -135 -241c-66 -52 -71 -66 -71 -96h212v-126h-369z" />
    <glyph glyph-name="three.lf" 
d="M212 -8c-124 0 -188 67 -188 195c0 23 2 46 3 57h124c-1 -17 -1 -27 -1 -32c0 -64 18 -93 59 -93c37 0 57 29 57 95c0 50 -15 67 -48 67h-41v95h37c28 0 43 18 43 78c0 56 -15 85 -50 85c-36 0 -52 -26 -52 -82c0 -20 1 -33 3 -48h-121c-2 11 -5 36 -5 65
c0 126 62 192 181 192c115 0 175 -62 175 -181c0 -80 -23 -119 -72 -132v-3c62 -15 92 -65 92 -141c0 -144 -67 -217 -196 -217z" />
    <glyph glyph-name="four.lf" 
d="M220 0v133h-204v120l186 405h160v-402h62v-123h-62v-133h-142zM125 256h95v221h-1l-94 -219v-2z" />
    <glyph glyph-name="five.lf" horiz-adv-x="429" 
d="M221 -8c-125 0 -190 72 -190 180c0 12 1 27 2 36h126c-1 -9 -1 -17 -1 -21c0 -45 19 -68 54 -68s52 42 52 108s-17 99 -51 99c-28 0 -47 -23 -54 -67l-122 12l21 387h317v-128h-202l-12 -171h2c14 46 49 70 99 70c96 0 144 -70 144 -204c0 -140 -63 -233 -185 -233z" />
    <glyph glyph-name="six.lf" 
d="M223 -8c-139 0 -200 113 -200 330c0 239 69 344 202 344c110 0 168 -64 168 -194c0 -14 -1 -37 -2 -49h-119c1 14 1 26 1 35c0 59 -15 81 -44 81c-46 0 -64 -50 -64 -191l-1 -43h2c10 51 47 78 103 78c93 0 139 -64 139 -174c0 -143 -63 -217 -185 -217zM226 114
c34 0 52 30 52 88c0 51 -17 78 -53 78c-35 0 -58 -32 -58 -77c4 -58 24 -89 59 -89z" />
    <glyph glyph-name="seven.lf" horiz-adv-x="398" 
d="M65 0c29 234 93 397 188 523v1h-245v134h381v-126c-97 -148 -139 -313 -160 -532h-164z" />
    <glyph glyph-name="eight.lf" 
d="M216 -8c-127 0 -194 68 -194 198c0 83 30 135 88 154v1c-47 16 -72 63 -72 137c0 117 61 184 178 184s178 -67 178 -184c0 -73 -25 -120 -73 -137v-1c58 -19 89 -71 89 -154c0 -130 -67 -198 -194 -198zM216 382c34 0 51 28 51 83c0 57 -17 86 -51 86s-51 -29 -51 -86
c0 -55 17 -83 51 -83zM216 107c37 0 57 32 57 93c0 57 -20 87 -57 87s-57 -30 -57 -87c0 -61 20 -93 57 -93z" />
    <glyph glyph-name="nine.lf" 
d="M210 -8c-116 0 -177 66 -177 183c0 6 0 23 2 41h121c-1 -14 -1 -25 -1 -35c0 -36 17 -62 53 -62c43 0 58 45 58 188c0 7 1 26 1 38h-2c-9 -55 -43 -84 -98 -84c-95 0 -144 62 -144 182c0 147 70 223 187 223c135 0 198 -100 198 -330c0 -250 -68 -344 -198 -344zM204 364
c38 0 59 31 59 90c-3 59 -22 90 -55 90c-35 0 -54 -34 -54 -98c0 -55 17 -82 50 -82z" />
    <glyph glyph-name="one.lf.ss05" horiz-adv-x="242" 
d="M50 0v562c38 13 55 42 58 99h84v-661h-142z" />
    <glyph glyph-name="zero.subs" horiz-adv-x="302" 
d="M151 -126c-88 0 -128 64 -128 205c0 138 40 201 128 201s128 -63 128 -201c0 -141 -40 -205 -128 -205zM151 -44c23 0 33 29 33 123c0 92 -10 119 -33 119s-33 -27 -33 -119c0 -94 10 -123 33 -123z" />
    <glyph glyph-name="one.subs" horiz-adv-x="203" 
d="M77 -120v239h-65v67l34 1c43 1 52 19 54 87h75v-394h-98z" />
    <glyph glyph-name="two.subs" horiz-adv-x="289" 
d="M22 -120c0 95 10 122 73 170c65 49 69 62 69 98c0 35 -8 51 -28 51s-31 -16 -31 -62c0 -11 1 -25 2 -33h-82c-2 10 -3 29 -3 36c0 91 34 140 122 140c78 0 118 -43 118 -125c0 -56 -28 -97 -80 -136c-43 -33 -48 -38 -48 -58h133v-81h-245z" />
    <glyph glyph-name="three.subs" horiz-adv-x="297" 
d="M147 -126c-79 0 -126 44 -126 115c0 12 1 24 2 32h83v-14c0 -36 13 -51 36 -51c22 0 35 16 35 53c0 24 -10 36 -31 36h-21v62h18c20 0 30 16 30 46c0 33 -12 45 -32 45c-21 0 -31 -16 -31 -50c0 -3 0 -10 1 -19h-81c-2 10 -3 23 -3 35c0 76 44 116 119 116
c73 0 116 -40 116 -108c0 -43 -14 -69 -46 -81v-2c41 -8 60 -36 60 -87c0 -80 -48 -128 -129 -128z" />
    <glyph glyph-name="four.subs" horiz-adv-x="302" 
d="M146 -120v76h-131v79l115 239h114v-238h41v-80h-41v-76h-98zM86 36h60v133h-2l-58 -132v-1z" />
    <glyph glyph-name="five.subs" horiz-adv-x="292" 
d="M149 -126c-86 0 -128 45 -128 110c0 2 0 10 1 21h85v-14c0 -24 12 -37 33 -37s31 21 31 63c0 35 -10 54 -30 54c-17 0 -28 -13 -31 -37l-84 6l14 234h210v-81h-131l-8 -98l2 -1c9 28 31 43 65 43c60 0 92 -41 92 -120c0 -85 -41 -143 -121 -143z" />
    <glyph glyph-name="six.subs" horiz-adv-x="297" 
d="M152 -126c-97 0 -131 75 -131 199c0 140 44 207 131 207c80 0 113 -43 113 -120c0 -4 0 -14 -1 -27h-81v17c0 33 -8 50 -26 50c-26 0 -37 -32 -37 -107l-1 -32h1c8 34 28 50 67 50c62 0 89 -44 89 -106c0 -79 -41 -131 -124 -131zM155 -48c20 0 31 17 31 53
c0 26 -11 40 -30 40c-20 0 -34 -15 -34 -45c1 -32 13 -48 33 -48z" />
    <glyph glyph-name="seven.subs" horiz-adv-x="284" 
d="M48 -120c17 141 68 241 128 308v1h-163v85h260v-80c-66 -87 -98 -185 -111 -314h-114z" />
    <glyph glyph-name="eight.subs" horiz-adv-x="297" 
d="M149 -126c-80 0 -128 41 -128 118c0 47 17 81 54 94v1c-27 9 -43 40 -43 84c0 72 43 109 117 109s117 -37 117 -109c0 -45 -16 -76 -43 -84v-1c36 -13 53 -47 53 -94c0 -77 -47 -118 -127 -118zM149 109c21 0 31 15 31 49c0 35 -10 48 -31 48s-31 -13 -31 -48
c0 -34 10 -49 31 -49zM149 -53c23 0 34 15 34 54c0 34 -11 50 -34 50s-34 -16 -34 -50c0 -39 11 -54 34 -54z" />
    <glyph glyph-name="nine.subs" horiz-adv-x="297" 
d="M144 -126c-76 0 -115 49 -115 102c0 8 0 16 1 28h81v-17c0 -19 10 -33 31 -33c26 0 35 27 35 104c0 5 0 16 1 31h-2c-6 -37 -27 -54 -61 -54c-61 0 -94 43 -94 109c0 85 45 136 125 136c92 0 130 -62 130 -199c0 -146 -46 -207 -132 -207zM140 102c22 0 35 20 35 50
c-2 32 -12 49 -32 49s-32 -20 -32 -52c0 -31 9 -47 29 -47z" />
    <glyph glyph-name="zero.dnom" horiz-adv-x="302" 
d="M151 -6c-88 0 -128 64 -128 205c0 138 40 201 128 201s128 -63 128 -201c0 -141 -40 -205 -128 -205zM151 76c23 0 33 29 33 123c0 92 -10 119 -33 119s-33 -27 -33 -119c0 -94 10 -123 33 -123z" />
    <glyph glyph-name="one.dnom" horiz-adv-x="203" 
d="M77 0v239h-65v67l34 1c43 1 52 19 54 87h75v-394h-98z" />
    <glyph glyph-name="two.dnom" horiz-adv-x="289" 
d="M22 0c0 95 10 122 73 170c65 49 69 62 69 98c0 35 -8 51 -28 51s-31 -16 -31 -62c0 -11 1 -25 2 -33h-82c-2 10 -3 29 -3 36c0 91 34 140 122 140c78 0 118 -43 118 -125c0 -56 -28 -97 -80 -136c-43 -33 -48 -38 -48 -58h133v-81h-245z" />
    <glyph glyph-name="three.dnom" horiz-adv-x="297" 
d="M147 -6c-79 0 -126 44 -126 115c0 12 1 24 2 32h83v-14c0 -36 13 -51 36 -51c22 0 35 16 35 53c0 24 -10 36 -31 36h-21v62h18c20 0 30 16 30 46c0 33 -12 45 -32 45c-21 0 -31 -16 -31 -50c0 -3 0 -10 1 -19h-81c-2 10 -3 23 -3 35c0 76 44 116 119 116
c73 0 116 -40 116 -108c0 -43 -14 -69 -46 -81v-2c41 -8 60 -36 60 -87c0 -80 -48 -128 -129 -128z" />
    <glyph glyph-name="four.dnom" horiz-adv-x="302" 
d="M146 0v76h-131v79l115 239h114v-238h41v-80h-41v-76h-98zM86 156h60v133h-2l-58 -132v-1z" />
    <glyph glyph-name="five.dnom" horiz-adv-x="292" 
d="M149 -6c-86 0 -128 45 -128 110c0 2 0 10 1 21h85v-14c0 -24 12 -37 33 -37s31 21 31 63c0 35 -10 54 -30 54c-17 0 -28 -13 -31 -37l-84 6l14 234h210v-81h-131l-8 -98l2 -1c9 28 31 43 65 43c60 0 92 -41 92 -120c0 -85 -41 -143 -121 -143z" />
    <glyph glyph-name="six.dnom" horiz-adv-x="297" 
d="M152 -6c-97 0 -131 75 -131 199c0 140 44 207 131 207c80 0 113 -43 113 -120c0 -4 0 -14 -1 -27h-81v17c0 33 -8 50 -26 50c-26 0 -37 -32 -37 -107l-1 -32h1c8 34 28 50 67 50c62 0 89 -44 89 -106c0 -79 -41 -131 -124 -131zM155 72c20 0 31 17 31 53
c0 26 -11 40 -30 40c-20 0 -34 -15 -34 -45c1 -32 13 -48 33 -48z" />
    <glyph glyph-name="seven.dnom" horiz-adv-x="284" 
d="M48 0c17 141 68 241 128 308v1h-163v85h260v-80c-66 -87 -98 -185 -111 -314h-114z" />
    <glyph glyph-name="eight.dnom" horiz-adv-x="297" 
d="M149 -6c-80 0 -128 41 -128 118c0 47 17 81 54 94v1c-27 9 -43 40 -43 84c0 72 43 109 117 109s117 -37 117 -109c0 -45 -16 -76 -43 -84v-1c36 -13 53 -47 53 -94c0 -77 -47 -118 -127 -118zM149 229c21 0 31 15 31 49c0 35 -10 48 -31 48s-31 -13 -31 -48
c0 -34 10 -49 31 -49zM149 67c23 0 34 15 34 54c0 34 -11 50 -34 50s-34 -16 -34 -50c0 -39 11 -54 34 -54z" />
    <glyph glyph-name="nine.dnom" horiz-adv-x="297" 
d="M144 -6c-76 0 -115 49 -115 102c0 8 0 16 1 28h81v-17c0 -19 10 -33 31 -33c26 0 35 27 35 104c0 5 0 16 1 31h-2c-6 -37 -27 -54 -61 -54c-61 0 -94 43 -94 109c0 85 45 136 125 136c92 0 130 -62 130 -199c0 -146 -46 -207 -132 -207zM140 222c22 0 35 20 35 50
c-2 32 -12 49 -32 49s-32 -20 -32 -52c0 -31 9 -47 29 -47z" />
    <glyph glyph-name="zero.numr" horiz-adv-x="302" 
d="M151 258c-88 0 -128 64 -128 205c0 138 40 201 128 201s128 -63 128 -201c0 -141 -40 -205 -128 -205zM151 340c23 0 33 29 33 123c0 92 -10 119 -33 119s-33 -27 -33 -119c0 -94 10 -123 33 -123z" />
    <glyph glyph-name="one.numr" horiz-adv-x="203" 
d="M77 264v239h-65v67l34 1c43 1 52 19 54 87h75v-394h-98z" />
    <glyph glyph-name="two.numr" horiz-adv-x="289" 
d="M22 264c0 95 10 122 73 170c65 49 69 62 69 98c0 35 -8 51 -28 51s-31 -16 -31 -62c0 -11 1 -25 2 -33h-82c-2 10 -3 29 -3 36c0 91 34 140 122 140c78 0 118 -43 118 -125c0 -56 -28 -97 -80 -136c-43 -33 -48 -38 -48 -58h133v-81h-245z" />
    <glyph glyph-name="three.numr" horiz-adv-x="297" 
d="M147 258c-79 0 -126 44 -126 115c0 12 1 24 2 32h83v-14c0 -36 13 -51 36 -51c22 0 35 16 35 53c0 24 -10 36 -31 36h-21v62h18c20 0 30 16 30 46c0 33 -12 45 -32 45c-21 0 -31 -16 -31 -50c0 -3 0 -10 1 -19h-81c-2 10 -3 23 -3 35c0 76 44 116 119 116
c73 0 116 -40 116 -108c0 -43 -14 -69 -46 -81v-2c41 -8 60 -36 60 -87c0 -80 -48 -128 -129 -128z" />
    <glyph glyph-name="four.numr" horiz-adv-x="302" 
d="M146 264v76h-131v79l115 239h114v-238h41v-80h-41v-76h-98zM86 420h60v133h-2l-58 -132v-1z" />
    <glyph glyph-name="five.numr" horiz-adv-x="292" 
d="M149 258c-86 0 -128 45 -128 110c0 2 0 10 1 21h85v-14c0 -24 12 -37 33 -37s31 21 31 63c0 35 -10 54 -30 54c-17 0 -28 -13 -31 -37l-84 6l14 234h210v-81h-131l-8 -98l2 -1c9 28 31 43 65 43c60 0 92 -41 92 -120c0 -85 -41 -143 -121 -143z" />
    <glyph glyph-name="six.numr" horiz-adv-x="297" 
d="M152 258c-97 0 -131 75 -131 199c0 140 44 207 131 207c80 0 113 -43 113 -120c0 -4 0 -14 -1 -27h-81v17c0 33 -8 50 -26 50c-26 0 -37 -32 -37 -107l-1 -32h1c8 34 28 50 67 50c62 0 89 -44 89 -106c0 -79 -41 -131 -124 -131zM155 336c20 0 31 17 31 53
c0 26 -11 40 -30 40c-20 0 -34 -15 -34 -45c1 -32 13 -48 33 -48z" />
    <glyph glyph-name="seven.numr" horiz-adv-x="284" 
d="M48 264c17 141 68 241 128 308v1h-163v85h260v-80c-66 -87 -98 -185 -111 -314h-114z" />
    <glyph glyph-name="eight.numr" horiz-adv-x="297" 
d="M149 258c-80 0 -128 41 -128 118c0 47 17 81 54 94v1c-27 9 -43 40 -43 84c0 72 43 109 117 109s117 -37 117 -109c0 -45 -16 -76 -43 -84v-1c36 -13 53 -47 53 -94c0 -77 -47 -118 -127 -118zM149 493c21 0 31 15 31 49c0 35 -10 48 -31 48s-31 -13 -31 -48
c0 -34 10 -49 31 -49zM149 331c23 0 34 15 34 54c0 34 -11 50 -34 50s-34 -16 -34 -50c0 -39 11 -54 34 -54z" />
    <glyph glyph-name="nine.numr" horiz-adv-x="297" 
d="M144 258c-76 0 -115 49 -115 102c0 8 0 16 1 28h81v-17c0 -19 10 -33 31 -33c26 0 35 27 35 104c0 5 0 16 1 31h-2c-6 -37 -27 -54 -61 -54c-61 0 -94 43 -94 109c0 85 45 136 125 136c92 0 130 -62 130 -199c0 -146 -46 -207 -132 -207zM140 486c22 0 35 20 35 50
c-2 32 -12 49 -32 49s-32 -20 -32 -52c0 -31 9 -47 29 -47z" />
    <glyph glyph-name="zero.sups" horiz-adv-x="302" 
d="M151 300c-88 0 -128 64 -128 205c0 138 40 201 128 201s128 -63 128 -201c0 -141 -40 -205 -128 -205zM151 382c23 0 33 29 33 123c0 92 -10 119 -33 119s-33 -27 -33 -119c0 -94 10 -123 33 -123z" />
    <glyph glyph-name="one.sups" horiz-adv-x="203" 
d="M77 306v239h-65v67l34 1c43 1 52 19 54 87h75v-394h-98z" />
    <glyph glyph-name="two.sups" horiz-adv-x="289" 
d="M22 306c0 95 10 122 73 170c65 49 69 62 69 98c0 35 -8 51 -28 51s-31 -16 -31 -62c0 -11 1 -25 2 -33h-82c-2 10 -3 29 -3 36c0 91 34 140 122 140c78 0 118 -43 118 -125c0 -56 -28 -97 -80 -136c-43 -33 -48 -38 -48 -58h133v-81h-245z" />
    <glyph glyph-name="three.sups" horiz-adv-x="297" 
d="M147 300c-79 0 -126 44 -126 115c0 12 1 24 2 32h83v-14c0 -36 13 -51 36 -51c22 0 35 16 35 53c0 24 -10 36 -31 36h-21v62h18c20 0 30 16 30 46c0 33 -12 45 -32 45c-21 0 -31 -16 -31 -50c0 -3 0 -10 1 -19h-81c-2 10 -3 23 -3 35c0 76 44 116 119 116
c73 0 116 -40 116 -108c0 -43 -14 -69 -46 -81v-2c41 -8 60 -36 60 -87c0 -80 -48 -128 -129 -128z" />
    <glyph glyph-name="four.sups" horiz-adv-x="302" 
d="M146 306v76h-131v79l115 239h114v-238h41v-80h-41v-76h-98zM86 462h60v133h-2l-58 -132v-1z" />
    <glyph glyph-name="five.sups" horiz-adv-x="292" 
d="M149 300c-86 0 -128 45 -128 110c0 2 0 10 1 21h85v-14c0 -24 12 -37 33 -37s31 21 31 63c0 35 -10 54 -30 54c-17 0 -28 -13 -31 -37l-84 6l14 234h210v-81h-131l-8 -98l2 -1c9 28 31 43 65 43c60 0 92 -41 92 -120c0 -85 -41 -143 -121 -143z" />
    <glyph glyph-name="six.sups" horiz-adv-x="297" 
d="M152 300c-97 0 -131 75 -131 199c0 140 44 207 131 207c80 0 113 -43 113 -120c0 -4 0 -14 -1 -27h-81v17c0 33 -8 50 -26 50c-26 0 -37 -32 -37 -107l-1 -32h1c8 34 28 50 67 50c62 0 89 -44 89 -106c0 -79 -41 -131 -124 -131zM155 378c20 0 31 17 31 53
c0 26 -11 40 -30 40c-20 0 -34 -15 -34 -45c1 -32 13 -48 33 -48z" />
    <glyph glyph-name="seven.sups" horiz-adv-x="284" 
d="M48 306c17 141 68 241 128 308v1h-163v85h260v-80c-66 -87 -98 -185 -111 -314h-114z" />
    <glyph glyph-name="eight.sups" horiz-adv-x="297" 
d="M149 300c-80 0 -128 41 -128 118c0 47 17 81 54 94v1c-27 9 -43 40 -43 84c0 72 43 109 117 109s117 -37 117 -109c0 -45 -16 -76 -43 -84v-1c36 -13 53 -47 53 -94c0 -77 -47 -118 -127 -118zM149 535c21 0 31 15 31 49c0 35 -10 48 -31 48s-31 -13 -31 -48
c0 -34 10 -49 31 -49zM149 373c23 0 34 15 34 54c0 34 -11 50 -34 50s-34 -16 -34 -50c0 -39 11 -54 34 -54z" />
    <glyph glyph-name="nine.sups" horiz-adv-x="297" 
d="M144 300c-76 0 -115 49 -115 102c0 8 0 16 1 28h81v-17c0 -19 10 -33 31 -33c26 0 35 27 35 104c0 5 0 16 1 31h-2c-6 -37 -27 -54 -61 -54c-61 0 -94 43 -94 109c0 85 45 136 125 136c92 0 130 -62 130 -199c0 -146 -46 -207 -132 -207zM140 528c22 0 35 20 35 50
c-2 32 -12 49 -32 49s-32 -20 -32 -52c0 -31 9 -47 29 -47z" />
    <glyph glyph-name="onehalf" unicode="&#xbd;" horiz-adv-x="640" 
d="M172 -56l-54 22l271 748l54 -22zM77 264v239h-65v67l34 1c43 1 52 19 54 87h75v-394h-98zM373 0c0 95 10 122 73 170c65 49 69 62 69 98c0 35 -8 51 -28 51s-31 -16 -31 -62c0 -11 1 -25 2 -33h-82c-2 10 -3 29 -3 36c0 91 34 140 122 140c78 0 118 -43 118 -125
c0 -56 -28 -97 -80 -136c-43 -33 -48 -38 -48 -58h133v-81h-245z" />
    <glyph glyph-name="uni2153" unicode="&#x2153;" horiz-adv-x="648" 
d="M172 -56l-54 22l271 748l54 -22zM77 264v239h-65v67l34 1c43 1 52 19 54 87h75v-394h-98zM498 -6c-79 0 -126 44 -126 115c0 12 1 24 2 32h83v-14c0 -36 13 -51 36 -51c22 0 35 16 35 53c0 24 -10 36 -31 36h-21v62h18c20 0 30 16 30 46c0 33 -12 45 -32 45
c-21 0 -31 -16 -31 -50c0 -3 0 -10 1 -19h-81c-2 10 -3 23 -3 35c0 76 44 116 119 116c73 0 116 -40 116 -108c0 -43 -14 -69 -46 -81v-2c41 -8 60 -36 60 -87c0 -80 -48 -128 -129 -128z" />
    <glyph glyph-name="uni2154" unicode="&#x2154;" horiz-adv-x="736" 
d="M260 -56l-54 22l271 748l54 -22zM22 264c0 95 10 122 73 170c65 49 69 62 69 98c0 35 -8 51 -28 51s-31 -16 -31 -62c0 -11 1 -25 2 -33h-82c-2 10 -3 29 -3 36c0 91 34 140 122 140c78 0 118 -43 118 -125c0 -56 -28 -97 -80 -136c-43 -33 -48 -38 -48 -58h133v-81h-245
zM586 -6c-79 0 -126 44 -126 115c0 12 1 24 2 32h83v-14c0 -36 13 -51 36 -51c22 0 35 16 35 53c0 24 -10 36 -31 36h-21v62h18c20 0 30 16 30 46c0 33 -12 45 -32 45c-21 0 -31 -16 -31 -50c0 -3 0 -10 1 -19h-81c-2 10 -3 23 -3 35c0 76 44 116 119 116
c73 0 116 -40 116 -108c0 -43 -14 -69 -46 -81v-2c41 -8 60 -36 60 -87c0 -80 -48 -128 -129 -128z" />
    <glyph glyph-name="onequarter" unicode="&#xbc;" horiz-adv-x="620" 
d="M172 -56l-54 22l271 748l54 -22zM77 264v239h-65v67l34 1c43 1 52 19 54 87h75v-394h-98zM464 0v76h-131v79l115 239h114v-238h41v-80h-41v-76h-98zM404 156h60v133h-2l-58 -132v-1z" />
    <glyph glyph-name="threequarters" unicode="&#xbe;" horiz-adv-x="708" 
d="M260 -56l-54 22l271 748l54 -22zM147 258c-79 0 -126 44 -126 115c0 12 1 24 2 32h83v-14c0 -36 13 -51 36 -51c22 0 35 16 35 53c0 24 -10 36 -31 36h-21v62h18c20 0 30 16 30 46c0 33 -12 45 -32 45c-21 0 -31 -16 -31 -50c0 -3 0 -10 1 -19h-81c-2 10 -3 23 -3 35
c0 76 44 116 119 116c73 0 116 -40 116 -108c0 -43 -14 -69 -46 -81v-2c41 -8 60 -36 60 -87c0 -80 -48 -128 -129 -128zM552 0v76h-131v79l115 239h114v-238h41v-80h-41v-76h-98zM492 156h60v133h-2l-58 -132v-1z" />
    <glyph glyph-name="oneeighth" unicode="&#x215b;" horiz-adv-x="648" 
d="M172 -56l-54 22l271 748l54 -22zM77 264v239h-65v67l34 1c43 1 52 19 54 87h75v-394h-98zM500 -6c-80 0 -128 41 -128 118c0 47 17 81 54 94v1c-27 9 -43 40 -43 84c0 72 43 109 117 109s117 -37 117 -109c0 -45 -16 -76 -43 -84v-1c36 -13 53 -47 53 -94
c0 -77 -47 -118 -127 -118zM500 229c21 0 31 15 31 49c0 35 -10 48 -31 48s-31 -13 -31 -48c0 -34 10 -49 31 -49zM500 67c23 0 34 15 34 54c0 34 -11 50 -34 50s-34 -16 -34 -50c0 -39 11 -54 34 -54z" />
    <glyph glyph-name="threeeighths" unicode="&#x215c;" horiz-adv-x="736" 
d="M260 -56l-54 22l271 748l54 -22zM147 258c-79 0 -126 44 -126 115c0 12 1 24 2 32h83v-14c0 -36 13 -51 36 -51c22 0 35 16 35 53c0 24 -10 36 -31 36h-21v62h18c20 0 30 16 30 46c0 33 -12 45 -32 45c-21 0 -31 -16 -31 -50c0 -3 0 -10 1 -19h-81c-2 10 -3 23 -3 35
c0 76 44 116 119 116c73 0 116 -40 116 -108c0 -43 -14 -69 -46 -81v-2c41 -8 60 -36 60 -87c0 -80 -48 -128 -129 -128zM588 -6c-80 0 -128 41 -128 118c0 47 17 81 54 94v1c-27 9 -43 40 -43 84c0 72 43 109 117 109s117 -37 117 -109c0 -45 -16 -76 -43 -84v-1
c36 -13 53 -47 53 -94c0 -77 -47 -118 -127 -118zM588 229c21 0 31 15 31 49c0 35 -10 48 -31 48s-31 -13 -31 -48c0 -34 10 -49 31 -49zM588 67c23 0 34 15 34 54c0 34 -11 50 -34 50s-34 -16 -34 -50c0 -39 11 -54 34 -54z" />
    <glyph glyph-name="fiveeighths" unicode="&#x215d;" horiz-adv-x="731" 
d="M255 -56l-54 22l271 748l54 -22zM149 258c-86 0 -128 45 -128 110c0 2 0 10 1 21h85v-14c0 -24 12 -37 33 -37s31 21 31 63c0 35 -10 54 -30 54c-17 0 -28 -13 -31 -37l-84 6l14 234h210v-81h-131l-8 -98l2 -1c9 28 31 43 65 43c60 0 92 -41 92 -120
c0 -85 -41 -143 -121 -143zM583 -6c-80 0 -128 41 -128 118c0 47 17 81 54 94v1c-27 9 -43 40 -43 84c0 72 43 109 117 109s117 -37 117 -109c0 -45 -16 -76 -43 -84v-1c36 -13 53 -47 53 -94c0 -77 -47 -118 -127 -118zM583 229c21 0 31 15 31 49c0 35 -10 48 -31 48
s-31 -13 -31 -48c0 -34 10 -49 31 -49zM583 67c23 0 34 15 34 54c0 34 -11 50 -34 50s-34 -16 -34 -50c0 -39 11 -54 34 -54z" />
    <glyph glyph-name="seveneighths" unicode="&#x215e;" horiz-adv-x="671" 
d="M195 -56l-54 22l271 748l54 -22zM48 264c17 141 68 241 128 308v1h-163v85h260v-80c-66 -87 -98 -185 -111 -314h-114zM523 -6c-80 0 -128 41 -128 118c0 47 17 81 54 94v1c-27 9 -43 40 -43 84c0 72 43 109 117 109s117 -37 117 -109c0 -45 -16 -76 -43 -84v-1
c36 -13 53 -47 53 -94c0 -77 -47 -118 -127 -118zM523 229c21 0 31 15 31 49c0 35 -10 48 -31 48s-31 -13 -31 -48c0 -34 10 -49 31 -49zM523 67c23 0 34 15 34 54c0 34 -11 50 -34 50s-34 -16 -34 -50c0 -39 11 -54 34 -54z" />
    <glyph glyph-name="periodcentered.loclCAT.case" horiz-adv-x="3" 
d="M-122 272v150h120v-150h-120z" />
    <glyph glyph-name="periodcentered.loclCAT" horiz-adv-x="110" 
d="M0 232v150h110v-150h-110z" />
    <glyph glyph-name="comma.dnom" horiz-adv-x="173" 
d="M44 -78v39c25 2 36 12 35 37v2h-33v90h83v-66c0 -76 -32 -100 -85 -102z" />
    <glyph glyph-name="period.dnom" horiz-adv-x="183" 
d="M50 0v90h83v-90h-83z" />
    <glyph glyph-name="comma.numr" horiz-adv-x="173" 
d="M44 186v39c25 2 36 12 35 37v2h-33v90h83v-66c0 -76 -32 -100 -85 -102z" />
    <glyph glyph-name="period.numr" horiz-adv-x="183" 
d="M50 264v90h83v-90h-83z" />
    <glyph glyph-name="comma.subs" horiz-adv-x="173" 
d="M44 -198v39c25 2 36 12 35 37v2h-33v90h83v-66c0 -76 -32 -100 -85 -102z" />
    <glyph glyph-name="period.subs" horiz-adv-x="183" 
d="M50 -120v90h83v-90h-83z" />
    <glyph glyph-name="comma.sups" horiz-adv-x="173" 
d="M44 228v39c25 2 36 12 35 37v2h-33v90h83v-66c0 -76 -32 -100 -85 -102z" />
    <glyph glyph-name="period.sups" horiz-adv-x="183" 
d="M50 306v90h83v-90h-83z" />
    <glyph glyph-name="uni00A0" unicode="&#xa0;" horiz-adv-x="168" 
 />
    <glyph glyph-name="CR" unicode="&#xd;" horiz-adv-x="168" 
 />
    <glyph glyph-name="uni2116" unicode="&#x2116;" horiz-adv-x="816" 
d="M32 0v658h204l123 -415h1l-15 415h136v-658h-165l-160 489h-1l13 -489h-136zM664 300c-85 0 -130 53 -130 154s45 154 130 154c86 0 131 -53 131 -154s-45 -154 -131 -154zM664 373c23 0 35 24 35 81s-12 81 -35 81c-22 0 -34 -24 -34 -81s12 -81 34 -81zM533 174v87h262
v-87h-262z" />
    <glyph glyph-name="uni0308" unicode="&#x308;" horiz-adv-x="0" 
d="M-319 533v119h114v-119h-114zM-159 533v119h114v-119h-114z" />
    <glyph glyph-name="uni0307" unicode="&#x307;" horiz-adv-x="0" 
d="M-244 533v119h124v-119h-124z" />
    <glyph glyph-name="gravecomb" unicode="&#x300;" horiz-adv-x="0" 
d="M-186 527l-83 145h127l50 -145h-94z" />
    <glyph glyph-name="acutecomb" unicode="&#x301;" horiz-adv-x="0" 
d="M-263 527l50 145h128l-83 -145h-95z" />
    <glyph glyph-name="uni030B" unicode="&#x30b;" horiz-adv-x="0" 
d="M-338 527l49 145h105l-70 -145h-84zM-197 527l49 145h105l-70 -145h-84z" />
    <glyph glyph-name="uni0302" unicode="&#x302;" horiz-adv-x="0" 
d="M-306 523v98l123 50h2l123 -50v-98l-123 51h-2z" />
    <glyph glyph-name="uni030C" unicode="&#x30c;" horiz-adv-x="0" 
d="M-259 527l-78 145h126l28 -81h2l28 81h126l-78 -145h-154z" />
    <glyph glyph-name="uni0306" unicode="&#x306;" horiz-adv-x="0" 
d="M-181 537c-92 0 -121 61 -121 118v17h84v-10c0 -25 10 -47 37 -47s37 22 37 47v10h84v-17c0 -57 -29 -118 -121 -118z" />
    <glyph glyph-name="uni030A" unicode="&#x30a;" horiz-adv-x="0" 
d="M-182 527c-83 0 -121 49 -121 116c0 68 41 117 121 117c82 0 121 -49 121 -117c0 -67 -38 -116 -121 -116zM-182 600c23 0 37 16 37 43c0 28 -15 44 -37 44s-37 -16 -37 -44c0 -27 14 -43 37 -43z" />
    <glyph glyph-name="tildecomb" unicode="&#x303;" horiz-adv-x="0" 
d="M-318 537c3 114 36 159 91 159c32 0 46 -15 61 -35l11 -15c9 -12 14 -19 25 -19c13 0 22 15 25 69h74c-3 -114 -38 -160 -92 -160c-32 0 -49 18 -61 35l-12 16c-9 12 -13 19 -24 19c-13 0 -21 -15 -24 -69h-74z" />
    <glyph glyph-name="uni0304" unicode="&#x304;" horiz-adv-x="0" 
d="M-296 547v96h228v-96h-228z" />
    <glyph glyph-name="uni030F" unicode="&#x30f;" horiz-adv-x="0" 
d="M-260 527l-70 145h105l49 -145h-84zM-119 527l-70 145h106l49 -145h-85z" />
    <glyph glyph-name="uni0311" unicode="&#x311;" horiz-adv-x="0" 
d="M-242 537v17c0 57 29 118 121 118s121 -61 121 -118v-17h-84v10c0 25 -10 47 -37 47s-37 -22 -37 -47v-10h-84z" />
    <glyph glyph-name="uni0312" unicode="&#x312;" horiz-adv-x="0" 
d="M-11 808v-66c-38 -3 -56 -20 -55 -61v-4h52v-150h-129v110c0 127 50 167 132 171z" />
    <glyph glyph-name="uni0326" unicode="&#x326;" horiz-adv-x="0" 
d="M-151 -305v66c38 3 56 20 55 61v4h-52v150h129v-110c0 -127 -50 -167 -132 -171z" />
    <glyph glyph-name="uni0327" unicode="&#x327;" horiz-adv-x="0" 
d="M-178 -218c-82 0 -113 42 -114 100h86c1 -23 6 -34 27 -34s27 18 27 37c0 20 -12 34 -47 34c-25 0 -46 -5 -51 -6l31 103h74l-21 -65l2 -1c5 5 16 14 38 14c41 0 67 -29 67 -79c0 -49 -29 -103 -119 -103z" />
    <glyph glyph-name="uni0328" unicode="&#x328;" horiz-adv-x="0" 
d="M-131 -193c-69 0 -98 35 -98 77c0 44 25 91 61 124h74c-24 -36 -36 -69 -36 -93c0 -15 8 -24 27 -24c10 0 19 1 27 3v-78c-9 -4 -29 -9 -55 -9z" />
    <glyph glyph-name="NULL" horiz-adv-x="0" 
 />
    <glyph glyph-name="NULL" horiz-adv-x="0" 
 />
    </font>
</defs>
</svg>
