<svg xmlns="http://www.w3.org/2000/svg" width="104.827" height="89.904" viewBox="0 0 104.827 89.904">
    <g data-name="Logo N-01">
        <g data-name="Group 1745">
            <g data-name="Group 1744">
                <path data-name="Path 29704" d="m357.689 389.9 2.127 11.621a9.659 9.659 0 0 1-7.342 10.659c-2.962.734-5.924 1.6-8.836 2.506q-4.026-12.608-8.076-25.242c-.506-1.6.709-3.418 2.709-4.026 2.329-.684 4.658-1.342 7.013-1.924 4.961-1.211 11.367.814 12.405 6.406zm-4.2 12.937c-.886-3.848-1.747-7.7-2.633-11.545-.354-1.6-2.2-2.532-4.127-2.051-1.392.354-2.076.532-3.443.911 1.57 5.7 3.114 11.393 4.684 17.115 1.241-.329 1.848-.506 3.089-.81a3.792 3.792 0 0 0 1.975-1.367 3.245 3.245 0 0 0 .452-2.249z" transform="translate(-334.814 -377.801)" style="fill:#ca2027"/>
                <path data-name="Path 29704 - Outline" d="M346.29 380.658a11.974 11.974 0 0 1 6.4 1.764 8.191 8.191 0 0 1 3.758 5.5l2.128 11.628a9.129 9.129 0 0 1-.156 3.773 10.415 10.415 0 0 1-1.558 3.419 10.594 10.594 0 0 1-2.652 2.673 9.451 9.451 0 0 1-3.458 1.518c-2.664.661-5.539 1.476-8.788 2.494l-.6.188-.191-.6c-1.342-4.2-2.712-8.48-4.037-12.618s-2.7-8.42-4.039-12.624a3.315 3.315 0 0 1 .271-2.557 4.769 4.769 0 0 1 2.857-2.266h.006c1.92-.563 4.454-1.292 7.039-1.931a12.716 12.716 0 0 1 3.02-.361zm8.912 7.493c-.8-4.3-5.051-6.228-8.912-6.228a11.447 11.447 0 0 0-2.719.321c-2.56.633-5.077 1.357-6.984 1.916a3.5 3.5 0 0 0-2.1 1.643 2.055 2.055 0 0 0-.185 1.584c1.342 4.2 2.713 8.482 4.038 12.621 1.263 3.942 2.566 8.011 3.847 12.021 3.034-.94 5.745-1.7 8.272-2.33l.022-.005a9 9 0 0 0 6.85-9.929zm-9.327-1.533a4.431 4.431 0 0 1 1.269.182 3.929 3.929 0 0 1 1.109.527 3.4 3.4 0 0 1 .859.844 3.112 3.112 0 0 1 .495 1.118c.443 1.924.887 3.88 1.316 5.772s.873 3.847 1.316 5.771a3.475 3.475 0 0 1-.015 1.422 3.659 3.659 0 0 1-.532 1.327 4.4 4.4 0 0 1-2.346 1.627c-.862.211-1.406.358-2.1.544l-.981.263-.607.161-.166-.605a5651.66 5651.66 0 0 1-1.973-7.215c-.886-3.245-1.8-6.6-2.711-9.9l-.168-.609.609-.169c1.376-.382 2.075-.563 3.456-.915a4.814 4.814 0 0 1 1.17-.144zm3.164 17.361a3.175 3.175 0 0 0 1.6-1.1l.011-.016a2.645 2.645 0 0 0 .359-1.75c-.443-1.925-.888-3.882-1.317-5.775s-.873-3.847-1.316-5.771a2.414 2.414 0 0 0-2.5-1.682 3.549 3.549 0 0 0-.858.107 137.96 137.96 0 0 0-2.82.74c.854 3.1 1.712 6.246 2.544 9.292.591 2.164 1.2 4.4 1.806 6.607l.37-.1a79.362 79.362 0 0 1 2.121-.551z" transform="translate(-332.95 -375.934)" style="fill:#ca2027"/>
                <path data-name="Path 29705" d="M569.528 395.588c-.38-.051-.582-.076-.962-.152a10.93 10.93 0 0 1-7.393-5.215c-.1-.228-.177-.329-.278-.532-.152.2-.228.3-.38.481a10.913 10.913 0 0 1-8.152 3.874c-.38 0-.582-.025-.962-.025.2-9.342.405-18.659.608-28a1.776 1.776 0 0 1 1.975-1.519c1.393.051 2.076.076 3.443.152a1.756 1.756 0 0 1 1.823 1.671l-1.063 16.532c1.443-1.9 2.177-2.836 3.7-4.709a117.24 117.24 0 0 1 2.836 5.266c.582-5.494 1.165-10.963 1.747-16.457a1.78 1.78 0 0 1 2.1-1.342c1.367.152 2.051.253 3.443.43a1.772 1.772 0 0 1 1.7 1.823q-1.975 13.1-3.924 26.2z" transform="translate(-496.093 -363.864)" style="fill:#ca2027"/>
                <path data-name="Path 29705 - Outline" d="m568.143 394.43-.674-.09a12.157 12.157 0 0 1-.931-.149 11.542 11.542 0 0 1-4.511-1.914 11.3 11.3 0 0 1-3.144-3.322 11.575 11.575 0 0 1-8.425 3.855h-.005c-.2 0-.359-.007-.509-.013s-.277-.012-.454-.012h-.647l.014-.647.31-14.273.3-13.728a2.053 2.053 0 0 1 .807-1.553 2.791 2.791 0 0 1 1.742-.581h.082c1.37.05 2.058.075 3.453.152a2.7 2.7 0 0 1 1.881.856 2.038 2.038 0 0 1 .541 1.485l-.531 8.253-.4 6.2c.767-.991 1.428-1.819 2.439-3.067l.585-.721.458.808a118.393 118.393 0 0 1 1.878 3.416l.654-6.156.871-8.2v-.007a2.051 2.051 0 0 1 .843-1.408 2.709 2.709 0 0 1 1.607-.51 3.007 3.007 0 0 1 .352.021c.958.106 1.57.187 2.345.288l1.106.143h.01a2.77 2.77 0 0 1 1.833 1.038 2.015 2.015 0 0 1 .4 1.5c-1.294 8.588-2.633 17.468-3.924 26.2v.012zm-8.313-6.363a10.305 10.305 0 0 0 6.942 4.88h.01c.12.024.22.043.315.059l.151-.9a9145.066 9145.066 0 0 1 3.924-26.2.76.76 0 0 0-.162-.56 1.521 1.521 0 0 0-.994-.542l-1.1-.143c-.769-.1-1.376-.18-2.323-.285h-.005a1.735 1.735 0 0 0-.2-.012 1.437 1.437 0 0 0-.853.261.8.8 0 0 0-.34.536l-.871 8.2-.876 8.252-.224 2.114-.969-1.892a114.034 114.034 0 0 0-2.366-4.432 148.087 148.087 0 0 0-3.1 3.97l-1.27 1.671.135-2.095.533-8.28.531-8.25a.783.783 0 0 0-.219-.563 1.435 1.435 0 0 0-1-.438c-1.383-.077-2.067-.1-3.427-.151h-.04a1.524 1.524 0 0 0-.952.3.811.811 0 0 0-.332.6q-.149 6.869-.3 13.726-.148 6.82-.3 13.645c.1 0 .2.006.313.006a10.253 10.253 0 0 0 7.665-3.642l.009-.011c.139-.162.206-.252.354-.449l.615-.819.458.916c.034.069.066.125.1.185.038.093.101.196.168.343z" transform="translate(-494.185 -361.997)" style="fill:#ca2027"/>
                <path data-name="Path 29706" d="M661.133 383.565a320.6 320.6 0 0 1 8.3 2.3 2.241 2.241 0 0 1 1.747 2.608c-.253.76-.354 1.139-.608 1.9a2.222 2.222 0 0 1-2.861 1.165 288.433 288.433 0 0 0-8.026-2.228 3.257 3.257 0 0 0-4.127 2.051c-.886 3.848-1.747 7.7-2.633 11.52a3.134 3.134 0 0 0 2.43 3.62c1.241.3 1.848.481 3.089.81.633-2.279.937-3.418 1.57-5.7-1.266-.354-1.924-.506-3.19-.835.582-2.3.861-3.443 1.443-5.722 3.342.836 6.659 1.772 9.924 2.836-1.8 5.621-3.6 11.266-5.418 16.887a134.615 134.615 0 0 0-8.836-2.506c-4.481-1.139-8.38-5.848-7.342-10.659L648.728 390c1.063-5.651 7.472-7.676 12.405-6.435z" transform="translate(-567.065 -377.842)" style="fill:#ca2027"/>
                <path data-name="Path 29706 - Outline" d="M656.37 380.714a12.523 12.523 0 0 1 3.049.37h.007c3.018.8 5.74 1.551 8.321 2.309h.011a3.337 3.337 0 0 1 1.978 1.588 2.365 2.365 0 0 1 .183 1.815v.009c-.125.374-.214.66-.3.937s-.178.574-.306.957a2.352 2.352 0 0 1-1.026 1.289 3.038 3.038 0 0 1-1.605.438 3.47 3.47 0 0 1-1.013-.152c-2.362-.7-4.905-1.4-8-2.221a3.452 3.452 0 0 0-.844-.106 2.454 2.454 0 0 0-2.509 1.689c-.4 1.726-.8 3.48-1.182 5.176-.473 2.08-.962 4.232-1.45 6.339a2.493 2.493 0 0 0 1.967 2.866c.875.214 1.425.363 2.122.551l.371.1.617-2.242c.188-.685.38-1.387.616-2.239-.547-.148-1-.262-1.495-.389-.328-.083-.667-.17-1.075-.276l-.609-.158.154-.609c.229-.907.409-1.625.583-2.32.261-1.039.507-2.021.86-3.4l.156-.61.611.153a149.31 149.31 0 0 1 9.967 2.848l.6.195-.192.6-1.05 3.284c-1.426 4.463-2.9 9.078-4.369 13.606l-.195.6-.6-.193a134.821 134.821 0 0 0-8.794-2.495 11.115 11.115 0 0 1-6.1-4.193 9.865 9.865 0 0 1-1.625-3.389 8.282 8.282 0 0 1-.087-3.815l2.126-11.614a8.285 8.285 0 0 1 3.76-5.524 11.855 11.855 0 0 1 6.367-1.774zm2.738 1.6a11.257 11.257 0 0 0-2.738-.331c-3.837 0-8.073 1.937-8.888 6.265l-2.13 11.638c-.984 4.56 2.835 8.883 6.878 9.911 2.822.7 5.6 1.481 8.274 2.326 1.4-4.333 2.811-8.737 4.173-13l.857-2.683a148.302 148.302 0 0 0-8.672-2.476 403.732 403.732 0 0 0-.7 2.786l-.43 1.712.46.117c.679.173 1.266.322 2.133.565l.608.17-.169.609c-.316 1.138-.554 2.007-.784 2.846s-.469 1.71-.785 2.85l-.167.6-.6-.16-.981-.263c-.69-.186-1.234-.333-2.1-.544h-.005a4.015 4.015 0 0 1-2.353-1.633 3.5 3.5 0 0 1-.539-2.738v-.006c.488-2.105.977-4.256 1.45-6.336.386-1.7.785-3.454 1.183-5.182a3.172 3.172 0 0 1 .508-1.115 3.465 3.465 0 0 1 .862-.841 3.955 3.955 0 0 1 1.107-.526 4.394 4.394 0 0 1 1.263-.182 4.717 4.717 0 0 1 1.157.146h.006c3.112.822 5.668 1.532 8.043 2.233h.006a2.206 2.206 0 0 0 .646.1 1.422 1.422 0 0 0 1.426-.849v-.009c.125-.374.214-.66.3-.937s.178-.573.306-.957a1.109 1.109 0 0 0-.1-.844 2.1 2.1 0 0 0-1.229-.963 275.585 275.585 0 0 0-8.277-2.302z" transform="translate(-565.197 -375.975)" style="fill:#ca2027"/>
            </g>
        </g>
        <g data-name="Group 1746">
            <path data-name="Path 29707" d="M376.788 535.752H372.1v24.609h-6.152v-24.609h-4.684a1.469 1.469 0 0 1-1.468-1.468v-3.215a1.47 1.47 0 0 1 1.468-1.468h15.52a1.47 1.47 0 0 1 1.468 1.468v3.215a1.438 1.438 0 0 1-1.464 1.468z" transform="translate(-353.002 -487.166)" style="fill:#ca2027"/>
            <path data-name="Path 29707 - Outline" d="M359.4 527.1h15.52a2.1 2.1 0 0 1 2.1 2.1v3.206a2.022 2.022 0 0 1-.574 1.471 2.106 2.106 0 0 1-1.527.639h-4.049v24.609h-7.418v-24.607H359.4a2.1 2.1 0 0 1-2.1-2.1V529.2a2.1 2.1 0 0 1 2.1-2.1zm15.52 6.152a.851.851 0 0 0 .618-.254.766.766 0 0 0 .218-.562V529.2a.836.836 0 0 0-.835-.836H359.4a.836.836 0 0 0-.835.836v3.215a.836.836 0 0 0 .835.836h5.317v24.609h4.883v-24.608z" transform="translate(-351.135 -485.299)" style="fill:#ca2027"/>
            <path data-name="Path 29708" d="M468.545 535.827h-8.3a3.085 3.085 0 0 0-3.089 3.089V542h6.144v6.152h-6.152v6.178h11.372a.935.935 0 0 1 .937.937v4.279a.935.935 0 0 1-.937.937H451v-21.542a9.244 9.244 0 0 1 9.241-9.241h8.3a.935.935 0 0 1 .937.937v4.279a.946.946 0 0 1-.933.911z" transform="translate(-421.112 -487.241)" style="fill:#ca2027"/>
            <path data-name="Path 29708 - Outline" d="M458.374 527.2h8.3a1.567 1.567 0 0 1 1.57 1.57v4.31a1.58 1.58 0 0 1-1.569 1.513h-8.3a2.459 2.459 0 0 0-2.456 2.456v2.451h6.152v7.418h-6.152v4.912h10.735a1.567 1.567 0 0 1 1.57 1.57v4.279a1.567 1.567 0 0 1-1.57 1.57H448.5v-22.175a9.867 9.867 0 0 1 9.874-9.874zm8.608 5.829v-4.259a.3.3 0 0 0-.3-.3h-8.3a8.618 8.618 0 0 0-8.608 8.608v20.912h16.887a.3.3 0 0 0 .3-.3v-4.29a.3.3 0 0 0-.3-.3h-12v-7.443h6.139v-4.887h-6.152v-3.722a3.718 3.718 0 0 1 3.722-3.722h8.3a.315.315 0 0 0 .312-.297z" transform="translate(-419.245 -485.374)" style="fill:#ca2027"/>
            <path data-name="Path 29709" d="M560.657 531.018v29.369H554.5v-12.3h-6.152v12.3H542.2v-21.546a9.244 9.244 0 0 1 9.241-9.241h7.823a1.41 1.41 0 0 1 1.393 1.418zm-6.152 4.734h-3.063a3.042 3.042 0 0 0-3.089 3.038v3.089h6.147z" transform="translate(-489.222 -487.166)" style="fill:#ca2027"/>
            <path data-name="Path 29709 - Outline" d="M549.574 527.1h7.826a2 2 0 0 1 1.431.6 2.048 2.048 0 0 1 .594 1.448v30H552v-12.3h-4.886v12.3H539.7v-22.174a9.867 9.867 0 0 1 9.874-9.874zm8.583 30.786v-28.735a.79.79 0 0 0-.229-.558.743.743 0 0 0-.531-.226h-7.823a8.618 8.618 0 0 0-8.608 8.608v20.912h4.886v-12.3h7.418v12.3zm-8.629-24.635h3.743v7.393h-7.418v-3.722a3.673 3.673 0 0 1 3.675-3.671zm2.472 1.267h-2.477a2.409 2.409 0 0 0-2.409 2.406v2.456H552z" transform="translate(-487.355 -485.299)" style="fill:#ca2027"/>
            <path data-name="Path 29710" d="M651.782 543.01v22.077h-6.152v-15.924l-3.089 3.089-3.089-3.089v15.925H633.3v-28.027a1.129 1.129 0 0 1 1.924-.81l7.292 7.292 3.089-3.089 4.228-4.228a1.129 1.129 0 0 1 1.924.81v5.975z" transform="translate(-557.258 -491.867)" style="fill:#ca2027"/>
            <path data-name="Path 29710 - Outline" d="M648.75 533.395a1.8 1.8 0 0 1 1.221.484 1.748 1.748 0 0 1 .552 1.289v5.342h.025v23.343h-7.418v-15.03l-2.456 2.456-2.456-2.456v15.03H630.8v-28.66a1.748 1.748 0 0 1 .552-1.289 1.8 1.8 0 0 1 1.221-.484 1.734 1.734 0 0 1 1.232.516l6.844 6.844 6.869-6.869a1.734 1.734 0 0 1 1.232-.516zm.532 8.382h-.025v-6.608a.5.5 0 0 0-.507-.508.464.464 0 0 0-.337.145l-7.764 7.764-7.739-7.739a.464.464 0 0 0-.337-.145.5.5 0 0 0-.507.508v27.394h4.886v-16.82l3.722 3.722 3.722-3.722v16.82h4.886z" transform="translate(-555.391 -490)" style="fill:#ca2027"/>
        </g>
        <path data-name="Path 29711" d="M457.952 381.751c.127 1.367.228 2.532.38 3.671a32.594 32.594 0 0 1-.152 9.418 7.576 7.576 0 0 0-.127 1.848c.051.658-.2.76-.785.785-1.241.025-1.266.051-1.139-1.241.152-1.494.38-2.962.456-4.456.152-3.7-2.987-5.722-6.38-4.127-2.582 1.19-3.544 3.165-2.962 5.975a36.811 36.811 0 0 0 1.19 3.8c.1.279.3.684-.2.785-.354.076-.81.2-.987-.354a75.626 75.626 0 0 1-2.709-9.038 28.971 28.971 0 0 1-.557-4.456c0-.354.051-.937-.532-.835-.481.076-.279.557-.279.911A43.845 43.845 0 0 0 446.2 397.5c.177.456.38.861-.253 1.114-.684.279-.658-.329-.785-.684a47.073 47.073 0 0 1-3.038-10.659 15.277 15.277 0 0 1-.1-2.633c0-.405 0-.861-.582-.76-.481.076-.532.456-.43.836.836 4 1.241 8.1 2.709 11.95a5.084 5.084 0 0 0 .684 1.392c.2.253.456.582 0 .81-.38.177-.861.481-1.215-.076a1.926 1.926 0 0 1-.2-.532 79.3 79.3 0 0 1-2.456-13.115c-.076-.861-.481-1.165-1.291-.911-.3.1-.709.279-.937.025-.279-.278.1-.582.228-.861a65.739 65.739 0 0 1 6.583-11.14c1.342-1.722 2.861-3.291 4.329-4.886.2-.228.329-.3.608-.076 2.582 2.025 5.418 3.722 7.773 6.051a55.865 55.865 0 0 1 6.329 7.292c.582.81.532.911-.456 1.013a6.276 6.276 0 0 1-.684.076c-.861-.051-1.013.354-.937 1.139a55.332 55.332 0 0 1-.177 13.418 3.594 3.594 0 0 1-.127.557c-.076.2-.2.456-.481.38-.253-.076-.127-.329-.127-.506.253-2.684.3-5.393.405-8.076a26.388 26.388 0 0 0-.532-5.823l-.076-.38c-.076-.3-.228-.633-.557-.582-.481.1-.253.532-.2.81a22.449 22.449 0 0 1 .405 5.038 71.61 71.61 0 0 1-.582 9.038c-.076.608-.405.734-.835.709-.557-.025-.253-.456-.228-.76.076-4.177.835-8.38.1-12.558a2.865 2.865 0 0 0-1.115-2.379zm-4.329 3.544a2.234 2.234 0 0 0 2.477-1.395 1.459 1.459 0 0 0-.633-1.949 6.738 6.738 0 0 1-2.836-2.987 1.6 1.6 0 0 0-2.861.051 3.61 3.61 0 0 0-.329.709 5.4 5.4 0 0 1-2.076 2.987 1.492 1.492 0 0 0-.532 1.747 1.9 1.9 0 0 0 2.608 1.291 7.619 7.619 0 0 1 4.182-.449zm3.038-7.646c.025-.911-.532-1.722-1.19-1.747-.76-.025-1.468.911-1.519 1.975-.051.886.532 1.747 1.19 1.747.734 0 1.494-.962 1.519-1.975zm-8.38 1.241a2.179 2.179 0 0 0-1.165-1.949.818.818 0 0 0-1.139.177 2.023 2.023 0 0 0-.177 2.355c.025.025.025.051.051.076.354.532.734 1.063 1.468.886s.911-.835.962-1.545zm5.621-3.874c.025-.962-.506-1.722-1.215-1.722-.734.025-1.392.937-1.443 1.924-.051 1.063.456 1.8 1.215 1.8.708.049 1.417-.918 1.441-2.002zm-3.393 1.063a2.8 2.8 0 0 0-.633-1.874 1.145 1.145 0 0 0-1.114-.456 1.081 1.081 0 0 0-.861.836 2.172 2.172 0 0 0 .354 2.1c.354.456.734.911 1.367.684a1.22 1.22 0 0 0 .887-1.29z" transform="translate(-411.557 -365.85)" style="fill:#ca2027"/>
        <g data-name="Group 1748">
            <g data-name="Group 1747">
                <path data-name="Path 29712" d="M13.077 79.98h1.291a.3.3 0 0 1 .278.2l2.81 8.709a.3.3 0 0 1-.279.38h-1.114a.3.3 0 0 1-.279-.2l-.481-1.494a.3.3 0 0 0-.279-.2h-2.679a.3.3 0 0 0-.278.2l-.481 1.494a.3.3 0 0 1-.279.2h-1.114a.3.3 0 0 1-.279-.38l2.831-8.709a.4.4 0 0 1 .332-.2zm-.025 5.8h1.293a.289.289 0 0 0 .279-.38l-.658-2.051a.29.29 0 0 0-.557 0l-.658 2.051a.316.316 0 0 0 .3.38z"/>
                <path data-name="Path 29713" d="M22.039 85.702H20.8a.281.281 0 0 0-.278.279v2.987a.281.281 0 0 1-.279.279H19.18a.281.281 0 0 1-.279-.279v-8.709a.281.281 0 0 1 .279-.279h2.861a2.864 2.864 0 1 1 0 5.722zM20.52 81.88v1.949a.281.281 0 0 0 .278.278h1.114c1.013 0 1.468-.456 1.468-1.266s-.456-1.266-1.468-1.266H20.8a.324.324 0 0 0-.28.305z"/>
                <path data-name="Path 29714" d="M29.482 85.702h-1.239a.281.281 0 0 0-.279.279v2.987a.281.281 0 0 1-.279.279h-1.063a.281.281 0 0 1-.278-.279v-8.709a.281.281 0 0 1 .278-.279h2.861a2.864 2.864 0 1 1 0 5.722zm-1.519-3.822v1.949a.281.281 0 0 0 .279.278h1.114c1.013 0 1.468-.456 1.468-1.266s-.456-1.266-1.468-1.266h-1.113a.324.324 0 0 0-.28.305z"/>
                <path data-name="Path 29715" d="M35.863 79.98h1.291a.3.3 0 0 1 .278.2l2.81 8.709a.3.3 0 0 1-.279.38h-1.114a.3.3 0 0 1-.279-.2l-.481-1.494a.3.3 0 0 0-.279-.2h-2.679a.3.3 0 0 0-.279.2l-.481 1.494a.3.3 0 0 1-.279.2h-1.114a.3.3 0 0 1-.278-.38l2.831-8.709a.431.431 0 0 1 .332-.2zm0 5.8h1.291a.289.289 0 0 0 .278-.38l-.658-2.051a.29.29 0 0 0-.557 0l-.658 2.051a.3.3 0 0 0 .304.38z"/>
                <path data-name="Path 29716" d="m45.838 85.676 1.544 3.19a.277.277 0 0 1-.253.405H45.99a.279.279 0 0 1-.253-.152l-1.726-3.514a.279.279 0 0 0-.253-.152h-.147a.281.281 0 0 0-.278.278v3.266a.281.281 0 0 1-.279.279h-1.063a.281.281 0 0 1-.278-.279v-8.709a.281.281 0 0 1 .278-.278h2.886c2.051 0 2.987 1.165 2.987 2.709a2.466 2.466 0 0 1-1.8 2.557.293.293 0 0 0-.226.4zm-2.532-3.8v1.646a.281.281 0 0 0 .279.279h1.139c1.013 0 1.468-.38 1.468-1.114s-.456-1.114-1.468-1.114h-1.139a.324.324 0 0 0-.279.306z"/>
                <path data-name="Path 29717" d="M54.699 80.283v1.013a.281.281 0 0 1-.278.278h-3.367a.281.281 0 0 0-.279.279v1.671a.281.281 0 0 0 .279.279h3.114a.281.281 0 0 1 .279.279v.987a.281.281 0 0 1-.279.279h-3.114a.281.281 0 0 0-.279.278v1.722a.281.281 0 0 0 .279.278h3.393a.281.281 0 0 1 .279.279v1.013a.281.281 0 0 1-.279.279h-5.038a.281.281 0 0 1-.278-.279v-8.709a.281.281 0 0 1 .278-.278h4.988a.375.375 0 0 1 .302.352z"/>
                <path data-name="Path 29718" d="M56.041 88.968v-8.709a.281.281 0 0 1 .279-.279h1.038a.281.281 0 0 1 .279.279v7.114a.281.281 0 0 0 .278.278h3.469a.281.281 0 0 1 .279.279v1.013a.281.281 0 0 1-.279.279h-5.089c-.127.05-.254-.102-.254-.254z"/>
                <path data-name="Path 29719" d="M63.155 89.499a.28.28 0 0 0-.1-.354.819.819 0 0 1-.3-.658.765.765 0 0 1 .785-.81.83.83 0 0 1 .608 1.342l-.456.76a.312.312 0 0 1-.253.127h-.076a.3.3 0 0 1-.2-.405z"/>
                <path data-name="Path 29720" d="M74.473 85.322v-5.064a.281.281 0 0 1 .279-.279h1.063a.281.281 0 0 1 .279.279v5.139c0 2.582-1.443 3.9-3.6 3.9s-3.6-1.317-3.6-3.9v-5.139a.281.281 0 0 1 .279-.279h1.063a.281.281 0 0 1 .279.279v5.064c0 1.6.608 2.354 1.975 2.354 1.401.004 1.983-.734 1.983-2.354z"/>
                <path data-name="Path 29721" d="M80.372 89.322a4.139 4.139 0 0 1-3.114-1.291.271.271 0 0 1-.025-.354l.608-.861a.316.316 0 0 1 .43-.051 3.39 3.39 0 0 0 2.253.937c.81 0 1.367-.43 1.367-1.038 0-1.62-4.532-.911-4.532-4.076a2.631 2.631 0 0 1 2.886-2.658 3.731 3.731 0 0 1 2.886 1.241.275.275 0 0 1 0 .38l-.658.76a.314.314 0 0 1-.43.025 2.5 2.5 0 0 0-1.747-.785c-.785 0-1.317.43-1.317 1.038 0 1.8 4.557 1.038 4.557 4.1 0 1.671-1.344 2.633-3.164 2.633z"/>
                <path data-name="Path 29722" d="M87.663 79.98h1.291a.3.3 0 0 1 .279.2l2.81 8.709a.3.3 0 0 1-.279.38H90.65a.3.3 0 0 1-.278-.2l-.481-1.494a.3.3 0 0 0-.278-.2h-2.684a.3.3 0 0 0-.279.2l-.481 1.494a.3.3 0 0 1-.279.2h-1.063a.3.3 0 0 1-.279-.38l2.834-8.709a.274.274 0 0 1 .281-.2zm-.025 5.8h1.291a.289.289 0 0 0 .279-.38l-.658-2.051a.29.29 0 0 0-.557 0l-.658 2.051a.316.316 0 0 0 .303.38z"/>
                <path data-name="Path 29723" d="M94.068 87.676a.811.811 0 0 1 0 1.62.81.81 0 1 1 0-1.62z"/>
            </g>
        </g>
    </g>
</svg>
