<svg xmlns="http://www.w3.org/2000/svg" width="191.399" height="164.153" viewBox="0 0 191.399 164.153">
    <g data-name="Logo N-01">
        <g data-name="Group 1745">
            <g data-name="Group 1744">
                <path data-name="Path 29704" d="m376.058 395.474 3.883 21.218c1.479 8.6-4.854 17.659-13.406 19.462-5.409 1.341-10.817 2.912-16.133 4.576q-7.35-23.021-14.746-46.088c-.924-2.912 1.294-6.241 4.946-7.35 4.253-1.248 8.506-2.45 12.8-3.513 9.066-2.219 20.761 1.479 22.656 11.695zm-7.673 23.626c-1.618-7.026-3.19-14.053-4.808-21.08-.647-2.912-4.022-4.623-7.535-3.744-2.542.647-3.791.971-6.287 1.664 2.866 10.4 5.686 20.8 8.552 31.249 2.265-.6 3.375-.924 5.64-1.479a6.925 6.925 0 0 0 3.606-2.5 5.925 5.925 0 0 0 .832-4.11z" transform="translate(-334.292 -373.376)" style="fill:#fff"/>
                <path data-name="Path 29704 - Outline" d="M357.307 380.658a21.865 21.865 0 0 1 11.684 3.221 14.957 14.957 0 0 1 6.861 10.039l3.885 21.23a16.669 16.669 0 0 1-.285 6.89 19.021 19.021 0 0 1-2.844 6.243 19.344 19.344 0 0 1-4.843 4.88 17.255 17.255 0 0 1-6.313 2.771c-4.864 1.206-10.113 2.7-16.046 4.553l-1.1.343-.35-1.095c-2.449-7.672-4.952-15.484-7.372-23.039s-4.924-15.373-7.375-23.049a6.053 6.053 0 0 1 .494-4.67 8.706 8.706 0 0 1 5.217-4.138h.01c3.5-1.029 8.133-2.359 12.853-3.526a23.216 23.216 0 0 1 5.524-.653zm16.273 13.682c-1.457-7.855-9.223-11.371-16.273-11.371a20.9 20.9 0 0 0-4.965.586c-4.675 1.156-9.27 2.477-12.752 3.5a6.386 6.386 0 0 0-3.838 3 3.752 3.752 0 0 0-.337 2.892c2.45 7.673 4.953 15.487 7.373 23.045 2.305 7.2 4.685 14.628 7.023 21.948 5.539-1.716 10.49-3.11 15.1-4.254l.04-.009c8.03-1.693 13.873-10.164 12.506-18.129zm-17.03-2.8a8.091 8.091 0 0 1 2.317.333 7.174 7.174 0 0 1 2.025.961 6.217 6.217 0 0 1 1.567 1.541 5.682 5.682 0 0 1 .9 2.041c.809 3.513 1.62 7.084 2.4 10.538s1.594 7.025 2.4 10.536a6.344 6.344 0 0 1-.028 2.6 6.682 6.682 0 0 1-.972 2.423 8.027 8.027 0 0 1-4.284 2.971h-.005c-1.573.385-2.568.654-3.827.993-.546.147-1.11.3-1.791.48l-1.108.294-.3-1.105c-1.207-4.4-2.424-8.859-3.6-13.173-1.618-5.926-3.29-12.053-4.95-18.075l-.306-1.112 1.111-.309c2.512-.7 3.789-1.029 6.311-1.671a8.793 8.793 0 0 1 2.14-.265zm5.777 31.7a5.8 5.8 0 0 0 2.916-2.006l.019-.029a4.83 4.83 0 0 0 .655-3.194c-.81-3.516-1.62-7.088-2.4-10.544s-1.594-7.025-2.4-10.536v-.009c-.4-1.808-2.276-3.07-4.557-3.07a6.481 6.481 0 0 0-1.567.2c-2.1.535-3.333.852-5.149 1.35a7400.55 7400.55 0 0 1 4.644 16.967c1.079 3.952 2.191 8.027 3.3 12.063l.675-.182a118.1 118.1 0 0 1 3.864-1.01z" transform="translate(-332.95 -372.032)" style="fill:#fff"/>
                <path data-name="Path 29705" d="M584.5 421.265c-.693-.092-1.063-.139-1.757-.277a19.957 19.957 0 0 1-13.5-9.523c-.185-.416-.324-.6-.508-.971-.277.37-.416.555-.693.878a19.927 19.927 0 0 1-14.885 7.073c-.693 0-1.063-.046-1.757-.046.37-17.058.74-34.069 1.109-51.127.046-1.572 1.618-2.82 3.606-2.774 2.542.092 3.791.139 6.287.277 1.942.092 3.421 1.479 3.328 3.051l-1.941 30.186a291.837 291.837 0 0 1 6.749-8.6c2.173 3.837 3.19 5.732 5.177 9.615 1.063-10.031 2.126-20.016 3.19-30.047.185-1.572 1.9-2.681 3.837-2.45 2.5.277 3.744.462 6.287.786 1.942.277 3.328 1.757 3.1 3.328q-3.606 23.922-7.165 47.845z" transform="translate(-450.417 -363.342)" style="fill:#fff"/>
                <path data-name="Path 29705 - Outline" d="m584.081 421.214-1.231-.164a22.308 22.308 0 0 1-1.7-.272 21.073 21.073 0 0 1-8.237-3.495 20.631 20.631 0 0 1-5.74-6.066 21.134 21.134 0 0 1-15.382 7.039h-.01c-.372 0-.655-.012-.929-.024s-.507-.022-.828-.022h-1.181l.026-1.181.565-26.061.544-25.066v-.009a3.749 3.749 0 0 1 1.474-2.835 5.1 5.1 0 0 1 3.18-1.061H554.781c2.5.091 3.757.137 6.3.278a4.938 4.938 0 0 1 3.434 1.562 3.721 3.721 0 0 1 .988 2.711v.006l-.969 15.069-.728 11.317a296.61 296.61 0 0 1 4.454-5.6l1.068-1.317.835 1.475a216.36 216.36 0 0 1 3.428 6.236c.4-3.774.8-7.554 1.194-11.24l1.59-14.981v-.013a3.744 3.744 0 0 1 1.54-2.571 4.946 4.946 0 0 1 2.934-.93 5.5 5.5 0 0 1 .643.038c1.749.194 2.867.341 4.282.526.615.081 1.251.164 2.019.262h.018a5.057 5.057 0 0 1 3.347 1.9 3.679 3.679 0 0 1 .73 2.745 17207.686 17207.686 0 0 0-7.165 47.842v.021zM568.9 409.6a18.817 18.817 0 0 0 12.675 8.91h.018c.219.044.4.078.576.107l.275-1.649c2.357-15.945 4.8-32.159 7.164-47.836a1.387 1.387 0 0 0-.3-1.023 2.776 2.776 0 0 0-1.814-.99l-2.018-.261c-1.4-.184-2.512-.329-4.242-.521h-.009a3.169 3.169 0 0 0-.374-.022 2.624 2.624 0 0 0-1.558.476 1.463 1.463 0 0 0-.62.978l-1.59 14.974-1.6 15.066-.409 3.86-1.769-3.455c-1.732-3.384-2.723-5.247-4.32-8.093a278.942 278.942 0 0 0-5.658 7.248l-2.319 3.051.246-3.825.972-15.118.969-15.064a1.43 1.43 0 0 0-.4-1.028 2.62 2.62 0 0 0-1.83-.8h-.009c-2.525-.14-3.774-.186-6.257-.276h-.073a2.782 2.782 0 0 0-1.738.556 1.481 1.481 0 0 0-.606 1.093l-.544 25.061-.541 24.915c.175.007.356.011.571.012a18.72 18.72 0 0 0 14-6.649l.017-.02c.253-.3.376-.46.646-.82l1.122-1.5.836 1.673c.063.125.121.229.183.338.101.172.208.362.328.632z" transform="translate(-449.044 -361.997)" style="fill:#fff"/>
                <path data-name="Path 29706" d="M673.275 383.854a563.338 563.338 0 0 1 15.162 4.207c2.358.74 3.791 2.866 3.19 4.761-.462 1.387-.647 2.08-1.109 3.467-.6 1.9-2.958 2.82-5.224 2.126-4.854-1.433-9.754-2.774-14.654-4.068-3.467-.878-6.842.832-7.535 3.744-1.618 7.026-3.19 14.053-4.808 21.033a5.723 5.723 0 0 0 4.438 6.61c2.265.555 3.375.878 5.64 1.479 1.156-4.16 1.71-6.241 2.866-10.4-2.311-.647-3.513-.925-5.824-1.526 1.063-4.207 1.572-6.287 2.635-10.447 6.1 1.526 12.158 3.236 18.121 5.177-3.282 10.262-6.564 20.571-9.893 30.833a246.062 246.062 0 0 0-16.133-4.576c-8.182-2.08-15.3-10.678-13.406-19.462l3.883-21.218c1.941-10.307 13.637-14.005 22.651-11.74z" transform="translate(-501.519 -373.406)" style="fill:#fff"/>
                <path data-name="Path 29706 - Outline" d="M666.644 380.714a22.867 22.867 0 0 1 5.567.676h.013a564.572 564.572 0 0 1 15.193 4.215l.02.006a6.094 6.094 0 0 1 3.611 2.9 4.319 4.319 0 0 1 .334 3.314l-.005.016c-.228.682-.39 1.206-.548 1.711s-.326 1.047-.559 1.748a4.3 4.3 0 0 1-1.874 2.354 5.548 5.548 0 0 1-2.931.8 6.337 6.337 0 0 1-1.85-.278c-4.312-1.273-8.956-2.562-14.611-4.056a6.3 6.3 0 0 0-1.54-.194 4.48 4.48 0 0 0-4.581 3.084c-.726 3.151-1.454 6.354-2.158 9.451-.863 3.8-1.756 7.726-2.648 11.574a4.552 4.552 0 0 0 3.591 5.233c1.6.391 2.6.662 3.875 1.006l.677.182c.431-1.559.784-2.844 1.126-4.094s.694-2.532 1.125-4.088c-1-.27-1.818-.479-2.729-.71l-1.963-.5-1.111-.289.281-1.113c.418-1.656.747-2.968 1.065-4.236.476-1.9.925-3.69 1.57-6.214l.285-1.114 1.115.279c6.368 1.592 12.491 3.341 18.2 5.2l1.093.356-.35 1.095-1.917 6c-2.6 8.148-5.3 16.574-7.978 24.842l-.356 1.1-1.1-.353a245.62 245.62 0 0 0-16.057-4.555h-.007a20.293 20.293 0 0 1-11.13-7.655 18.012 18.012 0 0 1-2.966-6.187 15.122 15.122 0 0 1-.158-6.965l3.881-21.206a15.127 15.127 0 0 1 6.865-10.087 21.644 21.644 0 0 1 11.64-3.248zm5 2.916a20.556 20.556 0 0 0-5-.6c-7.005 0-14.739 3.537-16.229 11.439l-3.889 21.25c-1.8 8.326 5.175 16.219 12.558 18.1a245.552 245.552 0 0 1 15.107 4.247 6423.566 6423.566 0 0 0 7.62-23.738l1.566-4.9a273.62 273.62 0 0 0-15.834-4.521c-.5 1.957-.881 3.485-1.283 5.088-.243.971-.493 1.968-.785 3.125l.84.214c1.24.315 2.312.588 3.894 1.031l1.111.311-.309 1.111c-.577 2.078-1.012 3.664-1.432 5.2s-.856 3.122-1.434 5.2l-.306 1.1-1.1-.293c-.681-.181-1.245-.333-1.791-.48-1.259-.34-2.254-.608-3.828-.994h-.009a7.331 7.331 0 0 1-4.3-2.982 6.391 6.391 0 0 1-.985-5v-.01c.891-3.844 1.784-7.771 2.647-11.569.7-3.1 1.434-6.307 2.16-9.463v-.008a5.8 5.8 0 0 1 .928-2.035 6.326 6.326 0 0 1 1.575-1.535 7.219 7.219 0 0 1 2.021-.96 8.026 8.026 0 0 1 2.305-.333 8.613 8.613 0 0 1 2.113.266h.011c5.682 1.5 10.349 2.8 14.686 4.077h.011a4.027 4.027 0 0 0 1.179.179 2.6 2.6 0 0 0 2.6-1.55l.005-.016c.227-.682.39-1.206.548-1.711s.326-1.047.559-1.747a2.026 2.026 0 0 0-.184-1.541 3.825 3.825 0 0 0-2.243-1.758 544.366 544.366 0 0 0-15.105-4.194z" transform="translate(-500.173 -372.062)" style="fill:#fff"/>
            </g>
        </g>
        <g data-name="Group 1746">
            <path data-name="Path 29707" d="M390.818 540.833h-8.552v44.933h-11.233v-44.933h-8.552a2.683 2.683 0 0 1-2.681-2.681v-5.871a2.683 2.683 0 0 1 2.681-2.681h28.337a2.683 2.683 0 0 1 2.681 2.681v5.871a2.626 2.626 0 0 1-2.681 2.681z" transform="translate(-347.388 -452.122)" style="fill:#fff"/>
            <path data-name="Path 29707 - Outline" d="M361.137 527.1h28.337a3.841 3.841 0 0 1 3.837 3.837v5.854a3.692 3.692 0 0 1-1.048 2.687 3.845 3.845 0 0 1-2.789 1.166h-7.4v44.933h-13.541v-44.932h-7.4a3.841 3.841 0 0 1-3.837-3.837v-5.871a3.841 3.841 0 0 1 3.841-3.837zm28.337 11.233a1.553 1.553 0 0 0 1.129-.464 1.4 1.4 0 0 0 .4-1.026v-5.907a1.527 1.527 0 0 0-1.526-1.526h-28.34a1.527 1.527 0 0 0-1.525 1.526v5.871a1.527 1.527 0 0 0 1.525 1.525h9.708v44.933h8.922v-44.932z" transform="translate(-346.044 -450.778)" style="fill:#fff"/>
            <path data-name="Path 29708" d="M483.035 540.887h-15.162a5.633 5.633 0 0 0-5.64 5.64v5.64h11.233V563.4h-11.233v11.279h20.756a1.706 1.706 0 0 1 1.71 1.71v7.811a1.706 1.706 0 0 1-1.71 1.71H451v-39.337a16.878 16.878 0 0 1 16.873-16.873h15.162a1.706 1.706 0 0 1 1.71 1.71v7.812a1.728 1.728 0 0 1-1.71 1.665z" transform="translate(-396.429 -452.176)" style="fill:#fff"/>
            <path data-name="Path 29708 - Outline" d="M466.528 527.2h15.162a2.862 2.862 0 0 1 2.866 2.866v7.87a2.885 2.885 0 0 1-2.865 2.762h-15.163a4.489 4.489 0 0 0-4.484 4.484v4.484h11.233v13.544h-11.233v8.968h19.6a2.862 2.862 0 0 1 2.866 2.866v7.812a2.862 2.862 0 0 1-2.866 2.866H448.5v-40.493a18.016 18.016 0 0 1 18.028-18.029zm15.717 10.642v-7.776a.549.549 0 0 0-.555-.555h-15.162a15.735 15.735 0 0 0-15.717 15.717v38.183h30.833a.549.549 0 0 0 .555-.555v-7.812a.549.549 0 0 0-.555-.555h-21.911V560.9h11.233v-8.922h-11.233v-6.8a6.788 6.788 0 0 1 6.8-6.8h15.162a.574.574 0 0 0 .551-.535z" transform="translate(-395.085 -450.832)" style="fill:#fff"/>
            <path data-name="Path 29709" d="M575.9 532.189v53.623h-11.234v-22.466h-11.233v22.466H542.2v-39.339a16.878 16.878 0 0 1 16.873-16.873h14.284a2.575 2.575 0 0 1 2.543 2.589zm-11.233 8.644h-5.593a5.554 5.554 0 0 0-5.64 5.547v5.64h11.233z" transform="translate(-445.47 -452.122)" style="fill:#fff"/>
            <path data-name="Path 29709 - Outline" d="M557.729 527.1h14.284a3.651 3.651 0 0 1 2.613 1.1 3.739 3.739 0 0 1 1.085 2.644v54.779h-13.545v-22.466h-8.922v22.466H539.7v-40.494a18.016 18.016 0 0 1 18.029-18.029zm15.671 56.212v-52.468a1.442 1.442 0 0 0-.418-1.02 1.357 1.357 0 0 0-.969-.413h-14.284a15.735 15.735 0 0 0-15.717 15.717v38.183h8.922v-22.465h13.544v22.466zm-15.756-44.979h6.834v13.5h-13.545v-6.8a6.707 6.707 0 0 1 6.711-6.7zm4.523 2.312h-4.523a4.4 4.4 0 0 0-4.4 4.392v4.484h8.922z" transform="translate(-444.126 -450.778)" style="fill:#fff"/>
            <path data-name="Path 29710" d="M667.046 548.887V589.2h-11.233v-29.08l-5.64 5.64-5.64-5.64v29.08H633.3v-51.176a2.062 2.062 0 0 1 3.513-1.479l13.313 13.313 5.64-5.64 7.72-7.72a2.062 2.062 0 0 1 3.514 1.479v10.91z" transform="translate(-494.458 -455.507)" style="fill:#fff"/>
            <path data-name="Path 29710 - Outline" d="M663.574 533.395a3.291 3.291 0 0 1 2.229.884 3.192 3.192 0 0 1 1.007 2.354v9.754h.046v42.621h-13.543v-27.442l-4.484 4.484-4.484-4.484v27.442H630.8v-52.329a3.192 3.192 0 0 1 1.007-2.354 3.291 3.291 0 0 1 2.229-.884 3.166 3.166 0 0 1 2.25.942l12.5 12.5 12.542-12.542a3.166 3.166 0 0 1 2.246-.946zm.971 15.3h-.045v-12.062a.92.92 0 0 0-.925-.927.848.848 0 0 0-.615.265l-14.177 14.177-14.13-14.13a.848.848 0 0 0-.615-.265.92.92 0 0 0-.925.927v50.02h8.922v-30.714l6.8 6.8 6.8-6.8V586.7h8.922z" transform="translate(-493.113 -454.163)" style="fill:#fff"/>
        </g>
        <path data-name="Path 29711" d="M474.26 393.8c.231 2.5.416 4.623.693 6.7a59.511 59.511 0 0 1-.277 17.2 13.834 13.834 0 0 0-.231 3.375c.092 1.2-.37 1.387-1.433 1.433-2.265.046-2.311.093-2.08-2.265.277-2.727.693-5.409.832-8.136.277-6.749-5.455-10.447-11.649-7.535-4.715 2.173-6.472 5.778-5.409 10.91a67.216 67.216 0 0 0 2.173 6.934c.185.508.555 1.248-.37 1.433-.647.139-1.479.37-1.8-.647-1.757-5.455-3.883-10.863-4.946-16.5a52.9 52.9 0 0 1-1.017-8.136c0-.647.092-1.71-.971-1.526-.878.139-.509 1.017-.509 1.664.37 8.275 2.727 16.133 5.547 23.853.324.832.693 1.572-.462 2.034-1.248.508-1.2-.6-1.433-1.248a85.949 85.949 0 0 1-5.547-19.462 27.893 27.893 0 0 1-.185-4.808c0-.74 0-1.572-1.063-1.387-.878.139-.971.832-.786 1.525 1.525 7.3 2.265 14.793 4.946 21.819a9.282 9.282 0 0 0 1.248 2.542c.37.462.832 1.063 0 1.479-.693.324-1.572.878-2.219-.139a3.516 3.516 0 0 1-.37-.971A144.794 144.794 0 0 1 442.456 400c-.139-1.572-.878-2.126-2.358-1.664-.555.185-1.294.509-1.71.046-.508-.508.185-1.063.416-1.572 3.56-7.026 7.119-14.1 12.019-20.34 2.45-3.143 5.224-6.01 7.9-8.922.37-.416.6-.555 1.109-.139 4.715 3.7 9.893 6.8 14.192 11.048a101.993 101.993 0 0 1 11.557 13.313c1.063 1.479.971 1.664-.832 1.849a11.456 11.456 0 0 1-1.248.139c-1.572-.092-1.849.647-1.71 2.08.647 8.182 1.017 16.364-.324 24.5a6.541 6.541 0 0 1-.231 1.017c-.139.37-.37.832-.878.693-.462-.139-.231-.6-.231-.925.462-4.9.555-9.846.74-14.746a48.181 48.181 0 0 0-.971-10.632l-.139-.693c-.139-.555-.416-1.156-1.017-1.063-.878.185-.462.971-.37 1.479a40.987 40.987 0 0 1 .74 9.2 130.758 130.758 0 0 1-1.063 16.5c-.139 1.109-.74 1.341-1.525 1.294-1.017-.046-.462-.832-.416-1.387.139-7.627 1.526-15.3.185-22.929-.228-1.477-.182-3.046-2.031-4.346zm-7.9 6.472c2.4.092 3.883-.786 4.53-2.542a2.664 2.664 0 0 0-1.156-3.56c-2.45-1.2-3.883-3.19-5.177-5.455-1.248-2.173-3.883-2.034-5.224.092a6.589 6.589 0 0 0-.6 1.294 9.853 9.853 0 0 1-3.791 5.455 2.724 2.724 0 0 0-.971 3.19 3.477 3.477 0 0 0 4.761 2.358 13.911 13.911 0 0 1 7.623-.829zm5.547-13.961c.046-1.664-.971-3.143-2.173-3.19-1.387-.046-2.681 1.664-2.774 3.606-.092 1.618.971 3.19 2.173 3.19 1.337.003 2.723-1.753 2.767-3.602zm-15.3 2.265a3.979 3.979 0 0 0-2.126-3.56 1.494 1.494 0 0 0-2.08.324 3.694 3.694 0 0 0-.324 4.3c.046.046.046.092.092.139.647.971 1.341 1.942 2.681 1.618s1.659-1.523 1.75-2.817zm10.262-7.073c.046-1.757-.924-3.143-2.219-3.143-1.341.046-2.542 1.71-2.635 3.513-.092 1.942.832 3.282 2.219 3.282 1.289.096 2.584-1.66 2.63-3.648zm-6.194 1.942a5.112 5.112 0 0 0-1.156-3.421 2.09 2.09 0 0 0-2.034-.832 1.974 1.974 0 0 0-1.572 1.526 3.965 3.965 0 0 0 .647 3.837c.647.832 1.341 1.664 2.5 1.248a2.228 2.228 0 0 0 1.61-2.354z" transform="translate(-389.549 -364.771)" style="fill:#fff"/>
        <g data-name="Group 1748">
            <g data-name="Group 1747">
                <path data-name="Path 29712" d="M377.855 677.9h2.358a.541.541 0 0 1 .509.37l5.131 15.9a.543.543 0 0 1-.508.693h-2.034a.541.541 0 0 1-.509-.37l-.878-2.727a.541.541 0 0 0-.508-.37h-4.9a.541.541 0 0 0-.508.37l-.878 2.727a.541.541 0 0 1-.509.37h-2.034a.543.543 0 0 1-.509-.693l5.177-15.9a.721.721 0 0 1 .6-.37zm-.046 10.586h2.358a.527.527 0 0 0 .508-.693l-1.2-3.744a.53.53 0 0 0-1.017 0l-1.2 3.744a.577.577 0 0 0 .55.693z" transform="translate(-353.978 -531.867)" style="fill:#fff"/>
                <path data-name="Path 29713" d="M413.332 688.347h-2.265a.513.513 0 0 0-.509.509v5.455a.513.513 0 0 1-.508.509h-1.942a.513.513 0 0 1-.509-.509v-15.9a.513.513 0 0 1 .509-.509h5.224c3.744 0 5.455 2.219 5.455 5.224s-1.71 5.221-5.455 5.221zm-2.774-6.98v3.559a.513.513 0 0 0 .509.509h2.033c1.849 0 2.681-.832 2.681-2.311s-.832-2.311-2.681-2.311h-2.034a.591.591 0 0 0-.507.554z" transform="translate(-373.091 -531.867)" style="fill:#fff"/>
                <path data-name="Path 29714" d="M442.732 688.347h-2.265a.513.513 0 0 0-.508.509v5.455a.513.513 0 0 1-.508.509h-1.942a.513.513 0 0 1-.508-.509v-15.9a.513.513 0 0 1 .508-.509h5.224c3.744 0 5.455 2.219 5.455 5.224s-1.711 5.221-5.456 5.221zm-2.774-6.98v3.559a.513.513 0 0 0 .508.509h2.034c1.849 0 2.681-.832 2.681-2.311s-.832-2.311-2.681-2.311h-2.034a.591.591 0 0 0-.508.554z" transform="translate(-388.9 -531.867)" style="fill:#fff"/>
                <path data-name="Path 29715" d="M467.855 677.9h2.358a.541.541 0 0 1 .508.37l5.131 15.9a.543.543 0 0 1-.509.693h-2.034a.541.541 0 0 1-.509-.37l-.878-2.727a.541.541 0 0 0-.508-.37h-4.9a.541.541 0 0 0-.508.37l-.878 2.727a.541.541 0 0 1-.509.37h-2.034a.543.543 0 0 1-.509-.693l5.177-15.9a.787.787 0 0 1 .602-.37zm0 10.586h2.358a.527.527 0 0 0 .508-.693l-1.2-3.744a.53.53 0 0 0-1.017 0l-1.2 3.744a.555.555 0 0 0 .551.693z" transform="translate(-402.374 -531.867)" style="fill:#fff"/>
                <path data-name="Path 29716" d="m505.235 688.355 2.82 5.825a.505.505 0 0 1-.462.74h-2.08a.508.508 0 0 1-.462-.277l-3.143-6.426a.509.509 0 0 0-.462-.277h-.277a.513.513 0 0 0-.508.508v5.963a.513.513 0 0 1-.508.508h-1.942a.513.513 0 0 1-.509-.508v-15.9a.513.513 0 0 1 .509-.508h5.27c3.744 0 5.455 2.126 5.455 4.946a4.5 4.5 0 0 1-3.282 4.669.535.535 0 0 0-.419.737zm-4.623-6.934v3a.513.513 0 0 0 .508.508h2.08c1.849 0 2.681-.693 2.681-2.034s-.832-2.034-2.681-2.034h-2.08a.591.591 0 0 0-.508.56z" transform="translate(-421.541 -531.921)" style="fill:#fff"/>
                <path data-name="Path 29717" d="M537.17 678.347v1.853a.513.513 0 0 1-.508.508h-6.148a.513.513 0 0 0-.509.509v3.051a.513.513 0 0 0 .509.509h5.686a.513.513 0 0 1 .508.508v1.8a.513.513 0 0 1-.508.508h-5.686a.513.513 0 0 0-.509.509v3.143a.513.513 0 0 0 .509.508h6.194a.513.513 0 0 1 .509.509v1.849a.513.513 0 0 1-.509.508h-9.2a.513.513 0 0 1-.508-.508v-15.9a.513.513 0 0 1 .508-.508h9.107a.685.685 0 0 1 .555.644z" transform="translate(-437.296 -531.76)" style="fill:#fff"/>
                <path data-name="Path 29718" d="M554.3 694.311v-15.9a.513.513 0 0 1 .508-.508h1.9a.513.513 0 0 1 .508.508V691.4a.513.513 0 0 0 .509.509h6.333a.513.513 0 0 1 .508.508v1.849a.513.513 0 0 1-.508.509h-9.292c-.235.09-.466-.187-.466-.464z" transform="translate(-451.976 -531.867)" style="fill:#fff"/>
                <path data-name="Path 29719" d="M581.54 711.628a.512.512 0 0 0-.185-.647 1.5 1.5 0 0 1-.555-1.2 1.4 1.4 0 0 1 1.433-1.479 1.516 1.516 0 0 1 1.109 2.45l-.832 1.387a.569.569 0 0 1-.462.231h-.139a.546.546 0 0 1-.37-.74z" transform="translate(-466.226 -548.214)" style="fill:#fff"/>
                <path data-name="Path 29720" d="M615.27 687.654v-9.245a.513.513 0 0 1 .508-.508h1.942a.513.513 0 0 1 .509.508v9.384c0 4.715-2.635 7.119-6.564 7.119s-6.564-2.4-6.564-7.119v-9.384a.513.513 0 0 1 .509-.508h1.942a.513.513 0 0 1 .509.508v9.245c0 2.912 1.109 4.3 3.606 4.3 2.54-.001 3.603-1.342 3.603-4.3z" transform="translate(-479.293 -531.867)" style="fill:#fff"/>
                <path data-name="Path 29721" d="M643.617 694.85a7.557 7.557 0 0 1-5.686-2.358.5.5 0 0 1-.046-.647l1.109-1.572a.577.577 0 0 1 .786-.092 6.189 6.189 0 0 0 4.114 1.71c1.479 0 2.5-.786 2.5-1.9 0-2.959-8.275-1.664-8.275-7.443 0-2.912 2.127-4.854 5.27-4.854a6.812 6.812 0 0 1 5.27 2.265.5.5 0 0 1 0 .693l-1.2 1.387a.573.573 0 0 1-.786.046 4.559 4.559 0 0 0-3.19-1.433c-1.433 0-2.4.786-2.4 1.9 0 3.282 8.321 1.9 8.321 7.489-.004 3.053-2.458 4.809-5.787 4.809z" transform="translate(-496.869 -531.76)" style="fill:#fff"/>
                <path data-name="Path 29722" d="M672.562 677.9h2.358a.541.541 0 0 1 .508.37l5.131 15.9a.543.543 0 0 1-.508.693h-2.034a.541.541 0 0 1-.508-.37l-.878-2.727a.541.541 0 0 0-.508-.37h-4.9a.541.541 0 0 0-.508.37l-.878 2.727a.541.541 0 0 1-.508.37h-1.942a.543.543 0 0 1-.508-.693l5.177-15.9a.5.5 0 0 1 .506-.37zm-.046 10.586h2.357a.527.527 0 0 0 .509-.693l-1.2-3.744a.53.53 0 0 0-1.017 0l-1.2 3.744a.577.577 0 0 0 .551.693z" transform="translate(-512.501 -531.867)" style="fill:#fff"/>
                <path data-name="Path 29723" d="M702.779 708.3a1.48 1.48 0 0 1 0 2.959 1.479 1.479 0 0 1 0-2.959z" transform="translate(-531.023 -548.214)" style="fill:#fff"/>
            </g>
        </g>
    </g>
</svg>
