<svg xmlns="http://www.w3.org/2000/svg" width="73.08" height="62.677" viewBox="0 0 73.08 62.677">
    <g data-name="Logo N-01">
        <g data-name="Group 1745">
            <g data-name="Group 1744">
                <path data-name="Path 29704" d="m350.953 387.861 1.483 8.1a6.734 6.734 0 0 1-5.119 7.431c-2.065.512-4.13 1.112-6.16 1.747q-2.807-8.79-5.631-17.6a2.412 2.412 0 0 1 1.889-2.806 117.42 117.42 0 0 1 4.889-1.341c3.46-.844 7.925.568 8.649 4.469zm-2.93 9.019c-.618-2.683-1.218-5.366-1.836-8.049a2.255 2.255 0 0 0-2.877-1.43c-.971.247-1.447.371-2.4.635 1.094 3.971 2.171 7.943 3.265 11.932.865-.229 1.288-.353 2.153-.565a2.644 2.644 0 0 0 1.377-.953 2.262 2.262 0 0 0 .318-1.57z" transform="translate(-335.006 -379.423)" style="fill:#ca2027"/>
                <path data-name="Path 29704 - Outline" d="M342.25 380.659a8.348 8.348 0 0 1 4.461 1.23 5.711 5.711 0 0 1 2.62 3.833l1.483 8.106a6.366 6.366 0 0 1-.109 2.631 7.26 7.26 0 0 1-1.086 2.384 7.385 7.385 0 0 1-1.849 1.863 6.589 6.589 0 0 1-2.411 1.058 105.17 105.17 0 0 0-6.127 1.738l-.419.131-.133-.418c-.935-2.929-1.891-5.912-2.815-8.8s-1.88-5.87-2.816-8.8a2.311 2.311 0 0 1 .189-1.783 3.324 3.324 0 0 1 1.992-1.58c1.338-.393 3.105-.9 4.908-1.346a8.868 8.868 0 0 1 2.112-.247zm6.213 5.224c-.556-3-3.522-4.342-6.213-4.342a7.981 7.981 0 0 0-1.9.224c-1.785.441-3.539.946-4.869 1.336a2.439 2.439 0 0 0-1.466 1.146 1.433 1.433 0 0 0-.129 1.1c.935 2.93 1.891 5.913 2.815 8.8.88 2.748 1.789 5.585 2.682 8.38a104.576 104.576 0 0 1 5.767-1.624h.015a6.273 6.273 0 0 0 4.775-6.922zm-6.5-1.069a3.086 3.086 0 0 1 .885.127 2.736 2.736 0 0 1 .773.367 2.373 2.373 0 0 1 .6.588 2.17 2.17 0 0 1 .345.779c.309 1.341.618 2.705.918 4.024s.609 2.682.918 4.023a2.423 2.423 0 0 1-.011.992 2.549 2.549 0 0 1-.371.925 3.065 3.065 0 0 1-1.636 1.135c-.6.147-.98.25-1.461.379l-.684.183-.423.112-.116-.422a2888.92 2888.92 0 0 1-1.375-5.03c-.618-2.263-1.256-4.6-1.89-6.9l-.117-.424.424-.118a97.157 97.157 0 0 1 2.41-.638 3.355 3.355 0 0 1 .809-.102zm2.206 12.1a2.213 2.213 0 0 0 1.113-.766l.007-.011a1.844 1.844 0 0 0 .25-1.22c-.309-1.342-.619-2.706-.918-4.026s-.609-2.682-.917-4.023a1.683 1.683 0 0 0-1.74-1.172 2.474 2.474 0 0 0-.6.075c-.8.2-1.273.326-1.966.516.6 2.163 1.194 4.355 1.773 6.478l1.259 4.606.258-.069c.485-.132.869-.235 1.479-.385z" transform="translate(-332.95 -377.365)" style="fill:#ca2027"/>
                <path data-name="Path 29705" d="M564.038 386.172c-.265-.035-.406-.053-.671-.106a7.62 7.62 0 0 1-5.154-3.636c-.07-.159-.124-.229-.194-.371-.106.141-.159.212-.265.335a7.608 7.608 0 0 1-5.683 2.7c-.265 0-.406-.018-.671-.018l.424-19.521a1.238 1.238 0 0 1 1.376-1.055c.971.035 1.447.053 2.4.106a1.224 1.224 0 0 1 1.271 1.165l-.741 11.526a109.968 109.968 0 0 1 2.577-3.283 83.163 83.163 0 0 1 1.977 3.671l1.218-11.473a1.241 1.241 0 0 1 1.465-.935c.953.106 1.43.176 2.4.3a1.235 1.235 0 0 1 1.183 1.271q-1.377 9.134-2.736 18.268z" transform="translate(-512.843 -364.056)" style="fill:#ca2027"/>
                <path data-name="Path 29705 - Outline" d="m562.3 384.608-.47-.063a11.12 11.12 0 0 1-.649-.1 8.047 8.047 0 0 1-3.145-1.334 7.88 7.88 0 0 1-2.192-2.316 8.069 8.069 0 0 1-5.873 2.688c-.142 0-.25 0-.354-.009s-.193-.008-.316-.008h-.451l.01-.451.216-9.951q.1-4.783.208-9.571a1.432 1.432 0 0 1 .563-1.083 1.946 1.946 0 0 1 1.214-.405h.057c.955.035 1.435.052 2.407.106a1.885 1.885 0 0 1 1.311.6 1.421 1.421 0 0 1 .377 1.035l-.37 5.753-.278 4.321c.535-.691 1-1.268 1.7-2.138l.408-.5.319.563c.547.966.9 1.61 1.309 2.381l.456-4.292c.2-1.873.4-3.81.607-5.72v-.014a1.43 1.43 0 0 1 .588-.981 1.888 1.888 0 0 1 1.12-.355 2.1 2.1 0 0 1 .246.015c.668.074 1.095.13 1.635.2l.771.1h.007a1.931 1.931 0 0 1 1.269.721 1.405 1.405 0 0 1 .279 1.048c-.9 5.987-1.836 12.178-2.736 18.267v.008zm-5.8-4.436a7.185 7.185 0 0 0 4.84 3.4h.007c.083.017.154.03.22.041l.1-.63c.9-6.088 1.833-12.279 2.735-18.265a.53.53 0 0 0-.113-.391 1.06 1.06 0 0 0-.693-.378l-.77-.1c-.536-.07-.959-.126-1.619-.2a1.212 1.212 0 0 0-.143-.008 1 1 0 0 0-.595.182.559.559 0 0 0-.237.373c-.2 1.909-.408 3.845-.607 5.717l-.611 5.753-.156 1.474-.675-1.319c-.661-1.292-1.04-2-1.649-3.09-.789.979-1.284 1.615-2.16 2.767l-.885 1.165.094-1.46.371-5.772.37-5.752a.546.546 0 0 0-.153-.392 1 1 0 0 0-.7-.305c-.964-.054-1.441-.071-2.389-.105h-.028a1.063 1.063 0 0 0-.664.212.565.565 0 0 0-.231.417q-.1 4.789-.208 9.569-.1 4.754-.206 9.513h.218a7.148 7.148 0 0 0 5.344-2.539l.006-.008c.1-.113.144-.175.247-.313l.428-.571.319.639c.024.048.046.087.07.129.039.075.08.145.123.247z" transform="translate(-510.739 -361.997)" style="fill:#ca2027"/>
                <path data-name="Path 29706" d="M656.681 383.458c1.942.512 3.865 1.041 5.789 1.606a1.562 1.562 0 0 1 1.218 1.818c-.177.529-.247.794-.424 1.324a1.549 1.549 0 0 1-1.994.812 196.751 196.751 0 0 0-5.6-1.553 2.271 2.271 0 0 0-2.877 1.43c-.618 2.683-1.218 5.366-1.836 8.031a2.185 2.185 0 0 0 1.694 2.524c.865.212 1.288.335 2.153.565.441-1.589.653-2.383 1.094-3.971-.883-.247-1.341-.353-2.224-.582.406-1.606.6-2.4 1.006-3.989 2.33.583 4.642 1.236 6.919 1.977-1.253 3.918-2.506 7.854-3.777 11.773a93.526 93.526 0 0 0-6.16-1.747c-3.124-.794-5.842-4.077-5.119-7.431l1.483-8.1c.748-3.94 5.213-5.352 8.655-4.487z" transform="translate(-591.101 -379.469)" style="fill:#ca2027"/>
                <path data-name="Path 29706 - Outline" d="M652.6 380.714a8.729 8.729 0 0 1 2.126.258c2.1.555 4 1.081 5.8 1.609h.008a2.326 2.326 0 0 1 1.379 1.107 1.649 1.649 0 0 1 .128 1.265v.006c-.087.261-.149.46-.209.653s-.124.4-.214.667a1.64 1.64 0 0 1-.716.9 2.119 2.119 0 0 1-1.119.306 2.416 2.416 0 0 1-.706-.106c-1.647-.486-3.42-.978-5.579-1.549a2.4 2.4 0 0 0-.588-.074 1.71 1.71 0 0 0-1.749 1.178c-.277 1.2-.555 2.426-.824 3.609-.33 1.45-.671 2.95-1.011 4.419a1.738 1.738 0 0 0 1.371 2c.61.149.994.253 1.479.384l.258.07c.165-.6.3-1.086.43-1.563s.265-.967.429-1.561c-.381-.1-.694-.183-1.042-.271l-.75-.192-.424-.11.108-.425.407-1.618c.182-.725.353-1.409.6-2.373l.109-.425.426.106c2.432.608 4.769 1.276 6.949 1.985l.417.136-.134.418-.732 2.289c-.994 3.111-2.022 6.328-3.046 9.485l-.136.419-.419-.135a94.17 94.17 0 0 0-6.131-1.739 7.749 7.749 0 0 1-4.25-2.923 6.876 6.876 0 0 1-1.133-2.362 5.773 5.773 0 0 1-.06-2.659l1.482-8.1a5.776 5.776 0 0 1 2.621-3.851 8.265 8.265 0 0 1 4.445-1.233zm1.909 1.113a7.85 7.85 0 0 0-1.909-.231c-2.675 0-5.628 1.351-6.2 4.367l-1.485 8.114c-.686 3.179 1.976 6.193 4.795 6.91a95.048 95.048 0 0 1 5.768 1.622c.978-3.021 1.959-6.091 2.91-9.064l.6-1.87a103.503 103.503 0 0 0-6.046-1.726c-.19.747-.336 1.331-.49 1.943l-.3 1.193.321.082c.474.12.883.224 1.487.394l.424.119-.118.424c-.221.794-.386 1.4-.547 1.984s-.327 1.192-.548 1.987l-.117.42-.422-.112-.684-.183a55.48 55.48 0 0 0-1.462-.379 2.8 2.8 0 0 1-1.641-1.138 2.44 2.44 0 0 1-.376-1.909c.34-1.468.681-2.967 1.011-4.417.269-1.184.547-2.408.825-3.613a2.209 2.209 0 0 1 .354-.777 2.419 2.419 0 0 1 .6-.586 2.759 2.759 0 0 1 .772-.366 3.062 3.062 0 0 1 .88-.127 3.285 3.285 0 0 1 .807.1c2.17.573 3.951 1.068 5.607 1.557a1.539 1.539 0 0 0 .45.068.991.991 0 0 0 .994-.592v-.006c.087-.261.149-.46.209-.653s.124-.4.213-.667a.774.774 0 0 0-.07-.588 1.46 1.46 0 0 0-.856-.671 170.5 170.5 0 0 0-5.754-1.609z" transform="translate(-589.041 -377.41)" style="fill:#ca2027"/>
            </g>
        </g>
        <g data-name="Group 1746">
            <path data-name="Path 29707" d="M371.643 533.889h-3.265v17.156h-4.289v-17.156h-3.265a1.024 1.024 0 0 1-1.024-1.024v-2.242a1.024 1.024 0 0 1 1.024-1.024h10.82a1.024 1.024 0 0 1 1.024 1.024v2.242a1 1 0 0 1-1.025 1.024z" transform="translate(-355.061 -500.017)" style="fill:#ca2027"/>
            <path data-name="Path 29707 - Outline" d="M358.765 527.1h10.82a1.467 1.467 0 0 1 1.465 1.465v2.235a1.409 1.409 0 0 1-.4 1.026 1.468 1.468 0 0 1-1.065.445h-2.824v17.156h-5.172v-17.155h-2.824a1.467 1.467 0 0 1-1.465-1.465v-2.242a1.467 1.467 0 0 1 1.465-1.465zm10.82 4.289a.593.593 0 0 0 .431-.177.534.534 0 0 0 .152-.392v-2.255a.583.583 0 0 0-.582-.583h-10.82a.583.583 0 0 0-.582.583v2.242a.583.583 0 0 0 .582.582h3.707v17.156h3.407v-17.156z" transform="translate(-353.002 -497.958)" style="fill:#ca2027"/>
            <path data-name="Path 29708" d="M463.232 533.971h-5.789a2.151 2.151 0 0 0-2.153 2.153v2.153h4.289v4.289h-4.289v4.307h7.925a.651.651 0 0 1 .653.653v2.983a.652.652 0 0 1-.653.653H451v-15.019a6.444 6.444 0 0 1 6.442-6.442h5.789a.652.652 0 0 1 .653.653v2.983a.66.66 0 0 1-.652.634z" transform="translate(-430.164 -500.099)" style="fill:#ca2027"/>
            <path data-name="Path 29708 - Outline" d="M455.384 527.2h5.789a1.092 1.092 0 0 1 1.094 1.094v3.006a1.1 1.1 0 0 1-1.094 1.055h-5.789a1.714 1.714 0 0 0-1.712 1.712v1.712h4.289v5.172h-4.289v3.424h7.484a1.093 1.093 0 0 1 1.094 1.094v2.983a1.093 1.093 0 0 1-1.094 1.094H448.5v-15.462a6.879 6.879 0 0 1 6.884-6.884zm6 4.063v-2.969a.21.21 0 0 0-.212-.212h-5.789a6.008 6.008 0 0 0-6 6v14.579h11.773a.21.21 0 0 0 .212-.212v-2.983a.21.21 0 0 0-.212-.212h-8.366v-5.189h4.289v-3.407h-4.289v-2.595a2.592 2.592 0 0 1 2.595-2.595h5.789a.219.219 0 0 0 .211-.204z" transform="translate(-428.105 -498.041)" style="fill:#ca2027"/>
            <path data-name="Path 29709" d="M555.067 530.589v20.474h-4.289v-8.578h-4.289v8.578H542.2v-15.021a6.444 6.444 0 0 1 6.442-6.442h5.458a.983.983 0 0 1 .967.989zm-4.289 3.3h-2.136a2.121 2.121 0 0 0-2.153 2.118v2.153h4.289z" transform="translate(-505.266 -500.017)" style="fill:#ca2027"/>
            <path data-name="Path 29709 - Outline" d="M546.584 527.1h5.454a1.394 1.394 0 0 1 1 .42 1.428 1.428 0 0 1 .414 1.009v20.916h-5.172v-8.578h-3.407v8.578H539.7v-15.461a6.879 6.879 0 0 1 6.884-6.884zm5.983 21.463V528.53a.551.551 0 0 0-.16-.389.517.517 0 0 0-.37-.158h-5.454a6.008 6.008 0 0 0-6 6v14.579h3.406v-8.578h5.172v8.578zm-6.016-17.174h2.609v5.154h-5.172v-2.595a2.561 2.561 0 0 1 2.562-2.56zm1.727.883h-1.727a1.68 1.68 0 0 0-1.68 1.677v1.712h3.407z" transform="translate(-503.208 -497.958)" style="fill:#ca2027"/>
            <path data-name="Path 29710" d="M646.185 540.855v15.391H641.9v-11.1l-2.153 2.153-2.153-2.153v11.1H633.3v-19.538a.787.787 0 0 1 1.341-.565l5.083 5.083 2.153-2.153 2.948-2.948a.787.787 0 0 1 1.342.565v4.165z" transform="translate(-580.287 -505.201)" style="fill:#ca2027"/>
            <path data-name="Path 29710 - Outline" d="M643.314 533.395a1.257 1.257 0 0 1 .851.338 1.219 1.219 0 0 1 .385.9v3.724h.018v16.274H639.4v-10.48l-1.712 1.712-1.712-1.712v10.478H630.8v-19.98a1.219 1.219 0 0 1 .385-.9 1.257 1.257 0 0 1 .851-.338 1.209 1.209 0 0 1 .859.36l4.771 4.771 4.789-4.789a1.209 1.209 0 0 1 .859-.358zm.371 5.843h-.018v-4.607a.351.351 0 0 0-.353-.354.324.324 0 0 0-.235.1l-5.413 5.413-5.4-5.4a.324.324 0 0 0-.235-.1.351.351 0 0 0-.353.354v19.1h3.406V542.02l2.594 2.594 2.595-2.594v11.726h3.407z" transform="translate(-578.228 -503.142)" style="fill:#ca2027"/>
        </g>
        <path data-name="Path 29711" d="M451.972 377.331c.088.953.159 1.765.265 2.559a22.724 22.724 0 0 1-.106 6.566 5.28 5.28 0 0 0-.088 1.289c.035.459-.141.529-.547.547-.865.018-.883.035-.794-.865.106-1.041.265-2.065.318-3.106.106-2.577-2.083-3.989-4.448-2.877a3.372 3.372 0 0 0-2.065 4.165 25.648 25.648 0 0 0 .83 2.648c.071.194.212.477-.141.547-.247.053-.565.141-.688-.247a52.726 52.726 0 0 1-1.889-6.3 20.2 20.2 0 0 1-.388-3.106c0-.247.035-.653-.371-.582-.335.053-.194.388-.194.635a30.568 30.568 0 0 0 2.118 9.108c.123.318.265.6-.177.777-.477.194-.459-.229-.547-.477a32.821 32.821 0 0 1-2.118-7.431 10.652 10.652 0 0 1-.071-1.836c0-.282 0-.6-.406-.53-.335.053-.371.318-.3.582.582 2.789.865 5.648 1.889 8.331a3.542 3.542 0 0 0 .477.971c.141.177.318.406 0 .565-.265.124-.6.335-.847-.053a1.34 1.34 0 0 1-.141-.371 55.292 55.292 0 0 1-1.712-9.143c-.053-.6-.335-.812-.9-.635-.212.071-.494.194-.653.018-.194-.194.071-.406.159-.6a45.826 45.826 0 0 1 4.589-7.766c.935-1.2 1.994-2.295 3.018-3.407.141-.159.229-.212.424-.053a59.457 59.457 0 0 1 5.419 4.218 38.943 38.943 0 0 1 4.413 5.083c.406.565.371.635-.318.706a4.37 4.37 0 0 1-.477.053c-.6-.035-.706.247-.653.794a38.58 38.58 0 0 1-.124 9.355 2.5 2.5 0 0 1-.088.388c-.053.141-.141.318-.335.265-.177-.053-.088-.229-.088-.353.176-1.871.212-3.76.282-5.63a18.4 18.4 0 0 0-.371-4.06l-.053-.265c-.053-.212-.159-.441-.388-.406-.335.071-.176.371-.141.565a15.647 15.647 0 0 1 .282 3.512 49.91 49.91 0 0 1-.406 6.3c-.053.424-.282.512-.582.494-.388-.018-.176-.318-.159-.53.053-2.912.582-5.842.071-8.755a2 2 0 0 0-.78-1.657zm-3.018 2.471a1.558 1.558 0 0 0 1.73-.971 1.017 1.017 0 0 0-.441-1.359 4.7 4.7 0 0 1-1.977-2.083 1.116 1.116 0 0 0-1.995.035 2.518 2.518 0 0 0-.229.494 3.762 3.762 0 0 1-1.448 2.082 1.04 1.04 0 0 0-.371 1.218 1.328 1.328 0 0 0 1.818.9 5.311 5.311 0 0 1 2.913-.318zm2.118-5.33c.018-.635-.371-1.2-.83-1.218-.53-.018-1.024.635-1.059 1.377-.035.618.371 1.218.829 1.218.513-.001 1.042-.671 1.06-1.377zm-5.842.865a1.519 1.519 0 0 0-.812-1.359.57.57 0 0 0-.794.124 1.41 1.41 0 0 0-.124 1.641c.018.018.018.035.035.053.247.371.512.741 1.024.618s.636-.583.671-1.078zm3.918-2.7c.018-.671-.353-1.2-.847-1.2-.512.018-.971.653-1.006 1.341-.035.741.318 1.253.847 1.253.494.035.989-.636 1.006-1.395zm-2.365.741a1.952 1.952 0 0 0-.441-1.306.8.8 0 0 0-.777-.318.754.754 0 0 0-.6.583 1.514 1.514 0 0 0 .247 1.465c.247.318.512.635.953.476a.851.851 0 0 0 .618-.901z" transform="translate(-419.628 -366.246)" style="fill:#ca2027"/>
        <g data-name="Group 1748">
            <g data-name="Group 1747">
                <path data-name="Path 29712" d="M9.117 55.758h.9a.206.206 0 0 1 .194.141l1.959 6.072a.207.207 0 0 1-.194.265h-.777a.206.206 0 0 1-.194-.141l-.335-1.041a.207.207 0 0 0-.194-.141H8.605a.207.207 0 0 0-.194.141l-.335 1.041a.207.207 0 0 1-.194.141h-.777a.207.207 0 0 1-.194-.265l1.977-6.072a.275.275 0 0 1 .229-.141zM9.099 59.8h.9a.2.2 0 0 0 .194-.265l-.459-1.43a.2.2 0 0 0-.388 0l-.459 1.43a.22.22 0 0 0 .212.265z"/>
                <path data-name="Path 29713" d="M15.366 59.747h-.865a.2.2 0 0 0-.194.194v2.083a.2.2 0 0 1-.194.194h-.741a.2.2 0 0 1-.194-.194v-6.072a.2.2 0 0 1 .194-.194h1.994a2 2 0 1 1 0 3.989zm-1.059-2.665v1.359a.2.2 0 0 0 .194.194h.777c.706 0 1.024-.318 1.024-.882s-.318-.883-1.024-.883h-.777a.226.226 0 0 0-.194.212z"/>
                <path data-name="Path 29714" d="M20.555 59.747h-.865a.2.2 0 0 0-.194.194v2.083a.2.2 0 0 1-.194.194h-.741a.2.2 0 0 1-.194-.194v-6.072a.2.2 0 0 1 .194-.194h1.994a2 2 0 1 1 0 3.989zm-1.059-2.665v1.359a.2.2 0 0 0 .194.194h.777c.706 0 1.024-.318 1.024-.882s-.318-.883-1.024-.883h-.777a.226.226 0 0 0-.194.212z"/>
                <path data-name="Path 29715" d="M25.002 55.758h.9a.206.206 0 0 1 .194.141l1.959 6.072a.207.207 0 0 1-.194.265h-.777a.206.206 0 0 1-.194-.141l-.335-1.041a.207.207 0 0 0-.194-.141H24.49a.207.207 0 0 0-.194.141l-.335 1.041a.207.207 0 0 1-.194.141h-.777a.207.207 0 0 1-.194-.265l1.977-6.072a.3.3 0 0 1 .229-.141zm0 4.042h.9a.2.2 0 0 0 .194-.265l-.459-1.43a.2.2 0 0 0-.388 0l-.459 1.43a.212.212 0 0 0 .212.265z"/>
                <path data-name="Path 29716" d="m31.957 59.73 1.077 2.224a.193.193 0 0 1-.176.282h-.794a.194.194 0 0 1-.176-.106l-1.2-2.453a.194.194 0 0 0-.177-.106h-.106a.2.2 0 0 0-.194.194v2.277a.2.2 0 0 1-.194.194h-.741a.2.2 0 0 1-.194-.194V55.97a.2.2 0 0 1 .194-.194h2.012a1.821 1.821 0 0 1 2.083 1.889 1.719 1.719 0 0 1-1.253 1.783.2.2 0 0 0-.161.282zm-1.765-2.647v1.147a.2.2 0 0 0 .194.194h.794c.706 0 1.024-.265 1.024-.776s-.318-.777-1.024-.777h-.794a.226.226 0 0 0-.194.211z"/>
                <path data-name="Path 29717" d="M38.134 55.97v.706a.2.2 0 0 1-.194.194h-2.347a.2.2 0 0 0-.194.194v1.165a.2.2 0 0 0 .194.194h2.171a.2.2 0 0 1 .194.194v.688a.2.2 0 0 1-.194.194h-2.171a.2.2 0 0 0-.194.194v1.2a.2.2 0 0 0 .194.194h2.365a.2.2 0 0 1 .194.194v.706a.2.2 0 0 1-.194.194h-3.512a.2.2 0 0 1-.194-.194v-6.072a.2.2 0 0 1 .194-.194h3.477a.262.262 0 0 1 .211.249z"/>
                <path data-name="Path 29718" d="M39.07 62.024v-6.072a.2.2 0 0 1 .194-.194h.724a.2.2 0 0 1 .194.194v4.96a.2.2 0 0 0 .194.194h2.418a.2.2 0 0 1 .194.194v.706a.2.2 0 0 1-.194.194h-3.548c-.088.036-.176-.07-.176-.176z"/>
                <path data-name="Path 29719" d="M44.029 62.395a.2.2 0 0 0-.07-.247.571.571 0 0 1-.212-.459.533.533 0 0 1 .547-.565.579.579 0 0 1 .424.936l-.318.529a.218.218 0 0 1-.176.088h-.053a.208.208 0 0 1-.141-.282z"/>
                <path data-name="Path 29720" d="M51.919 59.482v-3.53a.2.2 0 0 1 .194-.194h.741a.2.2 0 0 1 .194.194v3.583a2.515 2.515 0 1 1-5.013 0v-3.583a.2.2 0 0 1 .194-.194h.741a.2.2 0 0 1 .194.194v3.53c0 1.112.424 1.641 1.377 1.641.972.001 1.378-.511 1.378-1.641z"/>
                <path data-name="Path 29721" d="M56.032 62.271a2.885 2.885 0 0 1-2.171-.9.189.189 0 0 1-.018-.247l.424-.6a.22.22 0 0 1 .3-.036 2.363 2.363 0 0 0 1.571.653c.565 0 .953-.3.953-.724 0-1.13-3.159-.635-3.159-2.842a1.834 1.834 0 0 1 2.012-1.853 2.6 2.6 0 0 1 2.012.865.192.192 0 0 1 0 .265l-.459.529a.218.218 0 0 1-.3.018 1.741 1.741 0 0 0-1.218-.547c-.547 0-.918.3-.918.724 0 1.253 3.177.724 3.177 2.859 0 1.166-.936 1.836-2.206 1.836z"/>
                <path data-name="Path 29722" d="M61.115 55.758h.9a.207.207 0 0 1 .194.141l1.959 6.072a.207.207 0 0 1-.194.265h-.777a.206.206 0 0 1-.194-.141l-.335-1.041a.206.206 0 0 0-.194-.141h-1.871a.207.207 0 0 0-.194.141l-.335 1.041a.207.207 0 0 1-.194.141h-.741a.207.207 0 0 1-.194-.265l1.977-6.072a.191.191 0 0 1 .193-.141zm-.018 4.042h.9a.2.2 0 0 0 .194-.265l-.459-1.43a.2.2 0 0 0-.388 0l-.459 1.43a.22.22 0 0 0 .212.265z"/>
                <path data-name="Path 29723" d="M65.581 61.124a.565.565 0 0 1 0 1.13.565.565 0 1 1 0-1.13z"/>
            </g>
        </g>
    </g>
</svg>
