<svg xmlns="http://www.w3.org/2000/svg" width="95" height="95" viewBox="0 0 95 95">
    <g data-name="Group 1899">
        <g data-name="Ellipse 60" style="fill:#1257c6;stroke:#000;stroke-width:2px">
            <circle cx="47.5" cy="47.5" r="47.5" style="stroke:none"/>
            <circle cx="47.5" cy="47.5" r="46.5" style="fill:none"/>
        </g>
        <path data-name="Path 29781" d="M56.9 27.113a37.366 37.366 0 0 0 1.1-14 2.527 2.527 0 0 0-3.143-2.2c-6.243 1.609-9.943 4.316-12.03 6.471a29.959 29.959 0 0 0-13.08 0c-2.087-2.155-5.787-4.862-12.03-6.471a2.527 2.527 0 0 0-3.143 2.2 37.366 37.366 0 0 0 1.1 14C12.514 31.854 11 39.166 11 44.759c0 5 8.344 16.667 25.289 16.667s25.288-11.664 25.288-16.667c0-5.593-1.514-12.905-4.674-17.646z" transform="translate(12.423 8.286)" style="fill:#f29555"/>
        <path data-name="Path 29782" d="M57.005 302.62c-5.23 0-7.488 5.174-13.265 5.174s-8.035-5.174-13.265-5.174c-7.586 0-10.8 6.382-11.166 7.151 2.522 5.574 10.619 13.326 24.431 13.326s21.909-7.752 24.431-13.326c-.361-.771-3.58-7.151-11.166-7.151z" transform="translate(4.971 -253.385)" style="fill:#f7e3cd"/>
        <path data-name="Path 29783" d="M43.638 379.584c-11.446 0-19.525-4.565-24.3-9.539l-.03.062c2.522 5.574 10.619 13.326 24.431 13.326s21.909-7.752 24.431-13.326a11.765 11.765 0 0 0-.1-.206c-4.754 5.031-12.878 9.683-24.432 9.683z" transform="translate(4.971 -313.72)" style="fill:#f2c59e"/>
        <g data-name="Group 1897">
            <path data-name="Path 29784" d="M52.082 56.6a41.9 41.9 0 0 0-4.1-3.958c-3.1-2.042-4.4.619-4.4.619A34.961 34.961 0 0 0 44.77 63.53a42.722 42.722 0 0 1 8.849-6.09 2.858 2.858 0 0 1-1.54-.84z" transform="translate(-16.788 -28.521)" style="fill:#f7e3cd"/>
            <path data-name="Path 29785" d="M372.62 56.6a41.9 41.9 0 0 1 4.1-3.958c3.1-2.042 4.4.619 4.4.619a34.963 34.963 0 0 1-1.188 10.269 42.721 42.721 0 0 0-8.849-6.09 2.858 2.858 0 0 0 1.54-.84z" transform="translate(-310.489 -28.521)" style="fill:#f7e3cd"/>
            <path data-name="Path 29786" d="M166.331 179.839a2.191 2.191 0 0 1-2.38 1.929 2.524 2.524 0 0 1-2.381-2.342c0-1.065 1.066-1.516 2.381-1.516a2.19 2.19 0 0 1 2.38 1.929z" transform="translate(-122.605 -141.548)" style="fill:#f7e3cd"/>
            <path data-name="Path 29787" d="M305.84 179.839a2.192 2.192 0 0 0 2.381 1.929 2.526 2.526 0 0 0 2.383-2.342c0-1.065-1.066-1.516-2.38-1.516a2.2 2.2 0 0 0-2.384 1.929z" transform="translate(-251.983 -141.548)" style="fill:#f7e3cd"/>
        </g>
        <path data-name="Path 29788" d="M194.982 376.63a6.936 6.936 0 0 1-7.112 2.5v.17s1.006 4.818 7.032 4.818 7.031-4.818 7.031-4.818v-.133a6.939 6.939 0 0 1-6.951-2.537z" transform="translate(-146.19 -319.756)" style="fill:#aa0c18"/>
        <path data-name="Path 29789" d="M70.536 35.212a38.586 38.586 0 0 0 1.006-13.989 3.573 3.573 0 0 0-4.446-3.11 26.652 26.652 0 0 0-12.149 6.362 31.291 31.291 0 0 0-12.471 0 26.658 26.658 0 0 0-12.148-6.362 3.573 3.573 0 0 0-4.446 3.11 38.586 38.586 0 0 0 1.006 13.989c-3.388 5.368-4.6 12.933-4.6 17.878 0 2.692 2.064 7.149 6.683 11.037 3.644 3.068 10.026 6.725 19.741 6.725s16.1-3.657 19.741-6.725c4.619-3.888 6.683-8.345 6.683-11.037 0-4.94-1.212-12.5-4.6-17.873zm-2.923-15.094a1.477 1.477 0 0 1 1.226.223 1.5 1.5 0 0 1 .636 1.086c.03.3.059.64.086 1a3.442 3.442 0 0 0-.188-.059 4.433 4.433 0 0 0-3.65.826 36.833 36.833 0 0 0-4.3 4.124 1.813 1.813 0 0 1-1.981.446 6.56 6.56 0 0 1-2.854-1.985 24.8 24.8 0 0 1 11.03-5.66zm-39.025.223a1.476 1.476 0 0 1 .851-.271 1.548 1.548 0 0 1 .38.049 24.813 24.813 0 0 1 11.027 5.66 6.543 6.543 0 0 1-2.868 1.987 1.815 1.815 0 0 1-1.99-.446 36.833 36.833 0 0 0-4.3-4.124 4.433 4.433 0 0 0-3.65-.826 3.442 3.442 0 0 0-.188.059c.027-.362.056-.7.086-1a1.5 1.5 0 0 1 .652-1.088zm38.532 42.2c-3.378 2.846-9.314 6.237-18.4 6.237s-15.032-3.394-18.413-6.24c-3.904-3.288-5.946-7.248-5.946-9.448 0-5.141 1.389-12.413 4.493-17.1a16.181 16.181 0 0 1 2.457-2.35 1.035 1.035 0 1 0-1.239-1.657 16.2 16.2 0 0 0-1.529 1.316 35.86 35.86 0 0 1-.794-8.309 1.606 1.606 0 0 1 .855-.619 2.563 2.563 0 0 1 1.961.559 39.413 39.413 0 0 1 3.935 3.819 3.875 3.875 0 0 0 4.246.948 8.167 8.167 0 0 0 4.1-3.174 29.04 29.04 0 0 1 11.752 0 8.167 8.167 0 0 0 4.1 3.174 3.875 3.875 0 0 0 4.246-.948 39.757 39.757 0 0 1 3.935-3.819 2.556 2.556 0 0 1 1.961-.559 1.608 1.608 0 0 1 .853.619 35.585 35.585 0 0 1-.794 8.312 16.2 16.2 0 0 0-1.529-1.316 1.036 1.036 0 1 0-1.244 1.657 16.168 16.168 0 0 1 2.462 2.347c3.1 4.682 4.493 11.954 4.493 17.1-.018 2.2-2.061 6.16-5.964 9.448z"/>
        <path data-name="Path 29790" d="M56.763 58.014a5.913 5.913 0 0 1-6.939-1.5v-.158a5.717 5.717 0 0 0 2.726-1.423 4.555 4.555 0 0 0 1.6-3.157c0-2.128-2.352-3.8-5.357-3.8s-5.357 1.667-5.357 3.8c0 1.87 1.858 4.08 4.325 4.581v.157a5.909 5.909 0 0 1-6.939 1.5 1.032 1.032 0 1 0-.771 1.915c.253.1.5.19.743.266a7.451 7.451 0 0 0 1.351 2.417 9.15 9.15 0 0 0 13.137 0 7.448 7.448 0 0 0 1.333-2.363q.45-.131.922-.321a1.032 1.032 0 1 0-.771-1.915zm-8.051 5.314c-3.221 0-4.765-1.548-5.471-2.72h.136a7.639 7.639 0 0 0 3.743-.98 8.471 8.471 0 0 0 1.672-1.228 8.5 8.5 0 0 0 1.672 1.228 7.638 7.638 0 0 0 3.716.98 5.5 5.5 0 0 1-.54.747 6.182 6.182 0 0 1-4.928 1.973z"/>
        <path data-name="Path 29791" d="M42.402 43.076a1.032 1.032 0 0 0-1.828-.96 4.218 4.218 0 0 1-4.321 2.2 1.032 1.032 0 0 0-.352 2.033 5.231 5.231 0 0 0 .893.072 6.217 6.217 0 0 0 5.608-3.345z"/>
        <path data-name="Path 29792" d="M62.227 45.152a1.032 1.032 0 0 0-1.2-.833 4.229 4.229 0 0 1-4.316-2.2 1.032 1.032 0 0 0-1.828.96 6.213 6.213 0 0 0 5.607 3.344 5.237 5.237 0 0 0 .894-.072 1.032 1.032 0 0 0 .838-1.2z"/>
    </g>
</svg>
