<svg xmlns="http://www.w3.org/2000/svg" width="46.1" height="39.989" viewBox="0 0 46.1 39.989">
    <g data-name="Group 1805">
        <g data-name="Group 480">
            <g data-name="Group 475">
                <path data-name="Path 5513" d="M892.1 649a8.147 8.147 0 0 0 8.7-2.3c5.6-6.5 10.7-13.6 11.6-21.9.5-5.2-1.4-11.6-7.3-12.3a9.339 9.339 0 0 0-5.4 1.2c-4 2.3-6.2 6.3-8.2 10.2a22.6 22.6 0 0 0-8.1-5.9c-4.8-1.6-8.8-.8-12.3 3.5a8.89 8.89 0 0 0-1.8 6.5c.6 6.6 5.1 12 10.6 15.4a55.286 55.286 0 0 0 12.2 5.6z" style="fill:#ffbc2a" transform="translate(-868.5 -610.8)"/>
                <g data-name="Group 474">
                    <g data-name="Group 473">
                        <g data-name="Group 472">
                            <path data-name="Path 5514" d="M892.3 648c.2.1.2-.1.2-.1-.4-.1-.3.1-.2.1z" style="fill:#fff" transform="translate(-868.5 -610.8)"/>
                            <path data-name="Path 5515" d="M889.1 647.2z" style="fill:#fff" transform="translate(-868.5 -610.8)"/>
                            <path data-name="Path 5516" d="M886.3 646.1c.1.4 1 .4 1.5.7l.1.1.3-.1a13.049 13.049 0 0 1-1.9-.7z" style="fill:#fff" transform="translate(-868.5 -610.8)"/>
                            <path data-name="Path 5517" d="M885.1 644.8c0 .1-.4 0 .3.2v-.1c-.1 0-.1 0-.3-.1z" style="fill:#fff" transform="translate(-868.5 -610.8)"/>
                            <path data-name="Path 5518" d="M885.4 645c.3.1-.2-.2 0 0z" style="fill:#fff" transform="translate(-868.5 -610.8)"/>
                            <path data-name="Path 5519" d="m884.1 644.4.4.1c0-.1-.4-.3-.2-.3-.5-.1-.4 0-.2.2z" style="fill:#fff" transform="translate(-868.5 -610.8)"/>
                            <path data-name="Path 5520" d="m883.6 644.4.2.1s0-.1-.2-.1z" style="fill:#fff" transform="translate(-868.5 -610.8)"/>
                            <path data-name="Path 5521" d="m884.3 644.6-.4-.1c0 .1 0 .2.2.1z" style="fill:#fff" transform="translate(-868.5 -610.8)"/>
                            <path data-name="Path 5522" d="M884.5 644.8c.2.2.4.3 0 .2.7.3.7.1 0-.2z" style="fill:#fff" transform="translate(-868.5 -610.8)"/>
                            <path data-name="Path 5523" d="m886 646.3.3.2h.3c-.2 0-.5-.3-.6-.2z" style="fill:#fff" transform="translate(-868.5 -610.8)"/>
                            <path data-name="Path 5524" d="M881.9 643.1c-.1 0 0 .2 0 .3l.3.1c-.1-.1-.4-.3-.3-.4z" style="fill:#fff" transform="translate(-868.5 -610.8)"/>
                            <path data-name="Path 5525" d="m881.9 643.4-.4-.1c.3.2.4.2.4.1z" style="fill:#fff" transform="translate(-868.5 -610.8)"/>
                            <path data-name="Path 5526" d="m883.4 644.7.8.1-.9-.1z" style="fill:#fff" transform="translate(-868.5 -610.8)"/>
                            <path data-name="Path 5527" d="M880.4 642.2z" style="fill:#fff" transform="translate(-868.5 -610.8)"/>
                            <path data-name="Path 5528" d="M879.5 641.6c.2 0-.1-.3.1-.3a2.613 2.613 0 0 0-.8-.3c.2.2.4.3.7.6z" style="fill:#fff" transform="translate(-868.5 -610.8)"/>
                            <path data-name="Path 5529" d="M878.4 640.9a.6.6 0 0 0 .4.1.6.6 0 0 1-.4-.1z" style="fill:#fff" transform="translate(-868.5 -610.8)"/>
                            <path data-name="Path 5530" d="M880.8 642.9c0-.1 0-.2-.2-.3l.1.2z" style="fill:#fff" transform="translate(-868.5 -610.8)"/>
                            <path data-name="Path 5531" d="M880.6 642.8a1.236 1.236 0 0 1-.3-.2c.1 0 .2.1.3.2z" style="fill:#fff" transform="translate(-868.5 -610.8)"/>
                            <path data-name="Path 5532" d="M880.8 642.9z" style="fill:#fff" transform="translate(-868.5 -610.8)"/>
                            <path data-name="Path 5533" d="M882.4 644c-.3 0-.8-.2-.4.2.2 0 0-.2.4-.2z" style="fill:#fff" transform="translate(-868.5 -610.8)"/>
                            <path data-name="Path 5534" d="m880.9 643.2.4.3s0-.2.1-.1z" style="fill:#fff" transform="translate(-868.5 -610.8)"/>
                            <path data-name="Path 5535" d="m880.7 643.1.2.1-.1-.1z" style="fill:#fff" transform="translate(-868.5 -610.8)"/>
                            <path data-name="Path 5536" d="m879 641.6-.6-.3a2.652 2.652 0 0 0 .6.5c0-.1.2-.1 0-.2z" style="fill:#fff" transform="translate(-868.5 -610.8)"/>
                            <path data-name="Path 5537" d="M879.8 642.2z" style="fill:#fff" transform="translate(-868.5 -610.8)"/>
                            <path data-name="Path 5538" d="M876.4 639.6v.1h.1z" style="fill:#fff" transform="translate(-868.5 -610.8)"/>
                            <path data-name="Path 5539" d="M879 641.8a.4.4 0 0 0 .4.2.758.758 0 0 1-.4-.2z" style="fill:#fff" transform="translate(-868.5 -610.8)"/>
                            <path data-name="Path 5540" d="M877.8 640.6c.1.1.1.2.2.3 0-.1-.1-.3-.2-.3z" style="fill:#fff" transform="translate(-868.5 -610.8)"/>
                            <path data-name="Path 5541" d="M879.7 642.1z" style="fill:#fff" transform="translate(-868.5 -610.8)"/>
                            <path data-name="Path 5542" d="M879.7 642.1a.367.367 0 0 1-.3-.1.367.367 0 0 0 .3.1z" style="fill:#fff" transform="translate(-868.5 -610.8)"/>
                            <path data-name="Path 5543" d="M875.1 640c.2-.1.7.2.9.6.4.2.6-.4.5-.9-.1 0-.1.1-.5-.2 0 .2.6.9.2.7-.5-.4-.3-.4-.5-.7 0 .3-.8-.3-.9 0 .2.1.3.2.5.3-.1.1-.3 0-.2.2z" style="fill:#fff" transform="translate(-868.5 -610.8)"/>
                            <path data-name="Path 5544" d="m877.1 640.3.2.1a6.117 6.117 0 0 0-.4-.6 1.577 1.577 0 0 0-.4-.1l.6.6z" style="fill:#fff" transform="translate(-868.5 -610.8)"/>
                            <path data-name="Path 5545" d="M877.9 641c-.2.1-.7-.2-.6.2.5.3.4.1.7.3-.6-.7.4 0-.1-.5a1.381 1.381 0 0 1 .4.3c-.1-.2-.2-.3-.4-.3h.1c0-.1.1 0-.1 0-.2-.2 0-.1 0 0h.1c-.3-.2-.5-.3-.8-.5a2.309 2.309 0 0 1 .7.5z" style="fill:#fff" transform="translate(-868.5 -610.8)"/>
                            <path data-name="Path 5546" d="M881.3 644.3z" style="fill:#fff" transform="translate(-868.5 -610.8)"/>
                            <path data-name="Path 5547" d="M881 644a.367.367 0 0 1 .3.1c.1.1 0 .1-.1.1.1 0 .5.1.2-.2h-.1c-.3-.2-.6-.7-.5-.7a6.374 6.374 0 0 0 .2.7z" style="fill:#fff" transform="translate(-868.5 -610.8)"/>
                            <path data-name="Path 5548" d="M879.4 642.6a2.506 2.506 0 0 1-.7-.4l.2.4v-.1c.4.2.4.1.5.1z" style="fill:#fff" transform="translate(-868.5 -610.8)"/>
                            <path data-name="Path 5549" d="m876.4 639.5.2-.1-.5-.1z" style="fill:#fff" transform="translate(-868.5 -610.8)"/>
                            <path data-name="Path 5550" d="m875.7 638.8.1-.1-.2-.1z" style="fill:#fff" transform="translate(-868.5 -610.8)"/>
                            <path data-name="Path 5551" d="m900 612.3.2-.1c-.1 0-.1.1-.2.1z" style="fill:#fff" transform="translate(-868.5 -610.8)"/>
                            <path data-name="Path 5552" d="M898.4 613.2z" style="fill:#fff" transform="translate(-868.5 -610.8)"/>
                            <path data-name="Path 5553" d="M875.4 619.2c.3 0 .7.1.6 0l-.2-.1a.755.755 0 0 0-.4.1z" style="fill:#fff" transform="translate(-868.5 -610.8)"/>
                            <path data-name="Path 5554" d="m890.5 622.9-.1-.1h-.2c.1 0 .2.1.3.1z" style="fill:#fff" transform="translate(-868.5 -610.8)"/>
                            <path data-name="Path 5555" d="m890.8 622.1.2.3c-.1 0-.1-.2-.2-.3z" style="fill:#fff" transform="translate(-868.5 -610.8)"/>
                            <path data-name="Path 5556" d="m909.9 613.4.4.1c-.4-.4-.3-.1-.4-.1z" style="fill:#fff" transform="translate(-868.5 -610.8)"/>
                            <path data-name="Path 5557" d="M870.6 630.4v-.7c-.1.3-.2.6 0 .7z" style="fill:#fff" transform="translate(-868.5 -610.8)"/>
                            <path data-name="Path 5558" d="M900.3 614.4c.1-.1.1-.1.1-.2-.1.1-.2.1-.1.2z" style="fill:#fff" transform="translate(-868.5 -610.8)"/>
                            <path data-name="Path 5559" d="M870.4 628.9v.2c.1.2.1.4.2.6a1.078 1.078 0 0 0-.2-.8z" style="fill:#fff" transform="translate(-868.5 -610.8)"/>
                            <path data-name="Path 5560" d="M903.5 645z" style="fill:#fff" transform="translate(-868.5 -610.8)"/>
                            <path data-name="Path 5561" d="M894.8 648.6z" style="fill:#fff" transform="translate(-868.5 -610.8)"/>
                            <path data-name="Path 5562" d="M873.2 635.8c.2.1.1 0 0 0z" style="fill:#fff" transform="translate(-868.5 -610.8)"/>
                            <path data-name="Path 5563" d="M873.2 637z" style="fill:#fff" transform="translate(-868.5 -610.8)"/>
                            <path data-name="Path 5564" d="M869.1 626.9z" style="fill:#fff" transform="translate(-868.5 -610.8)"/>
                            <path data-name="Path 5565" d="M873.4 636.1c0-.1-.1-.2-.1-.3a.771.771 0 0 0 .1.3z" style="fill:#fff" transform="translate(-868.5 -610.8)"/>
                            <path data-name="Path 5566" d="M873.4 636c0 .1.1.1.1.2 0-.1 0-.1-.1-.2z" style="fill:#fff" transform="translate(-868.5 -610.8)"/>
                            <path data-name="Path 5567" d="M873.1 635.5c.1.1.1.2.2.3v-.1c-.1 0-.1-.1-.2-.2z" style="fill:#fff" transform="translate(-868.5 -610.8)"/>
                            <path data-name="Path 5568" d="M912.1 629c-.1 0-.1.1 0 0-.1.3 0 .2 0 0z" style="fill:#fff" transform="translate(-868.5 -610.8)"/>
                            <path data-name="Path 5569" d="M880.6 616.5z" style="fill:#fff" transform="translate(-868.5 -610.8)"/>
                            <path data-name="Path 5570" d="M881.5 616.5a.746.746 0 0 1-.8 0c.1.2.1.4.2.6a1.7 1.7 0 0 1 .6-.6z" style="fill:#fff" transform="translate(-868.5 -610.8)"/>
                            <path data-name="Path 5571" d="M904.4 611.4c-.2-.1-.4-.1-.6-.2.8-.3 1.4-.1.7-.4-.1.3-.7.3-1.3.3-.6.1-1.2.2-1.2.5h-.4c.1 0 .1-.1.2-.1-.8-.1-.5.5-1.4.8-.3.1-.6.1-.4 0a2.649 2.649 0 0 0-.6.5c-.2.1-.2 0 0-.1-.3.2-.7.4-1 .6a3.108 3.108 0 0 1-.4.6c-.3.1.1-.1 0-.2-.1.2-.3.3-.4.5-.3 0 0-.4.4-.6-.8-.1-.4.4-1.5 1l.4-.5c-.5 0-.8.4-1.4.8.2-.1 1.4-.6 1 0a1.024 1.024 0 0 0-.5.6c-.2-.1-.4.2-.7.5l-.2-.2c-.3.4-.1.5-.2.8-.4.4-.6.4-.8.4-.6.7.6-.3.1.6a4.454 4.454 0 0 0-1 1.8c-.3.4-.1-.2-.3-.1v.5c-.1.1-.1 0-.1 0-.1.4.2.2 0 .7.1.1-.1.3-.4.6l-.4.4a.367.367 0 0 0-.1.3c-.1 0-.1-.2-.2-.2 0 .3-.1.4-.1.6a3.217 3.217 0 0 1-.1.8v-.1l-.2-.4c.2.5 0 .6-.4.4a3.328 3.328 0 0 0 .3.6l-.8-.6c-.1-.1.1-.1.2-.1-.1 0-.1 0-.2-.1-.2-.3 0-.3.2-.3 0 .1.1.2.1.4.2 0 .3-.2.3-.4h-.1l.1-.1h-.2v-.4l-.1.1-.2-.3-.4-.5a10.071 10.071 0 0 1-2.8-1.1c.4 0 .3-.3.4-.5.1.4.9.5 1.4 1-.3-.2-.1-.3 0-.3a6.115 6.115 0 0 0-1.2-.5c.1-.2-.1-.3-.3-.5 0 .5-.9-.3-1.4-.4 0-.1.2-.2.7.2-.4-.6-1 0-1.4-.6a.367.367 0 0 0 .3.1c-.4-.1-1.1-.5-.9-.6l.1.1a4.843 4.843 0 0 0-1.8-.7c-.6-.2-1.2-.2-1.3 0a3.209 3.209 0 0 1 .3-.5c-.7.3-1.3.6-1.9.9.2-.3-.4-1.1.5-1.2a1.663 1.663 0 0 0-1.1-.1c.2.1.4.5.2.5-.6-.4-.4-.2-1.2-.5.3.1 0 .6-.4.6.1-.1-.1-.5.1-.5l-.9.6c.2-.1 0-.4-.3-.5.1.1-.9.2-1.1.3h.4a1.318 1.318 0 0 0-1 .7 2.013 2.013 0 0 1-.8.8c.1-.1 0-.7-.5-.5a2.649 2.649 0 0 1-.3 1 3.1 3.1 0 0 1-.6 1.3h-.2c-.1.2-.3.4-.4.6a5.419 5.419 0 0 1 .9-2.6c-.4.1-.2-.1-.7.3-.3 0 .2-.4.3-.5a5.381 5.381 0 0 0-1.2.9c.1.1 0 .3-.2.6-.2.2-.3.5-.2.6a6.418 6.418 0 0 1 1-1.3c.2.2-.2 1.2-.9 1.9-.3.1-.2-.5-.3-.5 0 .2-.5.8-.6.9l.2-.4c-.5.4-.3.9-.9 1.4-.1.2-.7.5-.6.6a1.526 1.526 0 0 1 1.5.6 12.047 12.047 0 0 0-1 1.1c-.4.3-.4-.7-.7-.5.1 0 .1.3.1.4-.1.2-.2-.2-.3.4.2.2-.3 1.1.2.3 0 .5-.2.5-.3 1.2.2-.2.6.6.6 1.1a.349.349 0 0 0-.2.1 11.332 11.332 0 0 0 .1 2.6c-.1.1 0 .6-.2.4a1.069 1.069 0 0 1 .3.5c-.1.6-.2-.7-.4-.1.2 0 .4.7.6 1.1.2-.2-.2-1-.4-1.4.3-.1.9.6 1.3 1.4.3.7-.1.4 0 .5a2.043 2.043 0 0 0 .7 1.1 2.138 2.138 0 0 1 .6 1c0 .5-.4.2-.5.4-.4-.5-.3-.9-.5-1.3l.1.5a1.234 1.234 0 0 1-.4-.8c-.1.5 1 2.3 1.5 3.4.2.1.4.4.4.2l-.2-.3c0-.4.6.4.4 0a3.434 3.434 0 0 1 1.2 1.2l-.1.3c.1-.1-.1-.4-.3-.5.3.2.4 1 .8 1.1l-.2-.5c.4.3 1 .5 1.3 1 0-.4-.1-.1-.2-.6-.1.5-1-1.1-.9-.4 0-.5-.3-.7-.4-1.3-.1.1 0 .3-.3-.2h-.1v.3c-.3-.1-.7-.7-1-.9-.1-.3.1.1.1-.1l-.3-.3c.1-.1-.1-.8.3-.3-.1-.2-.2-.3-.3-.5a3.7 3.7 0 0 0-.5-1.1c-.1-.3-.5-.6-.2-.4-.2-.3-.3-.5-.5-.8-.3-.9-.9-1.8-.7-2.9a3.087 3.087 0 0 1-.2-1.1l.2-.1c-.1-.4.1-1.1 0-1.3.4-.4.3-1.8.7-2.4l-.2-.1c.2-.4.3-.8.5-1.3l-.2-.1c.1-.5.9-1 1.5-1.6q0 .15-.3.3c1-.4 1.3-1.7 2.2-1.9.1-.2.3-.2.5-.3h.1a6.117 6.117 0 0 0 .6-.4l.2.2c.2 0 .1-.2 0-.3.1-.1.2-.2.3-.2.3.3.6-.3 1 0 .1-.2 1.2-.3 1.3-.7 0 0 .1.1-.1.1h.8l.1.3a4.877 4.877 0 0 1 .7-.3c.4.2.5.3.1.5.9-.2.7 0 1.6-.2l-.1.2c.3.1.8-.1.9.1.3.2 1 .5 1.8.9a9.451 9.451 0 0 1 2.3 1.6c0-.6.5.6.8.3 0 .2.1.3-.1.3.7.4.9.9 1.5 1 0 .2-.2 0-.2.1.1 0 .3.1.3.2s-.2 0-.3-.1a1.517 1.517 0 0 0 .8.4.764.764 0 0 0 .5-.2c.3.5.6.8.9.8.1.3.4.8-.2.2a11.953 11.953 0 0 0 .9 1.2h.1a.1.1 0 0 1 .1-.1.349.349 0 0 1 .1-.2c.1-.1.1-.3.2-.4.1-.3.2-.5.1-.6.1 0 .3-.5.3-.6.4-.8.6-1 .8-1.5l-.1.1c-.2-.4.2-.5.4-1 .8-.9.2-.5 1.1-1.4l-.2-.1c-.3-.3.8-.8 1.1-1.4l-.2.1c.1-.4 1.1-.5 1.4-.7.1 0 0 .1-.1.2.8-.5-.1-.3.3-.9.2 0 .1.4.5.1.2-.1.7-1.3 1.4-1.5-.2 0-.4 0-.1-.3.4-.3 1.4-.4 1.6-.9h.1c.3-.3 1.1-.6 1.3-.9.3.3.8 0 1.4-.1.5-.2 1.1-.3 1.1.1a4.87 4.87 0 0 1 1.2.1v.1a1.84 1.84 0 0 0 1.3 0c.2.1 0 .1 0 .1a5.6 5.6 0 0 0 2 .8l-.1.2c.1 0 .4.3.7.8a11.309 11.309 0 0 0 1 1.3.1.1 0 0 1-.1-.1 4 4 0 0 1 .7 1.8c.1.6.2 1.1.7 1.3a2.993 2.993 0 0 0 .4.8c-.1-1.1.4.1.4-.4.1.4-.1 1.2-.2.6v-.1c-.4-.1 0 1.4-.3 1.4a18.635 18.635 0 0 1-.9 6.2l.4-.2-.2.7c-.1.2-.3.2-.2-.3-.2.2-.1.9 0 .9-.4.9-.2-.5-.3-.2l-.1.4.1-.1a1.865 1.865 0 0 1-.1 1c-.2.3-.3.1-.3.3l-.1.2-.3.8.4-.2c0 .4-.3.8.1.5-.6.4-1.5 3-1.9 3.3a3.465 3.465 0 0 1-.8 1.6c.1-.1.4-.1.1.4-.4-.5-.8.8-1.4 1 .5-.2-.9 1.4-.2 1.1-.3.4-.2-.1-.5.1a21.641 21.641 0 0 1-2.5 3.2c0 .1.3-.1.2.3l-.8.4c-.2.2.2.5-.4.7.1 0 .2 0 .1.1-.5.5-1 1-1.5 1.6s-.9 1-1.4 1.5a4.685 4.685 0 0 1-3.8 1.1c.4.1.1.2-.1.2.2 0 0 .2.1.3-.4-.1-.8-.2-1.1-.3-.2.3-1.2-.2-1.4.1h.4c-.3.1-.2.3 0 .6.2.2.5.5.4.7a2.634 2.634 0 0 1 1.2.1 1.632 1.632 0 0 0 1.5-.2c.2 0-.2.2 0 .2a1.932 1.932 0 0 1 1.1-.4v.1a18.191 18.191 0 0 0 1.9-.8 11.353 11.353 0 0 0 1.9-1.2l-.2-.1a1.522 1.522 0 0 1 .6-.4c.1-.5-.8.8-.7.3.7-.1 1.8-2 2.3-1.9.4-.4-.3 0 .1-.5h.2v-.2a.778.778 0 0 1 .6-.3c-.1.1-.1.2-.2.3.4-.3.8-1.1 1-1.2l-.4.4a27.066 27.066 0 0 0 2.8-4.1h-.1c.5-1 .6-.7 1.2-1.8v.1a3.552 3.552 0 0 1 .4-.9c-.1.3.5-.4.4 0 .5-1.2.2-.6.3-1.5l.2-.1a1.826 1.826 0 0 1 .2-.9c-.1.5.4-.3.3.4.9-1 .5-1.9 1.3-2.3-.2-.7-.7 1-.6.6-.2.2-.1-.6.1-1s.8-.4 1.2-1.5c0 .1 0 .1-.1.2.3-.3.1-.8.4-1.2-.2-.3.2-.6-.1-.8l-.2 1a5.116 5.116 0 0 1 .3-2c0 .1.1.4.1.6.2-.2.1-.5.2-.8.3.2-.2 1.2-.2 1.8.2-.2.1-1.2.4-.8-.4-.5.4-1 .1-1.8l.2.1c0-.1-.1-.4 0-.6l.2.4c-.1-.6.4-1.1.4-1.7-.2 1.2-.3.2-.5.7-.1-1.5.7-.7.7-2.5 0 .2-.2.9-.3.5a9.443 9.443 0 0 1 .3-.9c0-1.1-.2.2-.3-.3.3-.4-.1-.5-.2-1h.2c.1-1.3-.5-.3-.4-1.4l.3.4-.1-.6.2.1a2.544 2.544 0 0 1-.3-1.5c-.1.2-.4 0-.5-.5 0-.4.3.1 0-.6a.556.556 0 0 1 .3.7.215.215 0 0 1 .2.2 3.991 3.991 0 0 0-.4-1.3c0 .1.1.2.1.3a6.072 6.072 0 0 0-.7-1c0-.2.1-.1.2 0-.1-.2-.3-.3-.5-.6.2 0 .4-.1.6.3-.2-.3-.5-.6-.7-.9 0-.1-.1-.6 0-.5-.3-.6-1.2-1.1-1.8-1.8-.1 0-.1 0-.3-.1a4.786 4.786 0 0 0-2.2-1.3l-.4-.5c-.8-.2.6.6-.6.3-.9-.1-.3-.3-.6-.5a4.6 4.6 0 0 1-2.1.1c-.7-.7-.5-.6-.2-.6zm-8.1 3.5c.1-.1.3-.5.4-.5.1.3-.1.3-.4.5zm-6.4 6.9c.2 0 .2.2.3.3zm-18 12.1c-.1-.4 0-.2 0 0zm.3.7a1.008 1.008 0 0 1-.1-.3c-.1 0-.1.1.1.3zm37.8-3.8.1-.1c0 .3-.1.2-.1.1z" style="fill:#fff" transform="translate(-868.5 -610.8)"/>
                            <path data-name="Path 5572" d="M890.8 622.2z" style="fill:#fff" transform="translate(-868.5 -610.8)"/>
                            <path data-name="Path 5573" d="M909.8 613.4z" style="fill:#fff" transform="translate(-868.5 -610.8)"/>
                            <path data-name="Path 5574" d="M868.8 623.7c.1-.1.1-.2.2-.3a1.238 1.238 0 0 0-.2.3z" style="fill:#fff" transform="translate(-868.5 -610.8)"/>
                            <path data-name="Path 5575" d="m874.6 637.4-.3-.3c.1.2.2.2.2.4 0-.1 0-.2.1-.1z" style="fill:#fff" transform="translate(-868.5 -610.8)"/>
                            <path data-name="Path 5576" d="M876.6 641.1c.1 0 .1.1.2.1v-.1c-.2-.1-.5-.2-.2 0z" style="fill:#fff" transform="translate(-868.5 -610.8)"/>
                            <path data-name="Path 5577" d="M874.4 638.2c-.1.1.1.3.4.5.2-.1-.2-.3-.4-.5z" style="fill:#fff" transform="translate(-868.5 -610.8)"/>
                            <path data-name="Path 5578" d="m874.8 638.8.2.2c.1-.1-.1-.1-.2-.2z" style="fill:#fff" transform="translate(-868.5 -610.8)"/>
                            <path data-name="Path 5579" d="M872.7 635.3c0 .2.2 0 .2.1.3 0-.7-.8-.2-.1z" style="fill:#fff" transform="translate(-868.5 -610.8)"/>
                            <path data-name="Path 5580" d="m874.1 638.7.1-.2h-.3z" style="fill:#fff" transform="translate(-868.5 -610.8)"/>
                            <path data-name="Path 5581" d="M872.6 636.6c.1.2.2.3.3.5a.1.1 0 0 1 .1.1z" style="fill:#fff" transform="translate(-868.5 -610.8)"/>
                            <path data-name="Path 5582" d="M873 637.1c.1.1.2.3.3.3-.1 0-.2-.2-.3-.3z" style="fill:#fff" transform="translate(-868.5 -610.8)"/>
                            <path data-name="Path 5583" d="m873.6 638.2-.1-.1c-.1-.1-.2-.2-.2-.3.1.1.2.3.3.4z" style="fill:#fff" transform="translate(-868.5 -610.8)"/>
                            <path data-name="Path 5584" d="m870.1 631.6-.2-.5q-.15 0 0 .3c.1.1.1.3.2.2z" style="fill:#fff" transform="translate(-868.5 -610.8)"/>
                            <path data-name="Path 5585" d="M870.2 633.4v-.3l-.3.1z" style="fill:#fff" transform="translate(-868.5 -610.8)"/>
                            <path data-name="Path 5586" d="M869.5 631.8c-.1 0-.4-.8-.2 0 .1 0 .3.6.2 0z" style="fill:#fff" transform="translate(-868.5 -610.8)"/>
                            <path data-name="Path 5587" d="M869.8 623.1v.2l.4.1z" style="fill:#fff" transform="translate(-868.5 -610.8)"/>
                            <path data-name="Path 5588" d="M875 616.9c-.8.2-.1.3-.7.5-.1.2.5-.2.4 0 .3-.3.6-.3.3-.5z" style="fill:#fff" transform="translate(-868.5 -610.8)"/>
                            <path data-name="Path 5589" d="M874.7 617.4c-.1 0-.1.1-.2.2.1-.1.1-.2.2-.2z" style="fill:#fff" transform="translate(-868.5 -610.8)"/>
                            <path data-name="Path 5590" d="m893.4 648.3-.3-.2.2.2z" style="fill:#fff" transform="translate(-868.5 -610.8)"/>
                            <path data-name="Path 5591" d="M892.6 648.4v-.3l-.3.2a1 1 0 0 1 .3.1z" style="fill:#fff" transform="translate(-868.5 -610.8)"/>
                            <path data-name="Path 5592" d="M895 615.4c.1.1.2 0 .4-.2z" style="fill:#fff" transform="translate(-868.5 -610.8)"/>
                            <path data-name="Path 5593" d="M900.5 611.8h-.1l.3.2z" style="fill:#fff" transform="translate(-868.5 -610.8)"/>
                            <path data-name="Path 5594" d="M906.2 611.1a1.95 1.95 0 0 0-.8-.1c.6 0 .8.4.8.1z" style="fill:#fff" transform="translate(-868.5 -610.8)"/>
                        </g>
                    </g>
                </g>
            </g>
            <g data-name="Group 479">
                <path data-name="Path 5595" d="M909 635.1a26.911 26.911 0 0 0 3.2-10.3c.5-5.2-1.4-11.6-7.3-12.3a9.339 9.339 0 0 0-5.4 1.2c-4 2.3-6.2 6.3-8.2 10.2a22.6 22.6 0 0 0-8.1-5.9c-4.8-1.6-8.8-.8-12.3 3.5a8.89 8.89 0 0 0-1.8 6.5c.6 6.6 5.1 12 10.6 15.4A63.488 63.488 0 0 0 892 649a8.147 8.147 0 0 0 8.7-2.3 57.416 57.416 0 0 0 8.3-11.6" style="fill:#ffbc2a" transform="translate(-868.5 -610.8)"/>
                <g data-name="Group 478">
                    <g data-name="Group 477">
                        <g data-name="Group 476">
                            <path data-name="Path 5596" d="M908 634.7c.1-.2-.1-.2-.1-.2-.1.3.2.3.1.2z" style="fill:#fff" transform="translate(-868.5 -610.8)"/>
                            <path data-name="Path 5597" d="M906.8 637.7v-.1l-.1.5z" style="fill:#fff" transform="translate(-868.5 -610.8)"/>
                            <path data-name="Path 5598" d="M905.1 640.2c.4-.1.6-.9 1-1.3h.1l-.1-.3a6.242 6.242 0 0 1-1 1.6z" style="fill:#fff" transform="translate(-868.5 -610.8)"/>
                            <path data-name="Path 5599" d="M903.6 641.1c.2 0-.1.3.3-.3h-.1c0 .1-.1.2-.2.3z" style="fill:#fff" transform="translate(-868.5 -610.8)"/>
                            <path data-name="Path 5600" d="M903.8 640.8c.2-.2-.2.1 0 0z" style="fill:#fff" transform="translate(-868.5 -610.8)"/>
                            <path data-name="Path 5601" d="m903 642 .2-.4c-.1 0-.3.3-.3.2-.2.4-.1.3.1.2z" style="fill:#fff" transform="translate(-868.5 -610.8)"/>
                            <path data-name="Path 5602" d="m902.9 642.5.1-.2s-.1 0-.1.2z" style="fill:#fff" transform="translate(-868.5 -610.8)"/>
                            <path data-name="Path 5603" d="m903.2 641.9-.2.4c.1 0 .2 0 .1-.2.1.1.1-.1.1-.2z" style="fill:#fff" transform="translate(-868.5 -610.8)"/>
                            <path data-name="Path 5604" d="M903.4 641.7c.2-.1.4-.4.2 0 .5-.6.3-.7-.2 0z" style="fill:#fff" transform="translate(-868.5 -610.8)"/>
                            <path data-name="Path 5605" d="m905.3 640.5.3-.2.1-.3c-.1.1-.5.4-.4.5z" style="fill:#fff" transform="translate(-868.5 -610.8)"/>
                            <path data-name="Path 5606" d="M901.2 643.9c0 .1.2 0 .3 0l.1-.3c0 .2-.3.4-.4.3z" style="fill:#fff" transform="translate(-868.5 -610.8)"/>
                            <path data-name="Path 5607" d="m901.6 644-.2.4c.2-.3.2-.4.2-.4z" style="fill:#fff" transform="translate(-868.5 -610.8)"/>
                            <path data-name="Path 5608" d="m903.2 642.7.2-.7-.3.9z" style="fill:#fff" transform="translate(-868.5 -610.8)"/>
                            <path data-name="Path 5609" d="m900.1 645.3.1-.3-.2.5z" style="fill:#fff" transform="translate(-868.5 -610.8)"/>
                            <path data-name="Path 5610" d="M899.4 646.1c0-.2-.3 0-.2-.2a2.093 2.093 0 0 0-.4.6 1.539 1.539 0 0 1 .6-.4z" style="fill:#fff" transform="translate(-868.5 -610.8)"/>
                            <path data-name="Path 5611" d="M898.6 646.9c.1-.1.1-.2.2-.3-.1 0-.1.1-.2.3z" style="fill:#fff" transform="translate(-868.5 -610.8)"/>
                            <path data-name="Path 5612" d="M900.8 645c-.1 0-.2 0-.4.2h.3a.349.349 0 0 1 .1-.2z" style="fill:#fff" transform="translate(-868.5 -610.8)"/>
                            <path data-name="Path 5613" d="m900.7 645.1-.3.3c.1 0 .1-.1.3-.3z" style="fill:#fff" transform="translate(-868.5 -610.8)"/>
                            <path data-name="Path 5614" d="M900.8 644.9c0 .1.1.1 0 0z" style="fill:#fff" transform="translate(-868.5 -610.8)"/>
                            <path data-name="Path 5615" d="M902.3 643.6c-.1.3-.4.8.1.5 0-.3-.3-.1-.1-.5z" style="fill:#fff" transform="translate(-868.5 -610.8)"/>
                            <path data-name="Path 5616" d="m901.2 644.9.3-.3s-.2 0-.1-.1z" style="fill:#fff" transform="translate(-868.5 -610.8)"/>
                            <path data-name="Path 5617" d="m901.1 645.1.1-.2-.2.1z" style="fill:#fff" transform="translate(-868.5 -610.8)"/>
                            <path data-name="Path 5618" d="M899.3 646.5a1.755 1.755 0 0 1-.4.5c.2-.1.4-.3.6-.4 0-.1 0-.2-.2-.1z" style="fill:#fff" transform="translate(-868.5 -610.8)"/>
                            <path data-name="Path 5619" d="M900 645.9z" style="fill:#fff" transform="translate(-868.5 -610.8)"/>
                            <path data-name="Path 5620" d="M896.9 648.1z" style="fill:#fff" transform="translate(-868.5 -610.8)"/>
                            <path data-name="Path 5621" d="M899.5 646.6c.2-.1.2-.2.2-.3 0 .1-.1.2-.2.3z" style="fill:#fff" transform="translate(-868.5 -610.8)"/>
                            <path data-name="Path 5622" d="M898.2 647.3a.367.367 0 0 0 .3-.1c-.1 0-.3 0-.3.1z" style="fill:#fff" transform="translate(-868.5 -610.8)"/>
                            <path data-name="Path 5623" d="M899.9 646z" style="fill:#fff" transform="translate(-868.5 -610.8)"/>
                            <path data-name="Path 5624" d="M899.9 646c0 .1-.1.2-.1.3 0-.2.1-.2.1-.3z" style="fill:#fff" transform="translate(-868.5 -610.8)"/>
                            <path data-name="Path 5625" d="M896.5 649.4c0-.2.5-.4 1-.5.4-.3-.1-.7-.6-.9 0 .1 0 .1-.4.4.2.1 1-.1.7.2-.6.3-.5.1-.8.1.3.2-.7.5-.5.7.2-.1.4-.1.5-.2.1.1-.1.2.1.2z" style="fill:#fff" transform="translate(-868.5 -610.8)"/>
                            <path data-name="Path 5626" d="m897.7 647.8.1-.1a.629.629 0 0 1-.6 0l-.3.3a1.883 1.883 0 0 0 .8-.2z" style="fill:#fff" transform="translate(-868.5 -610.8)"/>
                            <path data-name="Path 5627" d="M898.5 647.3c0 .2-.4.5 0 .6.5-.3.2-.3.5-.6-.7.5.1-.2-.5 0 .1-.1.3-.2.4-.3-.1.1-.3.1-.4.2s.1 0 0 .1v-.1a4.235 4.235 0 0 1-.7.5 5.738 5.738 0 0 0 .7-.4z" style="fill:#fff" transform="translate(-868.5 -610.8)"/>
                            <path data-name="Path 5628" d="M902.3 644.7z" style="fill:#fff" transform="translate(-868.5 -610.8)"/>
                            <path data-name="Path 5629" d="M902 644.9c0-.1 0-.2.2-.3s.1.1.1.1c.1-.1.2-.4-.1-.2v.1c-.3.3-.8.5-.8.4a1.487 1.487 0 0 0 .6-.1z" style="fill:#fff" transform="translate(-868.5 -610.8)"/>
                            <path data-name="Path 5630" d="M900.3 646.4c-.2.2-.3.4-.5.6a.758.758 0 0 0 .4-.2l-.1-.1c.4-.2.2-.3.2-.3z" style="fill:#fff" transform="translate(-868.5 -610.8)"/>
                            <path data-name="Path 5631" d="M896.8 648v-.2l-.3.4z" style="fill:#fff" transform="translate(-868.5 -610.8)"/>
                            <path data-name="Path 5632" d="M895.9 648.3v-.2l-.2.1z" style="fill:#fff" transform="translate(-868.5 -610.8)"/>
                            <path data-name="Path 5633" d="m884.1 617.3.3.1a.367.367 0 0 0-.3-.1z" style="fill:#fff" transform="translate(-868.5 -610.8)"/>
                            <path data-name="Path 5634" d="M882.4 616.7c0 .1.1 0 0 0z" style="fill:#fff" transform="translate(-868.5 -610.8)"/>
                            <path data-name="Path 5635" d="M874.7 637.8c-.1-.4-.1-.8-.3-.6l-.1.2a.781.781 0 0 1 .4.4z" style="fill:#fff" transform="translate(-868.5 -610.8)"/>
                            <path data-name="Path 5636" d="M870.2 622.5q-.15.3 0 .3z" style="fill:#fff" transform="translate(-868.5 -610.8)"/>
                            <path data-name="Path 5637" d="M869.7 621.9a1.38 1.38 0 0 1 .4-.3.536.536 0 0 0-.4.3z" style="fill:#fff" transform="translate(-868.5 -610.8)"/>
                            <path data-name="Path 5638" d="M891 621.8v-.3z" style="fill:#fff" transform="translate(-868.5 -610.8)"/>
                            <path data-name="Path 5639" d="M886.4 645.7a2.093 2.093 0 0 0-.6-.4c.3.3.5.5.6.4z" style="fill:#fff" transform="translate(-868.5 -610.8)"/>
                            <path data-name="Path 5640" d="M882.8 618.9h.2a.138.138 0 0 0-.2 0z" style="fill:#fff" transform="translate(-868.5 -610.8)"/>
                            <path data-name="Path 5641" d="m885.1 645 .1.1c.2.1.4.1.6.2a1.493 1.493 0 0 0-.7-.3z" style="fill:#fff" transform="translate(-868.5 -610.8)"/>
                            <path data-name="Path 5642" d="M913.4 623.1z" style="fill:#fff" transform="translate(-868.5 -610.8)"/>
                            <path data-name="Path 5643" d="M909.5 632.2c0-.1.1-.2.1-.4a.756.756 0 0 1-.1.4z" style="fill:#fff" transform="translate(-868.5 -610.8)"/>
                            <path data-name="Path 5644" d="M892.4 647.9c.2.1.1 0 0 0z" style="fill:#fff" transform="translate(-868.5 -610.8)"/>
                            <path data-name="Path 5645" d="M893.1 648.9a.1.1 0 0 0-.1.1z" style="fill:#fff" transform="translate(-868.5 -610.8)"/>
                            <path data-name="Path 5646" d="M882.6 645.1z" style="fill:#fff" transform="translate(-868.5 -610.8)"/>
                            <path data-name="Path 5647" d="M892.7 648.1c-.1 0-.1-.1-.2-.1z" style="fill:#fff" transform="translate(-868.5 -610.8)"/>
                            <path data-name="Path 5648" d="M892.6 648c.1 0 .1 0 .2.1 0-.1 0-.1-.2-.1z" style="fill:#fff" transform="translate(-868.5 -610.8)"/>
                            <path data-name="Path 5649" d="M892.1 647.8c.1 0 .2.1.3.1-.1 0-.1 0-.3-.1z" style="fill:#fff" transform="translate(-868.5 -610.8)"/>
                            <path data-name="Path 5650" d="M901.1 612.4c.3-.2.2-.1 0 0z" style="fill:#fff" transform="translate(-868.5 -610.8)"/>
                            <path data-name="Path 5651" d="M870 634.1z" style="fill:#fff" transform="translate(-868.5 -610.8)"/>
                            <path data-name="Path 5652" d="M869.5 633.4c.4.2.4.4.5.7l.4-.5z" style="fill:#fff" transform="translate(-868.5 -610.8)"/>
                            <path data-name="Path 5653" d="m887.9 619.4-.4-.5c.7.2 1.1.5.8 0-.4.4-1.9-1.2-2.3-.7l-.3-.3c.1.1.1 0 .2.1-.5-.6-.7.1-1.5-.4-.3-.2-.5-.4-.2-.3-.3 0-.5-.1-.8-.1-.2-.1-.1-.2.1-.1-.4-.1-.7-.2-1.1-.3a2.2 2.2 0 0 1-.8.1c-.3-.1.2 0 .1-.1h-.6c-.2-.2.3-.3.7-.1-.5-.7-.5 0-1.8-.5h.6c-.4-.4-.9-.3-1.6-.5.2.1 1.4.6.7.7a2.134 2.134 0 0 0-.8 0c0-.2-.4-.1-.9-.1v-.3c-.5.1-.5.3-.7.4a.986.986 0 0 1-.9-.2c-.9.2.7.1-.3.5a3.227 3.227 0 0 0-1.9 1c-.5.2 0-.2-.2-.2l-.3.4c-.1.1-.1 0-.1-.1-.3.3.1.2-.3.6 0 .2-.3.3-.6.4-.3.2-.8.4-.9.8-.2.1-.1-.2-.2-.2a4.014 4.014 0 0 0-.8 1.6 2.649 2.649 0 0 0-.6.5c.5-.3.3.4.2 1 .2-.1.3-.2.4-.2-.1.3-.2.5-.3.8-.1.1-.1 0-.2-.2v.2c-.2.2-.3 0-.3-.3.1-.1.2-.1.3-.2 0-.3-.1-.6-.2-.6a.367.367 0 0 1-.1.3c0-.1 0-.1-.1-.1v.3l-.4.1.1.1a10.542 10.542 0 0 0-.7 1.1c0 1 .3 1.8.4 3.1-.2-.3-.4-.1-.6-.1.3-.4-.1-1.1.2-1.8-.1.4-.2.3-.2.2a5.284 5.284 0 0 0 .1 1.3c-.2 0-.2.3-.3.6.4-.3.3 1 .5 1.5-.1 0-.3 0-.3-.7-.3.7.6.8.4 1.5a.367.367 0 0 0-.1-.3c.1.3.3 1.2.1 1v-.1a18.024 18.024 0 0 0 .5 1.9 3.27 3.27 0 0 0 .7 1.1h-.5a17.387 17.387 0 0 0 1.8 1.1c-.4 0-.7.9-1.3.2a4.384 4.384 0 0 0 .5.9c0-.2.2-.6.3-.4a3.177 3.177 0 0 0 .2 1.3c-.1-.2.5-.3.7.1-.1 0-.4.3-.5.2a4.051 4.051 0 0 0 .9.5c-.2-.1-.4.2-.4.5 0-.1.5.7.7.9l-.2-.4c.6.9 1.2.4 1.9 1.2-.2 0-.7.2-.3.6a5.945 5.945 0 0 1 2.4.4v.2l.6.3a9.437 9.437 0 0 1-2.7-.6c.2.4-.1.2.4.6.1.2-.4-.1-.5-.2a9.949 9.949 0 0 0 1 1.1c.1-.3 1 .5 1.1.3-.4-.3-.9-.5-1.3-.8.2-.2 1.2 0 1.9.7.1.2-.5.3-.5.4.2 0 .9.4.9.6l-.4-.1c.4.4.9.3 1.3.9.2.2.4.7.5.6-.1-.5.4-1.4.7-1.4a6.235 6.235 0 0 1 .9 1.2c.2.4-.8.2-.6.6.1-.1.3 0 .4 0 .2.2-.2.2.3.4.2-.2.9.6.3-.1.5.2.4.3 1 .6-.1-.3.8-.3 1.3-.2-.1.1 0 .2 0 .3a23.863 23.863 0 0 0 2.2 1.2c.1.1.4.4.2.4a1.76 1.76 0 0 1 .6.1c.4.5-.6-.2-.3.2.1-.1.8.1 1.2.2 0-.3-.9-.4-1.3-.5.1-.3 1-.4 2-.1.8.2.2.3.4.4 1.4.6 1.4-.1 2.5.6.4.4-.1.4-.1.6-.6-.1-.9-.5-1.3-.6l.5.3a1.33 1.33 0 0 1-.8-.3c.3.4 2.3 1 3.4 1.5.2 0 .6 0 .5-.1l-.4-.1c-.3-.3.7 0 .3-.3a4.677 4.677 0 0 1 1.6.2l.1.3c0-.1-.4-.2-.6-.2.3 0 1 .5 1.3.2l-.4-.2a8.333 8.333 0 0 1 1.5-.4c-.3-.2-.1 0-.5-.2.2.2-.2.2-.5.2s-.6 0-.4.2c-.4-.4-.7-.2-1.1-.6 0 .1.1.2-.3.1h-.1c.1.1.2.1.2.2-.1.1-.4 0-.6 0a1.953 1.953 0 0 0-.7-.1c-.3-.1.2-.1 0-.2h-.4c0-.2-.6-.6.1-.4l-.6-.2a2.7 2.7 0 0 0-1.1-.5c-.3-.1-.8-.1-.5-.1l-1-.3a9.279 9.279 0 0 1-2.9-1.3 3.445 3.445 0 0 1-1.1-.5v-.2c-.4-.1-1.1-.7-1.3-.6-.2-.6-1.7-1.1-2.3-1.5l-.1.2c-.4-.3-.9-.5-1.4-.8l-.1.2c-.5-.2-1-.9-1.7-1.5q.15 0 .3.3c-.5-1-1.8-1.2-2.2-2.1-.2-.1-.3-.3-.4-.4l-.1-.1c0-.1-.1-.2-.1-.3 0 .1.1.2.1.3l-.5-.5.1-.2c-.1-.2-.2-.1-.2.1-.1-.1-.2-.2-.3-.2.1-.4-.5-.5-.4-.9-.2 0-.9-1-1.2-.9 0 0 0-.1.1 0a1.157 1.157 0 0 0-.5-.7l.2-.2-.6-.4c0-.4 0-.6.3-.3-.7-.7-.4-.6-1-1.2h.2c-.1-.3-.5-.6-.4-.8a10.641 10.641 0 0 0-.3-2 6.212 6.212 0 0 1-.1-2.7c-.5.3.3-.7-.1-.8.1-.1.2-.3.3 0 0-.8.4-1.1.2-1.7.1 0 .1.2.2.2 0-.1 0-.3.1-.3s.1.1.1.3c.2-.7 0-.9-.3-1.1a1.086 1.086 0 0 0 .4-.9c.2-.1.4-.2.2.2a7.972 7.972 0 0 1 .6-.8c.3-.3.5-.6.4-.7.1 0 .3-.3.3-.4a8.122 8.122 0 0 1 1-.9l-.2.1c0-.4.4-.4.8-.7 1.1-.4.4-.4 1.5-.7l-.1-.2q0-.3.6-.3a1.978 1.978 0 0 0 1.1-.2l-.3-.1a.878.878 0 0 1 .7.1c.3.1.6.3.7.3s-.1.1-.2.1c.9.2.1-.3.8-.4.1.1-.2.4.3.4.2.1 1.4-.4 2 0-.1-.1-.2-.3.1-.3.5.1 1.3.7 1.8.6a.1.1 0 0 1 .1.1c.4 0 1.2.4 1.5.3 0 .4.6.6 1.1.9.5.2 1 .5.9.7.3.2.7.5 1 .7h-.1c.6.5.9.6 1.2.6.1.2 0 .1-.1.1l.5.5.5.5c.3.2.7.5 1.1.8l.1.4c.1 0 .3.3.5.7a9.3 9.3 0 0 0 1.6-2.9v.2c.1-.3.2-.4.2-.6.1-.2.2-.3.3-.5a5.553 5.553 0 0 1 .6-.8c.4-.5.7-1 .5-1.4l.3-.8c-.7.9-.2-.3-.5 0 .2-.4.9-.8.6-.3h-.1c.2.4 1-1 1.2-.8a10.941 10.941 0 0 1 5-3.4l-.3-.2a1.422 1.422 0 0 1 .6-.2c.2 0 .3.2-.2.3.3.1.7-.4.7-.4.9-.1-.3.4 0 .4l.4-.1h-.1a1.511 1.511 0 0 1 .9-.4c.4 0 .2.2.3.2h1l-.3-.3c.4-.1.8.1.4-.2a2.389 2.389 0 0 0 .7.3c.3.1.7.2 1 .3a2.8 2.8 0 0 1 1.4.8 1.612 1.612 0 0 1 .7.4l.6.6c-.1-.2.1-.4.4 0-.6.2.5 1 .3 1.6 0-.2.2.1.4.4s.4.6.4.2c.2.5-.2.1-.2.5.6 1 .6 2.4.8 3.8.1 0 .2-.2.3.1l-.3.8c.1.3.4.2.2.8.1-.1.2-.2.2 0-.4 2.7-.5 5.8-2.2 8.2.3-.3.2-.1.1.2.1-.2.2.1.3.1-.2.3-.5.7-.7 1 .2.3-.5 1.2-.3 1.4l.1-.4c.1.6 1-.3 1.3-.1-.1-.7 1.1-1.2 1-2.3.2-.2.1.2.2.1a1.612 1.612 0 0 1 .2-1.1v.1c.4-1.5.8-2.1 1.2-3.8l-.2.1c.1-.4.2-.4.2-.6-.2-.5-.2 1-.5.6.5-.4.4-2.6.8-2.9 0-.6-.2.2-.2-.4l.1-.2-.2-.2c0-.4.2-.6.3-.6v.4a3.9 3.9 0 0 0-.1-1.6v.6a12.481 12.481 0 0 0-1.4-5v.1a4.525 4.525 0 0 1-.5-1 4.119 4.119 0 0 0-.6-1 4.621 4.621 0 0 1-.7-.7c.3.2-.3-.6.1-.4-.5-.4-.7-.5-.8-.5a3.2 3.2 0 0 1-.7-.1l-.1-.2a1.72 1.72 0 0 1-1-.3c.6.1-.3-.4.4-.3a9.211 9.211 0 0 0-.8-.5 6.361 6.361 0 0 1-.7-.2c-.4-.1-.8 0-1-.4-.7.3 1.2.5.8.5.2.2-.6.2-1 .1s-.7-.7-1.9-.6h.2c-.4-.1-.8.2-1.4.1-.2.3-.7.1-.7.5.3-.1.6-.2 1-.3-.6.2-1 .7-1.9.8 0-.1.3-.3.4-.4-.3 0-.5.2-.8.3-.1-.4 1.1-.5 1.7-.9-.3-.1-1.1.6-.9.1-.3.6-1.1.3-1.6 1v-.2a2.182 2.182 0 0 1-.5.4c.1-.1.1-.3.2-.4-.4.5-1.1.4-1.6.9 1-.7.4 0 .9-.1-1.1 1.1-1.1 0-2.3 1.2.2-.2.7-.5.5-.2a4.051 4.051 0 0 1-.9.5c-.8.8.3 0 0 .5-.5.1-.3.5-.6.9l-.2-.1c-.9.9.1.5-.7 1.3l.1-.6-.3.5-.1-.2a3.6 3.6 0 0 1-.8 1.2c.2 0 .3.3 0 .7-.3.2-.1-.3-.4.4 0-.2-.1-.5.3-.7a.367.367 0 0 0-.1-.3 3.378 3.378 0 0 0-.7 1.1c.1-.1.1-.2.2-.2-.1.4-.2.7-.3 1.1-.2.1-.1 0-.1-.2a6.388 6.388 0 0 0-.2.7c-.1-.2-.3-.2-.1-.7a3.811 3.811 0 0 0-.3 1 .367.367 0 0 1-.3-.1c-.1 0 0 .1 0 .2s0 .4-.1.4v-.1a.1.1 0 0 1-.1.1c-.1-.1-.1-.3-.2-.4 0-.1-.1-.1-.2-.2a2.185 2.185 0 0 0-.5-.3l-.2-.6c-.6-.4.3.7-.7.1-.7-.4-.1-.4-.3-.6a3.148 3.148 0 0 1-1.7-.9c.2-.6.4-.5.6-.3zm-8.2-3c.2 0 .5-.1.6 0-.1.2-.3 0-.6 0zm-10.4 7.1a.914.914 0 0 1 .3-.5c-.1.1-.1.3-.3.5zm20.8 23.8c-.3-.2-.2-.2 0 0zm.7.3a1.437 1.437 0 0 1-.3-.2c0 .1.1.2.3.2zm12.8-34.3h-.1c.3-.2.2-.1.1 0z" style="fill:#fff" transform="translate(-868.5 -610.8)"/>
                            <path data-name="Path 5654" d="M869.7 622h.1c.1-.1.1-.1-.1 0z" style="fill:#fff" transform="translate(-868.5 -610.8)"/>
                            <path data-name="Path 5655" d="M891 621.8z" style="fill:#fff" transform="translate(-868.5 -610.8)"/>
                            <path data-name="Path 5656" d="m879.6 644.4-.2-.2z" style="fill:#fff" transform="translate(-868.5 -610.8)"/>
                            <path data-name="Path 5657" d="M894.3 648.2h-.4c.2 0 .3.1.4.1 0 0-.1-.1 0-.1z" style="fill:#fff" transform="translate(-868.5 -610.8)"/>
                            <path data-name="Path 5658" d="M898.2 648.6c.1-.1.1-.1.2-.1l-.1-.1c-.2.2-.4.3-.1.2z" style="fill:#fff" transform="translate(-868.5 -610.8)"/>
                            <path data-name="Path 5659" d="M894.7 648.9c0 .2.3.1.6.1h-.1c.1-.3-.2-.2-.5-.1z" style="fill:#fff" transform="translate(-868.5 -610.8)"/>
                            <path data-name="Path 5660" d="M895.4 648.9h.3c0-.1-.2 0-.3 0z" style="fill:#fff" transform="translate(-868.5 -610.8)"/>
                            <path data-name="Path 5661" d="M891.7 647.8c.1.1.2-.2.2-.1.3-.1-1.1-.1-.2.1z" style="fill:#fff" transform="translate(-868.5 -610.8)"/>
                            <path data-name="Path 5662" d="m894.9 649.5-.1-.3-.2.2z" style="fill:#fff" transform="translate(-868.5 -610.8)"/>
                            <path data-name="Path 5663" d="M892.4 649c.2.1.3.1.5.2h.2c-.4-.2-.7-.3-.7-.2z" style="fill:#fff" transform="translate(-868.5 -610.8)"/>
                            <path data-name="Path 5664" d="M893 649.1c.2 0 .3.1.4 0z" style="fill:#fff" transform="translate(-868.5 -610.8)"/>
                            <path data-name="Path 5665" d="m894.2 649.5-.2-.1a.756.756 0 0 1-.4-.1.846.846 0 0 0 .6.2z" style="fill:#fff" transform="translate(-868.5 -610.8)"/>
                            <path data-name="Path 5666" d="m887.1 646.9-.6-.2c-.1 0 0 .1.3.2.1.1.3.1.3 0z" style="fill:#fff" transform="translate(-868.5 -610.8)"/>
                            <path data-name="Path 5667" d="m888.5 648.1-.2-.2-.1.2z" style="fill:#fff" transform="translate(-868.5 -610.8)"/>
                            <path data-name="Path 5668" d="M886.9 647.5c-.1 0-.9-.1-.2.1.1 0 .7.2.2-.1z" style="fill:#fff" transform="translate(-868.5 -610.8)"/>
                            <path data-name="Path 5669" d="M879.2 643.3h.2l.2-.3z" style="fill:#fff" transform="translate(-868.5 -610.8)"/>
                            <path data-name="Path 5670" d="M872.7 638.8c.4.6.3 0 .6.5.2.1-.3-.5-.1-.4-.4-.2-.5-.4-.5-.1z" style="fill:#fff" transform="translate(-868.5 -610.8)"/>
                            <path data-name="Path 5671" d="M873.2 639c.1 0 .1.1.2.1a.31.31 0 0 0-.2-.1z" style="fill:#fff" transform="translate(-868.5 -610.8)"/>
                            <path data-name="Path 5672" d="m908.6 633.5-.2.4.2-.2z" style="fill:#fff" transform="translate(-868.5 -610.8)"/>
                            <path data-name="Path 5673" d="M908.6 634.4h-.3l.1.3c0-.1.1-.2.2-.3z" style="fill:#fff" transform="translate(-868.5 -610.8)"/>
                            <path data-name="Path 5674" d="M878.4 615.8c0 .1.2.1.4.1z" style="fill:#fff" transform="translate(-868.5 -610.8)"/>
                            <path data-name="Path 5675" d="m884.8 617.3-.1-.1.1.3z" style="fill:#fff" transform="translate(-868.5 -610.8)"/>
                            <path data-name="Path 5676" d="M889.5 619.9c-.2-.1-.4-.3-.6-.4.4.2.4.7.6.4z" style="fill:#fff" transform="translate(-868.5 -610.8)"/>
                        </g>
                    </g>
                </g>
            </g>
        </g>
        <g data-name="Group 489">
            <g data-name="Group 484">
                <path data-name="Path 5677" d="M892.1 649a8.147 8.147 0 0 0 8.7-2.3c5.6-6.5 10.7-13.6 11.6-21.9.5-5.2-1.4-11.6-7.3-12.3a9.339 9.339 0 0 0-5.4 1.2c-4 2.3-6.2 6.3-8.2 10.2a22.6 22.6 0 0 0-8.1-5.9c-4.8-1.6-8.8-.8-12.3 3.5a8.89 8.89 0 0 0-1.8 6.5c.6 6.6 5.1 12 10.6 15.4a55.286 55.286 0 0 0 12.2 5.6z" style="fill:#ffbc2a" transform="translate(-868.5 -610.8)"/>
                <g data-name="Group 483">
                    <g data-name="Group 482">
                        <g data-name="Group 481">
                            <path data-name="Path 5678" d="M892.3 648c.2.1.2-.1.2-.1-.4-.1-.3.1-.2.1z" style="fill:#fff" transform="translate(-868.5 -610.8)"/>
                            <path data-name="Path 5679" d="M889.1 647.2z" style="fill:#fff" transform="translate(-868.5 -610.8)"/>
                            <path data-name="Path 5680" d="M886.3 646.1c.1.4 1 .4 1.5.7l.1.1.3-.1a13.049 13.049 0 0 1-1.9-.7z" style="fill:#fff" transform="translate(-868.5 -610.8)"/>
                            <path data-name="Path 5681" d="M885.1 644.8c0 .1-.4 0 .3.2v-.1c-.1 0-.1 0-.3-.1z" style="fill:#fff" transform="translate(-868.5 -610.8)"/>
                            <path data-name="Path 5682" d="M885.4 645c.3.1-.2-.2 0 0z" style="fill:#fff" transform="translate(-868.5 -610.8)"/>
                            <path data-name="Path 5683" d="m884.1 644.4.4.1c0-.1-.4-.3-.2-.3-.5-.1-.4 0-.2.2z" style="fill:#fff" transform="translate(-868.5 -610.8)"/>
                            <path data-name="Path 5684" d="m883.6 644.4.2.1s0-.1-.2-.1z" style="fill:#fff" transform="translate(-868.5 -610.8)"/>
                            <path data-name="Path 5685" d="m884.3 644.6-.4-.1c0 .1 0 .2.2.1z" style="fill:#fff" transform="translate(-868.5 -610.8)"/>
                            <path data-name="Path 5686" d="M884.5 644.8c.2.2.4.3 0 .2.7.3.7.1 0-.2z" style="fill:#fff" transform="translate(-868.5 -610.8)"/>
                            <path data-name="Path 5687" d="m886 646.3.3.2h.3c-.2 0-.5-.3-.6-.2z" style="fill:#fff" transform="translate(-868.5 -610.8)"/>
                            <path data-name="Path 5688" d="M881.9 643.1c-.1 0 0 .2 0 .3l.3.1c-.1-.1-.4-.3-.3-.4z" style="fill:#fff" transform="translate(-868.5 -610.8)"/>
                            <path data-name="Path 5689" d="m881.9 643.4-.4-.1c.3.2.4.2.4.1z" style="fill:#fff" transform="translate(-868.5 -610.8)"/>
                            <path data-name="Path 5690" d="m883.4 644.7.8.1-.9-.1z" style="fill:#fff" transform="translate(-868.5 -610.8)"/>
                            <path data-name="Path 5691" d="M880.4 642.2z" style="fill:#fff" transform="translate(-868.5 -610.8)"/>
                            <path data-name="Path 5692" d="M879.5 641.6c.2 0-.1-.3.1-.3a2.613 2.613 0 0 0-.8-.3c.2.2.4.3.7.6z" style="fill:#fff" transform="translate(-868.5 -610.8)"/>
                            <path data-name="Path 5693" d="M878.4 640.9a.6.6 0 0 0 .4.1.6.6 0 0 1-.4-.1z" style="fill:#fff" transform="translate(-868.5 -610.8)"/>
                            <path data-name="Path 5694" d="M880.8 642.9c0-.1 0-.2-.2-.3l.1.2z" style="fill:#fff" transform="translate(-868.5 -610.8)"/>
                            <path data-name="Path 5695" d="M880.6 642.8a1.236 1.236 0 0 1-.3-.2c.1 0 .2.1.3.2z" style="fill:#fff" transform="translate(-868.5 -610.8)"/>
                            <path data-name="Path 5696" d="M880.8 642.9z" style="fill:#fff" transform="translate(-868.5 -610.8)"/>
                            <path data-name="Path 5697" d="M882.4 644c-.3 0-.8-.2-.4.2.2 0 0-.2.4-.2z" style="fill:#fff" transform="translate(-868.5 -610.8)"/>
                            <path data-name="Path 5698" d="m880.9 643.2.4.3s0-.2.1-.1z" style="fill:#fff" transform="translate(-868.5 -610.8)"/>
                            <path data-name="Path 5699" d="m880.7 643.1.2.1-.1-.1z" style="fill:#fff" transform="translate(-868.5 -610.8)"/>
                            <path data-name="Path 5700" d="m879 641.6-.6-.3a2.652 2.652 0 0 0 .6.5c0-.1.2-.1 0-.2z" style="fill:#fff" transform="translate(-868.5 -610.8)"/>
                            <path data-name="Path 5701" d="M879.8 642.2z" style="fill:#fff" transform="translate(-868.5 -610.8)"/>
                            <path data-name="Path 5702" d="M876.4 639.6v.1h.1z" style="fill:#fff" transform="translate(-868.5 -610.8)"/>
                            <path data-name="Path 5703" d="M879 641.8a.4.4 0 0 0 .4.2.758.758 0 0 1-.4-.2z" style="fill:#fff" transform="translate(-868.5 -610.8)"/>
                            <path data-name="Path 5704" d="M877.8 640.6c.1.1.1.2.2.3 0-.1-.1-.3-.2-.3z" style="fill:#fff" transform="translate(-868.5 -610.8)"/>
                            <path data-name="Path 5705" d="M879.7 642.1z" style="fill:#fff" transform="translate(-868.5 -610.8)"/>
                            <path data-name="Path 5706" d="M879.7 642.1a.367.367 0 0 1-.3-.1.367.367 0 0 0 .3.1z" style="fill:#fff" transform="translate(-868.5 -610.8)"/>
                            <path data-name="Path 5707" d="M875.1 640c.2-.1.7.2.9.6.4.2.6-.4.5-.9-.1 0-.1.1-.5-.2 0 .2.6.9.2.7-.5-.4-.3-.4-.5-.7 0 .3-.8-.3-.9 0 .2.1.3.2.5.3-.1.1-.3 0-.2.2z" style="fill:#fff" transform="translate(-868.5 -610.8)"/>
                            <path data-name="Path 5708" d="m877.1 640.3.2.1a6.117 6.117 0 0 0-.4-.6 1.577 1.577 0 0 0-.4-.1l.6.6z" style="fill:#fff" transform="translate(-868.5 -610.8)"/>
                            <path data-name="Path 5709" d="M877.9 641c-.2.1-.7-.2-.6.2.5.3.4.1.7.3-.6-.7.4 0-.1-.5a1.381 1.381 0 0 1 .4.3c-.1-.2-.2-.3-.4-.3h.1c0-.1.1 0-.1 0-.2-.2 0-.1 0 0h.1c-.3-.2-.5-.3-.8-.5a2.309 2.309 0 0 1 .7.5z" style="fill:#fff" transform="translate(-868.5 -610.8)"/>
                            <path data-name="Path 5710" d="M881.3 644.3z" style="fill:#fff" transform="translate(-868.5 -610.8)"/>
                            <path data-name="Path 5711" d="M881 644a.367.367 0 0 1 .3.1c.1.1 0 .1-.1.1.1 0 .5.1.2-.2h-.1c-.3-.2-.6-.7-.5-.7a6.374 6.374 0 0 0 .2.7z" style="fill:#fff" transform="translate(-868.5 -610.8)"/>
                            <path data-name="Path 5712" d="M879.4 642.6a2.506 2.506 0 0 1-.7-.4l.2.4v-.1c.4.2.4.1.5.1z" style="fill:#fff" transform="translate(-868.5 -610.8)"/>
                            <path data-name="Path 5713" d="m876.4 639.5.2-.1-.5-.1z" style="fill:#fff" transform="translate(-868.5 -610.8)"/>
                            <path data-name="Path 5714" d="m875.7 638.8.1-.1-.2-.1z" style="fill:#fff" transform="translate(-868.5 -610.8)"/>
                            <path data-name="Path 5715" d="m900 612.3.2-.1c-.1 0-.1.1-.2.1z" style="fill:#fff" transform="translate(-868.5 -610.8)"/>
                            <path data-name="Path 5716" d="M898.4 613.2z" style="fill:#fff" transform="translate(-868.5 -610.8)"/>
                            <path data-name="Path 5717" d="M875.4 619.2c.3 0 .7.1.6 0l-.2-.1a.755.755 0 0 0-.4.1z" style="fill:#fff" transform="translate(-868.5 -610.8)"/>
                            <path data-name="Path 5718" d="m890.5 622.9-.1-.1h-.2c.1 0 .2.1.3.1z" style="fill:#fff" transform="translate(-868.5 -610.8)"/>
                            <path data-name="Path 5719" d="m890.8 622.1.2.3c-.1 0-.1-.2-.2-.3z" style="fill:#fff" transform="translate(-868.5 -610.8)"/>
                            <path data-name="Path 5720" d="m909.9 613.4.4.1c-.4-.4-.3-.1-.4-.1z" style="fill:#fff" transform="translate(-868.5 -610.8)"/>
                            <path data-name="Path 5721" d="M870.6 630.4v-.7c-.1.3-.2.6 0 .7z" style="fill:#fff" transform="translate(-868.5 -610.8)"/>
                            <path data-name="Path 5722" d="M900.3 614.4c.1-.1.1-.1.1-.2-.1.1-.2.1-.1.2z" style="fill:#fff" transform="translate(-868.5 -610.8)"/>
                            <path data-name="Path 5723" d="M870.4 628.9v.2c.1.2.1.4.2.6a1.078 1.078 0 0 0-.2-.8z" style="fill:#fff" transform="translate(-868.5 -610.8)"/>
                            <path data-name="Path 5724" d="M903.5 645z" style="fill:#fff" transform="translate(-868.5 -610.8)"/>
                            <path data-name="Path 5725" d="M894.8 648.6z" style="fill:#fff" transform="translate(-868.5 -610.8)"/>
                            <path data-name="Path 5726" d="M873.2 635.8c.2.1.1 0 0 0z" style="fill:#fff" transform="translate(-868.5 -610.8)"/>
                            <path data-name="Path 5727" d="M873.2 637z" style="fill:#fff" transform="translate(-868.5 -610.8)"/>
                            <path data-name="Path 5728" d="M869.1 626.9z" style="fill:#fff" transform="translate(-868.5 -610.8)"/>
                            <path data-name="Path 5729" d="M873.4 636.1c0-.1-.1-.2-.1-.3a.771.771 0 0 0 .1.3z" style="fill:#fff" transform="translate(-868.5 -610.8)"/>
                            <path data-name="Path 5730" d="M873.4 636c0 .1.1.1.1.2 0-.1 0-.1-.1-.2z" style="fill:#fff" transform="translate(-868.5 -610.8)"/>
                            <path data-name="Path 5731" d="M873.1 635.5c.1.1.1.2.2.3v-.1c-.1 0-.1-.1-.2-.2z" style="fill:#fff" transform="translate(-868.5 -610.8)"/>
                            <path data-name="Path 5732" d="M912.1 629c-.1 0-.1.1 0 0-.1.3 0 .2 0 0z" style="fill:#fff" transform="translate(-868.5 -610.8)"/>
                            <path data-name="Path 5733" d="M880.6 616.5z" style="fill:#fff" transform="translate(-868.5 -610.8)"/>
                            <path data-name="Path 5734" d="M881.5 616.5a.746.746 0 0 1-.8 0c.1.2.1.4.2.6a1.7 1.7 0 0 1 .6-.6z" style="fill:#fff" transform="translate(-868.5 -610.8)"/>
                            <path data-name="Path 5735" d="M904.4 611.4c-.2-.1-.4-.1-.6-.2.8-.3 1.4-.1.7-.4-.1.3-.7.3-1.3.3-.6.1-1.2.2-1.2.5h-.4c.1 0 .1-.1.2-.1-.8-.1-.5.5-1.4.8-.3.1-.6.1-.4 0a2.649 2.649 0 0 0-.6.5c-.2.1-.2 0 0-.1-.3.2-.7.4-1 .6a3.108 3.108 0 0 1-.4.6c-.3.1.1-.1 0-.2-.1.2-.3.3-.4.5-.3 0 0-.4.4-.6-.8-.1-.4.4-1.5 1l.4-.5c-.5 0-.8.4-1.4.8.2-.1 1.4-.6 1 0a1.024 1.024 0 0 0-.5.6c-.2-.1-.4.2-.7.5l-.2-.2c-.3.4-.1.5-.2.8-.4.4-.6.4-.8.4-.6.7.6-.3.1.6a4.454 4.454 0 0 0-1 1.8c-.3.4-.1-.2-.3-.1v.5c-.1.1-.1 0-.1 0-.1.4.2.2 0 .7.1.1-.1.3-.4.6l-.4.4a.367.367 0 0 0-.1.3c-.1 0-.1-.2-.2-.2 0 .3-.1.4-.1.6a3.217 3.217 0 0 1-.1.8v-.1l-.2-.4c.2.5 0 .6-.4.4a3.328 3.328 0 0 0 .3.6l-.8-.6c-.1-.1.1-.1.2-.1-.1 0-.1 0-.2-.1-.2-.3 0-.3.2-.3 0 .1.1.2.1.4.2 0 .3-.2.3-.4h-.1l.1-.1h-.2v-.4l-.1.1-.2-.3-.4-.5a10.071 10.071 0 0 1-2.8-1.1c.4 0 .3-.3.4-.5.1.4.9.5 1.4 1-.3-.2-.1-.3 0-.3a6.115 6.115 0 0 0-1.2-.5c.1-.2-.1-.3-.3-.5 0 .5-.9-.3-1.4-.4 0-.1.2-.2.7.2-.4-.6-1 0-1.4-.6a.367.367 0 0 0 .3.1c-.4-.1-1.1-.5-.9-.6l.1.1a4.843 4.843 0 0 0-1.8-.7c-.6-.2-1.2-.2-1.3 0a3.209 3.209 0 0 1 .3-.5c-.7.3-1.3.6-1.9.9.2-.3-.4-1.1.5-1.2a1.663 1.663 0 0 0-1.1-.1c.2.1.4.5.2.5-.6-.4-.4-.2-1.2-.5.3.1 0 .6-.4.6.1-.1-.1-.5.1-.5l-.9.6c.2-.1 0-.4-.3-.5.1.1-.9.2-1.1.3h.4a1.318 1.318 0 0 0-1 .7 2.013 2.013 0 0 1-.8.8c.1-.1 0-.7-.5-.5a2.649 2.649 0 0 1-.3 1 3.1 3.1 0 0 1-.6 1.3h-.2c-.1.2-.3.4-.4.6a5.419 5.419 0 0 1 .9-2.6c-.4.1-.2-.1-.7.3-.3 0 .2-.4.3-.5a5.381 5.381 0 0 0-1.2.9c.1.1 0 .3-.2.6-.2.2-.3.5-.2.6a6.418 6.418 0 0 1 1-1.3c.2.2-.2 1.2-.9 1.9-.3.1-.2-.5-.3-.5 0 .2-.5.8-.6.9l.2-.4c-.5.4-.3.9-.9 1.4-.1.2-.7.5-.6.6a1.526 1.526 0 0 1 1.5.6 12.047 12.047 0 0 0-1 1.1c-.4.3-.4-.7-.7-.5.1 0 .1.3.1.4-.1.2-.2-.2-.3.4.2.2-.3 1.1.2.3 0 .5-.2.5-.3 1.2.2-.2.6.6.6 1.1a.349.349 0 0 0-.2.1 11.332 11.332 0 0 0 .1 2.6c-.1.1 0 .6-.2.4a1.069 1.069 0 0 1 .3.5c-.1.6-.2-.7-.4-.1.2 0 .4.7.6 1.1.2-.2-.2-1-.4-1.4.3-.1.9.6 1.3 1.4.3.7-.1.4 0 .5a2.043 2.043 0 0 0 .7 1.1 2.138 2.138 0 0 1 .6 1c0 .5-.4.2-.5.4-.4-.5-.3-.9-.5-1.3l.1.5a1.234 1.234 0 0 1-.4-.8c-.1.5 1 2.3 1.5 3.4.2.1.4.4.4.2l-.2-.3c0-.4.6.4.4 0a3.434 3.434 0 0 1 1.2 1.2l-.1.3c.1-.1-.1-.4-.3-.5.3.2.4 1 .8 1.1l-.2-.5c.4.3 1 .5 1.3 1 0-.4-.1-.1-.2-.6-.1.5-1-1.1-.9-.4 0-.5-.3-.7-.4-1.3-.1.1 0 .3-.3-.2h-.1v.3c-.3-.1-.7-.7-1-.9-.1-.3.1.1.1-.1l-.3-.3c.1-.1-.1-.8.3-.3-.1-.2-.2-.3-.3-.5a3.7 3.7 0 0 0-.5-1.1c-.1-.3-.5-.6-.2-.4-.2-.3-.3-.5-.5-.8-.3-.9-.9-1.8-.7-2.9a3.087 3.087 0 0 1-.2-1.1l.2-.1c-.1-.4.1-1.1 0-1.3.4-.4.3-1.8.7-2.4l-.2-.1c.2-.4.3-.8.5-1.3l-.2-.1c.1-.5.9-1 1.5-1.6q0 .15-.3.3c1-.4 1.3-1.7 2.2-1.9.1-.2.3-.2.5-.3h.1a6.117 6.117 0 0 0 .6-.4l.2.2c.2 0 .1-.2 0-.3.1-.1.2-.2.3-.2.3.3.6-.3 1 0 .1-.2 1.2-.3 1.3-.7 0 0 .1.1-.1.1h.8l.1.3a4.877 4.877 0 0 1 .7-.3c.4.2.5.3.1.5.9-.2.7 0 1.6-.2l-.1.2c.3.1.8-.1.9.1.3.2 1 .5 1.8.9a9.451 9.451 0 0 1 2.3 1.6c0-.6.5.6.8.3 0 .2.1.3-.1.3.7.4.9.9 1.5 1 0 .2-.2 0-.2.1.1 0 .3.1.3.2s-.2 0-.3-.1a1.517 1.517 0 0 0 .8.4.764.764 0 0 0 .5-.2c.3.5.6.8.9.8.1.3.4.8-.2.2a11.953 11.953 0 0 0 .9 1.2h.1a.1.1 0 0 1 .1-.1.349.349 0 0 1 .1-.2c.1-.1.1-.3.2-.4.1-.3.2-.5.1-.6.1 0 .3-.5.3-.6.4-.8.6-1 .8-1.5l-.1.1c-.2-.4.2-.5.4-1 .8-.9.2-.5 1.1-1.4l-.2-.1c-.3-.3.8-.8 1.1-1.4l-.2.1c.1-.4 1.1-.5 1.4-.7.1 0 0 .1-.1.2.8-.5-.1-.3.3-.9.2 0 .1.4.5.1.2-.1.7-1.3 1.4-1.5-.2 0-.4 0-.1-.3.4-.3 1.4-.4 1.6-.9h.1c.3-.3 1.1-.6 1.3-.9.3.3.8 0 1.4-.1.5-.2 1.1-.3 1.1.1a4.87 4.87 0 0 1 1.2.1v.1a1.84 1.84 0 0 0 1.3 0c.2.1 0 .1 0 .1a5.6 5.6 0 0 0 2 .8l-.1.2c.1 0 .4.3.7.8a11.309 11.309 0 0 0 1 1.3.1.1 0 0 1-.1-.1 4 4 0 0 1 .7 1.8c.1.6.2 1.1.7 1.3a2.993 2.993 0 0 0 .4.8c-.1-1.1.4.1.4-.4.1.4-.1 1.2-.2.6v-.1c-.4-.1 0 1.4-.3 1.4a18.635 18.635 0 0 1-.9 6.2l.4-.2-.2.7c-.1.2-.3.2-.2-.3-.2.2-.1.9 0 .9-.4.9-.2-.5-.3-.2l-.1.4.1-.1a1.865 1.865 0 0 1-.1 1c-.2.3-.3.1-.3.3l-.1.2-.3.8.4-.2c0 .4-.3.8.1.5-.6.4-1.5 3-1.9 3.3a3.465 3.465 0 0 1-.8 1.6c.1-.1.4-.1.1.4-.4-.5-.8.8-1.4 1 .5-.2-.9 1.4-.2 1.1-.3.4-.2-.1-.5.1a21.641 21.641 0 0 1-2.5 3.2c0 .1.3-.1.2.3l-.8.4c-.2.2.2.5-.4.7.1 0 .2 0 .1.1-.5.5-1 1-1.5 1.6s-.9 1-1.4 1.5a4.685 4.685 0 0 1-3.8 1.1c.4.1.1.2-.1.2.2 0 0 .2.1.3-.4-.1-.8-.2-1.1-.3-.2.3-1.2-.2-1.4.1h.4c-.3.1-.2.3 0 .6.2.2.5.5.4.7a2.634 2.634 0 0 1 1.2.1 1.632 1.632 0 0 0 1.5-.2c.2 0-.2.2 0 .2a1.932 1.932 0 0 1 1.1-.4v.1a18.191 18.191 0 0 0 1.9-.8 11.353 11.353 0 0 0 1.9-1.2l-.2-.1a1.522 1.522 0 0 1 .6-.4c.1-.5-.8.8-.7.3.7-.1 1.8-2 2.3-1.9.4-.4-.3 0 .1-.5h.2v-.2a.778.778 0 0 1 .6-.3c-.1.1-.1.2-.2.3.4-.3.8-1.1 1-1.2l-.4.4a27.066 27.066 0 0 0 2.8-4.1h-.1c.5-1 .6-.7 1.2-1.8v.1a3.552 3.552 0 0 1 .4-.9c-.1.3.5-.4.4 0 .5-1.2.2-.6.3-1.5l.2-.1a1.826 1.826 0 0 1 .2-.9c-.1.5.4-.3.3.4.9-1 .5-1.9 1.3-2.3-.2-.7-.7 1-.6.6-.2.2-.1-.6.1-1s.8-.4 1.2-1.5c0 .1 0 .1-.1.2.3-.3.1-.8.4-1.2-.2-.3.2-.6-.1-.8l-.2 1a5.116 5.116 0 0 1 .3-2c0 .1.1.4.1.6.2-.2.1-.5.2-.8.3.2-.2 1.2-.2 1.8.2-.2.1-1.2.4-.8-.4-.5.4-1 .1-1.8l.2.1c0-.1-.1-.4 0-.6l.2.4c-.1-.6.4-1.1.4-1.7-.2 1.2-.3.2-.5.7-.1-1.5.7-.7.7-2.5 0 .2-.2.9-.3.5a9.443 9.443 0 0 1 .3-.9c0-1.1-.2.2-.3-.3.3-.4-.1-.5-.2-1h.2c.1-1.3-.5-.3-.4-1.4l.3.4-.1-.6.2.1a2.544 2.544 0 0 1-.3-1.5c-.1.2-.4 0-.5-.5 0-.4.3.1 0-.6a.556.556 0 0 1 .3.7.215.215 0 0 1 .2.2 3.991 3.991 0 0 0-.4-1.3c0 .1.1.2.1.3a6.072 6.072 0 0 0-.7-1c0-.2.1-.1.2 0-.1-.2-.3-.3-.5-.6.2 0 .4-.1.6.3-.2-.3-.5-.6-.7-.9 0-.1-.1-.6 0-.5-.3-.6-1.2-1.1-1.8-1.8-.1 0-.1 0-.3-.1a4.786 4.786 0 0 0-2.2-1.3l-.4-.5c-.8-.2.6.6-.6.3-.9-.1-.3-.3-.6-.5a4.6 4.6 0 0 1-2.1.1c-.7-.7-.5-.6-.2-.6zm-8.1 3.5c.1-.1.3-.5.4-.5.1.3-.1.3-.4.5zm-6.4 6.9c.2 0 .2.2.3.3zm-18 12.1c-.1-.4 0-.2 0 0zm.3.7a1.008 1.008 0 0 1-.1-.3c-.1 0-.1.1.1.3zm37.8-3.8.1-.1c0 .3-.1.2-.1.1z" style="fill:#fff" transform="translate(-868.5 -610.8)"/>
                            <path data-name="Path 5736" d="M890.8 622.2z" style="fill:#fff" transform="translate(-868.5 -610.8)"/>
                            <path data-name="Path 5737" d="M909.8 613.4z" style="fill:#fff" transform="translate(-868.5 -610.8)"/>
                            <path data-name="Path 5738" d="M868.8 623.7c.1-.1.1-.2.2-.3a1.238 1.238 0 0 0-.2.3z" style="fill:#fff" transform="translate(-868.5 -610.8)"/>
                            <path data-name="Path 5739" d="m874.6 637.4-.3-.3c.1.2.2.2.2.4 0-.1 0-.2.1-.1z" style="fill:#fff" transform="translate(-868.5 -610.8)"/>
                            <path data-name="Path 5740" d="M876.6 641.1c.1 0 .1.1.2.1v-.1c-.2-.1-.5-.2-.2 0z" style="fill:#fff" transform="translate(-868.5 -610.8)"/>
                            <path data-name="Path 5741" d="M874.4 638.2c-.1.1.1.3.4.5.2-.1-.2-.3-.4-.5z" style="fill:#fff" transform="translate(-868.5 -610.8)"/>
                            <path data-name="Path 5742" d="m874.8 638.8.2.2c.1-.1-.1-.1-.2-.2z" style="fill:#fff" transform="translate(-868.5 -610.8)"/>
                            <path data-name="Path 5743" d="M872.7 635.3c0 .2.2 0 .2.1.3 0-.7-.8-.2-.1z" style="fill:#fff" transform="translate(-868.5 -610.8)"/>
                            <path data-name="Path 5744" d="m874.1 638.7.1-.2h-.3z" style="fill:#fff" transform="translate(-868.5 -610.8)"/>
                            <path data-name="Path 5745" d="M872.6 636.6c.1.2.2.3.3.5a.1.1 0 0 1 .1.1z" style="fill:#fff" transform="translate(-868.5 -610.8)"/>
                            <path data-name="Path 5746" d="M873 637.1c.1.1.2.3.3.3-.1 0-.2-.2-.3-.3z" style="fill:#fff" transform="translate(-868.5 -610.8)"/>
                            <path data-name="Path 5747" d="m873.6 638.2-.1-.1c-.1-.1-.2-.2-.2-.3.1.1.2.3.3.4z" style="fill:#fff" transform="translate(-868.5 -610.8)"/>
                            <path data-name="Path 5748" d="m870.1 631.6-.2-.5q-.15 0 0 .3c.1.1.1.3.2.2z" style="fill:#fff" transform="translate(-868.5 -610.8)"/>
                            <path data-name="Path 5749" d="M870.2 633.4v-.3l-.3.1z" style="fill:#fff" transform="translate(-868.5 -610.8)"/>
                            <path data-name="Path 5750" d="M869.5 631.8c-.1 0-.4-.8-.2 0 .1 0 .3.6.2 0z" style="fill:#fff" transform="translate(-868.5 -610.8)"/>
                            <path data-name="Path 5751" d="M869.8 623.1v.2l.4.1z" style="fill:#fff" transform="translate(-868.5 -610.8)"/>
                            <path data-name="Path 5752" d="M875 616.9c-.8.2-.1.3-.7.5-.1.2.5-.2.4 0 .3-.3.6-.3.3-.5z" style="fill:#fff" transform="translate(-868.5 -610.8)"/>
                            <path data-name="Path 5753" d="M874.7 617.4c-.1 0-.1.1-.2.2.1-.1.1-.2.2-.2z" style="fill:#fff" transform="translate(-868.5 -610.8)"/>
                            <path data-name="Path 5754" d="m893.4 648.3-.3-.2.2.2z" style="fill:#fff" transform="translate(-868.5 -610.8)"/>
                            <path data-name="Path 5755" d="M892.6 648.4v-.3l-.3.2a1 1 0 0 1 .3.1z" style="fill:#fff" transform="translate(-868.5 -610.8)"/>
                            <path data-name="Path 5756" d="M895 615.4c.1.1.2 0 .4-.2z" style="fill:#fff" transform="translate(-868.5 -610.8)"/>
                            <path data-name="Path 5757" d="M900.5 611.8h-.1l.3.2z" style="fill:#fff" transform="translate(-868.5 -610.8)"/>
                            <path data-name="Path 5758" d="M906.2 611.1a1.95 1.95 0 0 0-.8-.1c.6 0 .8.4.8.1z" style="fill:#fff" transform="translate(-868.5 -610.8)"/>
                        </g>
                    </g>
                </g>
            </g>
            <g data-name="Group 488">
                <path data-name="Path 5759" d="M909 635.1a26.911 26.911 0 0 0 3.2-10.3c.5-5.2-1.4-11.6-7.3-12.3a9.339 9.339 0 0 0-5.4 1.2c-4 2.3-6.2 6.3-8.2 10.2a22.6 22.6 0 0 0-8.1-5.9c-4.8-1.6-8.8-.8-12.3 3.5a8.89 8.89 0 0 0-1.8 6.5c.6 6.6 5.1 12 10.6 15.4A63.488 63.488 0 0 0 892 649a8.147 8.147 0 0 0 8.7-2.3 57.416 57.416 0 0 0 8.3-11.6" style="fill:#ffbc2a" transform="translate(-868.5 -610.8)"/>
                <g data-name="Group 487">
                    <g data-name="Group 486">
                        <g data-name="Group 485">
                            <path data-name="Path 5760" d="M908 634.7c.1-.2-.1-.2-.1-.2-.1.3.2.3.1.2z" style="fill:#fff" transform="translate(-868.5 -610.8)"/>
                            <path data-name="Path 5761" d="M906.8 637.7v-.1l-.1.5z" style="fill:#fff" transform="translate(-868.5 -610.8)"/>
                            <path data-name="Path 5762" d="M905.1 640.2c.4-.1.6-.9 1-1.3h.1l-.1-.3a6.242 6.242 0 0 1-1 1.6z" style="fill:#fff" transform="translate(-868.5 -610.8)"/>
                            <path data-name="Path 5763" d="M903.6 641.1c.2 0-.1.3.3-.3h-.1c0 .1-.1.2-.2.3z" style="fill:#fff" transform="translate(-868.5 -610.8)"/>
                            <path data-name="Path 5764" d="M903.8 640.8c.2-.2-.2.1 0 0z" style="fill:#fff" transform="translate(-868.5 -610.8)"/>
                            <path data-name="Path 5765" d="m903 642 .2-.4c-.1 0-.3.3-.3.2-.2.4-.1.3.1.2z" style="fill:#fff" transform="translate(-868.5 -610.8)"/>
                            <path data-name="Path 5766" d="m902.9 642.5.1-.2s-.1 0-.1.2z" style="fill:#fff" transform="translate(-868.5 -610.8)"/>
                            <path data-name="Path 5767" d="m903.2 641.9-.2.4c.1 0 .2 0 .1-.2.1.1.1-.1.1-.2z" style="fill:#fff" transform="translate(-868.5 -610.8)"/>
                            <path data-name="Path 5768" d="M903.4 641.7c.2-.1.4-.4.2 0 .5-.6.3-.7-.2 0z" style="fill:#fff" transform="translate(-868.5 -610.8)"/>
                            <path data-name="Path 5769" d="m905.3 640.5.3-.2.1-.3c-.1.1-.5.4-.4.5z" style="fill:#fff" transform="translate(-868.5 -610.8)"/>
                            <path data-name="Path 5770" d="M901.2 643.9c0 .1.2 0 .3 0l.1-.3c0 .2-.3.4-.4.3z" style="fill:#fff" transform="translate(-868.5 -610.8)"/>
                            <path data-name="Path 5771" d="m901.6 644-.2.4c.2-.3.2-.4.2-.4z" style="fill:#fff" transform="translate(-868.5 -610.8)"/>
                            <path data-name="Path 5772" d="m903.2 642.7.2-.7-.3.9z" style="fill:#fff" transform="translate(-868.5 -610.8)"/>
                            <path data-name="Path 5773" d="m900.1 645.3.1-.3-.2.5z" style="fill:#fff" transform="translate(-868.5 -610.8)"/>
                            <path data-name="Path 5774" d="M899.4 646.1c0-.2-.3 0-.2-.2a2.093 2.093 0 0 0-.4.6 1.539 1.539 0 0 1 .6-.4z" style="fill:#fff" transform="translate(-868.5 -610.8)"/>
                            <path data-name="Path 5775" d="M898.6 646.9c.1-.1.1-.2.2-.3-.1 0-.1.1-.2.3z" style="fill:#fff" transform="translate(-868.5 -610.8)"/>
                            <path data-name="Path 5776" d="M900.8 645c-.1 0-.2 0-.4.2h.3a.349.349 0 0 1 .1-.2z" style="fill:#fff" transform="translate(-868.5 -610.8)"/>
                            <path data-name="Path 5777" d="m900.7 645.1-.3.3c.1 0 .1-.1.3-.3z" style="fill:#fff" transform="translate(-868.5 -610.8)"/>
                            <path data-name="Path 5778" d="M900.8 644.9c0 .1.1.1 0 0z" style="fill:#fff" transform="translate(-868.5 -610.8)"/>
                            <path data-name="Path 5779" d="M902.3 643.6c-.1.3-.4.8.1.5 0-.3-.3-.1-.1-.5z" style="fill:#fff" transform="translate(-868.5 -610.8)"/>
                            <path data-name="Path 5780" d="m901.2 644.9.3-.3s-.2 0-.1-.1z" style="fill:#fff" transform="translate(-868.5 -610.8)"/>
                            <path data-name="Path 5781" d="m901.1 645.1.1-.2-.2.1z" style="fill:#fff" transform="translate(-868.5 -610.8)"/>
                            <path data-name="Path 5782" d="M899.3 646.5a1.755 1.755 0 0 1-.4.5c.2-.1.4-.3.6-.4 0-.1 0-.2-.2-.1z" style="fill:#fff" transform="translate(-868.5 -610.8)"/>
                            <path data-name="Path 5783" d="M900 645.9z" style="fill:#fff" transform="translate(-868.5 -610.8)"/>
                            <path data-name="Path 5784" d="M896.9 648.1z" style="fill:#fff" transform="translate(-868.5 -610.8)"/>
                            <path data-name="Path 5785" d="M899.5 646.6c.2-.1.2-.2.2-.3 0 .1-.1.2-.2.3z" style="fill:#fff" transform="translate(-868.5 -610.8)"/>
                            <path data-name="Path 5786" d="M898.2 647.3a.367.367 0 0 0 .3-.1c-.1 0-.3 0-.3.1z" style="fill:#fff" transform="translate(-868.5 -610.8)"/>
                            <path data-name="Path 5787" d="M899.9 646z" style="fill:#fff" transform="translate(-868.5 -610.8)"/>
                            <path data-name="Path 5788" d="M899.9 646c0 .1-.1.2-.1.3 0-.2.1-.2.1-.3z" style="fill:#fff" transform="translate(-868.5 -610.8)"/>
                            <path data-name="Path 5789" d="M896.5 649.4c0-.2.5-.4 1-.5.4-.3-.1-.7-.6-.9 0 .1 0 .1-.4.4.2.1 1-.1.7.2-.6.3-.5.1-.8.1.3.2-.7.5-.5.7.2-.1.4-.1.5-.2.1.1-.1.2.1.2z" style="fill:#fff" transform="translate(-868.5 -610.8)"/>
                            <path data-name="Path 5790" d="m897.7 647.8.1-.1a.629.629 0 0 1-.6 0l-.3.3a1.883 1.883 0 0 0 .8-.2z" style="fill:#fff" transform="translate(-868.5 -610.8)"/>
                            <path data-name="Path 5791" d="M898.5 647.3c0 .2-.4.5 0 .6.5-.3.2-.3.5-.6-.7.5.1-.2-.5 0 .1-.1.3-.2.4-.3-.1.1-.3.1-.4.2s.1 0 0 .1v-.1a4.235 4.235 0 0 1-.7.5 5.738 5.738 0 0 0 .7-.4z" style="fill:#fff" transform="translate(-868.5 -610.8)"/>
                            <path data-name="Path 5792" d="M902.3 644.7z" style="fill:#fff" transform="translate(-868.5 -610.8)"/>
                            <path data-name="Path 5793" d="M902 644.9c0-.1 0-.2.2-.3s.1.1.1.1c.1-.1.2-.4-.1-.2v.1c-.3.3-.8.5-.8.4a1.487 1.487 0 0 0 .6-.1z" style="fill:#fff" transform="translate(-868.5 -610.8)"/>
                            <path data-name="Path 5794" d="M900.3 646.4c-.2.2-.3.4-.5.6a.758.758 0 0 0 .4-.2l-.1-.1c.4-.2.2-.3.2-.3z" style="fill:#fff" transform="translate(-868.5 -610.8)"/>
                            <path data-name="Path 5795" d="M896.8 648v-.2l-.3.4z" style="fill:#fff" transform="translate(-868.5 -610.8)"/>
                            <path data-name="Path 5796" d="M895.9 648.3v-.2l-.2.1z" style="fill:#fff" transform="translate(-868.5 -610.8)"/>
                            <path data-name="Path 5797" d="m884.1 617.3.3.1a.367.367 0 0 0-.3-.1z" style="fill:#fff" transform="translate(-868.5 -610.8)"/>
                            <path data-name="Path 5798" d="M882.4 616.7c0 .1.1 0 0 0z" style="fill:#fff" transform="translate(-868.5 -610.8)"/>
                            <path data-name="Path 5799" d="M874.7 637.8c-.1-.4-.1-.8-.3-.6l-.1.2a.781.781 0 0 1 .4.4z" style="fill:#fff" transform="translate(-868.5 -610.8)"/>
                            <path data-name="Path 5800" d="M870.2 622.5q-.15.3 0 .3z" style="fill:#fff" transform="translate(-868.5 -610.8)"/>
                            <path data-name="Path 5801" d="M869.7 621.9a1.38 1.38 0 0 1 .4-.3.536.536 0 0 0-.4.3z" style="fill:#fff" transform="translate(-868.5 -610.8)"/>
                            <path data-name="Path 5802" d="M891 621.8v-.3z" style="fill:#fff" transform="translate(-868.5 -610.8)"/>
                            <path data-name="Path 5803" d="M886.4 645.7a2.093 2.093 0 0 0-.6-.4c.3.3.5.5.6.4z" style="fill:#fff" transform="translate(-868.5 -610.8)"/>
                            <path data-name="Path 5804" d="M882.8 618.9h.2a.138.138 0 0 0-.2 0z" style="fill:#fff" transform="translate(-868.5 -610.8)"/>
                            <path data-name="Path 5805" d="m885.1 645 .1.1c.2.1.4.1.6.2a1.493 1.493 0 0 0-.7-.3z" style="fill:#fff" transform="translate(-868.5 -610.8)"/>
                            <path data-name="Path 5806" d="M913.4 623.1z" style="fill:#fff" transform="translate(-868.5 -610.8)"/>
                            <path data-name="Path 5807" d="M909.5 632.2c0-.1.1-.2.1-.4a.756.756 0 0 1-.1.4z" style="fill:#fff" transform="translate(-868.5 -610.8)"/>
                            <path data-name="Path 5808" d="M892.4 647.9c.2.1.1 0 0 0z" style="fill:#fff" transform="translate(-868.5 -610.8)"/>
                            <path data-name="Path 5809" d="M893.1 648.9a.1.1 0 0 0-.1.1z" style="fill:#fff" transform="translate(-868.5 -610.8)"/>
                            <path data-name="Path 5810" d="M882.6 645.1z" style="fill:#fff" transform="translate(-868.5 -610.8)"/>
                            <path data-name="Path 5811" d="M892.7 648.1c-.1 0-.1-.1-.2-.1z" style="fill:#fff" transform="translate(-868.5 -610.8)"/>
                            <path data-name="Path 5812" d="M892.6 648c.1 0 .1 0 .2.1 0-.1 0-.1-.2-.1z" style="fill:#fff" transform="translate(-868.5 -610.8)"/>
                            <path data-name="Path 5813" d="M892.1 647.8c.1 0 .2.1.3.1-.1 0-.1 0-.3-.1z" style="fill:#fff" transform="translate(-868.5 -610.8)"/>
                            <path data-name="Path 5814" d="M901.1 612.4c.3-.2.2-.1 0 0z" style="fill:#fff" transform="translate(-868.5 -610.8)"/>
                            <path data-name="Path 5815" d="M870 634.1z" style="fill:#fff" transform="translate(-868.5 -610.8)"/>
                            <path data-name="Path 5816" d="M869.5 633.4c.4.2.4.4.5.7l.4-.5z" style="fill:#fff" transform="translate(-868.5 -610.8)"/>
                            <path data-name="Path 5817" d="m887.9 619.4-.4-.5c.7.2 1.1.5.8 0-.4.4-1.9-1.2-2.3-.7l-.3-.3c.1.1.1 0 .2.1-.5-.6-.7.1-1.5-.4-.3-.2-.5-.4-.2-.3-.3 0-.5-.1-.8-.1-.2-.1-.1-.2.1-.1-.4-.1-.7-.2-1.1-.3a2.2 2.2 0 0 1-.8.1c-.3-.1.2 0 .1-.1h-.6c-.2-.2.3-.3.7-.1-.5-.7-.5 0-1.8-.5h.6c-.4-.4-.9-.3-1.6-.5.2.1 1.4.6.7.7a2.134 2.134 0 0 0-.8 0c0-.2-.4-.1-.9-.1v-.3c-.5.1-.5.3-.7.4a.986.986 0 0 1-.9-.2c-.9.2.7.1-.3.5a3.227 3.227 0 0 0-1.9 1c-.5.2 0-.2-.2-.2l-.3.4c-.1.1-.1 0-.1-.1-.3.3.1.2-.3.6 0 .2-.3.3-.6.4-.3.2-.8.4-.9.8-.2.1-.1-.2-.2-.2a4.014 4.014 0 0 0-.8 1.6 2.649 2.649 0 0 0-.6.5c.5-.3.3.4.2 1 .2-.1.3-.2.4-.2-.1.3-.2.5-.3.8-.1.1-.1 0-.2-.2v.2c-.2.2-.3 0-.3-.3.1-.1.2-.1.3-.2 0-.3-.1-.6-.2-.6a.367.367 0 0 1-.1.3c0-.1 0-.1-.1-.1v.3l-.4.1.1.1a10.542 10.542 0 0 0-.7 1.1c0 1 .3 1.8.4 3.1-.2-.3-.4-.1-.6-.1.3-.4-.1-1.1.2-1.8-.1.4-.2.3-.2.2a5.284 5.284 0 0 0 .1 1.3c-.2 0-.2.3-.3.6.4-.3.3 1 .5 1.5-.1 0-.3 0-.3-.7-.3.7.6.8.4 1.5a.367.367 0 0 0-.1-.3c.1.3.3 1.2.1 1v-.1a18.024 18.024 0 0 0 .5 1.9 3.27 3.27 0 0 0 .7 1.1h-.5a17.387 17.387 0 0 0 1.8 1.1c-.4 0-.7.9-1.3.2a4.384 4.384 0 0 0 .5.9c0-.2.2-.6.3-.4a3.177 3.177 0 0 0 .2 1.3c-.1-.2.5-.3.7.1-.1 0-.4.3-.5.2a4.051 4.051 0 0 0 .9.5c-.2-.1-.4.2-.4.5 0-.1.5.7.7.9l-.2-.4c.6.9 1.2.4 1.9 1.2-.2 0-.7.2-.3.6a5.945 5.945 0 0 1 2.4.4v.2l.6.3a9.437 9.437 0 0 1-2.7-.6c.2.4-.1.2.4.6.1.2-.4-.1-.5-.2a9.949 9.949 0 0 0 1 1.1c.1-.3 1 .5 1.1.3-.4-.3-.9-.5-1.3-.8.2-.2 1.2 0 1.9.7.1.2-.5.3-.5.4.2 0 .9.4.9.6l-.4-.1c.4.4.9.3 1.3.9.2.2.4.7.5.6-.1-.5.4-1.4.7-1.4a6.235 6.235 0 0 1 .9 1.2c.2.4-.8.2-.6.6.1-.1.3 0 .4 0 .2.2-.2.2.3.4.2-.2.9.6.3-.1.5.2.4.3 1 .6-.1-.3.8-.3 1.3-.2-.1.1 0 .2 0 .3a23.863 23.863 0 0 0 2.2 1.2c.1.1.4.4.2.4a1.76 1.76 0 0 1 .6.1c.4.5-.6-.2-.3.2.1-.1.8.1 1.2.2 0-.3-.9-.4-1.3-.5.1-.3 1-.4 2-.1.8.2.2.3.4.4 1.4.6 1.4-.1 2.5.6.4.4-.1.4-.1.6-.6-.1-.9-.5-1.3-.6l.5.3a1.33 1.33 0 0 1-.8-.3c.3.4 2.3 1 3.4 1.5.2 0 .6 0 .5-.1l-.4-.1c-.3-.3.7 0 .3-.3a4.677 4.677 0 0 1 1.6.2l.1.3c0-.1-.4-.2-.6-.2.3 0 1 .5 1.3.2l-.4-.2a8.333 8.333 0 0 1 1.5-.4c-.3-.2-.1 0-.5-.2.2.2-.2.2-.5.2s-.6 0-.4.2c-.4-.4-.7-.2-1.1-.6 0 .1.1.2-.3.1h-.1c.1.1.2.1.2.2-.1.1-.4 0-.6 0a1.953 1.953 0 0 0-.7-.1c-.3-.1.2-.1 0-.2h-.4c0-.2-.6-.6.1-.4l-.6-.2a2.7 2.7 0 0 0-1.1-.5c-.3-.1-.8-.1-.5-.1l-1-.3a9.279 9.279 0 0 1-2.9-1.3 3.445 3.445 0 0 1-1.1-.5v-.2c-.4-.1-1.1-.7-1.3-.6-.2-.6-1.7-1.1-2.3-1.5l-.1.2c-.4-.3-.9-.5-1.4-.8l-.1.2c-.5-.2-1-.9-1.7-1.5q.15 0 .3.3c-.5-1-1.8-1.2-2.2-2.1-.2-.1-.3-.3-.4-.4l-.1-.1c0-.1-.1-.2-.1-.3 0 .1.1.2.1.3l-.5-.5.1-.2c-.1-.2-.2-.1-.2.1-.1-.1-.2-.2-.3-.2.1-.4-.5-.5-.4-.9-.2 0-.9-1-1.2-.9 0 0 0-.1.1 0a1.157 1.157 0 0 0-.5-.7l.2-.2-.6-.4c0-.4 0-.6.3-.3-.7-.7-.4-.6-1-1.2h.2c-.1-.3-.5-.6-.4-.8a10.641 10.641 0 0 0-.3-2 6.212 6.212 0 0 1-.1-2.7c-.5.3.3-.7-.1-.8.1-.1.2-.3.3 0 0-.8.4-1.1.2-1.7.1 0 .1.2.2.2 0-.1 0-.3.1-.3s.1.1.1.3c.2-.7 0-.9-.3-1.1a1.086 1.086 0 0 0 .4-.9c.2-.1.4-.2.2.2a7.972 7.972 0 0 1 .6-.8c.3-.3.5-.6.4-.7.1 0 .3-.3.3-.4a8.122 8.122 0 0 1 1-.9l-.2.1c0-.4.4-.4.8-.7 1.1-.4.4-.4 1.5-.7l-.1-.2q0-.3.6-.3a1.978 1.978 0 0 0 1.1-.2l-.3-.1a.878.878 0 0 1 .7.1c.3.1.6.3.7.3s-.1.1-.2.1c.9.2.1-.3.8-.4.1.1-.2.4.3.4.2.1 1.4-.4 2 0-.1-.1-.2-.3.1-.3.5.1 1.3.7 1.8.6a.1.1 0 0 1 .1.1c.4 0 1.2.4 1.5.3 0 .4.6.6 1.1.9.5.2 1 .5.9.7.3.2.7.5 1 .7h-.1c.6.5.9.6 1.2.6.1.2 0 .1-.1.1l.5.5.5.5c.3.2.7.5 1.1.8l.1.4c.1 0 .3.3.5.7a9.3 9.3 0 0 0 1.6-2.9v.2c.1-.3.2-.4.2-.6.1-.2.2-.3.3-.5a5.553 5.553 0 0 1 .6-.8c.4-.5.7-1 .5-1.4l.3-.8c-.7.9-.2-.3-.5 0 .2-.4.9-.8.6-.3h-.1c.2.4 1-1 1.2-.8a10.941 10.941 0 0 1 5-3.4l-.3-.2a1.422 1.422 0 0 1 .6-.2c.2 0 .3.2-.2.3.3.1.7-.4.7-.4.9-.1-.3.4 0 .4l.4-.1h-.1a1.511 1.511 0 0 1 .9-.4c.4 0 .2.2.3.2h1l-.3-.3c.4-.1.8.1.4-.2a2.389 2.389 0 0 0 .7.3c.3.1.7.2 1 .3a2.8 2.8 0 0 1 1.4.8 1.612 1.612 0 0 1 .7.4l.6.6c-.1-.2.1-.4.4 0-.6.2.5 1 .3 1.6 0-.2.2.1.4.4s.4.6.4.2c.2.5-.2.1-.2.5.6 1 .6 2.4.8 3.8.1 0 .2-.2.3.1l-.3.8c.1.3.4.2.2.8.1-.1.2-.2.2 0-.4 2.7-.5 5.8-2.2 8.2.3-.3.2-.1.1.2.1-.2.2.1.3.1-.2.3-.5.7-.7 1 .2.3-.5 1.2-.3 1.4l.1-.4c.1.6 1-.3 1.3-.1-.1-.7 1.1-1.2 1-2.3.2-.2.1.2.2.1a1.612 1.612 0 0 1 .2-1.1v.1c.4-1.5.8-2.1 1.2-3.8l-.2.1c.1-.4.2-.4.2-.6-.2-.5-.2 1-.5.6.5-.4.4-2.6.8-2.9 0-.6-.2.2-.2-.4l.1-.2-.2-.2c0-.4.2-.6.3-.6v.4a3.9 3.9 0 0 0-.1-1.6v.6a12.481 12.481 0 0 0-1.4-5v.1a4.525 4.525 0 0 1-.5-1 4.119 4.119 0 0 0-.6-1 4.621 4.621 0 0 1-.7-.7c.3.2-.3-.6.1-.4-.5-.4-.7-.5-.8-.5a3.2 3.2 0 0 1-.7-.1l-.1-.2a1.72 1.72 0 0 1-1-.3c.6.1-.3-.4.4-.3a9.211 9.211 0 0 0-.8-.5 6.361 6.361 0 0 1-.7-.2c-.4-.1-.8 0-1-.4-.7.3 1.2.5.8.5.2.2-.6.2-1 .1s-.7-.7-1.9-.6h.2c-.4-.1-.8.2-1.4.1-.2.3-.7.1-.7.5.3-.1.6-.2 1-.3-.6.2-1 .7-1.9.8 0-.1.3-.3.4-.4-.3 0-.5.2-.8.3-.1-.4 1.1-.5 1.7-.9-.3-.1-1.1.6-.9.1-.3.6-1.1.3-1.6 1v-.2a2.182 2.182 0 0 1-.5.4c.1-.1.1-.3.2-.4-.4.5-1.1.4-1.6.9 1-.7.4 0 .9-.1-1.1 1.1-1.1 0-2.3 1.2.2-.2.7-.5.5-.2a4.051 4.051 0 0 1-.9.5c-.8.8.3 0 0 .5-.5.1-.3.5-.6.9l-.2-.1c-.9.9.1.5-.7 1.3l.1-.6-.3.5-.1-.2a3.6 3.6 0 0 1-.8 1.2c.2 0 .3.3 0 .7-.3.2-.1-.3-.4.4 0-.2-.1-.5.3-.7a.367.367 0 0 0-.1-.3 3.378 3.378 0 0 0-.7 1.1c.1-.1.1-.2.2-.2-.1.4-.2.7-.3 1.1-.2.1-.1 0-.1-.2a6.388 6.388 0 0 0-.2.7c-.1-.2-.3-.2-.1-.7a3.811 3.811 0 0 0-.3 1 .367.367 0 0 1-.3-.1c-.1 0 0 .1 0 .2s0 .4-.1.4v-.1a.1.1 0 0 1-.1.1c-.1-.1-.1-.3-.2-.4 0-.1-.1-.1-.2-.2a2.185 2.185 0 0 0-.5-.3l-.2-.6c-.6-.4.3.7-.7.1-.7-.4-.1-.4-.3-.6a3.148 3.148 0 0 1-1.7-.9c.2-.6.4-.5.6-.3zm-8.2-3c.2 0 .5-.1.6 0-.1.2-.3 0-.6 0zm-10.4 7.1a.914.914 0 0 1 .3-.5c-.1.1-.1.3-.3.5zm20.8 23.8c-.3-.2-.2-.2 0 0zm.7.3a1.437 1.437 0 0 1-.3-.2c0 .1.1.2.3.2zm12.8-34.3h-.1c.3-.2.2-.1.1 0z" style="fill:#fff" transform="translate(-868.5 -610.8)"/>
                            <path data-name="Path 5818" d="M869.7 622h.1c.1-.1.1-.1-.1 0z" style="fill:#fff" transform="translate(-868.5 -610.8)"/>
                            <path data-name="Path 5819" d="M891 621.8z" style="fill:#fff" transform="translate(-868.5 -610.8)"/>
                            <path data-name="Path 5820" d="m879.6 644.4-.2-.2z" style="fill:#fff" transform="translate(-868.5 -610.8)"/>
                            <path data-name="Path 5821" d="M894.3 648.2h-.4c.2 0 .3.1.4.1 0 0-.1-.1 0-.1z" style="fill:#fff" transform="translate(-868.5 -610.8)"/>
                            <path data-name="Path 5822" d="M898.2 648.6c.1-.1.1-.1.2-.1l-.1-.1c-.2.2-.4.3-.1.2z" style="fill:#fff" transform="translate(-868.5 -610.8)"/>
                            <path data-name="Path 5823" d="M894.7 648.9c0 .2.3.1.6.1h-.1c.1-.3-.2-.2-.5-.1z" style="fill:#fff" transform="translate(-868.5 -610.8)"/>
                            <path data-name="Path 5824" d="M895.4 648.9h.3c0-.1-.2 0-.3 0z" style="fill:#fff" transform="translate(-868.5 -610.8)"/>
                            <path data-name="Path 5825" d="M891.7 647.8c.1.1.2-.2.2-.1.3-.1-1.1-.1-.2.1z" style="fill:#fff" transform="translate(-868.5 -610.8)"/>
                            <path data-name="Path 5826" d="m894.9 649.5-.1-.3-.2.2z" style="fill:#fff" transform="translate(-868.5 -610.8)"/>
                            <path data-name="Path 5827" d="M892.4 649c.2.1.3.1.5.2h.2c-.4-.2-.7-.3-.7-.2z" style="fill:#fff" transform="translate(-868.5 -610.8)"/>
                            <path data-name="Path 5828" d="M893 649.1c.2 0 .3.1.4 0z" style="fill:#fff" transform="translate(-868.5 -610.8)"/>
                            <path data-name="Path 5829" d="m894.2 649.5-.2-.1a.756.756 0 0 1-.4-.1.846.846 0 0 0 .6.2z" style="fill:#fff" transform="translate(-868.5 -610.8)"/>
                            <path data-name="Path 5830" d="m887.1 646.9-.6-.2c-.1 0 0 .1.3.2.1.1.3.1.3 0z" style="fill:#fff" transform="translate(-868.5 -610.8)"/>
                            <path data-name="Path 5831" d="m888.5 648.1-.2-.2-.1.2z" style="fill:#fff" transform="translate(-868.5 -610.8)"/>
                            <path data-name="Path 5832" d="M886.9 647.5c-.1 0-.9-.1-.2.1.1 0 .7.2.2-.1z" style="fill:#fff" transform="translate(-868.5 -610.8)"/>
                            <path data-name="Path 5833" d="M879.2 643.3h.2l.2-.3z" style="fill:#fff" transform="translate(-868.5 -610.8)"/>
                            <path data-name="Path 5834" d="M872.7 638.8c.4.6.3 0 .6.5.2.1-.3-.5-.1-.4-.4-.2-.5-.4-.5-.1z" style="fill:#fff" transform="translate(-868.5 -610.8)"/>
                            <path data-name="Path 5835" d="M873.2 639c.1 0 .1.1.2.1a.31.31 0 0 0-.2-.1z" style="fill:#fff" transform="translate(-868.5 -610.8)"/>
                            <path data-name="Path 5836" d="m908.6 633.5-.2.4.2-.2z" style="fill:#fff" transform="translate(-868.5 -610.8)"/>
                            <path data-name="Path 5837" d="M908.6 634.4h-.3l.1.3c0-.1.1-.2.2-.3z" style="fill:#fff" transform="translate(-868.5 -610.8)"/>
                            <path data-name="Path 5838" d="M878.4 615.8c0 .1.2.1.4.1z" style="fill:#fff" transform="translate(-868.5 -610.8)"/>
                            <path data-name="Path 5839" d="m884.8 617.3-.1-.1.1.3z" style="fill:#fff" transform="translate(-868.5 -610.8)"/>
                            <path data-name="Path 5840" d="M889.5 619.9c-.2-.1-.4-.3-.6-.4.4.2.4.7.6.4z" style="fill:#fff" transform="translate(-868.5 -610.8)"/>
                        </g>
                    </g>
                </g>
            </g>
        </g>
    </g>
</svg>
