<svg xmlns="http://www.w3.org/2000/svg" width="27.841" height="24.361" viewBox="0 0 27.841 24.361">
    <path data-name="Icon awesome-paw" d="M13.92 12.69c-4.32 0-10.44 6.676-10.44 10.889 0 1.9 1.458 3.032 3.9 3.032 2.656 0 4.409-1.364 6.539-1.364 2.148 0 3.907 1.364 6.539 1.364 2.443 0 3.9-1.134 3.9-3.032.003-4.213-6.12-10.889-10.438-10.889zM5.912 12C5.346 10.12 3.6 8.9 2.021 9.279s-2.408 2.213-1.843 4.1 2.308 3.1 3.891 2.726S6.477 13.889 5.912 12zm4.607-1.13c1.681-.438 2.524-2.711 1.881-5.07S9.869 1.882 8.187 2.325 5.663 5.041 6.307 7.4s2.53 3.918 4.212 3.475zm15.3-1.6c-1.583-.378-3.325.842-3.891 2.726s.259 3.718 1.843 4.1 3.325-.842 3.891-2.726-.262-3.712-1.842-4.091zm-8.5 1.6c1.681.447 3.571-1.107 4.215-3.47s-.2-4.633-1.88-5.077-3.568 1.114-4.212 3.477.2 4.634 1.88 5.077z" transform="translate(.001 -2.25)" style="fill:#ffbc2a"/>
</svg>
