<svg xmlns="http://www.w3.org/2000/svg" width="30" height="26" viewBox="0 0 30.129 26.363">
    <path id="Icon_awesome-paw" data-name="Icon awesome-paw" d="M15.064,13.548c-4.673,0-11.3,7.224-11.3,11.784,0,2.054,1.578,3.281,4.222,3.281,2.874,0,4.772-1.476,7.077-1.476,2.325,0,4.228,1.476,7.077,1.476,2.644,0,4.222-1.227,4.222-3.281C26.363,20.772,19.737,13.548,15.064,13.548ZM6.4,12.806c-.612-2.039-2.5-3.359-4.211-2.95S-.42,12.251.192,14.29s2.5,3.359,4.211,2.95S7.01,14.845,6.4,12.806Zm4.985-1.223C13.2,11.1,14.115,8.645,13.418,6.09S10.68,1.852,8.86,2.331,6.128,5.27,6.825,7.825,9.563,12.063,11.383,11.583ZM27.941,9.857c-1.714-.41-3.6.911-4.211,2.95s.281,4.024,1.994,4.433,3.6-.911,4.211-2.95S29.655,10.266,27.941,9.857Zm-9.2,1.727c1.821.479,3.861-1.2,4.558-3.758s-.214-5.014-2.035-5.494-3.861,1.2-4.558,3.758.214,5.015,2.035,5.494Z" transform="translate(0.001 -2.25)" fill="#ca2027"/>
</svg>
