<svg xmlns="http://www.w3.org/2000/svg" width="707" height="19" viewBox="0 0 707 19">
    <g data-name="Group 1881">
        <text data-name="100% natural" transform="translate(48 15)" style="font-size:16px;font-family:Roboto-Regular,Roboto"><tspan x="0" y="0">100% Natural</tspan></text>
        <text data-name="100% natural" transform="translate(236 15)" style="font-size:16px;font-family:Roboto-Regular,Roboto"><tspan x="0" y="0">100% Natural</tspan></text>
        <text data-name="100% natural" transform="translate(424 15)" style="font-size:16px;font-family:Roboto-Regular,Roboto"><tspan x="0" y="0">100% Natural</tspan></text>
        <text data-name="100% natural" transform="translate(612 15)" style="font-size:16px;font-family:Roboto-Regular,Roboto"><tspan x="0" y="0">100% Natural</tspan></text>
        <path data-name="Path 29775" d="M19.849 35.4a.251.251 0 0 1-.216-.377l.37-.635-.622.359a.251.251 0 0 1-.334-.356l.592-.888-.97.56a.251.251 0 0 1-.294-.4l.053-.05-.161.093a.251.251 0 0 1-.314-.382l.916-1.042-1.373.793a.251.251 0 0 1-.3-.4l.981-.94-1.4.809a.251.251 0 0 1-.3-.4l1.113-1.047-1.611.93a.251.251 0 0 1-.3-.4l1.3-1.27-1.961 1.132a.251.251 0 1 1-.251-.434l3.667-2.117a.251.251 0 0 1 .3.4l-1.292 1.274 1.769-1.021a.251.251 0 0 1 .3.4l-1.112 1.047 1.33-.768a.251.251 0 0 1 .3.4l-.98.94.9-.518a.251.251 0 0 1 .314.382l-.916 1.043.848-.49a.251.251 0 0 1 .294.4l-.091.083a.251.251 0 0 1 .265.383l-.592.887.509-.294a.251.251 0 0 1 .341.343l-.385.662a.251.251 0 0 1 .167.464l-.717.414a.245.245 0 0 1-.127.032z" transform="translate(-7.448 -20.699)" style="fill:#8ba820"/>
        <path data-name="Path 29776" d="M9.007 36.5a.251.251 0 0 1-.187-.417l.77-.865-1.66.958a.251.251 0 0 1-.282-.412l.143-.115-.479.276a.251.251 0 0 1-.284-.411l.5-.407-.861.5a.251.251 0 0 1-.285-.41l.711-.588-1.052.61a.251.251 0 0 1-.284-.411l.785-.643-1.067.617a.251.251 0 0 1-.287-.408l1.053-.891-1.317.763a.251.251 0 0 1-.281-.413l.609-.483-.725.418a.251.251 0 0 1-.291-.4l1.179-1.042-1.346.775a.251.251 0 0 1-.268-.422l2.222-1.549-2.318 1.338a.251.251 0 0 1-.273-.419l2.861-2.077-3 1.733a.251.251 0 0 1-.272-.42l2.08-1.5-2.179 1.26a.251.251 0 0 1-.269-.422l.825-.575-.869.5a.251.251 0 0 1-.276-.417l1.434-1.081-1.6.922a.251.251 0 0 1-.289-.407l1.287-1.1-1.6.922a.251.251 0 0 1-.346-.336l.341-.632-.646.373a.251.251 0 0 1-.251-.433l1.41-.815a.251.251 0 0 1 .347.338l-.341.632 3.157-1.823a.251.251 0 0 1 .289.407L4.246 28.2l2.809-1.622a.251.251 0 0 1 .276.417L5.9 28.073l2.417-1.4a.251.251 0 0 1 .269.422l-.822.572 1.436-.823a.251.251 0 0 1 .272.42l-2.081 1.5 2.806-1.621a.251.251 0 0 1 .273.419L7.6 29.637l3.54-2.043a.251.251 0 0 1 .268.422L7.6 30.649a.27.27 0 0 1 .05.05.251.251 0 0 1-.038.334l-1.18 1.043 1.523-.876a.251.251 0 0 1 .281.413l-.611.485.8-.462a.251.251 0 0 1 .287.408l-1.052.891 1.321-.763a.251.251 0 0 1 .284.411l-.789.644.985-.569a.251.251 0 0 1 .285.41l-.714.588.887-.512a.251.251 0 0 1 .285.41l-.5.407.627-.362a.251.251 0 0 1 .283.412l-.142.115.217-.126a.251.251 0 0 1 .312.383l-.771.866 1.009-.582a.251.251 0 0 1 .324.37l-.239.309.284-.163a.251.251 0 1 1 .251.433l-1.385.8a.251.251 0 0 1-.324-.37l.239-.31-1.257.725a.245.245 0 0 1-.125.039z" transform="translate(-.422 -19.519)" style="fill:#8ba820"/>
        <path data-name="Path 29777" d="M33.473 29.508a.251.251 0 0 1-.137-.46l.575-.376-1.156.667a.251.251 0 0 1-.266-.424l3.72-2.521-4.5 2.6a.251.251 0 0 1-.266-.424l5.057-3.426-5.49 3.169a.251.251 0 0 1-.262-.427l3.658-2.372-3 1.732a.251.251 0 0 1-.262-.427l3.412-2.219-2.656 1.537a.251.251 0 0 1-.266-.424l5.587-3.8-4.476 2.587a.251.251 0 1 1-.262-.427l2.091-1.347-1.185.684a.251.251 0 0 1-.264-.426l3.113-2.05-1.995 1.153a.251.251 0 0 1-.267-.423l4.689-3.214-3.131 1.807a.251.251 0 0 1-.264-.425l2.856-1.9-2.949 1.7a.251.251 0 1 1-.251-.433l9.762-5.634a.251.251 0 0 1 .264.425l-2.854 1.9 1.936-1.117a.251.251 0 0 1 .267.423l-4.692 3.216 3.743-2.161a.251.251 0 1 1 .263.426l-3.111 2.049 2.565-1.481a.251.251 0 0 1 .262.427l-2.089 1.348 1.654-.955a.251.251 0 0 1 .267.424l-5.585 3.8 5.1-2.945a.251.251 0 1 1 .262.427l-3.417 2.209 3-1.733a.251.251 0 0 1 .262.427l-3.658 2.371 3.2-1.849a.251.251 0 0 1 .266.424l-5.061 3.425 4.43-2.556a.251.251 0 0 1 .266.424l-3.721 2.527 2.933-1.695a.251.251 0 0 1 .263.426l-.729.477a.251.251 0 0 1 .21.443l-2.4 1.817.489-.282a.251.251 0 1 1 .251.433l-3.969 2.29a.251.251 0 0 1-.277-.417l2.4-1.816-4.078 2.356a.248.248 0 0 1-.124.037z" transform="translate(-15.428 -13.029)" style="fill:#9cc824"/>
        <path data-name="Path 29778" d="M25.977 26.287a.251.251 0 0 1-.2-.4l.542-.721-.692.4a.251.251 0 0 1-.287-.407l.28-.238-.223.129a.251.251 0 0 1-.278-.415l.483-.374-.4.231a.251.251 0 0 1-.278-.416l2.035-1.553-1.95 1.126a.251.251 0 0 1-.258-.429l3-1.86-2.818 1.623a.251.251 0 0 1-.258-.429l3.278-2.044-3.034 1.751a.251.251 0 0 1-.26-.428l4.656-2.961L25 21.36a.251.251 0 0 1-.261-.427l4.6-2.978-4.113 2.375a.251.251 0 0 1-.26-.428l2.192-1.4-1.607.927a.251.251 0 0 1-.262-.429l3.811-2.66-2.642 1.525a.251.251 0 0 1-.272-.42l1.7-1.225a.251.251 0 0 1-.031-.448l3.279-1.893a.251.251 0 0 1 .272.42l-.9.651 3.336-1.926a.251.251 0 0 1 .269.422L30.3 16.112l6.01-3.471a.251.251 0 0 1 .26.428l-2.191 1.4 3.3-1.9a.251.251 0 0 1 .262.427l-4.608 2.981 5.863-3.383a.251.251 0 0 1 .26.428L34.8 15.983l5.674-3.283a.251.251 0 0 1 .258.429l-3.275 2.043 4.013-2.317a.251.251 0 0 1 .258.429l-11.3 7a.251.251 0 0 1-.086.277l-2.032 1.554.251-.143a.251.251 0 0 1 .278.415l-.88.682a.251.251 0 0 1 .1.435l-.708.6a.238.238 0 0 1 .089.065.251.251 0 0 1 .013.317l-.829 1.1a.251.251 0 0 1-.05.394l-.478.276a.245.245 0 0 1-.123.034z" transform="translate(-12.392 -12.53)" style="fill:#9cc824"/>
        <path data-name="Path 29779" d="M28.745 12.681c-6.273-.79-15.215 1.459-16.364 8.682-3.2-2.806-8.669-2.092-12.029.043-.3.5.557.861.843 1.129 1.989 2.289 2.821 5.709 6.113 6.611 1.884.862 6.692.321 3.544-2.275-.274-.665-3.781-3.314-3.011-3.362a17.563 17.563 0 0 1 4.291 3.4c.583.861 1.62.322 1.736-.593 1.367-.293 1.575-2.243 2.438-3.2a19.026 19.026 0 0 1 3.352-3.872c.752.11-.5 1.153-.628 1.506a29.465 29.465 0 0 0-3.637 6.742c-.232 1.084 1.8 1.393 2.536 1.492 6.9.706 10.06-6.611 10.584-12.363-.018-1.486 3.2-3.887.233-3.937zM13.073 26.565q-.15.594-.154.167c-1.591-1.353-3.474-3.924-5.7-3.726-1.2.891.839 1.714 1.319 2.42.44.719 3.766 3.05 2.087 3.483-2.988.831-5.679-1.565-6.972-4.009a9.044 9.044 0 0 0-2.672-3.4c3.312-1.8 8.7-2.514 11.34.815a7.223 7.223 0 0 0 .917 3.585 4.053 4.053 0 0 1-.165.66zm15.946-12.6a12.141 12.141 0 0 0-1.733 5.312c-.51 4.607-4.183 10.012-9.371 9.186-4.688-.016 2.163-7.323 2.731-9.162-1.5-2.649-5.831 5.22-6.665 6.437a.132.132 0 0 0-.059-.126C9.627 16.761 21.6 11.644 28.8 13.2c.577-.045.612.392.219.769z" transform="translate(-.29 -12.53)" style="fill:#262626"/>
        <g data-name="leaves">
            <path data-name="Path 29775" d="M19.849 35.4a.251.251 0 0 1-.216-.377l.37-.635-.622.359a.251.251 0 0 1-.334-.356l.592-.888-.97.56a.251.251 0 0 1-.294-.4l.053-.05-.161.093a.251.251 0 0 1-.314-.382l.916-1.042-1.373.793a.251.251 0 0 1-.3-.4l.981-.94-1.4.809a.251.251 0 0 1-.3-.4l1.113-1.047-1.611.93a.251.251 0 0 1-.3-.4l1.3-1.27-1.961 1.132a.251.251 0 1 1-.251-.434l3.667-2.117a.251.251 0 0 1 .3.4l-1.292 1.274 1.769-1.021a.251.251 0 0 1 .3.4l-1.112 1.047 1.33-.768a.251.251 0 0 1 .3.4l-.98.94.9-.518a.251.251 0 0 1 .314.382l-.916 1.043.848-.49a.251.251 0 0 1 .294.4l-.091.083a.251.251 0 0 1 .265.383l-.592.887.509-.294a.251.251 0 0 1 .341.343l-.385.662a.251.251 0 0 1 .167.464l-.717.414a.245.245 0 0 1-.127.032z" transform="translate(180.552 -20.699)" style="fill:#8ba820"/>
            <path data-name="Path 29776" d="M9.007 36.5a.251.251 0 0 1-.187-.417l.77-.865-1.66.958a.251.251 0 0 1-.282-.412l.143-.115-.479.276a.251.251 0 0 1-.284-.411l.5-.407-.861.5a.251.251 0 0 1-.285-.41l.711-.588-1.052.61a.251.251 0 0 1-.284-.411l.785-.643-1.067.617a.251.251 0 0 1-.287-.408l1.053-.891-1.317.763a.251.251 0 0 1-.281-.413l.609-.483-.725.418a.251.251 0 0 1-.291-.4l1.179-1.042-1.346.775a.251.251 0 0 1-.268-.422l2.222-1.549-2.318 1.338a.251.251 0 0 1-.273-.419l2.861-2.077-3 1.733a.251.251 0 0 1-.272-.42l2.08-1.5-2.179 1.26a.251.251 0 0 1-.269-.422l.825-.575-.869.5a.251.251 0 0 1-.276-.417l1.434-1.081-1.6.922a.251.251 0 0 1-.289-.407l1.287-1.1-1.6.922a.251.251 0 0 1-.346-.336l.341-.632-.646.373a.251.251 0 0 1-.251-.433l1.41-.815a.251.251 0 0 1 .347.338l-.341.632 3.157-1.823a.251.251 0 0 1 .289.407L4.246 28.2l2.809-1.622a.251.251 0 0 1 .276.417L5.9 28.073l2.417-1.4a.251.251 0 0 1 .269.422l-.822.572 1.436-.823a.251.251 0 0 1 .272.42l-2.081 1.5 2.806-1.621a.251.251 0 0 1 .273.419L7.6 29.637l3.54-2.043a.251.251 0 0 1 .268.422L7.6 30.649a.27.27 0 0 1 .05.05.251.251 0 0 1-.038.334l-1.18 1.043 1.523-.876a.251.251 0 0 1 .281.413l-.611.485.8-.462a.251.251 0 0 1 .287.408l-1.052.891 1.321-.763a.251.251 0 0 1 .284.411l-.789.644.985-.569a.251.251 0 0 1 .285.41l-.714.588.887-.512a.251.251 0 0 1 .285.41l-.5.407.627-.362a.251.251 0 0 1 .283.412l-.142.115.217-.126a.251.251 0 0 1 .312.383l-.771.866 1.009-.582a.251.251 0 0 1 .324.37l-.239.309.284-.163a.251.251 0 1 1 .251.433l-1.385.8a.251.251 0 0 1-.324-.37l.239-.31-1.257.725a.245.245 0 0 1-.125.039z" transform="translate(187.578 -19.519)" style="fill:#8ba820"/>
            <path data-name="Path 29777" d="M33.473 29.508a.251.251 0 0 1-.137-.46l.575-.376-1.156.667a.251.251 0 0 1-.266-.424l3.72-2.521-4.5 2.6a.251.251 0 0 1-.266-.424l5.057-3.426-5.49 3.169a.251.251 0 0 1-.262-.427l3.658-2.372-3 1.732a.251.251 0 0 1-.262-.427l3.412-2.219-2.656 1.537a.251.251 0 0 1-.266-.424l5.587-3.8-4.476 2.587a.251.251 0 1 1-.262-.427l2.091-1.347-1.185.684a.251.251 0 0 1-.264-.426l3.113-2.05-1.995 1.153a.251.251 0 0 1-.267-.423l4.689-3.214-3.131 1.807a.251.251 0 0 1-.264-.425l2.856-1.9-2.949 1.7a.251.251 0 1 1-.251-.433l9.762-5.634a.251.251 0 0 1 .264.425l-2.854 1.9 1.936-1.117a.251.251 0 0 1 .267.423l-4.692 3.216 3.743-2.161a.251.251 0 1 1 .263.426l-3.111 2.049 2.565-1.481a.251.251 0 0 1 .262.427l-2.089 1.348 1.654-.955a.251.251 0 0 1 .267.424l-5.585 3.8 5.1-2.945a.251.251 0 1 1 .262.427l-3.417 2.209 3-1.733a.251.251 0 0 1 .262.427l-3.658 2.371 3.2-1.849a.251.251 0 0 1 .266.424l-5.061 3.425 4.43-2.556a.251.251 0 0 1 .266.424l-3.721 2.527 2.933-1.695a.251.251 0 0 1 .263.426l-.729.477a.251.251 0 0 1 .21.443l-2.4 1.817.489-.282a.251.251 0 1 1 .251.433l-3.969 2.29a.251.251 0 0 1-.277-.417l2.4-1.816-4.078 2.356a.248.248 0 0 1-.124.037z" transform="translate(172.572 -13.029)" style="fill:#9cc824"/>
            <path data-name="Path 29778" d="M25.977 26.287a.251.251 0 0 1-.2-.4l.542-.721-.692.4a.251.251 0 0 1-.287-.407l.28-.238-.223.129a.251.251 0 0 1-.278-.415l.483-.374-.4.231a.251.251 0 0 1-.278-.416l2.035-1.553-1.95 1.126a.251.251 0 0 1-.258-.429l3-1.86-2.818 1.623a.251.251 0 0 1-.258-.429l3.278-2.044-3.034 1.751a.251.251 0 0 1-.26-.428l4.656-2.961L25 21.36a.251.251 0 0 1-.261-.427l4.6-2.978-4.113 2.375a.251.251 0 0 1-.26-.428l2.192-1.4-1.607.927a.251.251 0 0 1-.262-.429l3.811-2.66-2.642 1.525a.251.251 0 0 1-.272-.42l1.7-1.225a.251.251 0 0 1-.031-.448l3.279-1.893a.251.251 0 0 1 .272.42l-.9.651 3.336-1.926a.251.251 0 0 1 .269.422L30.3 16.112l6.01-3.471a.251.251 0 0 1 .26.428l-2.191 1.4 3.3-1.9a.251.251 0 0 1 .262.427l-4.608 2.981 5.863-3.383a.251.251 0 0 1 .26.428L34.8 15.983l5.674-3.283a.251.251 0 0 1 .258.429l-3.275 2.043 4.013-2.317a.251.251 0 0 1 .258.429l-11.3 7a.251.251 0 0 1-.086.277l-2.032 1.554.251-.143a.251.251 0 0 1 .278.415l-.88.682a.251.251 0 0 1 .1.435l-.708.6a.238.238 0 0 1 .089.065.251.251 0 0 1 .013.317l-.829 1.1a.251.251 0 0 1-.05.394l-.478.276a.245.245 0 0 1-.123.034z" transform="translate(175.608 -12.53)" style="fill:#9cc824"/>
            <path data-name="Path 29779" d="M28.745 12.681c-6.273-.79-15.215 1.459-16.364 8.682-3.2-2.806-8.669-2.092-12.029.043-.3.5.557.861.843 1.129 1.989 2.289 2.821 5.709 6.113 6.611 1.884.862 6.692.321 3.544-2.275-.274-.665-3.781-3.314-3.011-3.362a17.563 17.563 0 0 1 4.291 3.4c.583.861 1.62.322 1.736-.593 1.367-.293 1.575-2.243 2.438-3.2a19.026 19.026 0 0 1 3.352-3.872c.752.11-.5 1.153-.628 1.506a29.465 29.465 0 0 0-3.637 6.742c-.232 1.084 1.8 1.393 2.536 1.492 6.9.706 10.06-6.611 10.584-12.363-.018-1.486 3.2-3.887.233-3.937zM13.073 26.565q-.15.594-.154.167c-1.591-1.353-3.474-3.924-5.7-3.726-1.2.891.839 1.714 1.319 2.42.44.719 3.766 3.05 2.087 3.483-2.988.831-5.679-1.565-6.972-4.009a9.044 9.044 0 0 0-2.672-3.4c3.312-1.8 8.7-2.514 11.34.815a7.223 7.223 0 0 0 .917 3.585 4.053 4.053 0 0 1-.165.66zm15.946-12.6a12.141 12.141 0 0 0-1.733 5.312c-.51 4.607-4.183 10.012-9.371 9.186-4.688-.016 2.163-7.323 2.731-9.162-1.5-2.649-5.831 5.22-6.665 6.437a.132.132 0 0 0-.059-.126C9.627 16.761 21.6 11.644 28.8 13.2c.577-.045.612.392.219.769z" transform="translate(187.71 -12.53)" style="fill:#262626"/>
        </g>
        <g data-name="leaves">
            <path data-name="Path 29775" d="M19.849 35.4a.251.251 0 0 1-.216-.377l.37-.635-.622.359a.251.251 0 0 1-.334-.356l.592-.888-.97.56a.251.251 0 0 1-.294-.4l.053-.05-.161.093a.251.251 0 0 1-.314-.382l.916-1.042-1.373.793a.251.251 0 0 1-.3-.4l.981-.94-1.4.809a.251.251 0 0 1-.3-.4l1.113-1.047-1.611.93a.251.251 0 0 1-.3-.4l1.3-1.27-1.961 1.132a.251.251 0 1 1-.251-.434l3.667-2.117a.251.251 0 0 1 .3.4l-1.292 1.274 1.769-1.021a.251.251 0 0 1 .3.4l-1.112 1.047 1.33-.768a.251.251 0 0 1 .3.4l-.98.94.9-.518a.251.251 0 0 1 .314.382l-.916 1.043.848-.49a.251.251 0 0 1 .294.4l-.091.083a.251.251 0 0 1 .265.383l-.592.887.509-.294a.251.251 0 0 1 .341.343l-.385.662a.251.251 0 0 1 .167.464l-.717.414a.245.245 0 0 1-.127.032z" transform="translate(368.552 -20.699)" style="fill:#8ba820"/>
            <path data-name="Path 29776" d="M9.007 36.5a.251.251 0 0 1-.187-.417l.77-.865-1.66.958a.251.251 0 0 1-.282-.412l.143-.115-.479.276a.251.251 0 0 1-.284-.411l.5-.407-.861.5a.251.251 0 0 1-.285-.41l.711-.588-1.052.61a.251.251 0 0 1-.284-.411l.785-.643-1.067.617a.251.251 0 0 1-.287-.408l1.053-.891-1.317.763a.251.251 0 0 1-.281-.413l.609-.483-.725.418a.251.251 0 0 1-.291-.4l1.179-1.042-1.346.775a.251.251 0 0 1-.268-.422l2.222-1.549-2.318 1.338a.251.251 0 0 1-.273-.419l2.861-2.077-3 1.733a.251.251 0 0 1-.272-.42l2.08-1.5-2.179 1.26a.251.251 0 0 1-.269-.422l.825-.575-.869.5a.251.251 0 0 1-.276-.417l1.434-1.081-1.6.922a.251.251 0 0 1-.289-.407l1.287-1.1-1.6.922a.251.251 0 0 1-.346-.336l.341-.632-.646.373a.251.251 0 0 1-.251-.433l1.41-.815a.251.251 0 0 1 .347.338l-.341.632 3.157-1.823a.251.251 0 0 1 .289.407L4.246 28.2l2.809-1.622a.251.251 0 0 1 .276.417L5.9 28.073l2.417-1.4a.251.251 0 0 1 .269.422l-.822.572 1.436-.823a.251.251 0 0 1 .272.42l-2.081 1.5 2.806-1.621a.251.251 0 0 1 .273.419L7.6 29.637l3.54-2.043a.251.251 0 0 1 .268.422L7.6 30.649a.27.27 0 0 1 .05.05.251.251 0 0 1-.038.334l-1.18 1.043 1.523-.876a.251.251 0 0 1 .281.413l-.611.485.8-.462a.251.251 0 0 1 .287.408l-1.052.891 1.321-.763a.251.251 0 0 1 .284.411l-.789.644.985-.569a.251.251 0 0 1 .285.41l-.714.588.887-.512a.251.251 0 0 1 .285.41l-.5.407.627-.362a.251.251 0 0 1 .283.412l-.142.115.217-.126a.251.251 0 0 1 .312.383l-.771.866 1.009-.582a.251.251 0 0 1 .324.37l-.239.309.284-.163a.251.251 0 1 1 .251.433l-1.385.8a.251.251 0 0 1-.324-.37l.239-.31-1.257.725a.245.245 0 0 1-.125.039z" transform="translate(375.578 -19.519)" style="fill:#8ba820"/>
            <path data-name="Path 29777" d="M33.473 29.508a.251.251 0 0 1-.137-.46l.575-.376-1.156.667a.251.251 0 0 1-.266-.424l3.72-2.521-4.5 2.6a.251.251 0 0 1-.266-.424l5.057-3.426-5.49 3.169a.251.251 0 0 1-.262-.427l3.658-2.372-3 1.732a.251.251 0 0 1-.262-.427l3.412-2.219-2.656 1.537a.251.251 0 0 1-.266-.424l5.587-3.8-4.476 2.587a.251.251 0 1 1-.262-.427l2.091-1.347-1.185.684a.251.251 0 0 1-.264-.426l3.113-2.05-1.995 1.153a.251.251 0 0 1-.267-.423l4.689-3.214-3.131 1.807a.251.251 0 0 1-.264-.425l2.856-1.9-2.949 1.7a.251.251 0 1 1-.251-.433l9.762-5.634a.251.251 0 0 1 .264.425l-2.854 1.9 1.936-1.117a.251.251 0 0 1 .267.423l-4.692 3.216 3.743-2.161a.251.251 0 1 1 .263.426l-3.111 2.049 2.565-1.481a.251.251 0 0 1 .262.427l-2.089 1.348 1.654-.955a.251.251 0 0 1 .267.424l-5.585 3.8 5.1-2.945a.251.251 0 1 1 .262.427l-3.417 2.209 3-1.733a.251.251 0 0 1 .262.427l-3.658 2.371 3.2-1.849a.251.251 0 0 1 .266.424l-5.061 3.425 4.43-2.556a.251.251 0 0 1 .266.424l-3.721 2.527 2.933-1.695a.251.251 0 0 1 .263.426l-.729.477a.251.251 0 0 1 .21.443l-2.4 1.817.489-.282a.251.251 0 1 1 .251.433l-3.969 2.29a.251.251 0 0 1-.277-.417l2.4-1.816-4.078 2.356a.248.248 0 0 1-.124.037z" transform="translate(360.572 -13.029)" style="fill:#9cc824"/>
            <path data-name="Path 29778" d="M25.977 26.287a.251.251 0 0 1-.2-.4l.542-.721-.692.4a.251.251 0 0 1-.287-.407l.28-.238-.223.129a.251.251 0 0 1-.278-.415l.483-.374-.4.231a.251.251 0 0 1-.278-.416l2.035-1.553-1.95 1.126a.251.251 0 0 1-.258-.429l3-1.86-2.818 1.623a.251.251 0 0 1-.258-.429l3.278-2.044-3.034 1.751a.251.251 0 0 1-.26-.428l4.656-2.961L25 21.36a.251.251 0 0 1-.261-.427l4.6-2.978-4.113 2.375a.251.251 0 0 1-.26-.428l2.192-1.4-1.607.927a.251.251 0 0 1-.262-.429l3.811-2.66-2.642 1.525a.251.251 0 0 1-.272-.42l1.7-1.225a.251.251 0 0 1-.031-.448l3.279-1.893a.251.251 0 0 1 .272.42l-.9.651 3.336-1.926a.251.251 0 0 1 .269.422L30.3 16.112l6.01-3.471a.251.251 0 0 1 .26.428l-2.191 1.4 3.3-1.9a.251.251 0 0 1 .262.427l-4.608 2.981 5.863-3.383a.251.251 0 0 1 .26.428L34.8 15.983l5.674-3.283a.251.251 0 0 1 .258.429l-3.275 2.043 4.013-2.317a.251.251 0 0 1 .258.429l-11.3 7a.251.251 0 0 1-.086.277l-2.032 1.554.251-.143a.251.251 0 0 1 .278.415l-.88.682a.251.251 0 0 1 .1.435l-.708.6a.238.238 0 0 1 .089.065.251.251 0 0 1 .013.317l-.829 1.1a.251.251 0 0 1-.05.394l-.478.276a.245.245 0 0 1-.123.034z" transform="translate(363.608 -12.53)" style="fill:#9cc824"/>
            <path data-name="Path 29779" d="M28.745 12.681c-6.273-.79-15.215 1.459-16.364 8.682-3.2-2.806-8.669-2.092-12.029.043-.3.5.557.861.843 1.129 1.989 2.289 2.821 5.709 6.113 6.611 1.884.862 6.692.321 3.544-2.275-.274-.665-3.781-3.314-3.011-3.362a17.563 17.563 0 0 1 4.291 3.4c.583.861 1.62.322 1.736-.593 1.367-.293 1.575-2.243 2.438-3.2a19.026 19.026 0 0 1 3.352-3.872c.752.11-.5 1.153-.628 1.506a29.465 29.465 0 0 0-3.637 6.742c-.232 1.084 1.8 1.393 2.536 1.492 6.9.706 10.06-6.611 10.584-12.363-.018-1.486 3.2-3.887.233-3.937zM13.073 26.565q-.15.594-.154.167c-1.591-1.353-3.474-3.924-5.7-3.726-1.2.891.839 1.714 1.319 2.42.44.719 3.766 3.05 2.087 3.483-2.988.831-5.679-1.565-6.972-4.009a9.044 9.044 0 0 0-2.672-3.4c3.312-1.8 8.7-2.514 11.34.815a7.223 7.223 0 0 0 .917 3.585 4.053 4.053 0 0 1-.165.66zm15.946-12.6a12.141 12.141 0 0 0-1.733 5.312c-.51 4.607-4.183 10.012-9.371 9.186-4.688-.016 2.163-7.323 2.731-9.162-1.5-2.649-5.831 5.22-6.665 6.437a.132.132 0 0 0-.059-.126C9.627 16.761 21.6 11.644 28.8 13.2c.577-.045.612.392.219.769z" transform="translate(375.71 -12.53)" style="fill:#262626"/>
        </g>
        <g data-name="leaves">
            <path data-name="Path 29775" d="M19.849 35.4a.251.251 0 0 1-.216-.377l.37-.635-.622.359a.251.251 0 0 1-.334-.356l.592-.888-.97.56a.251.251 0 0 1-.294-.4l.053-.05-.161.093a.251.251 0 0 1-.314-.382l.916-1.042-1.373.793a.251.251 0 0 1-.3-.4l.981-.94-1.4.809a.251.251 0 0 1-.3-.4l1.113-1.047-1.611.93a.251.251 0 0 1-.3-.4l1.3-1.27-1.961 1.132a.251.251 0 1 1-.251-.434l3.667-2.117a.251.251 0 0 1 .3.4l-1.292 1.274 1.769-1.021a.251.251 0 0 1 .3.4l-1.112 1.047 1.33-.768a.251.251 0 0 1 .3.4l-.98.94.9-.518a.251.251 0 0 1 .314.382l-.916 1.043.848-.49a.251.251 0 0 1 .294.4l-.091.083a.251.251 0 0 1 .265.383l-.592.887.509-.294a.251.251 0 0 1 .341.343l-.385.662a.251.251 0 0 1 .167.464l-.717.414a.245.245 0 0 1-.127.032z" transform="translate(556.552 -20.699)" style="fill:#8ba820"/>
            <path data-name="Path 29776" d="M9.007 36.5a.251.251 0 0 1-.187-.417l.77-.865-1.66.958a.251.251 0 0 1-.282-.412l.143-.115-.479.276a.251.251 0 0 1-.284-.411l.5-.407-.861.5a.251.251 0 0 1-.285-.41l.711-.588-1.052.61a.251.251 0 0 1-.284-.411l.785-.643-1.067.617a.251.251 0 0 1-.287-.408l1.053-.891-1.317.763a.251.251 0 0 1-.281-.413l.609-.483-.725.418a.251.251 0 0 1-.291-.4l1.179-1.042-1.346.775a.251.251 0 0 1-.268-.422l2.222-1.549-2.318 1.338a.251.251 0 0 1-.273-.419l2.861-2.077-3 1.733a.251.251 0 0 1-.272-.42l2.08-1.5-2.179 1.26a.251.251 0 0 1-.269-.422l.825-.575-.869.5a.251.251 0 0 1-.276-.417l1.434-1.081-1.6.922a.251.251 0 0 1-.289-.407l1.287-1.1-1.6.922a.251.251 0 0 1-.346-.336l.341-.632-.646.373a.251.251 0 0 1-.251-.433l1.41-.815a.251.251 0 0 1 .347.338l-.341.632 3.157-1.823a.251.251 0 0 1 .289.407L4.246 28.2l2.809-1.622a.251.251 0 0 1 .276.417L5.9 28.073l2.417-1.4a.251.251 0 0 1 .269.422l-.822.572 1.436-.823a.251.251 0 0 1 .272.42l-2.081 1.5 2.806-1.621a.251.251 0 0 1 .273.419L7.6 29.637l3.54-2.043a.251.251 0 0 1 .268.422L7.6 30.649a.27.27 0 0 1 .05.05.251.251 0 0 1-.038.334l-1.18 1.043 1.523-.876a.251.251 0 0 1 .281.413l-.611.485.8-.462a.251.251 0 0 1 .287.408l-1.052.891 1.321-.763a.251.251 0 0 1 .284.411l-.789.644.985-.569a.251.251 0 0 1 .285.41l-.714.588.887-.512a.251.251 0 0 1 .285.41l-.5.407.627-.362a.251.251 0 0 1 .283.412l-.142.115.217-.126a.251.251 0 0 1 .312.383l-.771.866 1.009-.582a.251.251 0 0 1 .324.37l-.239.309.284-.163a.251.251 0 1 1 .251.433l-1.385.8a.251.251 0 0 1-.324-.37l.239-.31-1.257.725a.245.245 0 0 1-.125.039z" transform="translate(563.578 -19.519)" style="fill:#8ba820"/>
            <path data-name="Path 29777" d="M33.473 29.508a.251.251 0 0 1-.137-.46l.575-.376-1.156.667a.251.251 0 0 1-.266-.424l3.72-2.521-4.5 2.6a.251.251 0 0 1-.266-.424l5.057-3.426-5.49 3.169a.251.251 0 0 1-.262-.427l3.658-2.372-3 1.732a.251.251 0 0 1-.262-.427l3.412-2.219-2.656 1.537a.251.251 0 0 1-.266-.424l5.587-3.8-4.476 2.587a.251.251 0 1 1-.262-.427l2.091-1.347-1.185.684a.251.251 0 0 1-.264-.426l3.113-2.05-1.995 1.153a.251.251 0 0 1-.267-.423l4.689-3.214-3.131 1.807a.251.251 0 0 1-.264-.425l2.856-1.9-2.949 1.7a.251.251 0 1 1-.251-.433l9.762-5.634a.251.251 0 0 1 .264.425l-2.854 1.9 1.936-1.117a.251.251 0 0 1 .267.423l-4.692 3.216 3.743-2.161a.251.251 0 1 1 .263.426l-3.111 2.049 2.565-1.481a.251.251 0 0 1 .262.427l-2.089 1.348 1.654-.955a.251.251 0 0 1 .267.424l-5.585 3.8 5.1-2.945a.251.251 0 1 1 .262.427l-3.417 2.209 3-1.733a.251.251 0 0 1 .262.427l-3.658 2.371 3.2-1.849a.251.251 0 0 1 .266.424l-5.061 3.425 4.43-2.556a.251.251 0 0 1 .266.424l-3.721 2.527 2.933-1.695a.251.251 0 0 1 .263.426l-.729.477a.251.251 0 0 1 .21.443l-2.4 1.817.489-.282a.251.251 0 1 1 .251.433l-3.969 2.29a.251.251 0 0 1-.277-.417l2.4-1.816-4.078 2.356a.248.248 0 0 1-.124.037z" transform="translate(548.572 -13.029)" style="fill:#9cc824"/>
            <path data-name="Path 29778" d="M25.977 26.287a.251.251 0 0 1-.2-.4l.542-.721-.692.4a.251.251 0 0 1-.287-.407l.28-.238-.223.129a.251.251 0 0 1-.278-.415l.483-.374-.4.231a.251.251 0 0 1-.278-.416l2.035-1.553-1.95 1.126a.251.251 0 0 1-.258-.429l3-1.86-2.818 1.623a.251.251 0 0 1-.258-.429l3.278-2.044-3.034 1.751a.251.251 0 0 1-.26-.428l4.656-2.961L25 21.36a.251.251 0 0 1-.261-.427l4.6-2.978-4.113 2.375a.251.251 0 0 1-.26-.428l2.192-1.4-1.607.927a.251.251 0 0 1-.262-.429l3.811-2.66-2.642 1.525a.251.251 0 0 1-.272-.42l1.7-1.225a.251.251 0 0 1-.031-.448l3.279-1.893a.251.251 0 0 1 .272.42l-.9.651 3.336-1.926a.251.251 0 0 1 .269.422L30.3 16.112l6.01-3.471a.251.251 0 0 1 .26.428l-2.191 1.4 3.3-1.9a.251.251 0 0 1 .262.427l-4.608 2.981 5.863-3.383a.251.251 0 0 1 .26.428L34.8 15.983l5.674-3.283a.251.251 0 0 1 .258.429l-3.275 2.043 4.013-2.317a.251.251 0 0 1 .258.429l-11.3 7a.251.251 0 0 1-.086.277l-2.032 1.554.251-.143a.251.251 0 0 1 .278.415l-.88.682a.251.251 0 0 1 .1.435l-.708.6a.238.238 0 0 1 .089.065.251.251 0 0 1 .013.317l-.829 1.1a.251.251 0 0 1-.05.394l-.478.276a.245.245 0 0 1-.123.034z" transform="translate(551.608 -12.53)" style="fill:#9cc824"/>
            <path data-name="Path 29779" d="M28.745 12.681c-6.273-.79-15.215 1.459-16.364 8.682-3.2-2.806-8.669-2.092-12.029.043-.3.5.557.861.843 1.129 1.989 2.289 2.821 5.709 6.113 6.611 1.884.862 6.692.321 3.544-2.275-.274-.665-3.781-3.314-3.011-3.362a17.563 17.563 0 0 1 4.291 3.4c.583.861 1.62.322 1.736-.593 1.367-.293 1.575-2.243 2.438-3.2a19.026 19.026 0 0 1 3.352-3.872c.752.11-.5 1.153-.628 1.506a29.465 29.465 0 0 0-3.637 6.742c-.232 1.084 1.8 1.393 2.536 1.492 6.9.706 10.06-6.611 10.584-12.363-.018-1.486 3.2-3.887.233-3.937zM13.073 26.565q-.15.594-.154.167c-1.591-1.353-3.474-3.924-5.7-3.726-1.2.891.839 1.714 1.319 2.42.44.719 3.766 3.05 2.087 3.483-2.988.831-5.679-1.565-6.972-4.009a9.044 9.044 0 0 0-2.672-3.4c3.312-1.8 8.7-2.514 11.34.815a7.223 7.223 0 0 0 .917 3.585 4.053 4.053 0 0 1-.165.66zm15.946-12.6a12.141 12.141 0 0 0-1.733 5.312c-.51 4.607-4.183 10.012-9.371 9.186-4.688-.016 2.163-7.323 2.731-9.162-1.5-2.649-5.831 5.22-6.665 6.437a.132.132 0 0 0-.059-.126C9.627 16.761 21.6 11.644 28.8 13.2c.577-.045.612.392.219.769z" transform="translate(563.71 -12.53)" style="fill:#262626"/>
        </g>
    </g>
</svg>
