<svg xmlns="http://www.w3.org/2000/svg" width="107.721" height="70.722" viewBox="0 0 107.721 70.722">
    <g data-name="Group 1688">
        <g data-name="Group 1687">
            <g data-name="Group 1686">
                <g data-name="Group 1685">
                    <path data-name="Path 28557" d="M355.709 497.518a.477.477 0 0 0 .137.273z" transform="translate(-248.125 -444.545)" style="fill:#fff"/>
                    <path data-name="Path 28558" d="m353.81 493.883-.41-.683z" transform="translate(-248.956 -446.098)" style="fill:#fff"/>
                    <path data-name="Path 28559" d="M351.3 490.4c.273.546 1.229 1.5 1.775 2.458l.137.137.273.273c-.685-1.093-1.775-2.185-2.185-2.868z" transform="translate(-249.723 -447.12)" style="fill:#fff"/>
                    <path data-name="Path 28560" d="M350.014 488.609c.137.137-.41-.41.41.546a.134.134 0 0 0-.137-.137c0-.136-.136-.136-.273-.409z" transform="translate(-250.212 -447.787)" style="fill:#fff"/>
                    <path data-name="Path 28561" d="M350.206 488.918c.41.41-.137-.273 0 0z" transform="translate(-250.131 -447.686)" style="fill:#fff"/>
                    <path data-name="Path 28562" d="M348.864 487.591c.137.137.41.273.546.546-.137-.137-.546-.683-.41-.41-.546-.682-.409-.545-.136-.136z" transform="translate(-250.7 -448.271)" style="fill:#fff"/>
                    <path data-name="Path 28563" d="m348.4 487.2.273.273c0-.136-.136-.136-.273-.273z" transform="translate(-250.782 -448.289)" style="fill:#fff"/>
                    <path data-name="Path 28564" d="m349.283 487.946-.683-.546c0 .137 0 .137.273.273 0-.136.137 0 .41.273z" transform="translate(-250.709 -448.216)" style="fill:#fff"/>
                    <path data-name="Path 28565" d="M349.3 488c.273.273.683.819.137.273 1.092 1.092.955.819-.137-.273z" transform="translate(-250.453 -447.997)" style="fill:#fff"/>
                    <path data-name="Path 28566" d="m351.1 490.3.41.41.273.41c-.137-.269-.683-.952-.683-.82z" transform="translate(-249.796 -447.162)" style="fill:#fff"/>
                    <path data-name="Path 28567" d="m346.2 485.1.137.273c.137.137.273.273.41.273-.137-.136-.547-.409-.547-.546z" transform="translate(-251.586 -449.056)" style="fill:#fff"/>
                    <path data-name="Path 28568" d="m346.483 485.41-.683-.41c.546.41.683.546.683.41z" transform="translate(-251.732 -449.093)" style="fill:#fff"/>
                    <path data-name="Path 28569" d="m348.237 487.237 1.092.819-1.229-.956z" transform="translate(-250.892 -448.326)" style="fill:#fff"/>
                    <path data-name="Path 28570" d="m344.273 483.773.546.136-.819-.409z" transform="translate(-252.389 -449.641)" style="fill:#fff"/>
                    <path data-name="Path 28571" d="M343.3 483.056c.41.137-.41-.41 0-.273a7.315 7.315 0 0 0-1.5-.683c.41.273.956.546 1.5.956z" transform="translate(-253.193 -450.152)" style="fill:#fff"/>
                    <path data-name="Path 28572" d="M341.3 482c.273.137.41.137.683.273-.273-.136-.41-.273-.683-.273z" transform="translate(-253.376 -450.189)" style="fill:#fff"/>
                    <path data-name="Path 28573" d="m345.046 484.446-.546-.546.273.273c.137.137.137.273.273.273z" transform="translate(-252.207 -449.495)" style="fill:#fff"/>
                    <path data-name="Path 28574" d="M344.846 484.31a2.356 2.356 0 0 0-.546-.41 2.355 2.355 0 0 1 .546.41z" transform="translate(-252.28 -449.495)" style="fill:#fff"/>
                    <path data-name="Path 28575" d="M345.027 484.416c-.137 0-.137-.137 0 0z" transform="translate(-252.052 -449.328)" style="fill:#fff"/>
                    <path data-name="Path 28576" d="M347.216 486.241c-.41-.273-1.229-.956-.546-.137.41.137 0-.273.546.137z" transform="translate(-251.51 -448.832)" style="fill:#fff"/>
                    <path data-name="Path 28577" d="m345.2 484.6.683.546s-.137-.137.137 0z" transform="translate(-251.951 -449.239)" style="fill:#fff"/>
                    <path data-name="Path 28578" d="M344.9 484.5c.137.137.273.137.41.273-.136-.137-.273-.273-.41-.273z" transform="translate(-252.061 -449.276)" style="fill:#fff"/>
                    <path data-name="Path 28579" d="M342.529 482.746a4.849 4.849 0 0 1-1.229-.546c.41.273.956.546 1.365.819.135 0 .41 0-.136-.273z" transform="translate(-253.376 -450.116)" style="fill:#fff"/>
                    <path data-name="Path 28580" d="M343.516 483.4z" transform="translate(-252.588 -449.677)" style="fill:#fff"/>
                    <path data-name="Path 28581" d="M338.2 480.7z" transform="translate(-254.508 -450.664)" style="fill:#fff"/>
                    <path data-name="Path 28582" d="M342.427 482.8c.273.273.546.273.819.41l-.819-.41z" transform="translate(-253.001 -449.897)" style="fill:#fff"/>
                    <path data-name="Path 28583" d="M340.4 481.5c.137.137.41.273.546.41a5.444 5.444 0 0 0-.546-.41z" transform="translate(-253.704 -450.371)" style="fill:#fff"/>
                    <path data-name="Path 28584" d="M343.3 483.327z" transform="translate(-252.645 -449.741)" style="fill:#fff"/>
                    <path data-name="Path 28585" d="M343.446 483.337c-.137-.137-.273-.137-.546-.137a1.412 1.412 0 0 1 .546.137z" transform="translate(-252.791 -449.751)" style="fill:#fff"/>
                    <path data-name="Path 28586" d="M337.121 481.152c.137-.137 1.092.137 1.911.546.819.273.546-.41-.137-.956 0 0-.137.137-.956-.137.273.137 1.775.956 1.092.683a3.819 3.819 0 0 1-1.365-.683c.41.273-1.5-.273-1.365.137l.819.41c.138-.136-.272-.136.001 0z" transform="translate(-255.204 -450.706)" style="fill:#fff"/>
                    <path data-name="Path 28587" d="m339.8 481.383.41.137a4.79 4.79 0 0 1-1.092-.683 2.925 2.925 0 0 0-.819-.137 7.318 7.318 0 0 0 1.5.683z" transform="translate(-254.472 -450.664)" style="fill:#fff"/>
                    <path data-name="Path 28588" d="M341.1 482.083c-.273 0-1.092-.273-.683 0a3.618 3.618 0 0 0 1.365.41c-1.638-.683.41.273-.683-.41l.819.41a1.167 1.167 0 0 0-.819-.41c-.41-.273 0-.137 0 0a5.047 5.047 0 0 0-1.5-.683 6.54 6.54 0 0 1 1.501.683z" transform="translate(-253.997 -450.408)" style="fill:#fff"/>
                    <path data-name="Path 28589" d="M346.027 485.727z" transform="translate(-251.686 -448.865)" style="fill:#fff"/>
                    <path data-name="Path 28590" d="M345.751 485.483c.137 0 .273.137.546.273.273.273 0 0 0 .137.273.137.819.41.137 0h-.134c-.546-.41-1.229-1.092-1.092-1.092.133.136.133.409.543.682z" transform="translate(-251.956 -449.166)" style="fill:#fff"/>
                    <path data-name="Path 28591" d="M343.529 483.683 342.3 483l.546.41v-.137c.683.546.546.41.683.41z" transform="translate(-253.01 -449.824)" style="fill:#fff"/>
                    <path data-name="Path 28592" d="m338.283 480.673.273-.137-.956-.137z" transform="translate(-254.727 -450.773)" style="fill:#fff"/>
                    <path data-name="Path 28593" d="M336.91 480.173v-.137l-.41-.137z" transform="translate(-255.129 -450.956)" style="fill:#fff"/>
                    <path data-name="Path 28594" d="m314.1 503.81.137-.41c0 .273-.137.273-.137.41z" transform="translate(-263.311 -442.372)" style="fill:#fff"/>
                    <path data-name="Path 28595" d="M312.6 505.1z" transform="translate(-263.859 -441.751)" style="fill:#fff"/>
                    <path data-name="Path 28596" d="M303.643 484c-.683.137-1.5.273-1.229.41l.273.137a7.838 7.838 0 0 1 .956-.547z" transform="translate(-267.6 -449.458)" style="fill:#fff"/>
                    <path data-name="Path 28597" d="M297.21 504.81v-.137c-.137-.137-.273-.137-.41-.273 0 .137.273.273.41.41z" transform="translate(-269.631 -442.007)" style="fill:#fff"/>
                    <path data-name="Path 28598" d="m298 504.4.273.683c0-.137-.136-.273-.273-.683z" transform="translate(-269.193 -442.007)" style="fill:#fff"/>
                    <path data-name="Path 28599" d="m318.173 493.246-.273-.546c0 .819.137.546.273.546z" transform="translate(-261.923 -446.28)" style="fill:#fff"/>
                    <path data-name="Path 28600" d="M322.865 478.216a4.551 4.551 0 0 0-1.365 0c.683 0 1.229.137 1.365 0z" transform="translate(-260.608 -451.593)" style="fill:#fff"/>
                    <path data-name="Path 28601" d="M315.115 506.01a1.057 1.057 0 0 0 .137-.41c-.137.273-.273.41-.137.41z" transform="translate(-262.961 -441.568)" style="fill:#fff"/>
                    <path data-name="Path 28602" d="M320.4 478.237h.273a3.779 3.779 0 0 1 1.229-.137 5.6 5.6 0 0 0-1.502.137z" transform="translate(-261.01 -451.613)" style="fill:#fff"/>
                    <path data-name="Path 28603" d="M292.716 460.7z" transform="translate(-271.145 -457.969)" style="fill:#fff"/>
                    <path data-name="Path 28604" d="M280.2 458.973a2.307 2.307 0 0 0 .683-.273 2.307 2.307 0 0 0-.683.273z" transform="translate(-275.695 -458.7)" style="fill:#fff"/>
                    <path data-name="Path 28605" d="M331.3 478.6z" transform="translate(-257.029 -451.431)" style="fill:#fff"/>
                    <path data-name="Path 28606" d="M332.637 479.4z" transform="translate(-256.59 -451.139)" style="fill:#fff"/>
                    <path data-name="Path 28607" d="M317.6 479.7z" transform="translate(-262.033 -451.029)" style="fill:#fff"/>
                    <path data-name="Path 28608" d="M331.846 478.737c-.137 0-.273-.137-.546-.137.137 0 .273.137.546.137z" transform="translate(-257.029 -451.431)" style="fill:#fff"/>
                    <path data-name="Path 28609" d="M331.7 478.7a.5.5 0 0 1 .41.137c0-.137-.137-.137-.41-.137z" transform="translate(-256.882 -451.394)" style="fill:#fff"/>
                    <path data-name="Path 28610" d="M330.9 478.5c.273 0 .41.137.683.137h-.137c-.136 0-.273-.137-.546-.137z" transform="translate(-257.175 -451.467)" style="fill:#fff"/>
                    <path data-name="Path 28611" d="M311.969 474.542c-.409-.273-.269-.136 0 0z" transform="translate(-264.184 -452.971)" style="fill:#fff"/>
                    <path data-name="Path 28612" d="M299.137 490.6z" transform="translate(-268.827 -447.047)" style="fill:#fff"/>
                    <path data-name="Path 28613" d="M298.71 491.865a1.5 1.5 0 0 1 .546-1.229l-.956-.137c.137.547.273.957.41 1.366z" transform="translate(-269.083 -447.084)" style="fill:#fff"/>
                    <path data-name="Path 28614" d="m330.983 514.2-.546.819c.137-1.229.546-1.911-.137-1.229.819.546-1.5 3.277-.819 3.686l-.546.41c.137-.137.137-.137.137-.273-.956.683 0 1.092-1.092 2.321-.41.41-.683.546-.546.273l-.683.956c-.273.273-.273 0 0-.137a12.309 12.309 0 0 1-1.365 1.229 4.788 4.788 0 0 1-.683 1.092c-.41.137.137-.273 0-.273l-.683.683c-.546 0 .137-.546.683-.956-.683-.137-.819 0-.956.273a2.768 2.768 0 0 1-1.638.956l.819-.546c-.819-.137-1.365.273-2.458.41.273.137 2.184-.137 1.365.546a4.2 4.2 0 0 0-1.229.546c-.137-.273-.683 0-1.365.137l-.137-.41c-.683.273-.546.546-.956.819a1.289 1.289 0 0 1-1.365-.41c-1.365 0 .956.41-.546.683-1.092 0-1.911.137-3.277.137-.683-.273.137-.273-.137-.41l-.683.273c-.137 0-.137-.137 0-.137-.546 0-.137.41-1.092.273-.137.273-.683-.137-1.092-.546a3.993 3.993 0 0 0-1.638-.956c-.137-.273.273-.137.273-.273a20.528 20.528 0 0 1-2.458-1.229c-.137-.41-.41-.683-.546-1.092.273.819-.683.273-1.5-.41a4.828 4.828 0 0 0 .137.819c-.41-.41-.683-.819-1.092-1.229 0-.273.137-.137.41 0l-.273-.273c-.137-.546.273-.41.683-.137v.683a1.1 1.1 0 0 0 1.092.137q-.2 0-.41-.41h.273a1.69 1.69 0 0 0-.41-.273l.273-.546h-.27a7.825 7.825 0 0 1-.546-1.911 8.221 8.221 0 0 1-2.321-4.642c.41.546.546.137.956.137-.41.683.273 1.775.546 2.867-.137-.546.137-.546.273-.41a10.7 10.7 0 0 1-.683-1.911c.41 0 .137-.41.273-.956-.683.41-.41-1.5-.546-2.458.273 0 .41.137.273 1.229.546-1.092-.683-1.5 0-2.594 0 .273-.137.41 0 .546-.137-.683.41-2.048.546-1.638v.273c.273-.819.683-2.048 1.092-3 .41-1.092.819-1.911.546-2.184.137 0 .41.546.546.683a15.569 15.569 0 0 1 .273-3.55c.273.546 1.638.41 1.092 1.638a6.651 6.651 0 0 0 1.092-1.365c-.273.137-.956.137-.683-.273 1.092-.41.683-.41 1.911-.956-.41.273-.546-.683 0-1.092 0 .137.546.546.41.683.273-.546.41-1.092.683-1.638-.273.41.273.546.683.41-.273 0 1.092-.819 1.365-1.229-.273.137-.41.137-.683.273 1.5-1.092.956-1.911 2.457-2.867-.137.273 0 1.092.819.683a6.654 6.654 0 0 1 2.184-3.413h.41c.41-.273.683-.546 1.092-.819-.546.819-2.048 2.731-2.867 3.823.683-.273.273.137 1.229-.41.41 0-.41.546-.683.683.683-.41 1.5-.683 2.184-1.092-.273-.273 1.5-1.229 1.229-1.5-.819.546-1.5.956-2.184 1.5-.273-.273.819-1.775 2.457-2.457.41 0 0 .819 0 .956a3.721 3.721 0 0 1 1.638-.819l-.546.546c.956-.273 1.229-1.092 2.457-1.092.41-.137 1.229 0 1.229-.137-.819-.273-1.365-1.5-.956-1.911a15.725 15.725 0 0 1 2.731-.137c.683.137-.683 1.092-.137 1.229 0-.137.273-.273.41-.41.41 0-.137.41.819 0 0-.41 1.775-.546.273-.41.819-.41.956-.137 1.911-.41-.41-.137.683-1.092 1.638-1.229 0 .137.137.137.273.273a17.428 17.428 0 0 1 2.321-.273c.683 0 1.365-.137 2.321-.137.137.137.956.137.683.273a1.591 1.591 0 0 1 .956-.273c1.092.273-1.229.137-.41.41 0-.273 1.365-.41 2.048-.546-.273-.273-1.775 0-2.458.273 0-.41 1.229-.956 3.14-1.229 1.5-.137.683.273.956.137a8.529 8.529 0 0 0 2.458-.273 3.755 3.755 0 0 1 2.184 0c.956.273 0 .546.137.683-1.229 0-1.775-.273-2.594-.273l.956.137a3.328 3.328 0 0 1-1.638 0c.683.273 4.642.273 6.69.819.41 0 1.092 0 .683-.137l-.683-.137c-.546-.273 1.229 0 .41-.273a9.032 9.032 0 0 1 3.14.41l.137.273c0-.137-.819-.273-1.092-.273.546 0 1.775.683 2.458.546l-.819-.41a13.806 13.806 0 0 1 3.14.546c-.41-.41-.273-.137-.956-.546.546.546-2.731-.819-1.775-.137-.683-.546-1.365-.41-2.321-.956 0 .137.41.273-.546 0h-.273c.273.137.41.137.41.273a14.038 14.038 0 0 1-2.457-.137c-.546-.137.273-.137 0-.137h-.819c0-.273-1.5-.546-.137-.41-.41 0-.819-.137-1.229-.137a13.451 13.451 0 0 0-2.321-.273c-.546-.137-1.5.137-.956 0a9.013 9.013 0 0 0-1.911.137c-1.911 0-3.823.41-6.007.273-.683.137-1.229.273-2.321.41l-.273-.137c-.819.137-2.457.137-2.731.41a5.6 5.6 0 0 0-2.457.273c-.956.273-2.048.683-2.731.819v.273a15.183 15.183 0 0 0-2.867 1.092l.137.273c-.956.546-2.594.819-4.1 1.5 0-.137.41-.273.819-.41-2.048.273-3.55 2.184-5.325 2.594a3.422 3.422 0 0 1-.956.546l.137-.137a.134.134 0 0 0-.137.137 1.035 1.035 0 0 0-.546.273c.137 0 .41-.137.546-.137-.273.137-.683.546-1.092.819l-.41-.137-.137.137c-.546.273-.273.41.137.41-.137.137-.41.41-.41.546-.683-.137-.956.956-1.775.819 0 .273-.546.683-.956 1.092-.41.546-.819.956-.683 1.365 0 0-.137 0 0-.137-.41.41-.956.683-1.092 1.229l-.41-.137c-.137.41-.273.819-.41 1.365-.683.41-.956.683-.683-.137-.41.819-.546 1.229-.683 1.5a8.723 8.723 0 0 0-.546 1.365l-.137-.137a9.906 9.906 0 0 1-.683 1.638 7.734 7.734 0 0 0-1.638 3.686 40.72 40.72 0 0 0-.819 5.461c.683-.683-.273 1.5.41 1.638-.137.273-.137.683-.41.137q.2 1.229.41 2.048a3.031 3.031 0 0 0 .683 1.5c-.137.273-.41-.273-.41 0a1.043 1.043 0 0 1 .273.683c0 .273-.273-.137-.41-.41.683 1.638 1.365 1.638 1.911 1.5a2.024 2.024 0 0 0 1.092 1.638c0 .41.137.819-.546 0a14.422 14.422 0 0 0 1.229 1.775c.546.683 1.229 1.092 1.365.956 0 .273.683.546.819.546a4.743 4.743 0 0 0 1.229.819c.273.137.683.41 1.229.683l-.273-.273c.683-.273 1.092.41 2.048.546a6.519 6.519 0 0 0 1.638.546 5.849 5.849 0 0 1 1.638.273l-.137-.273c.273-.683 2.048.41 3.413 0a.821.821 0 0 1-.546-.137c.683-.273 2.184.546 3 .41.137 0-.273.137-.41.273 2.048-.137.137-.41 1.5-1.092.41.137-.137.683.819.41.546 0 2.457-1.911 3.686-2.321-.41 0-.683 0-.137-.41a17.4 17.4 0 0 1 1.638-.956c.546-.41 1.229-.819 1.365-1.365.137 0 .137-.137.273 0a12.012 12.012 0 0 0 1.638-2.731c.683 0 1.229-1.092 1.638-2.185.273-.546.41-1.092.546-1.365.137-.41.41-.546.546-.41a15.705 15.705 0 0 0 .819-2.321l.137.137a5.8 5.8 0 0 0 .41-2.731c.137-.273.137 0 .273 0a13.026 13.026 0 0 0 .546-2.321 12.605 12.605 0 0 0-.137-2.048l.273-.137c-.137-.546.683-3.277 0-5.461 0 0 .137 0 .137.273a10.538 10.538 0 0 1-.273-2.048c0-.683-.137-1.365-.137-2.048-.137-1.365-.41-2.458-1.092-2.731L333.3 494c.546 2.048-.546-.137-.41.683-.273-.819-.41-2.048 0-1.229v.137c.683.137-.683-2.457-.41-2.594a48.8 48.8 0 0 0-6.28-10.376v.546c-.273-.41-.546-.683-.819-1.092-.137-.273-.137-.546.546.137-.137-.546-1.229-1.092-1.229-1.092-1.229-1.5.819.273.41-.137l-.546-.546.137.137a6.538 6.538 0 0 1-1.5-1.092c-.41-.546-.137-.41-.273-.683 0 0 0-.137-.273-.273l-1.229-1.229c.137.273.273.41.273.683-.683-.41-1.229-1.092-.819-.273-.546-1.229-4.642-4.232-5.188-4.642a26.071 26.071 0 0 1-2.867-1.911c.273.273.273.546-.683-.137.683-.137-1.5-1.365-2.048-2.048.546.683-2.731-1.638-1.775-.683-.819-.546 0-.137-.546-.683-1.911-.956-4.1-2.594-6.69-3.55 0 0 .273.273-.273.137l-1.229-.819c-.546-.137-.546.137-1.365-.41.137.137.273.273 0 .137a26.256 26.256 0 0 0-7.782-2.048 23.671 23.671 0 0 0-8.192.41c.683-.137.273 0-.273.137.41-.137 0 0 .137 0a14.213 14.213 0 0 0-2.184.819 7.872 7.872 0 0 1-1.229.683c-.546.273-.956.683-1.092.683l.546-.41c-.41.273-.137.137.273-.137a4.035 4.035 0 0 0 .819-.41l.819-.41a2.572 2.572 0 0 1 1.092-.273 12.987 12.987 0 0 1 2.457-.546c.41 0-.273.137-.137.137a15.4 15.4 0 0 1 1.911-.273h-.137a13.715 13.715 0 0 1 3.413.137 26.041 26.041 0 0 1 3.55.683l-.41-1.229c.683.137.819.273 1.092.273.819 0-1.775-.41-1.092-.41.819.273 4.505 1.229 4.915 1.775.956.41-.273-.273.683.137l.273.137h.273a3.38 3.38 0 0 1 .819.546c-.137-.137-.41-.137-.546-.273.819.41 2.184.956 2.458 1.092l-.819-.41c2.594 1.092 5.461 3 7.782 4.232l-.137-.137a34.073 34.073 0 0 1 3.277 2.184h-.137c.41.137.956.546 1.5.819-.546-.273.683.819.137.41 1.911 1.229.956.546 2.321 1.092l.137.273c.546.137.546.137 1.5.819-.819-.546.41.683-.546.137 1.638 1.775 2.867 1.911 3.413 3.14 1.092.41-1.365-1.5-.819-1.229-.273-.41.956.273 1.365.819.546.546.546 1.365 1.911 2.594l-.273-.273c.41.546 1.092.819 1.5 1.638.546.137.683.819 1.092.683l-1.229-1.229c.683.683 1.775 1.092 2.594 2.457-.137 0-.546-.41-.819-.546.273.41.683.683.819 1.092-.41.137-1.365-1.5-2.321-2.185.273.546 1.5 1.365.819 1.229.956.137 1.092 1.5 2.184 2.184l-.273.137c.137.137.546.41.683.683l-.683-.41c.819.683.956 1.775 1.638 2.457-1.092-1.638 0-.546-.273-1.365 1.638 1.911.273 1.638 1.775 3.959-.137-.273-.546-1.365-.137-.819.273.546.41 1.229.546 1.5.956 1.638.137-.41.683.273 0 .683.546.819.956 1.5l-.273.137c.683 2.048.819.273 1.229 2.184l-.683-.683.41.956-.41-.137a6.723 6.723 0 0 1 .819 2.321c.137-.273.546 0 .819.956 0 .683-.41-.273 0 .956a1.032 1.032 0 0 1-.41-1.092c-.137 0-.273-.273-.273-.273 0 .683.41 1.638.41 2.184V497l.683 1.775c0 .273-.137.137-.273-.137a12.877 12.877 0 0 1 .41 1.229c-.273-.137-.546 0-.683-.819l.41 1.775c-.137.137-.273.956-.273.683a9.4 9.4 0 0 0 .273 1.775 5.171 5.171 0 0 1 0 2.048c0 .137.137.273.137.546-.137 1.229-.683 2.321-.546 3.823l-.683.683c-.137 1.092.819-.956.546.956-.273 1.365-.546.41-.819.819a4.765 4.765 0 0 1-.819 3c-.127-.27.009-.543.146-.956zm-9.147 10.1c.273-.137.546-.546.819-.546-.001.552-.41.552-.82.552zm-18.022-5.052a1.154 1.154 0 0 1 .273.819 1.941 1.941 0 0 1-.274-.812zm42.6-33.859c-.686-.13-.414-.13-.004.011zm1.365.137a1.656 1.656 0 0 0-.683-.137c.133.143.27.143.68.143zm-25.121-9.557.137.273c-.55-.403-.277-.267-.141-.267z" transform="translate(-276.644 -458.636)" style="fill:#fff"/>
                    <path data-name="Path 28615" d="M297.937 504.5c0 .137 0 .137-.137.137.137.136.137 0 .137-.137z" transform="translate(-269.266 -441.97)" style="fill:#fff"/>
                    <path data-name="Path 28616" d="M318.1 493.227z" transform="translate(-261.85 -446.125)" style="fill:#fff"/>
                    <path data-name="Path 28617" d="M314.146 481.4z" transform="translate(-263.494 -450.408)" style="fill:#fff"/>
                    <path data-name="Path 28618" d="M334.519 479.237a1.731 1.731 0 0 0-.819-.137c.41 0 .546.137.819.137z" transform="translate(-256.152 -451.248)" style="fill:#fff"/>
                    <path data-name="Path 28619" d="M339.369 481.827c.137 0 .273.137.41.137v-.137c-.547-.136-.956-.136-.41 0z" transform="translate(-254.175 -450.289)" style="fill:#fff"/>
                    <path data-name="Path 28620" d="M334.8 479.8c0 .137.546.273 1.229.41h-.137c.137-.137-.409-.273-1.092-.41z" transform="translate(-255.75 -450.993)" style="fill:#fff"/>
                    <path data-name="Path 28621" d="M335.7 480.2c.137 0 .41.137.546.137.137-.137-.136-.137-.546-.137z" transform="translate(-255.421 -450.846)" style="fill:#fff"/>
                    <path data-name="Path 28622" d="M330.458 478.547c.273.137.273-.137.41-.137.273-.136-2.048.137-.41.137z" transform="translate(-257.552 -451.514)" style="fill:#fff"/>
                    <path data-name="Path 28623" d="m335.146 480.373-.137-.273-.41.137z" transform="translate(-255.823 -450.883)" style="fill:#fff"/>
                    <path data-name="Path 28624" d="M331.6 479.4c.273.137.683.137.956.273h.273a3.158 3.158 0 0 0-1.229-.273z" transform="translate(-256.919 -451.139)" style="fill:#fff"/>
                    <path data-name="Path 28625" d="M332.5 479.6a1.731 1.731 0 0 0 .819.137c-.136-.137-.546-.137-.819-.137z" transform="translate(-256.59 -451.066)" style="fill:#fff"/>
                    <path data-name="Path 28626" d="m334.356 480.173-.273-.137-.683-.137a2.531 2.531 0 0 1 .956.274z" transform="translate(-256.261 -450.956)" style="fill:#fff"/>
                    <path data-name="Path 28627" d="M324.3 478.8a3.006 3.006 0 0 0-1.092.137c-.137.137.137.137.546.137.275-.137.684-.137.546-.274z" transform="translate(-259.997 -451.358)" style="fill:#fff"/>
                    <path data-name="Path 28628" d="M326.41 479.337c-.273 0-.273-.137-.41-.137v.273z" transform="translate(-258.965 -451.212)" style="fill:#fff"/>
                    <path data-name="Path 28629" d="M324.3 479.3c-.137.137-1.5.273-.137.273-.002-.136 1.09-.136.137-.273z" transform="translate(-259.856 -451.175)" style="fill:#fff"/>
                    <path data-name="Path 28630" d="M312.6 481.146h.273l-.136-.546z" transform="translate(-263.859 -450.7)" style="fill:#fff"/>
                    <path data-name="Path 28631" d="M304.053 486.673c1.092-.546 0-.546 1.092-.956.137-.273-.819.41-.683.137-.546.41-.819.546-.409.819z" transform="translate(-267.054 -448.855)" style="fill:#fff"/>
                    <path data-name="Path 28632" d="m304.3 485.773.273-.273z" transform="translate(-266.891 -448.91)" style="fill:#fff"/>
                    <path data-name="Path 28633" d="M278.383 459.8c-.273.137-.41.273-.683.41l.41-.273c.136 0 .136 0 .273-.137z" transform="translate(-276.608 -458.298)" style="fill:#fff"/>
                    <path data-name="Path 28634" d="m277.446 460.5-.137.137-.41.273a1.885 1.885 0 0 1 .547-.41z" transform="translate(-276.9 -458.042)" style="fill:#fff"/>
                    <path data-name="Path 28635" d="M308.4 506.8c.137.137.273.137.546 0z" transform="translate(-265.394 -441.13)" style="fill:#fff"/>
                    <path data-name="Path 28636" d="m314.337 503-.137.137h.546z" transform="translate(-263.275 -442.518)" style="fill:#fff"/>
                    <path data-name="Path 28637" d="M316.873 497.5c-.137.273-.137.683-.273 1.092.137-.819.819-1.092.273-1.092z" transform="translate(-262.398 -444.527)" style="fill:#fff"/>
                </g>
            </g>
        </g>
    </g>
</svg>
